<?xml version="1.0" encoding="UTF-8" standalone="no"?>
<!DOCTYPE svg PUBLIC "-//W3C//DTD SVG 1.1//EN"
 "http://www.w3.org/Graphics/SVG/1.1/DTD/svg11.dtd">
<!-- Generated by graphviz version 2.40.1 (20161225.0304)
 -->
<!-- Title: oneDegreeRelationshipsDiagram Pages: 1 -->
<svg width="993pt" height="323pt"
 viewBox="0.00 0.00 993.00 322.67" xmlns="http://www.w3.org/2000/svg" xmlns:xlink="http://www.w3.org/1999/xlink">
<g id="graph0" class="graph" transform="scale(1 1) rotate(0) translate(4 318.6726)">
<title>oneDegreeRelationshipsDiagram</title>
<polygon fill="#ffffff" stroke="transparent" points="-4,4 -4,-318.6726 989,-318.6726 989,4 -4,4"/>
<text text-anchor="middle" x="72.4936" y="-7.3" font-family="Helvetica,sans-Serif" font-size="11.00" fill="#000000">Generated by SchemaSpy</text>
<!-- ECS_rups -->
<g id="node1" class="node">
<title>ECS_rups</title>
<g id="a_node1"><a xlink:href="../../tables/ECS_rups.html" xlink:title="ECS_rups" target="_top">
<polygon fill="#ffffff" stroke="transparent" points="680,-66.1726 680,-288.1726 977,-288.1726 977,-66.1726 680,-66.1726"/>
<polygon fill="#f5f5f5" stroke="transparent" points="682.5,-263.1726 682.5,-286.1726 975.5,-286.1726 975.5,-263.1726 682.5,-263.1726"/>
<polygon fill="none" stroke="#000000" points="682.5,-263.1726 682.5,-286.1726 975.5,-286.1726 975.5,-263.1726 682.5,-263.1726"/>
<text text-anchor="start" x="687.5" y="-272.2726" font-family="Helvetica,sans-Serif" font-weight="bold" font-size="11.00" fill="#000000">ECS_rups</text>
<text text-anchor="start" x="940.5437" y="-271.2726" font-family="Helvetica,sans-Serif" font-size="11.00" fill="#000000">[table]</text>
<polygon fill="none" stroke="#000000" points="682.5,-241.1726 682.5,-263.1726 845.5,-263.1726 845.5,-241.1726 682.5,-241.1726"/>
<image xlink:href="../../images/primaryKeys.png" width="11px" height="12px" preserveAspectRatio="xMinYMin meet" x="687.5" y="-258.173"/>
<text text-anchor="start" x="702.5" y="-248.2726" font-family="Helvetica,sans-Serif" font-size="11.00" fill="#000000">NODE_ID</text>
<polygon fill="none" stroke="#000000" points="845.5,-241.1726 845.5,-263.1726 975.5,-263.1726 975.5,-241.1726 845.5,-241.1726"/>
<text text-anchor="start" x="848.5" y="-248.8726" font-family="Helvetica,sans-Serif" font-size="11.00" fill="#000000">integer[2000000000,10]</text>
<polygon fill="none" stroke="#000000" points="682.5,-219.1726 682.5,-241.1726 845.5,-241.1726 845.5,-219.1726 682.5,-219.1726"/>
<image xlink:href="../../images/primaryKeys.png" width="11px" height="12px" preserveAspectRatio="xMinYMin meet" x="687.5" y="-236.173"/>
<text text-anchor="start" x="702.5" y="-226.2726" font-family="Helvetica,sans-Serif" font-size="11.00" fill="#000000">EQ_ID</text>
<polygon fill="none" stroke="#000000" points="845.5,-219.1726 845.5,-241.1726 975.5,-241.1726 975.5,-219.1726 845.5,-219.1726"/>
<text text-anchor="start" x="848.5" y="-226.8726" font-family="Helvetica,sans-Serif" font-size="11.00" fill="#000000">integer[2000000000,10]</text>
<polygon fill="none" stroke="#000000" points="682.5,-197.1726 682.5,-219.1726 845.5,-219.1726 845.5,-197.1726 682.5,-197.1726"/>
<text text-anchor="start" x="702.5" y="-204.2726" font-family="Helvetica,sans-Serif" font-size="11.00" fill="#000000">u</text>
<polygon fill="none" stroke="#000000" points="845.5,-197.1726 845.5,-219.1726 975.5,-219.1726 975.5,-197.1726 845.5,-197.1726"/>
<text text-anchor="start" x="848.5" y="-204.8726" font-family="Helvetica,sans-Serif" font-size="11.00" fill="#000000">float[2000000000,10]</text>
<polygon fill="none" stroke="#000000" points="682.5,-175.1726 682.5,-197.1726 845.5,-197.1726 845.5,-175.1726 682.5,-175.1726"/>
<text text-anchor="start" x="702.5" y="-182.2726" font-family="Helvetica,sans-Serif" font-size="11.00" fill="#000000">t</text>
<polygon fill="none" stroke="#000000" points="845.5,-175.1726 845.5,-197.1726 975.5,-197.1726 975.5,-175.1726 845.5,-175.1726"/>
<text text-anchor="start" x="848.5" y="-182.8726" font-family="Helvetica,sans-Serif" font-size="11.00" fill="#000000">float[2000000000,10]</text>
<polygon fill="none" stroke="#000000" points="682.5,-153.1726 682.5,-175.1726 845.5,-175.1726 845.5,-153.1726 682.5,-153.1726"/>
<text text-anchor="start" x="702.5" y="-160.2726" font-family="Helvetica,sans-Serif" font-size="11.00" fill="#000000">row_entry_date_updated</text>
<polygon fill="none" stroke="#000000" points="845.5,-153.1726 845.5,-175.1726 975.5,-175.1726 975.5,-153.1726 845.5,-153.1726"/>
<text text-anchor="start" x="848.1372" y="-160.8726" font-family="Helvetica,sans-Serif" font-size="11.00" fill="#000000">datetime[2000000000,10]</text>
<polygon fill="none" stroke="#000000" points="682.5,-131.1726 682.5,-153.1726 845.5,-153.1726 845.5,-131.1726 682.5,-131.1726"/>
<image xlink:href="../../images/primaryKeys.png" width="11px" height="12px" preserveAspectRatio="xMinYMin meet" x="687.5" y="-148.173"/>
<text text-anchor="start" x="702.5" y="-138.2726" font-family="Helvetica,sans-Serif" font-size="11.00" fill="#000000">DS_ID</text>
<polygon fill="none" stroke="#000000" points="845.5,-131.1726 845.5,-153.1726 975.5,-153.1726 975.5,-131.1726 845.5,-131.1726"/>
<text text-anchor="start" x="848.5" y="-138.8726" font-family="Helvetica,sans-Serif" font-size="11.00" fill="#000000">integer[2000000000,10]</text>
<polygon fill="none" stroke="#000000" points="682.5,-109.1726 682.5,-131.1726 845.5,-131.1726 845.5,-109.1726 682.5,-109.1726"/>
<image xlink:href="../../images/primaryKeys.png" width="11px" height="12px" preserveAspectRatio="xMinYMin meet" x="687.5" y="-126.173"/>
<text text-anchor="start" x="702.5" y="-116.2726" font-family="Helvetica,sans-Serif" font-size="11.00" fill="#000000">RUP_ID</text>
<polygon fill="none" stroke="#000000" points="845.5,-109.1726 845.5,-131.1726 975.5,-131.1726 975.5,-109.1726 845.5,-109.1726"/>
<text text-anchor="start" x="848.5" y="-116.8726" font-family="Helvetica,sans-Serif" font-size="11.00" fill="#000000">integer[2000000000,10]</text>
<polygon fill="none" stroke="#000000" points="682.5,-87.1726 682.5,-109.1726 845.5,-109.1726 845.5,-87.1726 682.5,-87.1726"/>
<text text-anchor="start" x="702.5" y="-94.2726" font-family="Helvetica,sans-Serif" font-size="11.00" fill="#000000">row_entry_source_file</text>
<polygon fill="none" stroke="#000000" points="845.5,-87.1726 845.5,-109.1726 975.5,-109.1726 975.5,-87.1726 845.5,-87.1726"/>
<text text-anchor="start" x="848.5" y="-94.8726" font-family="Helvetica,sans-Serif" font-size="11.00" fill="#000000">text[2000000000,10]</text>
<polygon fill="#ffffff" stroke="transparent" points="682.5,-68.1726 682.5,-87.1726 755.5,-87.1726 755.5,-68.1726 682.5,-68.1726"/>
<polygon fill="none" stroke="#000000" points="682.5,-68.1726 682.5,-87.1726 755.5,-87.1726 755.5,-68.1726 682.5,-68.1726"/>
<text text-anchor="start" x="685.5" y="-74.2726" font-family="Helvetica,sans-Serif" font-size="11.00" fill="#000000">&lt; 4</text>
<polygon fill="#ffffff" stroke="transparent" points="755.5,-68.1726 755.5,-87.1726 845.5,-87.1726 845.5,-68.1726 755.5,-68.1726"/>
<polygon fill="none" stroke="#000000" points="755.5,-68.1726 755.5,-87.1726 845.5,-87.1726 845.5,-68.1726 755.5,-68.1726"/>
<text text-anchor="start" x="810.1105" y="-74.2726" font-family="Helvetica,sans-Serif" font-size="11.00" fill="#000000">0 rows</text>
<polygon fill="#ffffff" stroke="transparent" points="845.5,-68.1726 845.5,-87.1726 975.5,-87.1726 975.5,-68.1726 845.5,-68.1726"/>
<polygon fill="none" stroke="#000000" points="845.5,-68.1726 845.5,-87.1726 975.5,-87.1726 975.5,-68.1726 845.5,-68.1726"/>
<text text-anchor="start" x="956.9053" y="-74.2726" font-family="Helvetica,sans-Serif" font-size="11.00" fill="#000000">0 &gt;</text>
<polygon fill="none" stroke="#000000" stroke-width="2" points="681,-67.1726 681,-287.1726 976,-287.1726 976,-67.1726 681,-67.1726"/>
</a>
</g>
</g>
<!-- METADATA_datasets -->
<g id="node2" class="node">
<title>METADATA_datasets</title>
<g id="a_node2"><a xlink:href="../../tables/METADATA_datasets.html" xlink:title="METADATA_datasets" target="_top">
<polygon fill="#ffffff" stroke="transparent" points="26,-123.6726 26,-206.6726 189,-206.6726 189,-123.6726 26,-123.6726"/>
<polygon fill="#f5f5f5" stroke="transparent" points="26.5,-183.1726 26.5,-206.1726 189.5,-206.1726 189.5,-183.1726 26.5,-183.1726"/>
<polygon fill="none" stroke="#000000" points="26.5,-183.1726 26.5,-206.1726 189.5,-206.1726 189.5,-183.1726 26.5,-183.1726"/>
<text text-anchor="start" x="31.5" y="-192.2726" font-family="Helvetica,sans-Serif" font-weight="bold" font-size="11.00" fill="#000000">METADATA_datasets</text>
<text text-anchor="start" x="154.5437" y="-191.2726" font-family="Helvetica,sans-Serif" font-size="11.00" fill="#000000">[table]</text>
<polygon fill="none" stroke="#000000" points="26.5,-161.1726 26.5,-183.1726 189.5,-183.1726 189.5,-161.1726 26.5,-161.1726"/>
<image xlink:href="../../images/primaryKeys.png" width="11px" height="12px" preserveAspectRatio="xMinYMin meet" x="31.5" y="-178.173"/>
<text text-anchor="start" x="46.5" y="-168.2726" font-family="Helvetica,sans-Serif" font-size="11.00" fill="#000000">DS_ID</text>
<polygon fill="none" stroke="#000000" points="26.5,-142.1726 26.5,-161.1726 189.5,-161.1726 189.5,-142.1726 26.5,-142.1726"/>
<text text-anchor="start" x="29.5" y="-148.2726" font-family="Helvetica,sans-Serif" font-size="11.00" fill="#000000">...</text>
<polygon fill="#ffffff" stroke="transparent" points="26.5,-123.1726 26.5,-142.1726 81.5,-142.1726 81.5,-123.1726 26.5,-123.1726"/>
<polygon fill="none" stroke="#000000" points="26.5,-123.1726 26.5,-142.1726 81.5,-142.1726 81.5,-123.1726 26.5,-123.1726"/>
<text text-anchor="start" x="29.5" y="-129.2726" font-family="Helvetica,sans-Serif" font-size="11.00" fill="#000000"> &#160;</text>
<polygon fill="#ffffff" stroke="transparent" points="81.5,-123.1726 81.5,-142.1726 140.5,-142.1726 140.5,-123.1726 81.5,-123.1726"/>
<polygon fill="none" stroke="#000000" points="81.5,-123.1726 81.5,-142.1726 140.5,-142.1726 140.5,-123.1726 81.5,-123.1726"/>
<text text-anchor="start" x="105.1105" y="-129.2726" font-family="Helvetica,sans-Serif" font-size="11.00" fill="#000000">0 rows</text>
<polygon fill="#ffffff" stroke="transparent" points="140.5,-123.1726 140.5,-142.1726 189.5,-142.1726 189.5,-123.1726 140.5,-123.1726"/>
<polygon fill="none" stroke="#000000" points="140.5,-123.1726 140.5,-142.1726 189.5,-142.1726 189.5,-123.1726 140.5,-123.1726"/>
<text text-anchor="start" x="164.7904" y="-129.2726" font-family="Helvetica,sans-Serif" font-size="11.00" fill="#000000">35 &gt;</text>
</a>
</g>
</g>
<!-- ECS_rups&#45;&gt;METADATA_datasets -->
<g id="edge1" class="edge">
<title>ECS_rups:w&#45;&gt;METADATA_datasets:e</title>
<path fill="none" stroke="#000000" d="M668.1518,-139.1664C658.5349,-134.4667 653.6755,-125.3796 639,-120.1726 474.0959,-61.6633 400.1671,12.2096 248,-74.1726 203.8868,-99.2147 240.2256,-172.1726 189.5,-172.1726"/>
<polygon fill="#000000" stroke="#000000" points="674.67,-140.532 681.7618,-145.6961 678.585,-141.3523 682.5,-142.1726 682.5,-142.1726 682.5,-142.1726 678.585,-141.3523 683.2382,-138.6491 674.67,-140.532 674.67,-140.532"/>
<ellipse fill="none" stroke="#000000" cx="671.538" cy="-139.8758" rx="3.2" ry="3.2"/>
</g>
<!-- METADATA_events -->
<g id="node3" class="node">
<title>METADATA_events</title>
<g id="a_node3"><a xlink:href="../../tables/METADATA_events.html" xlink:title="METADATA_events" target="_top">
<polygon fill="#ffffff" stroke="transparent" points="8,-227.6726 8,-310.6726 207,-310.6726 207,-227.6726 8,-227.6726"/>
<polygon fill="#f5f5f5" stroke="transparent" points="8.5,-287.1726 8.5,-310.1726 207.5,-310.1726 207.5,-287.1726 8.5,-287.1726"/>
<polygon fill="none" stroke="#000000" points="8.5,-287.1726 8.5,-310.1726 207.5,-310.1726 207.5,-287.1726 8.5,-287.1726"/>
<text text-anchor="start" x="13.5" y="-296.2726" font-family="Helvetica,sans-Serif" font-weight="bold" font-size="11.00" fill="#000000">METADATA_events</text>
<text text-anchor="start" x="172.5437" y="-295.2726" font-family="Helvetica,sans-Serif" font-size="11.00" fill="#000000">[table]</text>
<polygon fill="none" stroke="#000000" points="8.5,-265.1726 8.5,-287.1726 207.5,-287.1726 207.5,-265.1726 8.5,-265.1726"/>
<image xlink:href="../../images/primaryKeys.png" width="11px" height="12px" preserveAspectRatio="xMinYMin meet" x="13.5" y="-282.173"/>
<text text-anchor="start" x="28.5" y="-272.2726" font-family="Helvetica,sans-Serif" font-size="11.00" fill="#000000">EQ_ID</text>
<polygon fill="none" stroke="#000000" points="8.5,-246.1726 8.5,-265.1726 207.5,-265.1726 207.5,-246.1726 8.5,-246.1726"/>
<text text-anchor="start" x="11.5" y="-252.2726" font-family="Helvetica,sans-Serif" font-size="11.00" fill="#000000">...</text>
<polygon fill="#ffffff" stroke="transparent" points="8.5,-227.1726 8.5,-246.1726 81.5,-246.1726 81.5,-227.1726 8.5,-227.1726"/>
<polygon fill="none" stroke="#000000" points="8.5,-227.1726 8.5,-246.1726 81.5,-246.1726 81.5,-227.1726 8.5,-227.1726"/>
<text text-anchor="start" x="11.5" y="-233.2726" font-family="Helvetica,sans-Serif" font-size="11.00" fill="#000000"> &#160;</text>
<polygon fill="#ffffff" stroke="transparent" points="81.5,-227.1726 81.5,-246.1726 149.5,-246.1726 149.5,-227.1726 81.5,-227.1726"/>
<polygon fill="none" stroke="#000000" points="81.5,-227.1726 81.5,-246.1726 149.5,-246.1726 149.5,-227.1726 81.5,-227.1726"/>
<text text-anchor="start" x="114.1105" y="-233.2726" font-family="Helvetica,sans-Serif" font-size="11.00" fill="#000000">0 rows</text>
<polygon fill="#ffffff" stroke="transparent" points="149.5,-227.1726 149.5,-246.1726 207.5,-246.1726 207.5,-227.1726 149.5,-227.1726"/>
<polygon fill="none" stroke="#000000" points="149.5,-227.1726 149.5,-246.1726 207.5,-246.1726 207.5,-227.1726 149.5,-227.1726"/>
<text text-anchor="start" x="182.7904" y="-233.2726" font-family="Helvetica,sans-Serif" font-size="11.00" fill="#000000">34 &gt;</text>
</a>
</g>
</g>
<!-- ECS_rups&#45;&gt;METADATA_events -->
<g id="edge2" class="edge">
<title>ECS_rups:w&#45;&gt;METADATA_events:e</title>
<path fill="none" stroke="#000000" d="M668.3701,-234.4166C652.644,-247.3335 665.7383,-286.1968 639,-301.1726 587.1417,-330.2177 216.3221,-276.1726 207.5,-276.1726"/>
<polygon fill="#000000" stroke="#000000" points="674.8381,-232.4739 683.5356,-233.6204 678.6691,-231.3232 682.5,-230.1726 682.5,-230.1726 682.5,-230.1726 678.6691,-231.3232 681.4644,-226.7247 674.8381,-232.4739 674.8381,-232.4739"/>
<ellipse fill="none" stroke="#000000" cx="671.7734" cy="-233.3945" rx="3.2" ry="3.2"/>
</g>
<!-- RUPOBS_location -->
<g id="node4" class="node">
<title>RUPOBS_location</title>
<g id="a_node4"><a xlink:href="../../tables/RUPOBS_location.html" xlink:title="RUPOBS_location" target="_top">
<polygon fill="#ffffff" stroke="transparent" points="468,-141.6726 468,-290.6726 631,-290.6726 631,-141.6726 468,-141.6726"/>
<polygon fill="#f5f5f5" stroke="transparent" points="468.5,-267.1726 468.5,-290.1726 631.5,-290.1726 631.5,-267.1726 468.5,-267.1726"/>
<polygon fill="none" stroke="#000000" points="468.5,-267.1726 468.5,-290.1726 631.5,-290.1726 631.5,-267.1726 468.5,-267.1726"/>
<text text-anchor="start" x="473.5" y="-276.2726" font-family="Helvetica,sans-Serif" font-weight="bold" font-size="11.00" fill="#000000">RUPOBS_location</text>
<text text-anchor="start" x="596.5437" y="-275.2726" font-family="Helvetica,sans-Serif" font-size="11.00" fill="#000000">[table]</text>
<polygon fill="none" stroke="#000000" points="468.5,-245.1726 468.5,-267.1726 631.5,-267.1726 631.5,-245.1726 468.5,-245.1726"/>
<image xlink:href="../../images/primaryKeys.png" width="11px" height="12px" preserveAspectRatio="xMinYMin meet" x="473.5" y="-262.173"/>
<text text-anchor="start" x="488.5" y="-252.2726" font-family="Helvetica,sans-Serif" font-size="11.00" fill="#000000">NODE_ID</text>
<polygon fill="none" stroke="#000000" points="468.5,-223.1726 468.5,-245.1726 631.5,-245.1726 631.5,-223.1726 468.5,-223.1726"/>
<image xlink:href="../../images/primaryKeys.png" width="11px" height="12px" preserveAspectRatio="xMinYMin meet" x="473.5" y="-240.173"/>
<text text-anchor="start" x="488.5" y="-230.2726" font-family="Helvetica,sans-Serif" font-size="11.00" fill="#000000">EQ_ID</text>
<polygon fill="none" stroke="#000000" points="468.5,-201.1726 468.5,-223.1726 631.5,-223.1726 631.5,-201.1726 468.5,-201.1726"/>
<image xlink:href="../../images/primaryKeys.png" width="11px" height="12px" preserveAspectRatio="xMinYMin meet" x="473.5" y="-218.173"/>
<text text-anchor="start" x="488.5" y="-208.2726" font-family="Helvetica,sans-Serif" font-size="11.00" fill="#000000">DS_ID</text>
<polygon fill="none" stroke="#000000" points="468.5,-179.1726 468.5,-201.1726 631.5,-201.1726 631.5,-179.1726 468.5,-179.1726"/>
<image xlink:href="../../images/primaryKeys.png" width="11px" height="12px" preserveAspectRatio="xMinYMin meet" x="473.5" y="-196.173"/>
<text text-anchor="start" x="488.5" y="-186.2726" font-family="Helvetica,sans-Serif" font-size="11.00" fill="#000000">RUP_ID</text>
<polygon fill="none" stroke="#000000" points="468.5,-160.1726 468.5,-179.1726 631.5,-179.1726 631.5,-160.1726 468.5,-160.1726"/>
<text text-anchor="start" x="471.5" y="-166.2726" font-family="Helvetica,sans-Serif" font-size="11.00" fill="#000000">...</text>
<polygon fill="#ffffff" stroke="transparent" points="468.5,-141.1726 468.5,-160.1726 530.5,-160.1726 530.5,-141.1726 468.5,-141.1726"/>
<polygon fill="none" stroke="#000000" points="468.5,-141.1726 468.5,-160.1726 530.5,-160.1726 530.5,-141.1726 468.5,-141.1726"/>
<text text-anchor="start" x="471.5" y="-147.2726" font-family="Helvetica,sans-Serif" font-size="11.00" fill="#000000">&lt; 3</text>
<polygon fill="#ffffff" stroke="transparent" points="530.5,-141.1726 530.5,-160.1726 589.5,-160.1726 589.5,-141.1726 530.5,-141.1726"/>
<polygon fill="none" stroke="#000000" points="530.5,-141.1726 530.5,-160.1726 589.5,-160.1726 589.5,-141.1726 530.5,-141.1726"/>
<text text-anchor="start" x="554.1105" y="-147.2726" font-family="Helvetica,sans-Serif" font-size="11.00" fill="#000000">0 rows</text>
<polygon fill="#ffffff" stroke="transparent" points="589.5,-141.1726 589.5,-160.1726 631.5,-160.1726 631.5,-141.1726 589.5,-141.1726"/>
<polygon fill="none" stroke="#000000" points="589.5,-141.1726 589.5,-160.1726 631.5,-160.1726 631.5,-141.1726 589.5,-141.1726"/>
<text text-anchor="start" x="612.9053" y="-147.2726" font-family="Helvetica,sans-Serif" font-size="11.00" fill="#000000">2 &gt;</text>
</a>
</g>
</g>
<!-- ECS_rups&#45;&gt;RUPOBS_location -->
<g id="edge3" class="edge">
<title>ECS_rups:w&#45;&gt;RUPOBS_location:e</title>
<path fill="none" stroke="#000000" d="M667.7566,-252.8331C655.7698,-253.9692 648.3746,-256.1726 631.5,-256.1726"/>
<polygon fill="#000000" stroke="#000000" points="674.508,-252.5307 682.6611,-255.769 678.504,-252.3516 682.5,-252.1726 682.5,-252.1726 682.5,-252.1726 678.504,-252.3516 682.3389,-248.5762 674.508,-252.5307 674.508,-252.5307"/>
<ellipse fill="none" stroke="#000000" cx="671.3112" cy="-252.6739" rx="3.2" ry="3.2"/>
</g>
<!-- RUPOBS_id -->
<g id="node5" class="node">
<title>RUPOBS_id</title>
<g id="a_node5"><a xlink:href="../../tables/RUPOBS_id.html" xlink:title="RUPOBS_id" target="_top">
<polygon fill="#ffffff" stroke="transparent" points="256,-84.6726 256,-211.6726 419,-211.6726 419,-84.6726 256,-84.6726"/>
<polygon fill="#f5f5f5" stroke="transparent" points="256.5,-188.1726 256.5,-211.1726 419.5,-211.1726 419.5,-188.1726 256.5,-188.1726"/>
<polygon fill="none" stroke="#000000" points="256.5,-188.1726 256.5,-211.1726 419.5,-211.1726 419.5,-188.1726 256.5,-188.1726"/>
<text text-anchor="start" x="261.5" y="-197.2726" font-family="Helvetica,sans-Serif" font-weight="bold" font-size="11.00" fill="#000000">RUPOBS_id</text>
<text text-anchor="start" x="384.5437" y="-196.2726" font-family="Helvetica,sans-Serif" font-size="11.00" fill="#000000">[table]</text>
<polygon fill="none" stroke="#000000" points="256.5,-166.1726 256.5,-188.1726 419.5,-188.1726 419.5,-166.1726 256.5,-166.1726"/>
<image xlink:href="../../images/primaryKeys.png" width="11px" height="12px" preserveAspectRatio="xMinYMin meet" x="261.5" y="-183.173"/>
<text text-anchor="start" x="276.5" y="-173.2726" font-family="Helvetica,sans-Serif" font-size="11.00" fill="#000000">DS_ID</text>
<polygon fill="none" stroke="#000000" points="256.5,-144.1726 256.5,-166.1726 419.5,-166.1726 419.5,-144.1726 256.5,-144.1726"/>
<image xlink:href="../../images/primaryKeys.png" width="11px" height="12px" preserveAspectRatio="xMinYMin meet" x="261.5" y="-161.173"/>
<text text-anchor="start" x="276.5" y="-151.2726" font-family="Helvetica,sans-Serif" font-size="11.00" fill="#000000">EQ_ID</text>
<polygon fill="none" stroke="#000000" points="256.5,-122.1726 256.5,-144.1726 419.5,-144.1726 419.5,-122.1726 256.5,-122.1726"/>
<image xlink:href="../../images/primaryKeys.png" width="11px" height="12px" preserveAspectRatio="xMinYMin meet" x="261.5" y="-139.173"/>
<text text-anchor="start" x="276.5" y="-129.2726" font-family="Helvetica,sans-Serif" font-size="11.00" fill="#000000">RUP_ID</text>
<polygon fill="none" stroke="#000000" points="256.5,-103.1726 256.5,-122.1726 419.5,-122.1726 419.5,-103.1726 256.5,-103.1726"/>
<text text-anchor="start" x="259.5" y="-109.2726" font-family="Helvetica,sans-Serif" font-size="11.00" fill="#000000">...</text>
<polygon fill="#ffffff" stroke="transparent" points="256.5,-84.1726 256.5,-103.1726 315.5,-103.1726 315.5,-84.1726 256.5,-84.1726"/>
<polygon fill="none" stroke="#000000" points="256.5,-84.1726 256.5,-103.1726 315.5,-103.1726 315.5,-84.1726 256.5,-84.1726"/>
<text text-anchor="start" x="259.5" y="-90.2726" font-family="Helvetica,sans-Serif" font-size="11.00" fill="#000000">&lt; 2</text>
<polygon fill="#ffffff" stroke="transparent" points="315.5,-84.1726 315.5,-103.1726 372.5,-103.1726 372.5,-84.1726 315.5,-84.1726"/>
<polygon fill="none" stroke="#000000" points="315.5,-84.1726 315.5,-103.1726 372.5,-103.1726 372.5,-84.1726 315.5,-84.1726"/>
<text text-anchor="start" x="337.1105" y="-90.2726" font-family="Helvetica,sans-Serif" font-size="11.00" fill="#000000">0 rows</text>
<polygon fill="#ffffff" stroke="transparent" points="372.5,-84.1726 372.5,-103.1726 419.5,-103.1726 419.5,-84.1726 372.5,-84.1726"/>
<polygon fill="none" stroke="#000000" points="372.5,-84.1726 372.5,-103.1726 419.5,-103.1726 419.5,-84.1726 372.5,-84.1726"/>
<text text-anchor="start" x="394.7904" y="-90.2726" font-family="Helvetica,sans-Serif" font-size="11.00" fill="#000000">10 &gt;</text>
</a>
</g>
</g>
<!-- ECS_rups&#45;&gt;RUPOBS_id -->
<g id="edge4" class="edge">
<title>ECS_rups:w&#45;&gt;RUPOBS_id:e</title>
<path fill="none" stroke="#000000" d="M667.9254,-120.89C612.7382,-123.6153 419.696,-133.1726 419.5,-133.1726"/>
<polygon fill="#000000" stroke="#000000" points="674.5097,-120.566 682.677,-123.7682 678.5048,-120.3693 682.5,-120.1726 682.5,-120.1726 682.5,-120.1726 678.5048,-120.3693 682.323,-116.5769 674.5097,-120.566 674.5097,-120.566"/>
<ellipse fill="none" stroke="#000000" cx="671.3135" cy="-120.7233" rx="3.2" ry="3.2"/>
</g>
<!-- RUPOBS_location&#45;&gt;METADATA_datasets -->
<g id="edge7" class="edge">
<title>RUPOBS_location:w&#45;&gt;METADATA_datasets:e</title>
<path fill="none" stroke="#000000" d="M453.9731,-214.1251C445.6106,-216.5784 439.8053,-220.6515 427,-222.1726 347.9998,-231.5564 322.6334,-249.7215 248,-222.1726 215.9134,-210.3287 223.7027,-172.1726 189.5,-172.1726"/>
<polygon fill="#000000" stroke="#000000" points="460.5713,-213.2383 468.9796,-215.7405 464.5356,-212.7054 468.5,-212.1726 468.5,-212.1726 468.5,-212.1726 464.5356,-212.7054 468.0204,-208.6047 460.5713,-213.2383 460.5713,-213.2383"/>
<ellipse fill="none" stroke="#000000" cx="457.3998" cy="-213.6646" rx="3.2" ry="3.2"/>
</g>
<!-- RUPOBS_location&#45;&gt;METADATA_events -->
<g id="edge8" class="edge">
<title>RUPOBS_location:w&#45;&gt;METADATA_events:e</title>
<path fill="none" stroke="#000000" d="M453.8426,-235.4756C398.3871,-242.5647 233.7751,-276.1726 207.5,-276.1726"/>
<polygon fill="#000000" stroke="#000000" points="460.5314,-234.881 468.8188,-237.7584 464.5157,-234.5268 468.5,-234.1726 468.5,-234.1726 468.5,-234.1726 464.5157,-234.5268 468.1812,-230.5867 460.5314,-234.881 460.5314,-234.881"/>
<ellipse fill="none" stroke="#000000" cx="457.344" cy="-235.1644" rx="3.2" ry="3.2"/>
</g>
<!-- RUPOBS_location&#45;&gt;RUPOBS_id -->
<g id="edge9" class="edge">
<title>RUPOBS_location:w&#45;&gt;RUPOBS_id:e</title>
<path fill="none" stroke="#000000" d="M454.8585,-185.3128C439.841,-171.5286 446.9044,-133.1726 419.5,-133.1726"/>
<polygon fill="#000000" stroke="#000000" points="460.9639,-187.4878 467.2919,-193.5638 464.732,-188.8302 468.5,-190.1726 468.5,-190.1726 468.5,-190.1726 464.732,-188.8302 469.7081,-186.7813 460.9639,-187.4878 460.9639,-187.4878"/>
<ellipse fill="none" stroke="#000000" cx="457.9495" cy="-186.4139" rx="3.2" ry="3.2"/>
</g>
<!-- RUPOBS_id&#45;&gt;METADATA_datasets -->
<g id="edge5" class="edge">
<title>RUPOBS_id:w&#45;&gt;METADATA_datasets:e</title>
<path fill="none" stroke="#000000" d="M242.0573,-176.7288C223.2056,-175.5052 213.8784,-172.1726 189.5,-172.1726"/>
<polygon fill="#000000" stroke="#000000" points="248.5038,-176.9268 256.3894,-180.7709 252.5019,-177.0497 256.5,-177.1726 256.5,-177.1726 256.5,-177.1726 252.5019,-177.0497 256.6106,-173.5743 248.5038,-176.9268 248.5038,-176.9268"/>
<ellipse fill="none" stroke="#000000" cx="245.3053" cy="-176.8286" rx="3.2" ry="3.2"/>
</g>
<!-- RUPOBS_id&#45;&gt;METADATA_events -->
<g id="edge6" class="edge">
<title>RUPOBS_id:w&#45;&gt;METADATA_events:e</title>
<path fill="none" stroke="#000000" d="M242.43,-158.6634C210.8075,-178.5026 259.6273,-276.1726 207.5,-276.1726"/>
<polygon fill="#000000" stroke="#000000" points="248.7354,-157.099 257.3669,-158.6666 252.6177,-156.1358 256.5,-155.1726 256.5,-155.1726 256.5,-155.1726 252.6177,-156.1358 255.6331,-151.6785 248.7354,-157.099 248.7354,-157.099"/>
<ellipse fill="none" stroke="#000000" cx="245.6296" cy="-157.8696" rx="3.2" ry="3.2"/>
</g>
</g>
</svg>
