<?xml version="1.0" encoding="UTF-8" standalone="no"?>
<!DOCTYPE svg PUBLIC "-//W3C//DTD SVG 1.1//EN"
 "http://www.w3.org/Graphics/SVG/1.1/DTD/svg11.dtd">
<!-- Generated by graphviz version 2.40.1 (20161225.0304)
 -->
<!-- Title: oneDegreeRelationshipsDiagram Pages: 1 -->
<svg width="569pt" height="316pt"
 viewBox="0.00 0.00 569.00 316.20" xmlns="http://www.w3.org/2000/svg" xmlns:xlink="http://www.w3.org/1999/xlink">
<g id="graph0" class="graph" transform="scale(1 1) rotate(0) translate(4 312.2)">
<title>oneDegreeRelationshipsDiagram</title>
<polygon fill="#ffffff" stroke="transparent" points="-4,4 -4,-312.2 565,-312.2 565,4 -4,4"/>
<text text-anchor="middle" x="72.4936" y="-7.3" font-family="Helvetica,sans-Serif" font-size="11.00" fill="#000000">Generated by SchemaSpy</text>
<!-- ECS_linepath -->
<g id="node1" class="node">
<title>ECS_linepath</title>
<g id="a_node1"><a xlink:href="../../tables/ECS_linepath.html" xlink:title="ECS_linepath" target="_top">
<polygon fill="#ffffff" stroke="transparent" points="256,-38.2 256,-304.2 553,-304.2 553,-38.2 256,-38.2"/>
<polygon fill="#f5f5f5" stroke="transparent" points="258.5,-279.2 258.5,-302.2 551.5,-302.2 551.5,-279.2 258.5,-279.2"/>
<polygon fill="none" stroke="#000000" points="258.5,-279.2 258.5,-302.2 551.5,-302.2 551.5,-279.2 258.5,-279.2"/>
<text text-anchor="start" x="263.5" y="-288.3" font-family="Helvetica,sans-Serif" font-weight="bold" font-size="11.00" fill="#000000">ECS_linepath</text>
<text text-anchor="start" x="516.5437" y="-287.3" font-family="Helvetica,sans-Serif" font-size="11.00" fill="#000000">[table]</text>
<polygon fill="none" stroke="#000000" points="258.5,-257.2 258.5,-279.2 421.5,-279.2 421.5,-257.2 258.5,-257.2"/>
<text text-anchor="start" x="278.5" y="-264.3" font-family="Helvetica,sans-Serif" font-size="11.00" fill="#000000">latitude_degrees</text>
<polygon fill="none" stroke="#000000" points="421.5,-257.2 421.5,-279.2 551.5,-279.2 551.5,-257.2 421.5,-257.2"/>
<text text-anchor="start" x="424.5" y="-264.9" font-family="Helvetica,sans-Serif" font-size="11.00" fill="#000000">float[2000000000,10]</text>
<polygon fill="none" stroke="#000000" points="258.5,-235.2 258.5,-257.2 421.5,-257.2 421.5,-235.2 258.5,-235.2"/>
<image xlink:href="../../images/primaryKeys.png" width="11px" height="12px" preserveAspectRatio="xMinYMin meet" x="263.5" y="-252.2"/>
<text text-anchor="start" x="278.5" y="-242.3" font-family="Helvetica,sans-Serif" font-size="11.00" fill="#000000">NODE_ID</text>
<polygon fill="none" stroke="#000000" points="421.5,-235.2 421.5,-257.2 551.5,-257.2 551.5,-235.2 421.5,-235.2"/>
<text text-anchor="start" x="424.5" y="-242.9" font-family="Helvetica,sans-Serif" font-size="11.00" fill="#000000">integer[2000000000,10]</text>
<polygon fill="none" stroke="#000000" points="258.5,-213.2 258.5,-235.2 421.5,-235.2 421.5,-213.2 258.5,-213.2"/>
<image xlink:href="../../images/primaryKeys.png" width="11px" height="12px" preserveAspectRatio="xMinYMin meet" x="263.5" y="-230.2"/>
<text text-anchor="start" x="278.5" y="-220.3" font-family="Helvetica,sans-Serif" font-size="11.00" fill="#000000">EQ_ID</text>
<polygon fill="none" stroke="#000000" points="421.5,-213.2 421.5,-235.2 551.5,-235.2 551.5,-213.2 421.5,-213.2"/>
<text text-anchor="start" x="424.5" y="-220.9" font-family="Helvetica,sans-Serif" font-size="11.00" fill="#000000">integer[2000000000,10]</text>
<polygon fill="none" stroke="#000000" points="258.5,-191.2 258.5,-213.2 421.5,-213.2 421.5,-191.2 258.5,-191.2"/>
<text text-anchor="start" x="278.5" y="-198.3" font-family="Helvetica,sans-Serif" font-size="11.00" fill="#000000">u</text>
<polygon fill="none" stroke="#000000" points="421.5,-191.2 421.5,-213.2 551.5,-213.2 551.5,-191.2 421.5,-191.2"/>
<text text-anchor="start" x="424.5" y="-198.9" font-family="Helvetica,sans-Serif" font-size="11.00" fill="#000000">float[2000000000,10]</text>
<polygon fill="none" stroke="#000000" points="258.5,-169.2 258.5,-191.2 421.5,-191.2 421.5,-169.2 258.5,-169.2"/>
<text text-anchor="start" x="278.5" y="-176.3" font-family="Helvetica,sans-Serif" font-size="11.00" fill="#000000">t</text>
<polygon fill="none" stroke="#000000" points="421.5,-169.2 421.5,-191.2 551.5,-191.2 551.5,-169.2 421.5,-169.2"/>
<text text-anchor="start" x="424.5" y="-176.9" font-family="Helvetica,sans-Serif" font-size="11.00" fill="#000000">float[2000000000,10]</text>
<polygon fill="none" stroke="#000000" points="258.5,-147.2 258.5,-169.2 421.5,-169.2 421.5,-147.2 258.5,-147.2"/>
<text text-anchor="start" x="278.5" y="-154.3" font-family="Helvetica,sans-Serif" font-size="11.00" fill="#000000">row_entry_date_updated</text>
<polygon fill="none" stroke="#000000" points="421.5,-147.2 421.5,-169.2 551.5,-169.2 551.5,-147.2 421.5,-147.2"/>
<text text-anchor="start" x="424.1372" y="-154.9" font-family="Helvetica,sans-Serif" font-size="11.00" fill="#000000">datetime[2000000000,10]</text>
<polygon fill="none" stroke="#000000" points="258.5,-125.2 258.5,-147.2 421.5,-147.2 421.5,-125.2 258.5,-125.2"/>
<text text-anchor="start" x="278.5" y="-132.3" font-family="Helvetica,sans-Serif" font-size="11.00" fill="#000000">longitude_degrees</text>
<polygon fill="none" stroke="#000000" points="421.5,-125.2 421.5,-147.2 551.5,-147.2 551.5,-125.2 421.5,-125.2"/>
<text text-anchor="start" x="424.5" y="-132.9" font-family="Helvetica,sans-Serif" font-size="11.00" fill="#000000">float[2000000000,10]</text>
<polygon fill="none" stroke="#000000" points="258.5,-103.2 258.5,-125.2 421.5,-125.2 421.5,-103.2 258.5,-103.2"/>
<text text-anchor="start" x="278.5" y="-110.3" font-family="Helvetica,sans-Serif" font-size="11.00" fill="#000000">utm_x</text>
<polygon fill="none" stroke="#000000" points="421.5,-103.2 421.5,-125.2 551.5,-125.2 551.5,-103.2 421.5,-103.2"/>
<text text-anchor="start" x="424.5" y="-110.9" font-family="Helvetica,sans-Serif" font-size="11.00" fill="#000000">float[2000000000,10]</text>
<polygon fill="none" stroke="#000000" points="258.5,-81.2 258.5,-103.2 421.5,-103.2 421.5,-81.2 258.5,-81.2"/>
<text text-anchor="start" x="278.5" y="-88.3" font-family="Helvetica,sans-Serif" font-size="11.00" fill="#000000">utm_y</text>
<polygon fill="none" stroke="#000000" points="421.5,-81.2 421.5,-103.2 551.5,-103.2 551.5,-81.2 421.5,-81.2"/>
<text text-anchor="start" x="424.5" y="-88.9" font-family="Helvetica,sans-Serif" font-size="11.00" fill="#000000">float[2000000000,10]</text>
<polygon fill="none" stroke="#000000" points="258.5,-59.2 258.5,-81.2 421.5,-81.2 421.5,-59.2 258.5,-59.2"/>
<text text-anchor="start" x="278.5" y="-66.3" font-family="Helvetica,sans-Serif" font-size="11.00" fill="#000000">row_entry_source_file</text>
<polygon fill="none" stroke="#000000" points="421.5,-59.2 421.5,-81.2 551.5,-81.2 551.5,-59.2 421.5,-59.2"/>
<text text-anchor="start" x="424.5" y="-66.9" font-family="Helvetica,sans-Serif" font-size="11.00" fill="#000000">text[2000000000,10]</text>
<polygon fill="#ffffff" stroke="transparent" points="258.5,-40.2 258.5,-59.2 331.5,-59.2 331.5,-40.2 258.5,-40.2"/>
<polygon fill="none" stroke="#000000" points="258.5,-40.2 258.5,-59.2 331.5,-59.2 331.5,-40.2 258.5,-40.2"/>
<text text-anchor="start" x="261.5" y="-46.3" font-family="Helvetica,sans-Serif" font-size="11.00" fill="#000000">&lt; 1</text>
<polygon fill="#ffffff" stroke="transparent" points="331.5,-40.2 331.5,-59.2 421.5,-59.2 421.5,-40.2 331.5,-40.2"/>
<polygon fill="none" stroke="#000000" points="331.5,-40.2 331.5,-59.2 421.5,-59.2 421.5,-40.2 331.5,-40.2"/>
<text text-anchor="start" x="386.1105" y="-46.3" font-family="Helvetica,sans-Serif" font-size="11.00" fill="#000000">0 rows</text>
<polygon fill="#ffffff" stroke="transparent" points="421.5,-40.2 421.5,-59.2 551.5,-59.2 551.5,-40.2 421.5,-40.2"/>
<polygon fill="none" stroke="#000000" points="421.5,-40.2 421.5,-59.2 551.5,-59.2 551.5,-40.2 421.5,-40.2"/>
<text text-anchor="start" x="532.9053" y="-46.3" font-family="Helvetica,sans-Serif" font-size="11.00" fill="#000000">0 &gt;</text>
<polygon fill="none" stroke="#000000" stroke-width="2" points="257,-39.2 257,-303.2 552,-303.2 552,-39.2 257,-39.2"/>
</a>
</g>
</g>
<!-- METADATA_events -->
<g id="node2" class="node">
<title>METADATA_events</title>
<g id="a_node2"><a xlink:href="../../tables/METADATA_events.html" xlink:title="METADATA_events" target="_top">
<polygon fill="#ffffff" stroke="transparent" points="8,-175.7 8,-258.7 207,-258.7 207,-175.7 8,-175.7"/>
<polygon fill="#f5f5f5" stroke="transparent" points="8.5,-235.2 8.5,-258.2 207.5,-258.2 207.5,-235.2 8.5,-235.2"/>
<polygon fill="none" stroke="#000000" points="8.5,-235.2 8.5,-258.2 207.5,-258.2 207.5,-235.2 8.5,-235.2"/>
<text text-anchor="start" x="13.5" y="-244.3" font-family="Helvetica,sans-Serif" font-weight="bold" font-size="11.00" fill="#000000">METADATA_events</text>
<text text-anchor="start" x="172.5437" y="-243.3" font-family="Helvetica,sans-Serif" font-size="11.00" fill="#000000">[table]</text>
<polygon fill="none" stroke="#000000" points="8.5,-213.2 8.5,-235.2 207.5,-235.2 207.5,-213.2 8.5,-213.2"/>
<image xlink:href="../../images/primaryKeys.png" width="11px" height="12px" preserveAspectRatio="xMinYMin meet" x="13.5" y="-230.2"/>
<text text-anchor="start" x="28.5" y="-220.3" font-family="Helvetica,sans-Serif" font-size="11.00" fill="#000000">EQ_ID</text>
<polygon fill="none" stroke="#000000" points="8.5,-194.2 8.5,-213.2 207.5,-213.2 207.5,-194.2 8.5,-194.2"/>
<text text-anchor="start" x="11.5" y="-200.3" font-family="Helvetica,sans-Serif" font-size="11.00" fill="#000000">...</text>
<polygon fill="#ffffff" stroke="transparent" points="8.5,-175.2 8.5,-194.2 81.5,-194.2 81.5,-175.2 8.5,-175.2"/>
<polygon fill="none" stroke="#000000" points="8.5,-175.2 8.5,-194.2 81.5,-194.2 81.5,-175.2 8.5,-175.2"/>
<text text-anchor="start" x="11.5" y="-181.3" font-family="Helvetica,sans-Serif" font-size="11.00" fill="#000000"> &#160;</text>
<polygon fill="#ffffff" stroke="transparent" points="81.5,-175.2 81.5,-194.2 149.5,-194.2 149.5,-175.2 81.5,-175.2"/>
<polygon fill="none" stroke="#000000" points="81.5,-175.2 81.5,-194.2 149.5,-194.2 149.5,-175.2 81.5,-175.2"/>
<text text-anchor="start" x="114.1105" y="-181.3" font-family="Helvetica,sans-Serif" font-size="11.00" fill="#000000">0 rows</text>
<polygon fill="#ffffff" stroke="transparent" points="149.5,-175.2 149.5,-194.2 207.5,-194.2 207.5,-175.2 149.5,-175.2"/>
<polygon fill="none" stroke="#000000" points="149.5,-175.2 149.5,-194.2 207.5,-194.2 207.5,-175.2 149.5,-175.2"/>
<text text-anchor="start" x="182.7904" y="-181.3" font-family="Helvetica,sans-Serif" font-size="11.00" fill="#000000">34 &gt;</text>
</a>
</g>
</g>
<!-- ECS_linepath&#45;&gt;METADATA_events -->
<g id="edge1" class="edge">
<title>ECS_linepath:w&#45;&gt;METADATA_events:e</title>
<path fill="none" stroke="#000000" d="M243.776,-224.2C231.7815,-224.2 224.3229,-224.2 207.5,-224.2"/>
<polygon fill="#000000" stroke="#000000" points="250.5,-224.2001 258.5,-227.8 254.5,-224.2 258.5,-224.2 258.5,-224.2 258.5,-224.2 254.5,-224.2 258.5,-220.6 250.5,-224.2001 250.5,-224.2001"/>
<ellipse fill="none" stroke="#000000" cx="247.3" cy="-224.2001" rx="3.2" ry="3.2"/>
</g>
</g>
</svg>
