<?xml version="1.0" encoding="UTF-8" standalone="no"?>
<!DOCTYPE svg PUBLIC "-//W3C//DTD SVG 1.1//EN"
 "http://www.w3.org/Graphics/SVG/1.1/DTD/svg11.dtd">
<!-- Generated by graphviz version 2.40.1 (20161225.0304)
 -->
<!-- Title: oneDegreeRelationshipsDiagram Pages: 1 -->
<svg width="965pt" height="558pt"
 viewBox="0.00 0.00 965.00 558.20" xmlns="http://www.w3.org/2000/svg" xmlns:xlink="http://www.w3.org/1999/xlink">
<g id="graph0" class="graph" transform="scale(1 1) rotate(0) translate(4 554.2)">
<title>oneDegreeRelationshipsDiagram</title>
<polygon fill="#ffffff" stroke="transparent" points="-4,4 -4,-554.2 961,-554.2 961,4 -4,4"/>
<text text-anchor="middle" x="72.4936" y="-7.3" font-family="Helvetica,sans-Serif" font-size="11.00" fill="#000000">Generated by SchemaSpy</text>
<!-- INTERPRETATIONS_pts -->
<g id="node1" class="node">
<title>INTERPRETATIONS_pts</title>
<g id="a_node1"><a xlink:href="../../tables/INTERPRETATIONS_pts.html" xlink:title="INTERPRETATIONS_pts" target="_top">
<polygon fill="#ffffff" stroke="transparent" points="506,-38.2 506,-546.2 949,-546.2 949,-38.2 506,-38.2"/>
<polygon fill="#f5f5f5" stroke="transparent" points="508.5,-521.2 508.5,-544.2 947.5,-544.2 947.5,-521.2 508.5,-521.2"/>
<polygon fill="none" stroke="#000000" points="508.5,-521.2 508.5,-544.2 947.5,-544.2 947.5,-521.2 508.5,-521.2"/>
<text text-anchor="start" x="513.5" y="-530.3" font-family="Helvetica,sans-Serif" font-weight="bold" font-size="11.00" fill="#000000">INTERPRETATIONS_pts</text>
<text text-anchor="start" x="912.5437" y="-529.3" font-family="Helvetica,sans-Serif" font-size="11.00" fill="#000000">[table]</text>
<polygon fill="none" stroke="#000000" points="508.5,-499.2 508.5,-521.2 817.5,-521.2 817.5,-499.2 508.5,-499.2"/>
<text text-anchor="start" x="528.5" y="-506.3" font-family="Helvetica,sans-Serif" font-size="11.00" fill="#000000">quality_code</text>
<polygon fill="none" stroke="#000000" points="817.5,-499.2 817.5,-521.2 947.5,-521.2 947.5,-499.2 817.5,-499.2"/>
<text text-anchor="start" x="820.5" y="-506.9" font-family="Helvetica,sans-Serif" font-size="11.00" fill="#000000">integer[2000000000,10]</text>
<polygon fill="none" stroke="#000000" points="508.5,-477.2 508.5,-499.2 817.5,-499.2 817.5,-477.2 508.5,-477.2"/>
<text text-anchor="start" x="528.5" y="-484.3" font-family="Helvetica,sans-Serif" font-size="11.00" fill="#000000">row_entry_date_updated</text>
<polygon fill="none" stroke="#000000" points="817.5,-477.2 817.5,-499.2 947.5,-499.2 947.5,-477.2 817.5,-477.2"/>
<text text-anchor="start" x="820.1372" y="-484.9" font-family="Helvetica,sans-Serif" font-size="11.00" fill="#000000">datetime[2000000000,10]</text>
<polygon fill="none" stroke="#000000" points="508.5,-455.2 508.5,-477.2 817.5,-477.2 817.5,-455.2 508.5,-455.2"/>
<text text-anchor="start" x="528.5" y="-462.3" font-family="Helvetica,sans-Serif" font-size="11.00" fill="#000000">recommended_net_preferred_for_analysis_meters</text>
<polygon fill="none" stroke="#000000" points="817.5,-455.2 817.5,-477.2 947.5,-477.2 947.5,-455.2 817.5,-455.2"/>
<text text-anchor="start" x="820.5" y="-462.9" font-family="Helvetica,sans-Serif" font-size="11.00" fill="#000000">float[2000000000,10]</text>
<polygon fill="none" stroke="#000000" points="508.5,-433.2 508.5,-455.2 817.5,-455.2 817.5,-433.2 508.5,-433.2"/>
<text text-anchor="start" x="528.5" y="-440.3" font-family="Helvetica,sans-Serif" font-size="11.00" fill="#000000">rank_alternative_europe</text>
<polygon fill="none" stroke="#000000" points="817.5,-433.2 817.5,-455.2 947.5,-455.2 947.5,-433.2 817.5,-433.2"/>
<text text-anchor="start" x="820.5" y="-440.9" font-family="Helvetica,sans-Serif" font-size="11.00" fill="#000000">text[2000000000,10]</text>
<polygon fill="none" stroke="#000000" points="508.5,-411.2 508.5,-433.2 817.5,-433.2 817.5,-411.2 508.5,-411.2"/>
<image xlink:href="../../images/primaryKeys.png" width="11px" height="12px" preserveAspectRatio="xMinYMin meet" x="513.5" y="-428.2"/>
<text text-anchor="start" x="528.5" y="-418.3" font-family="Helvetica,sans-Serif" font-size="11.00" fill="#000000">MEAS_ID</text>
<polygon fill="none" stroke="#000000" points="817.5,-411.2 817.5,-433.2 947.5,-433.2 947.5,-411.2 817.5,-411.2"/>
<text text-anchor="start" x="820.5" y="-418.9" font-family="Helvetica,sans-Serif" font-size="11.00" fill="#000000">integer[2000000000,10]</text>
<polygon fill="none" stroke="#000000" points="508.5,-389.2 508.5,-411.2 817.5,-411.2 817.5,-389.2 508.5,-389.2"/>
<text text-anchor="start" x="528.5" y="-396.3" font-family="Helvetica,sans-Serif" font-size="11.00" fill="#000000">recommended_net_high_for_analysis_meters</text>
<polygon fill="none" stroke="#000000" points="817.5,-389.2 817.5,-411.2 947.5,-411.2 947.5,-389.2 817.5,-389.2"/>
<text text-anchor="start" x="820.5" y="-396.9" font-family="Helvetica,sans-Serif" font-size="11.00" fill="#000000">float[2000000000,10]</text>
<polygon fill="none" stroke="#000000" points="508.5,-367.2 508.5,-389.2 817.5,-389.2 817.5,-367.2 508.5,-367.2"/>
<text text-anchor="start" x="528.5" y="-374.3" font-family="Helvetica,sans-Serif" font-size="11.00" fill="#000000">measurement_category</text>
<polygon fill="none" stroke="#000000" points="817.5,-367.2 817.5,-389.2 947.5,-389.2 947.5,-367.2 817.5,-367.2"/>
<text text-anchor="start" x="820.5" y="-374.9" font-family="Helvetica,sans-Serif" font-size="11.00" fill="#000000">text[2000000000,10]</text>
<polygon fill="none" stroke="#000000" points="508.5,-345.2 508.5,-367.2 817.5,-367.2 817.5,-345.2 508.5,-345.2"/>
<image xlink:href="../../images/primaryKeys.png" width="11px" height="12px" preserveAspectRatio="xMinYMin meet" x="513.5" y="-362.2"/>
<text text-anchor="start" x="528.5" y="-352.3" font-family="Helvetica,sans-Serif" font-size="11.00" fill="#000000">DS_ID</text>
<polygon fill="none" stroke="#000000" points="817.5,-345.2 817.5,-367.2 947.5,-367.2 947.5,-345.2 817.5,-345.2"/>
<text text-anchor="start" x="820.5" y="-352.9" font-family="Helvetica,sans-Serif" font-size="11.00" fill="#000000">integer[2000000000,10]</text>
<polygon fill="none" stroke="#000000" points="508.5,-323.2 508.5,-345.2 817.5,-345.2 817.5,-323.2 508.5,-323.2"/>
<text text-anchor="start" x="528.5" y="-330.3" font-family="Helvetica,sans-Serif" font-size="11.00" fill="#000000">row_entry_source_file</text>
<polygon fill="none" stroke="#000000" points="817.5,-323.2 817.5,-345.2 947.5,-345.2 947.5,-323.2 817.5,-323.2"/>
<text text-anchor="start" x="820.5" y="-330.9" font-family="Helvetica,sans-Serif" font-size="11.00" fill="#000000">text[2000000000,10]</text>
<polygon fill="none" stroke="#000000" points="508.5,-301.2 508.5,-323.2 817.5,-323.2 817.5,-301.2 508.5,-301.2"/>
<text text-anchor="start" x="528.5" y="-308.3" font-family="Helvetica,sans-Serif" font-size="11.00" fill="#000000">rank</text>
<polygon fill="none" stroke="#000000" points="817.5,-301.2 817.5,-323.2 947.5,-323.2 947.5,-301.2 817.5,-301.2"/>
<text text-anchor="start" x="820.5" y="-308.9" font-family="Helvetica,sans-Serif" font-size="11.00" fill="#000000">text[2000000000,10]</text>
<polygon fill="none" stroke="#000000" points="508.5,-279.2 508.5,-301.2 817.5,-301.2 817.5,-279.2 508.5,-279.2"/>
<image xlink:href="../../images/primaryKeys.png" width="11px" height="12px" preserveAspectRatio="xMinYMin meet" x="513.5" y="-296.2"/>
<text text-anchor="start" x="528.5" y="-286.3" font-family="Helvetica,sans-Serif" font-size="11.00" fill="#000000">PT_ID</text>
<polygon fill="none" stroke="#000000" points="817.5,-279.2 817.5,-301.2 947.5,-301.2 947.5,-279.2 817.5,-279.2"/>
<text text-anchor="start" x="820.5" y="-286.9" font-family="Helvetica,sans-Serif" font-size="11.00" fill="#000000">integer[2000000000,10]</text>
<polygon fill="none" stroke="#000000" points="508.5,-257.2 508.5,-279.2 817.5,-279.2 817.5,-257.2 508.5,-257.2"/>
<text text-anchor="start" x="528.5" y="-264.3" font-family="Helvetica,sans-Serif" font-size="11.00" fill="#000000">rank_confidence</text>
<polygon fill="none" stroke="#000000" points="817.5,-257.2 817.5,-279.2 947.5,-279.2 947.5,-257.2 817.5,-257.2"/>
<text text-anchor="start" x="820.5" y="-264.9" font-family="Helvetica,sans-Serif" font-size="11.00" fill="#000000">integer[2000000000,10]</text>
<polygon fill="none" stroke="#000000" points="508.5,-235.2 508.5,-257.2 817.5,-257.2 817.5,-235.2 508.5,-235.2"/>
<image xlink:href="../../images/primaryKeys.png" width="11px" height="12px" preserveAspectRatio="xMinYMin meet" x="513.5" y="-252.2"/>
<text text-anchor="start" x="528.5" y="-242.3" font-family="Helvetica,sans-Serif" font-size="11.00" fill="#000000">EQ_ID</text>
<polygon fill="none" stroke="#000000" points="817.5,-235.2 817.5,-257.2 947.5,-257.2 947.5,-235.2 817.5,-235.2"/>
<text text-anchor="start" x="820.5" y="-242.9" font-family="Helvetica,sans-Serif" font-size="11.00" fill="#000000">integer[2000000000,10]</text>
<polygon fill="none" stroke="#000000" points="508.5,-213.2 508.5,-235.2 817.5,-235.2 817.5,-213.2 508.5,-213.2"/>
<text text-anchor="start" x="528.5" y="-220.3" font-family="Helvetica,sans-Serif" font-size="11.00" fill="#000000">rupture_rank</text>
<polygon fill="none" stroke="#000000" points="817.5,-213.2 817.5,-235.2 947.5,-235.2 947.5,-213.2 817.5,-213.2"/>
<text text-anchor="start" x="820.5" y="-220.9" font-family="Helvetica,sans-Serif" font-size="11.00" fill="#000000">text[2000000000,10]</text>
<polygon fill="none" stroke="#000000" points="508.5,-191.2 508.5,-213.2 817.5,-213.2 817.5,-191.2 508.5,-191.2"/>
<text text-anchor="start" x="528.5" y="-198.3" font-family="Helvetica,sans-Serif" font-size="11.00" fill="#000000">recommended_net_preferred_usage_flag</text>
<polygon fill="none" stroke="#000000" points="817.5,-191.2 817.5,-213.2 947.5,-213.2 947.5,-191.2 817.5,-191.2"/>
<text text-anchor="start" x="820.5" y="-198.9" font-family="Helvetica,sans-Serif" font-size="11.00" fill="#000000">text[2000000000,10]</text>
<polygon fill="none" stroke="#000000" points="508.5,-169.2 508.5,-191.2 817.5,-191.2 817.5,-169.2 508.5,-169.2"/>
<text text-anchor="start" x="528.5" y="-176.3" font-family="Helvetica,sans-Serif" font-size="11.00" fill="#000000">recommended_net_preferred_vector_basis</text>
<polygon fill="none" stroke="#000000" points="817.5,-169.2 817.5,-191.2 947.5,-191.2 947.5,-169.2 817.5,-169.2"/>
<text text-anchor="start" x="820.5" y="-176.9" font-family="Helvetica,sans-Serif" font-size="11.00" fill="#000000">text[2000000000,10]</text>
<polygon fill="none" stroke="#000000" points="508.5,-147.2 508.5,-169.2 817.5,-169.2 817.5,-147.2 508.5,-147.2"/>
<text text-anchor="start" x="528.5" y="-154.3" font-family="Helvetica,sans-Serif" font-size="11.00" fill="#000000">group_id</text>
<polygon fill="none" stroke="#000000" points="817.5,-147.2 817.5,-169.2 947.5,-169.2 947.5,-147.2 817.5,-147.2"/>
<text text-anchor="start" x="820.5" y="-154.9" font-family="Helvetica,sans-Serif" font-size="11.00" fill="#000000">text[2000000000,10]</text>
<polygon fill="none" stroke="#000000" points="508.5,-125.2 508.5,-147.2 817.5,-147.2 817.5,-125.2 508.5,-125.2"/>
<text text-anchor="start" x="528.5" y="-132.3" font-family="Helvetica,sans-Serif" font-size="11.00" fill="#000000">location_id</text>
<polygon fill="none" stroke="#000000" points="817.5,-125.2 817.5,-147.2 947.5,-147.2 947.5,-125.2 817.5,-125.2"/>
<text text-anchor="start" x="820.5" y="-132.9" font-family="Helvetica,sans-Serif" font-size="11.00" fill="#000000">integer[2000000000,10]</text>
<polygon fill="none" stroke="#000000" points="508.5,-103.2 508.5,-125.2 817.5,-125.2 817.5,-103.2 508.5,-103.2"/>
<text text-anchor="start" x="528.5" y="-110.3" font-family="Helvetica,sans-Serif" font-size="11.00" fill="#000000">hwfw_flag</text>
<polygon fill="none" stroke="#000000" points="817.5,-103.2 817.5,-125.2 947.5,-125.2 947.5,-103.2 817.5,-103.2"/>
<text text-anchor="start" x="820.5" y="-110.9" font-family="Helvetica,sans-Serif" font-size="11.00" fill="#000000">text[2000000000,10]</text>
<polygon fill="none" stroke="#000000" points="508.5,-81.2 508.5,-103.2 817.5,-103.2 817.5,-81.2 508.5,-81.2"/>
<text text-anchor="start" x="528.5" y="-88.3" font-family="Helvetica,sans-Serif" font-size="11.00" fill="#000000">recommended_net_preferred_notes</text>
<polygon fill="none" stroke="#000000" points="817.5,-81.2 817.5,-103.2 947.5,-103.2 947.5,-81.2 817.5,-81.2"/>
<text text-anchor="start" x="820.5" y="-88.9" font-family="Helvetica,sans-Serif" font-size="11.00" fill="#000000">text[2000000000,10]</text>
<polygon fill="none" stroke="#000000" points="508.5,-59.2 508.5,-81.2 817.5,-81.2 817.5,-59.2 508.5,-59.2"/>
<text text-anchor="start" x="528.5" y="-66.3" font-family="Helvetica,sans-Serif" font-size="11.00" fill="#000000">recommended_net_low_for_analysis_meters</text>
<polygon fill="none" stroke="#000000" points="817.5,-59.2 817.5,-81.2 947.5,-81.2 947.5,-59.2 817.5,-59.2"/>
<text text-anchor="start" x="820.5" y="-66.9" font-family="Helvetica,sans-Serif" font-size="11.00" fill="#000000">float[2000000000,10]</text>
<polygon fill="#ffffff" stroke="transparent" points="508.5,-40.2 508.5,-59.2 654.5,-59.2 654.5,-40.2 508.5,-40.2"/>
<polygon fill="none" stroke="#000000" points="508.5,-40.2 508.5,-59.2 654.5,-59.2 654.5,-40.2 508.5,-40.2"/>
<text text-anchor="start" x="511.5" y="-46.3" font-family="Helvetica,sans-Serif" font-size="11.00" fill="#000000">&lt; 4</text>
<polygon fill="#ffffff" stroke="transparent" points="654.5,-40.2 654.5,-59.2 817.5,-59.2 817.5,-40.2 654.5,-40.2"/>
<polygon fill="none" stroke="#000000" points="654.5,-40.2 654.5,-59.2 817.5,-59.2 817.5,-40.2 654.5,-40.2"/>
<text text-anchor="start" x="782.1105" y="-46.3" font-family="Helvetica,sans-Serif" font-size="11.00" fill="#000000">0 rows</text>
<polygon fill="#ffffff" stroke="transparent" points="817.5,-40.2 817.5,-59.2 947.5,-59.2 947.5,-40.2 817.5,-40.2"/>
<polygon fill="none" stroke="#000000" points="817.5,-40.2 817.5,-59.2 947.5,-59.2 947.5,-40.2 817.5,-40.2"/>
<text text-anchor="start" x="928.9053" y="-46.3" font-family="Helvetica,sans-Serif" font-size="11.00" fill="#000000">0 &gt;</text>
<polygon fill="none" stroke="#000000" stroke-width="2" points="507,-39.2 507,-545.2 948,-545.2 948,-39.2 507,-39.2"/>
</a>
</g>
</g>
<!-- METADATA_datasets -->
<g id="node2" class="node">
<title>METADATA_datasets</title>
<g id="a_node2"><a xlink:href="../../tables/METADATA_datasets.html" xlink:title="METADATA_datasets" target="_top">
<polygon fill="#ffffff" stroke="transparent" points="26,-351.7 26,-434.7 189,-434.7 189,-351.7 26,-351.7"/>
<polygon fill="#f5f5f5" stroke="transparent" points="26.5,-411.2 26.5,-434.2 189.5,-434.2 189.5,-411.2 26.5,-411.2"/>
<polygon fill="none" stroke="#000000" points="26.5,-411.2 26.5,-434.2 189.5,-434.2 189.5,-411.2 26.5,-411.2"/>
<text text-anchor="start" x="31.5" y="-420.3" font-family="Helvetica,sans-Serif" font-weight="bold" font-size="11.00" fill="#000000">METADATA_datasets</text>
<text text-anchor="start" x="154.5437" y="-419.3" font-family="Helvetica,sans-Serif" font-size="11.00" fill="#000000">[table]</text>
<polygon fill="none" stroke="#000000" points="26.5,-389.2 26.5,-411.2 189.5,-411.2 189.5,-389.2 26.5,-389.2"/>
<image xlink:href="../../images/primaryKeys.png" width="11px" height="12px" preserveAspectRatio="xMinYMin meet" x="31.5" y="-406.2"/>
<text text-anchor="start" x="46.5" y="-396.3" font-family="Helvetica,sans-Serif" font-size="11.00" fill="#000000">DS_ID</text>
<polygon fill="none" stroke="#000000" points="26.5,-370.2 26.5,-389.2 189.5,-389.2 189.5,-370.2 26.5,-370.2"/>
<text text-anchor="start" x="29.5" y="-376.3" font-family="Helvetica,sans-Serif" font-size="11.00" fill="#000000">...</text>
<polygon fill="#ffffff" stroke="transparent" points="26.5,-351.2 26.5,-370.2 81.5,-370.2 81.5,-351.2 26.5,-351.2"/>
<polygon fill="none" stroke="#000000" points="26.5,-351.2 26.5,-370.2 81.5,-370.2 81.5,-351.2 26.5,-351.2"/>
<text text-anchor="start" x="29.5" y="-357.3" font-family="Helvetica,sans-Serif" font-size="11.00" fill="#000000"> &#160;</text>
<polygon fill="#ffffff" stroke="transparent" points="81.5,-351.2 81.5,-370.2 140.5,-370.2 140.5,-351.2 81.5,-351.2"/>
<polygon fill="none" stroke="#000000" points="81.5,-351.2 81.5,-370.2 140.5,-370.2 140.5,-351.2 81.5,-351.2"/>
<text text-anchor="start" x="105.1105" y="-357.3" font-family="Helvetica,sans-Serif" font-size="11.00" fill="#000000">0 rows</text>
<polygon fill="#ffffff" stroke="transparent" points="140.5,-351.2 140.5,-370.2 189.5,-370.2 189.5,-351.2 140.5,-351.2"/>
<polygon fill="none" stroke="#000000" points="140.5,-351.2 140.5,-370.2 189.5,-370.2 189.5,-351.2 140.5,-351.2"/>
<text text-anchor="start" x="164.7904" y="-357.3" font-family="Helvetica,sans-Serif" font-size="11.00" fill="#000000">35 &gt;</text>
</a>
</g>
</g>
<!-- INTERPRETATIONS_pts&#45;&gt;METADATA_datasets -->
<g id="edge1" class="edge">
<title>INTERPRETATIONS_pts:w&#45;&gt;METADATA_datasets:e</title>
<path fill="none" stroke="#000000" d="M494.3751,-360.794C481.0619,-372.6437 488.6096,-404.1553 465,-416.2 379.0895,-460.0283 343.5865,-429.0359 248,-416.2 221.2849,-412.6125 216.4549,-400.2 189.5,-400.2"/>
<polygon fill="#000000" stroke="#000000" points="500.8923,-358.6744 509.6135,-359.6235 504.6961,-357.4372 508.5,-356.2 508.5,-356.2 508.5,-356.2 504.6961,-357.4372 507.3865,-352.7765 500.8923,-358.6744 500.8923,-358.6744"/>
<ellipse fill="none" stroke="#000000" cx="497.8492" cy="-359.6641" rx="3.2" ry="3.2"/>
</g>
<!-- METADATA_events -->
<g id="node3" class="node">
<title>METADATA_events</title>
<g id="a_node3"><a xlink:href="../../tables/METADATA_events.html" xlink:title="METADATA_events" target="_top">
<polygon fill="#ffffff" stroke="transparent" points="8,-230.7 8,-313.7 207,-313.7 207,-230.7 8,-230.7"/>
<polygon fill="#f5f5f5" stroke="transparent" points="8.5,-290.2 8.5,-313.2 207.5,-313.2 207.5,-290.2 8.5,-290.2"/>
<polygon fill="none" stroke="#000000" points="8.5,-290.2 8.5,-313.2 207.5,-313.2 207.5,-290.2 8.5,-290.2"/>
<text text-anchor="start" x="13.5" y="-299.3" font-family="Helvetica,sans-Serif" font-weight="bold" font-size="11.00" fill="#000000">METADATA_events</text>
<text text-anchor="start" x="172.5437" y="-298.3" font-family="Helvetica,sans-Serif" font-size="11.00" fill="#000000">[table]</text>
<polygon fill="none" stroke="#000000" points="8.5,-268.2 8.5,-290.2 207.5,-290.2 207.5,-268.2 8.5,-268.2"/>
<image xlink:href="../../images/primaryKeys.png" width="11px" height="12px" preserveAspectRatio="xMinYMin meet" x="13.5" y="-285.2"/>
<text text-anchor="start" x="28.5" y="-275.3" font-family="Helvetica,sans-Serif" font-size="11.00" fill="#000000">EQ_ID</text>
<polygon fill="none" stroke="#000000" points="8.5,-249.2 8.5,-268.2 207.5,-268.2 207.5,-249.2 8.5,-249.2"/>
<text text-anchor="start" x="11.5" y="-255.3" font-family="Helvetica,sans-Serif" font-size="11.00" fill="#000000">...</text>
<polygon fill="#ffffff" stroke="transparent" points="8.5,-230.2 8.5,-249.2 81.5,-249.2 81.5,-230.2 8.5,-230.2"/>
<polygon fill="none" stroke="#000000" points="8.5,-230.2 8.5,-249.2 81.5,-249.2 81.5,-230.2 8.5,-230.2"/>
<text text-anchor="start" x="11.5" y="-236.3" font-family="Helvetica,sans-Serif" font-size="11.00" fill="#000000"> &#160;</text>
<polygon fill="#ffffff" stroke="transparent" points="81.5,-230.2 81.5,-249.2 149.5,-249.2 149.5,-230.2 81.5,-230.2"/>
<polygon fill="none" stroke="#000000" points="81.5,-230.2 81.5,-249.2 149.5,-249.2 149.5,-230.2 81.5,-230.2"/>
<text text-anchor="start" x="114.1105" y="-236.3" font-family="Helvetica,sans-Serif" font-size="11.00" fill="#000000">0 rows</text>
<polygon fill="#ffffff" stroke="transparent" points="149.5,-230.2 149.5,-249.2 207.5,-249.2 207.5,-230.2 149.5,-230.2"/>
<polygon fill="none" stroke="#000000" points="149.5,-230.2 149.5,-249.2 207.5,-249.2 207.5,-230.2 149.5,-230.2"/>
<text text-anchor="start" x="182.7904" y="-236.3" font-family="Helvetica,sans-Serif" font-size="11.00" fill="#000000">34 &gt;</text>
</a>
</g>
</g>
<!-- INTERPRETATIONS_pts&#45;&gt;METADATA_events -->
<g id="edge2" class="edge">
<title>INTERPRETATIONS_pts:w&#45;&gt;METADATA_events:e</title>
<path fill="none" stroke="#000000" d="M494.0072,-245.9943C389.5235,-243.0078 352.3913,-209.055 248,-246.2 226.1248,-253.9837 230.7188,-279.2 207.5,-279.2"/>
<polygon fill="#000000" stroke="#000000" points="500.5008,-246.0864 508.4489,-249.7996 504.5004,-246.1432 508.5,-246.2 508.5,-246.2 508.5,-246.2 504.5004,-246.1432 508.5511,-242.6004 500.5008,-246.0864 500.5008,-246.0864"/>
<ellipse fill="none" stroke="#000000" cx="497.3011" cy="-246.0409" rx="3.2" ry="3.2"/>
</g>
<!-- PTOBS_id -->
<g id="node4" class="node">
<title>PTOBS_id</title>
<g id="a_node4"><a xlink:href="../../tables/PTOBS_id.html" xlink:title="PTOBS_id" target="_top">
<polygon fill="#ffffff" stroke="transparent" points="256,-256.7 256,-405.7 457,-405.7 457,-256.7 256,-256.7"/>
<polygon fill="#f5f5f5" stroke="transparent" points="256.5,-382.2 256.5,-405.2 457.5,-405.2 457.5,-382.2 256.5,-382.2"/>
<polygon fill="none" stroke="#000000" points="256.5,-382.2 256.5,-405.2 457.5,-405.2 457.5,-382.2 256.5,-382.2"/>
<text text-anchor="start" x="261.5" y="-391.3" font-family="Helvetica,sans-Serif" font-weight="bold" font-size="11.00" fill="#000000">PTOBS_id</text>
<text text-anchor="start" x="422.5437" y="-390.3" font-family="Helvetica,sans-Serif" font-size="11.00" fill="#000000">[table]</text>
<polygon fill="none" stroke="#000000" points="256.5,-360.2 256.5,-382.2 457.5,-382.2 457.5,-360.2 256.5,-360.2"/>
<image xlink:href="../../images/primaryKeys.png" width="11px" height="12px" preserveAspectRatio="xMinYMin meet" x="261.5" y="-377.2"/>
<text text-anchor="start" x="276.5" y="-367.3" font-family="Helvetica,sans-Serif" font-size="11.00" fill="#000000">DS_ID</text>
<polygon fill="none" stroke="#000000" points="256.5,-338.2 256.5,-360.2 457.5,-360.2 457.5,-338.2 256.5,-338.2"/>
<image xlink:href="../../images/primaryKeys.png" width="11px" height="12px" preserveAspectRatio="xMinYMin meet" x="261.5" y="-355.2"/>
<text text-anchor="start" x="276.5" y="-345.3" font-family="Helvetica,sans-Serif" font-size="11.00" fill="#000000">EQ_ID</text>
<polygon fill="none" stroke="#000000" points="256.5,-316.2 256.5,-338.2 457.5,-338.2 457.5,-316.2 256.5,-316.2"/>
<image xlink:href="../../images/primaryKeys.png" width="11px" height="12px" preserveAspectRatio="xMinYMin meet" x="261.5" y="-333.2"/>
<text text-anchor="start" x="276.5" y="-323.3" font-family="Helvetica,sans-Serif" font-size="11.00" fill="#000000">MEAS_ID</text>
<polygon fill="none" stroke="#000000" points="256.5,-294.2 256.5,-316.2 457.5,-316.2 457.5,-294.2 256.5,-294.2"/>
<image xlink:href="../../images/primaryKeys.png" width="11px" height="12px" preserveAspectRatio="xMinYMin meet" x="261.5" y="-311.2"/>
<text text-anchor="start" x="276.5" y="-301.3" font-family="Helvetica,sans-Serif" font-size="11.00" fill="#000000">PT_ID</text>
<polygon fill="none" stroke="#000000" points="256.5,-275.2 256.5,-294.2 457.5,-294.2 457.5,-275.2 256.5,-275.2"/>
<text text-anchor="start" x="259.5" y="-281.3" font-family="Helvetica,sans-Serif" font-size="11.00" fill="#000000">...</text>
<polygon fill="#ffffff" stroke="transparent" points="256.5,-256.2 256.5,-275.2 334.5,-275.2 334.5,-256.2 256.5,-256.2"/>
<polygon fill="none" stroke="#000000" points="256.5,-256.2 256.5,-275.2 334.5,-275.2 334.5,-256.2 256.5,-256.2"/>
<text text-anchor="start" x="259.5" y="-262.3" font-family="Helvetica,sans-Serif" font-size="11.00" fill="#000000">&lt; 2</text>
<polygon fill="#ffffff" stroke="transparent" points="334.5,-256.2 334.5,-275.2 401.5,-275.2 401.5,-256.2 334.5,-256.2"/>
<polygon fill="none" stroke="#000000" points="334.5,-256.2 334.5,-275.2 401.5,-275.2 401.5,-256.2 334.5,-256.2"/>
<text text-anchor="start" x="366.1105" y="-262.3" font-family="Helvetica,sans-Serif" font-size="11.00" fill="#000000">0 rows</text>
<polygon fill="#ffffff" stroke="transparent" points="401.5,-256.2 401.5,-275.2 457.5,-275.2 457.5,-256.2 401.5,-256.2"/>
<polygon fill="none" stroke="#000000" points="401.5,-256.2 401.5,-275.2 457.5,-275.2 457.5,-256.2 401.5,-256.2"/>
<text text-anchor="start" x="432.7904" y="-262.3" font-family="Helvetica,sans-Serif" font-size="11.00" fill="#000000">35 &gt;</text>
</a>
</g>
</g>
<!-- INTERPRETATIONS_pts&#45;&gt;PTOBS_id -->
<g id="edge3" class="edge">
<title>INTERPRETATIONS_pts:w&#45;&gt;PTOBS_id:e</title>
<path fill="none" stroke="#000000" d="M494.5154,-418.118C470.3397,-399.9344 499.4315,-327.2 457.5,-327.2"/>
<polygon fill="#000000" stroke="#000000" points="500.8205,-419.9584 507.4913,-425.6558 504.6602,-421.0792 508.5,-422.2 508.5,-422.2 508.5,-422.2 504.6602,-421.0792 509.5087,-418.7442 500.8205,-419.9584 500.8205,-419.9584"/>
<ellipse fill="none" stroke="#000000" cx="497.7487" cy="-419.0617" rx="3.2" ry="3.2"/>
</g>
<!-- INTERPRETATIONS_pts&#45;&gt;PTOBS_id -->
<g id="edge4" class="edge">
<title>INTERPRETATIONS_pts:w&#45;&gt;PTOBS_id:e</title>
<path fill="none" stroke="#000000" d="M494.2671,-292.4133C481.8925,-296.5858 475.4046,-305.2 457.5,-305.2"/>
<polygon fill="#000000" stroke="#000000" points="500.595,-291.4293 509.0532,-293.7572 504.5475,-290.8147 508.5,-290.2 508.5,-290.2 508.5,-290.2 504.5475,-290.8147 507.9468,-286.6428 500.595,-291.4293 500.595,-291.4293"/>
<ellipse fill="none" stroke="#000000" cx="497.433" cy="-291.921" rx="3.2" ry="3.2"/>
</g>
<!-- PTOBS_id&#45;&gt;METADATA_datasets -->
<g id="edge5" class="edge">
<title>PTOBS_id:w&#45;&gt;METADATA_datasets:e</title>
<path fill="none" stroke="#000000" d="M242.1502,-373.4756C222.4326,-380.3121 216.3706,-400.2 189.5,-400.2"/>
<polygon fill="#000000" stroke="#000000" points="248.5987,-372.453 257.0639,-374.7556 252.5494,-371.8265 256.5,-371.2 256.5,-371.2 256.5,-371.2 252.5494,-371.8265 255.9361,-367.6444 248.5987,-372.453 248.5987,-372.453"/>
<ellipse fill="none" stroke="#000000" cx="245.4382" cy="-372.9542" rx="3.2" ry="3.2"/>
</g>
<!-- PTOBS_id&#45;&gt;METADATA_events -->
<g id="edge6" class="edge">
<title>PTOBS_id:w&#45;&gt;METADATA_events:e</title>
<path fill="none" stroke="#000000" d="M242.4782,-344.1658C225.62,-328.1154 239.2455,-279.2 207.5,-279.2"/>
<polygon fill="#000000" stroke="#000000" points="248.9706,-346.4967 255.2835,-352.5882 252.7353,-347.8483 256.5,-349.2 256.5,-349.2 256.5,-349.2 252.7353,-347.8483 257.7165,-345.8118 248.9706,-346.4967 248.9706,-346.4967"/>
<ellipse fill="none" stroke="#000000" cx="245.9588" cy="-345.4154" rx="3.2" ry="3.2"/>
</g>
</g>
</svg>
