<?xml version="1.0" encoding="UTF-8" standalone="no"?>
<!DOCTYPE svg PUBLIC "-//W3C//DTD SVG 1.1//EN"
 "http://www.w3.org/Graphics/SVG/1.1/DTD/svg11.dtd">
<!-- Generated by graphviz version 2.40.1 (20161225.0304)
 -->
<!-- Title: oneDegreeRelationshipsDiagram Pages: 1 -->
<svg width="769pt" height="426pt"
 viewBox="0.00 0.00 769.00 425.70" xmlns="http://www.w3.org/2000/svg" xmlns:xlink="http://www.w3.org/1999/xlink">
<g id="graph0" class="graph" transform="scale(1 1) rotate(0) translate(4 421.7)">
<title>oneDegreeRelationshipsDiagram</title>
<polygon fill="#ffffff" stroke="transparent" points="-4,4 -4,-421.7 765,-421.7 765,4 -4,4"/>
<text text-anchor="middle" x="72.4936" y="-7.3" font-family="Helvetica,sans-Serif" font-size="11.00" fill="#000000">Generated by SchemaSpy</text>
<!-- METADATA_geology -->
<g id="node1" class="node">
<title>METADATA_geology</title>
<g id="a_node1"><a xlink:href="../../tables/METADATA_geology.html" xlink:title="METADATA_geology" target="_top">
<polygon fill="#ffffff" stroke="transparent" points="220,-213.7 220,-413.7 517,-413.7 517,-213.7 220,-213.7"/>
<polygon fill="#f5f5f5" stroke="transparent" points="222.5,-388.7 222.5,-411.7 515.5,-411.7 515.5,-388.7 222.5,-388.7"/>
<polygon fill="none" stroke="#000000" points="222.5,-388.7 222.5,-411.7 515.5,-411.7 515.5,-388.7 222.5,-388.7"/>
<text text-anchor="start" x="227.5" y="-397.8" font-family="Helvetica,sans-Serif" font-weight="bold" font-size="11.00" fill="#000000">METADATA_geology</text>
<text text-anchor="start" x="480.5437" y="-396.8" font-family="Helvetica,sans-Serif" font-size="11.00" fill="#000000">[table]</text>
<polygon fill="none" stroke="#000000" points="222.5,-366.7 222.5,-388.7 385.5,-388.7 385.5,-366.7 222.5,-366.7"/>
<text text-anchor="start" x="242.5" y="-373.8" font-family="Helvetica,sans-Serif" font-size="11.00" fill="#000000">completion</text>
<polygon fill="none" stroke="#000000" points="385.5,-366.7 385.5,-388.7 515.5,-388.7 515.5,-366.7 385.5,-366.7"/>
<text text-anchor="start" x="388.5" y="-374.4" font-family="Helvetica,sans-Serif" font-size="11.00" fill="#000000">text[2000000000,10]</text>
<polygon fill="none" stroke="#000000" points="222.5,-344.7 222.5,-366.7 385.5,-366.7 385.5,-344.7 222.5,-344.7"/>
<text text-anchor="start" x="242.5" y="-351.8" font-family="Helvetica,sans-Serif" font-size="11.00" fill="#000000">map_scale</text>
<polygon fill="none" stroke="#000000" points="385.5,-344.7 385.5,-366.7 515.5,-366.7 515.5,-344.7 385.5,-344.7"/>
<text text-anchor="start" x="388.5" y="-352.4" font-family="Helvetica,sans-Serif" font-size="11.00" fill="#000000">text[2000000000,10]</text>
<polygon fill="none" stroke="#000000" points="222.5,-322.7 222.5,-344.7 385.5,-344.7 385.5,-322.7 222.5,-322.7"/>
<text text-anchor="start" x="242.5" y="-329.8" font-family="Helvetica,sans-Serif" font-size="11.00" fill="#000000">region</text>
<polygon fill="none" stroke="#000000" points="385.5,-322.7 385.5,-344.7 515.5,-344.7 515.5,-322.7 385.5,-322.7"/>
<text text-anchor="start" x="388.5" y="-330.4" font-family="Helvetica,sans-Serif" font-size="11.00" fill="#000000">text[2000000000,10]</text>
<polygon fill="none" stroke="#000000" points="222.5,-300.7 222.5,-322.7 385.5,-322.7 385.5,-300.7 222.5,-300.7"/>
<image xlink:href="../../images/primaryKeys.png" width="11px" height="12px" preserveAspectRatio="xMinYMin meet" x="227.5" y="-317.7"/>
<text text-anchor="start" x="242.5" y="-307.8" font-family="Helvetica,sans-Serif" font-size="11.00" fill="#000000">DS_ID</text>
<polygon fill="none" stroke="#000000" points="385.5,-300.7 385.5,-322.7 515.5,-322.7 515.5,-300.7 385.5,-300.7"/>
<text text-anchor="start" x="388.5" y="-308.4" font-family="Helvetica,sans-Serif" font-size="11.00" fill="#000000">integer[2000000000,10]</text>
<polygon fill="none" stroke="#000000" points="222.5,-278.7 222.5,-300.7 385.5,-300.7 385.5,-278.7 222.5,-278.7"/>
<text text-anchor="start" x="242.5" y="-285.8" font-family="Helvetica,sans-Serif" font-size="11.00" fill="#000000">row_entry_source_file</text>
<polygon fill="none" stroke="#000000" points="385.5,-278.7 385.5,-300.7 515.5,-300.7 515.5,-278.7 385.5,-278.7"/>
<text text-anchor="start" x="388.5" y="-286.4" font-family="Helvetica,sans-Serif" font-size="11.00" fill="#000000">text[2000000000,10]</text>
<polygon fill="none" stroke="#000000" points="222.5,-256.7 222.5,-278.7 385.5,-278.7 385.5,-256.7 222.5,-256.7"/>
<text text-anchor="start" x="242.5" y="-263.8" font-family="Helvetica,sans-Serif" font-size="11.00" fill="#000000">epsg_original</text>
<polygon fill="none" stroke="#000000" points="385.5,-256.7 385.5,-278.7 515.5,-278.7 515.5,-256.7 385.5,-256.7"/>
<text text-anchor="start" x="388.5" y="-264.4" font-family="Helvetica,sans-Serif" font-size="11.00" fill="#000000">integer[2000000000,10]</text>
<polygon fill="none" stroke="#000000" points="222.5,-234.7 222.5,-256.7 385.5,-256.7 385.5,-234.7 222.5,-234.7"/>
<text text-anchor="start" x="242.5" y="-241.8" font-family="Helvetica,sans-Serif" font-size="11.00" fill="#000000">row_entry_date_updated</text>
<polygon fill="none" stroke="#000000" points="385.5,-234.7 385.5,-256.7 515.5,-256.7 515.5,-234.7 385.5,-234.7"/>
<text text-anchor="start" x="388.1372" y="-242.4" font-family="Helvetica,sans-Serif" font-size="11.00" fill="#000000">datetime[2000000000,10]</text>
<polygon fill="#ffffff" stroke="transparent" points="222.5,-215.7 222.5,-234.7 295.5,-234.7 295.5,-215.7 222.5,-215.7"/>
<polygon fill="none" stroke="#000000" points="222.5,-215.7 222.5,-234.7 295.5,-234.7 295.5,-215.7 222.5,-215.7"/>
<text text-anchor="start" x="225.5" y="-221.8" font-family="Helvetica,sans-Serif" font-size="11.00" fill="#000000">&lt; 1</text>
<polygon fill="#ffffff" stroke="transparent" points="295.5,-215.7 295.5,-234.7 385.5,-234.7 385.5,-215.7 295.5,-215.7"/>
<polygon fill="none" stroke="#000000" points="295.5,-215.7 295.5,-234.7 385.5,-234.7 385.5,-215.7 295.5,-215.7"/>
<text text-anchor="start" x="350.1105" y="-221.8" font-family="Helvetica,sans-Serif" font-size="11.00" fill="#000000">0 rows</text>
<polygon fill="#ffffff" stroke="transparent" points="385.5,-215.7 385.5,-234.7 515.5,-234.7 515.5,-215.7 385.5,-215.7"/>
<polygon fill="none" stroke="#000000" points="385.5,-215.7 385.5,-234.7 515.5,-234.7 515.5,-215.7 385.5,-215.7"/>
<text text-anchor="start" x="496.9053" y="-221.8" font-family="Helvetica,sans-Serif" font-size="11.00" fill="#000000">2 &gt;</text>
<polygon fill="none" stroke="#000000" stroke-width="2" points="221,-214.7 221,-412.7 516,-412.7 516,-214.7 221,-214.7"/>
</a>
</g>
</g>
<!-- METADATA_datasets -->
<g id="node2" class="node">
<title>METADATA_datasets</title>
<g id="a_node2"><a xlink:href="../../tables/METADATA_datasets.html" xlink:title="METADATA_datasets" target="_top">
<polygon fill="#ffffff" stroke="transparent" points="8,-141.2 8,-224.2 171,-224.2 171,-141.2 8,-141.2"/>
<polygon fill="#f5f5f5" stroke="transparent" points="8.5,-200.7 8.5,-223.7 171.5,-223.7 171.5,-200.7 8.5,-200.7"/>
<polygon fill="none" stroke="#000000" points="8.5,-200.7 8.5,-223.7 171.5,-223.7 171.5,-200.7 8.5,-200.7"/>
<text text-anchor="start" x="13.5" y="-209.8" font-family="Helvetica,sans-Serif" font-weight="bold" font-size="11.00" fill="#000000">METADATA_datasets</text>
<text text-anchor="start" x="136.5437" y="-208.8" font-family="Helvetica,sans-Serif" font-size="11.00" fill="#000000">[table]</text>
<polygon fill="none" stroke="#000000" points="8.5,-178.7 8.5,-200.7 171.5,-200.7 171.5,-178.7 8.5,-178.7"/>
<image xlink:href="../../images/primaryKeys.png" width="11px" height="12px" preserveAspectRatio="xMinYMin meet" x="13.5" y="-195.7"/>
<text text-anchor="start" x="28.5" y="-185.8" font-family="Helvetica,sans-Serif" font-size="11.00" fill="#000000">DS_ID</text>
<polygon fill="none" stroke="#000000" points="8.5,-159.7 8.5,-178.7 171.5,-178.7 171.5,-159.7 8.5,-159.7"/>
<text text-anchor="start" x="11.5" y="-165.8" font-family="Helvetica,sans-Serif" font-size="11.00" fill="#000000">...</text>
<polygon fill="#ffffff" stroke="transparent" points="8.5,-140.7 8.5,-159.7 63.5,-159.7 63.5,-140.7 8.5,-140.7"/>
<polygon fill="none" stroke="#000000" points="8.5,-140.7 8.5,-159.7 63.5,-159.7 63.5,-140.7 8.5,-140.7"/>
<text text-anchor="start" x="11.5" y="-146.8" font-family="Helvetica,sans-Serif" font-size="11.00" fill="#000000"> &#160;</text>
<polygon fill="#ffffff" stroke="transparent" points="63.5,-140.7 63.5,-159.7 122.5,-159.7 122.5,-140.7 63.5,-140.7"/>
<polygon fill="none" stroke="#000000" points="63.5,-140.7 63.5,-159.7 122.5,-159.7 122.5,-140.7 63.5,-140.7"/>
<text text-anchor="start" x="87.1105" y="-146.8" font-family="Helvetica,sans-Serif" font-size="11.00" fill="#000000">0 rows</text>
<polygon fill="#ffffff" stroke="transparent" points="122.5,-140.7 122.5,-159.7 171.5,-159.7 171.5,-140.7 122.5,-140.7"/>
<polygon fill="none" stroke="#000000" points="122.5,-140.7 122.5,-159.7 171.5,-159.7 171.5,-140.7 122.5,-140.7"/>
<text text-anchor="start" x="146.7904" y="-146.8" font-family="Helvetica,sans-Serif" font-size="11.00" fill="#000000">35 &gt;</text>
</a>
</g>
</g>
<!-- METADATA_geology&#45;&gt;METADATA_datasets -->
<g id="edge1" class="edge">
<title>METADATA_geology:w&#45;&gt;METADATA_datasets:e</title>
<path fill="none" stroke="#000000" d="M212.1243,-310.0676C172.2422,-295.5904 226.2518,-189.7 171.5,-189.7"/>
<polygon fill="#000000" stroke="#000000" points="222.3314,-307.6243 221.088,-315.5271 219.5075,-315.2784 220.7509,-307.3756 222.3314,-307.6243"/>
<polyline fill="none" stroke="#000000" points="222.5,-311.7 218.5486,-311.0783 "/>
<ellipse fill="none" stroke="#000000" cx="215.3875" cy="-310.5809" rx="3.2" ry="3.2"/>
</g>
<!-- PTOBS_geology -->
<g id="node3" class="node">
<title>PTOBS_geology</title>
<g id="a_node3"><a xlink:href="../../tables/PTOBS_geology.html" xlink:title="PTOBS_geology" target="_top">
<polygon fill="#ffffff" stroke="transparent" points="566,-230.2 566,-379.2 753,-379.2 753,-230.2 566,-230.2"/>
<polygon fill="#f5f5f5" stroke="transparent" points="566.5,-355.7 566.5,-378.7 753.5,-378.7 753.5,-355.7 566.5,-355.7"/>
<polygon fill="none" stroke="#000000" points="566.5,-355.7 566.5,-378.7 753.5,-378.7 753.5,-355.7 566.5,-355.7"/>
<text text-anchor="start" x="571.5" y="-364.8" font-family="Helvetica,sans-Serif" font-weight="bold" font-size="11.00" fill="#000000">PTOBS_geology</text>
<text text-anchor="start" x="718.5437" y="-363.8" font-family="Helvetica,sans-Serif" font-size="11.00" fill="#000000">[table]</text>
<polygon fill="none" stroke="#000000" points="566.5,-333.7 566.5,-355.7 753.5,-355.7 753.5,-333.7 566.5,-333.7"/>
<image xlink:href="../../images/primaryKeys.png" width="11px" height="12px" preserveAspectRatio="xMinYMin meet" x="571.5" y="-350.7"/>
<text text-anchor="start" x="586.5" y="-340.8" font-family="Helvetica,sans-Serif" font-size="11.00" fill="#000000">EQ_ID</text>
<polygon fill="none" stroke="#000000" points="566.5,-311.7 566.5,-333.7 753.5,-333.7 753.5,-311.7 566.5,-311.7"/>
<image xlink:href="../../images/primaryKeys.png" width="11px" height="12px" preserveAspectRatio="xMinYMin meet" x="571.5" y="-328.7"/>
<text text-anchor="start" x="586.5" y="-318.8" font-family="Helvetica,sans-Serif" font-size="11.00" fill="#000000">GEO_DS_ID</text>
<polygon fill="none" stroke="#000000" points="566.5,-289.7 566.5,-311.7 753.5,-311.7 753.5,-289.7 566.5,-289.7"/>
<image xlink:href="../../images/primaryKeys.png" width="11px" height="12px" preserveAspectRatio="xMinYMin meet" x="571.5" y="-306.7"/>
<text text-anchor="start" x="586.5" y="-296.8" font-family="Helvetica,sans-Serif" font-size="11.00" fill="#000000">PT_DS_ID</text>
<polygon fill="none" stroke="#000000" points="566.5,-267.7 566.5,-289.7 753.5,-289.7 753.5,-267.7 566.5,-267.7"/>
<image xlink:href="../../images/primaryKeys.png" width="11px" height="12px" preserveAspectRatio="xMinYMin meet" x="571.5" y="-284.7"/>
<text text-anchor="start" x="586.5" y="-274.8" font-family="Helvetica,sans-Serif" font-size="11.00" fill="#000000">PT_ID</text>
<polygon fill="none" stroke="#000000" points="566.5,-248.7 566.5,-267.7 753.5,-267.7 753.5,-248.7 566.5,-248.7"/>
<text text-anchor="start" x="569.5" y="-254.8" font-family="Helvetica,sans-Serif" font-size="11.00" fill="#000000">...</text>
<polygon fill="#ffffff" stroke="transparent" points="566.5,-229.7 566.5,-248.7 645.5,-248.7 645.5,-229.7 566.5,-229.7"/>
<polygon fill="none" stroke="#000000" points="566.5,-229.7 566.5,-248.7 645.5,-248.7 645.5,-229.7 566.5,-229.7"/>
<text text-anchor="start" x="569.5" y="-235.8" font-family="Helvetica,sans-Serif" font-size="11.00" fill="#000000">&lt; 4</text>
<polygon fill="#ffffff" stroke="transparent" points="645.5,-229.7 645.5,-248.7 712.5,-248.7 712.5,-229.7 645.5,-229.7"/>
<polygon fill="none" stroke="#000000" points="645.5,-229.7 645.5,-248.7 712.5,-248.7 712.5,-229.7 645.5,-229.7"/>
<text text-anchor="start" x="677.1105" y="-235.8" font-family="Helvetica,sans-Serif" font-size="11.00" fill="#000000">0 rows</text>
<polygon fill="#ffffff" stroke="transparent" points="712.5,-229.7 712.5,-248.7 753.5,-248.7 753.5,-229.7 712.5,-229.7"/>
<polygon fill="none" stroke="#000000" points="712.5,-229.7 712.5,-248.7 753.5,-248.7 753.5,-229.7 712.5,-229.7"/>
<text text-anchor="start" x="744.3862" y="-235.8" font-family="Helvetica,sans-Serif" font-size="11.00" fill="#000000"> &#160;</text>
</a>
</g>
</g>
<!-- PTOBS_geology&#45;&gt;METADATA_geology -->
<g id="edge2" class="edge">
<title>PTOBS_geology:w&#45;&gt;METADATA_geology:e</title>
<path fill="none" stroke="#000000" d="M552.0097,-320.9813C539.8398,-317.8875 532.8909,-311.7 515.5,-311.7"/>
<polygon fill="#000000" stroke="#000000" points="558.5557,-321.7576 566.0759,-326.2749 562.5278,-322.2288 566.5,-322.7 566.5,-322.7 566.5,-322.7 562.5278,-322.2288 566.9241,-319.1251 558.5557,-321.7576 558.5557,-321.7576"/>
<ellipse fill="none" stroke="#000000" cx="555.378" cy="-321.3807" rx="3.2" ry="3.2"/>
</g>
<!-- PTOBS_geology&#45;&gt;METADATA_datasets -->
<g id="edge3" class="edge">
<title>PTOBS_geology:w&#45;&gt;METADATA_datasets:e</title>
<path fill="none" stroke="#000000" d="M552.2206,-297.2419C529.8418,-282.7714 558.4906,-226.7626 525,-203.7 460.2504,-159.1114 250.1171,-189.7 171.5,-189.7"/>
<polygon fill="#000000" stroke="#000000" points="558.7248,-298.817 565.6526,-304.1989 562.6124,-299.7585 566.5,-300.7 566.5,-300.7 566.5,-300.7 562.6124,-299.7585 567.3474,-297.2011 558.7248,-298.817 558.7248,-298.817"/>
<ellipse fill="none" stroke="#000000" cx="555.6147" cy="-298.0638" rx="3.2" ry="3.2"/>
</g>
<!-- RUPOBS_geology -->
<g id="node4" class="node">
<title>RUPOBS_geology</title>
<g id="a_node4"><a xlink:href="../../tables/RUPOBS_geology.html" xlink:title="RUPOBS_geology" target="_top">
<polygon fill="#ffffff" stroke="transparent" points="578,-38.2 578,-209.2 741,-209.2 741,-38.2 578,-38.2"/>
<polygon fill="#f5f5f5" stroke="transparent" points="578.5,-185.7 578.5,-208.7 741.5,-208.7 741.5,-185.7 578.5,-185.7"/>
<polygon fill="none" stroke="#000000" points="578.5,-185.7 578.5,-208.7 741.5,-208.7 741.5,-185.7 578.5,-185.7"/>
<text text-anchor="start" x="583.5" y="-194.8" font-family="Helvetica,sans-Serif" font-weight="bold" font-size="11.00" fill="#000000">RUPOBS_geology</text>
<text text-anchor="start" x="706.5437" y="-193.8" font-family="Helvetica,sans-Serif" font-size="11.00" fill="#000000">[table]</text>
<polygon fill="none" stroke="#000000" points="578.5,-163.7 578.5,-185.7 741.5,-185.7 741.5,-163.7 578.5,-163.7"/>
<image xlink:href="../../images/primaryKeys.png" width="11px" height="12px" preserveAspectRatio="xMinYMin meet" x="583.5" y="-180.7"/>
<text text-anchor="start" x="598.5" y="-170.8" font-family="Helvetica,sans-Serif" font-size="11.00" fill="#000000">EQ_ID</text>
<polygon fill="none" stroke="#000000" points="578.5,-141.7 578.5,-163.7 741.5,-163.7 741.5,-141.7 578.5,-141.7"/>
<image xlink:href="../../images/primaryKeys.png" width="11px" height="12px" preserveAspectRatio="xMinYMin meet" x="583.5" y="-158.7"/>
<text text-anchor="start" x="598.5" y="-148.8" font-family="Helvetica,sans-Serif" font-size="11.00" fill="#000000">NODE_ID</text>
<polygon fill="none" stroke="#000000" points="578.5,-119.7 578.5,-141.7 741.5,-141.7 741.5,-119.7 578.5,-119.7"/>
<image xlink:href="../../images/primaryKeys.png" width="11px" height="12px" preserveAspectRatio="xMinYMin meet" x="583.5" y="-136.7"/>
<text text-anchor="start" x="598.5" y="-126.8" font-family="Helvetica,sans-Serif" font-size="11.00" fill="#000000">RUP_DS_ID</text>
<polygon fill="none" stroke="#000000" points="578.5,-97.7 578.5,-119.7 741.5,-119.7 741.5,-97.7 578.5,-97.7"/>
<image xlink:href="../../images/primaryKeys.png" width="11px" height="12px" preserveAspectRatio="xMinYMin meet" x="583.5" y="-114.7"/>
<text text-anchor="start" x="598.5" y="-104.8" font-family="Helvetica,sans-Serif" font-size="11.00" fill="#000000">GEO_DS_ID</text>
<polygon fill="none" stroke="#000000" points="578.5,-75.7 578.5,-97.7 741.5,-97.7 741.5,-75.7 578.5,-75.7"/>
<image xlink:href="../../images/primaryKeys.png" width="11px" height="12px" preserveAspectRatio="xMinYMin meet" x="583.5" y="-92.7"/>
<text text-anchor="start" x="598.5" y="-82.8" font-family="Helvetica,sans-Serif" font-size="11.00" fill="#000000">RUP_ID</text>
<polygon fill="none" stroke="#000000" points="578.5,-56.7 578.5,-75.7 741.5,-75.7 741.5,-56.7 578.5,-56.7"/>
<text text-anchor="start" x="581.5" y="-62.8" font-family="Helvetica,sans-Serif" font-size="11.00" fill="#000000">...</text>
<polygon fill="#ffffff" stroke="transparent" points="578.5,-37.7 578.5,-56.7 645.5,-56.7 645.5,-37.7 578.5,-37.7"/>
<polygon fill="none" stroke="#000000" points="578.5,-37.7 578.5,-56.7 645.5,-56.7 645.5,-37.7 578.5,-37.7"/>
<text text-anchor="start" x="581.5" y="-43.8" font-family="Helvetica,sans-Serif" font-size="11.00" fill="#000000">&lt; 5</text>
<polygon fill="#ffffff" stroke="transparent" points="645.5,-37.7 645.5,-56.7 706.5,-56.7 706.5,-37.7 645.5,-37.7"/>
<polygon fill="none" stroke="#000000" points="645.5,-37.7 645.5,-56.7 706.5,-56.7 706.5,-37.7 645.5,-37.7"/>
<text text-anchor="start" x="671.1105" y="-43.8" font-family="Helvetica,sans-Serif" font-size="11.00" fill="#000000">0 rows</text>
<polygon fill="#ffffff" stroke="transparent" points="706.5,-37.7 706.5,-56.7 741.5,-56.7 741.5,-37.7 706.5,-37.7"/>
<polygon fill="none" stroke="#000000" points="706.5,-37.7 706.5,-56.7 741.5,-56.7 741.5,-37.7 706.5,-37.7"/>
<text text-anchor="start" x="732.3862" y="-43.8" font-family="Helvetica,sans-Serif" font-size="11.00" fill="#000000"> &#160;</text>
</a>
</g>
</g>
<!-- RUPOBS_geology&#45;&gt;METADATA_geology -->
<g id="edge4" class="edge">
<title>RUPOBS_geology:w&#45;&gt;METADATA_geology:e</title>
<path fill="none" stroke="#000000" d="M564.0758,-110.7092C498.0341,-131.7921 604.432,-311.7 515.5,-311.7"/>
<polygon fill="#000000" stroke="#000000" points="570.5765,-109.8037 578.9967,-112.2656 574.5382,-109.2519 578.5,-108.7 578.5,-108.7 578.5,-108.7 574.5382,-109.2519 578.0033,-105.1344 570.5765,-109.8037 570.5765,-109.8037"/>
<ellipse fill="none" stroke="#000000" cx="567.4071" cy="-110.2452" rx="3.2" ry="3.2"/>
</g>
<!-- RUPOBS_geology&#45;&gt;METADATA_datasets -->
<g id="edge5" class="edge">
<title>RUPOBS_geology:w&#45;&gt;METADATA_datasets:e</title>
<path fill="none" stroke="#000000" d="M563.9079,-130.7503C411.5866,-131.8234 368.5703,-149.9957 212,-179.7 193.7843,-183.1558 190.0406,-189.7 171.5,-189.7"/>
<polygon fill="#000000" stroke="#000000" points="570.5,-130.7276 578.5124,-134.3 574.5,-130.7138 578.5,-130.7 578.5,-130.7 578.5,-130.7 574.5,-130.7138 578.4876,-127.1 570.5,-130.7276 570.5,-130.7276"/>
<ellipse fill="none" stroke="#000000" cx="567.3001" cy="-130.7387" rx="3.2" ry="3.2"/>
</g>
</g>
</svg>
