<?xml version="1.0" encoding="UTF-8" standalone="no"?>
<!DOCTYPE svg PUBLIC "-//W3C//DTD SVG 1.1//EN"
 "http://www.w3.org/Graphics/SVG/1.1/DTD/svg11.dtd">
<!-- Generated by graphviz version 2.40.1 (20161225.0304)
 -->
<!-- Title: oneDegreeRelationshipsDiagram Pages: 1 -->
<svg width="569pt" height="286pt"
 viewBox="0.00 0.00 569.00 285.70" xmlns="http://www.w3.org/2000/svg" xmlns:xlink="http://www.w3.org/1999/xlink">
<g id="graph0" class="graph" transform="scale(1 1) rotate(0) translate(4 281.7)">
<title>oneDegreeRelationshipsDiagram</title>
<polygon fill="#ffffff" stroke="transparent" points="-4,4 -4,-281.7 565,-281.7 565,4 -4,4"/>
<text text-anchor="middle" x="72.4936" y="-7.3" font-family="Helvetica,sans-Serif" font-size="11.00" fill="#000000">Generated by SchemaSpy</text>
<!-- METADATA_ruptures -->
<g id="node1" class="node">
<title>METADATA_ruptures</title>
<g id="a_node1"><a xlink:href="../../tables/METADATA_ruptures.html" xlink:title="METADATA_ruptures" target="_top">
<polygon fill="#ffffff" stroke="transparent" points="256,-51.7 256,-273.7 553,-273.7 553,-51.7 256,-51.7"/>
<polygon fill="#f5f5f5" stroke="transparent" points="258.5,-248.7 258.5,-271.7 551.5,-271.7 551.5,-248.7 258.5,-248.7"/>
<polygon fill="none" stroke="#000000" points="258.5,-248.7 258.5,-271.7 551.5,-271.7 551.5,-248.7 258.5,-248.7"/>
<text text-anchor="start" x="263.5" y="-257.8" font-family="Helvetica,sans-Serif" font-weight="bold" font-size="11.00" fill="#000000">METADATA_ruptures</text>
<text text-anchor="start" x="516.5437" y="-256.8" font-family="Helvetica,sans-Serif" font-size="11.00" fill="#000000">[table]</text>
<polygon fill="none" stroke="#000000" points="258.5,-226.7 258.5,-248.7 421.5,-248.7 421.5,-226.7 258.5,-226.7"/>
<text text-anchor="start" x="278.5" y="-233.8" font-family="Helvetica,sans-Serif" font-size="11.00" fill="#000000">epsg_original</text>
<polygon fill="none" stroke="#000000" points="421.5,-226.7 421.5,-248.7 551.5,-248.7 551.5,-226.7 421.5,-226.7"/>
<text text-anchor="start" x="424.5" y="-234.4" font-family="Helvetica,sans-Serif" font-size="11.00" fill="#000000">integer[2000000000,10]</text>
<polygon fill="none" stroke="#000000" points="258.5,-204.7 258.5,-226.7 421.5,-226.7 421.5,-204.7 258.5,-204.7"/>
<text text-anchor="start" x="278.5" y="-211.8" font-family="Helvetica,sans-Serif" font-size="11.00" fill="#000000">completion</text>
<polygon fill="none" stroke="#000000" points="421.5,-204.7 421.5,-226.7 551.5,-226.7 551.5,-204.7 421.5,-204.7"/>
<text text-anchor="start" x="424.5" y="-212.4" font-family="Helvetica,sans-Serif" font-size="11.00" fill="#000000">text[2000000000,10]</text>
<polygon fill="none" stroke="#000000" points="258.5,-182.7 258.5,-204.7 421.5,-204.7 421.5,-182.7 258.5,-182.7"/>
<text text-anchor="start" x="278.5" y="-189.8" font-family="Helvetica,sans-Serif" font-size="11.00" fill="#000000">row_entry_date_updated</text>
<polygon fill="none" stroke="#000000" points="421.5,-182.7 421.5,-204.7 551.5,-204.7 551.5,-182.7 421.5,-182.7"/>
<text text-anchor="start" x="424.1372" y="-190.4" font-family="Helvetica,sans-Serif" font-size="11.00" fill="#000000">datetime[2000000000,10]</text>
<polygon fill="none" stroke="#000000" points="258.5,-160.7 258.5,-182.7 421.5,-182.7 421.5,-160.7 258.5,-160.7"/>
<image xlink:href="../../images/primaryKeys.png" width="11px" height="12px" preserveAspectRatio="xMinYMin meet" x="263.5" y="-177.7"/>
<text text-anchor="start" x="278.5" y="-167.8" font-family="Helvetica,sans-Serif" font-size="11.00" fill="#000000">EQ_ID</text>
<polygon fill="none" stroke="#000000" points="421.5,-160.7 421.5,-182.7 551.5,-182.7 551.5,-160.7 421.5,-160.7"/>
<text text-anchor="start" x="424.5" y="-168.4" font-family="Helvetica,sans-Serif" font-size="11.00" fill="#000000">integer[2000000000,10]</text>
<polygon fill="none" stroke="#000000" points="258.5,-138.7 258.5,-160.7 421.5,-160.7 421.5,-138.7 258.5,-138.7"/>
<text text-anchor="start" x="278.5" y="-145.8" font-family="Helvetica,sans-Serif" font-size="11.00" fill="#000000">location_basis</text>
<polygon fill="none" stroke="#000000" points="421.5,-138.7 421.5,-160.7 551.5,-160.7 551.5,-138.7 421.5,-138.7"/>
<text text-anchor="start" x="424.5" y="-146.4" font-family="Helvetica,sans-Serif" font-size="11.00" fill="#000000">text[2000000000,10]</text>
<polygon fill="none" stroke="#000000" points="258.5,-116.7 258.5,-138.7 421.5,-138.7 421.5,-116.7 258.5,-116.7"/>
<text text-anchor="start" x="278.5" y="-123.8" font-family="Helvetica,sans-Serif" font-size="11.00" fill="#000000">mapping_scale</text>
<polygon fill="none" stroke="#000000" points="421.5,-116.7 421.5,-138.7 551.5,-138.7 551.5,-116.7 421.5,-116.7"/>
<text text-anchor="start" x="424.5" y="-124.4" font-family="Helvetica,sans-Serif" font-size="11.00" fill="#000000">text[2000000000,10]</text>
<polygon fill="none" stroke="#000000" points="258.5,-94.7 258.5,-116.7 421.5,-116.7 421.5,-94.7 258.5,-94.7"/>
<image xlink:href="../../images/primaryKeys.png" width="11px" height="12px" preserveAspectRatio="xMinYMin meet" x="263.5" y="-111.7"/>
<text text-anchor="start" x="278.5" y="-101.8" font-family="Helvetica,sans-Serif" font-size="11.00" fill="#000000">DS_ID</text>
<polygon fill="none" stroke="#000000" points="421.5,-94.7 421.5,-116.7 551.5,-116.7 551.5,-94.7 421.5,-94.7"/>
<text text-anchor="start" x="424.5" y="-102.4" font-family="Helvetica,sans-Serif" font-size="11.00" fill="#000000">integer[2000000000,10]</text>
<polygon fill="none" stroke="#000000" points="258.5,-72.7 258.5,-94.7 421.5,-94.7 421.5,-72.7 258.5,-72.7"/>
<text text-anchor="start" x="278.5" y="-79.8" font-family="Helvetica,sans-Serif" font-size="11.00" fill="#000000">row_entry_source_file</text>
<polygon fill="none" stroke="#000000" points="421.5,-72.7 421.5,-94.7 551.5,-94.7 551.5,-72.7 421.5,-72.7"/>
<text text-anchor="start" x="424.5" y="-80.4" font-family="Helvetica,sans-Serif" font-size="11.00" fill="#000000">text[2000000000,10]</text>
<polygon fill="#ffffff" stroke="transparent" points="258.5,-53.7 258.5,-72.7 331.5,-72.7 331.5,-53.7 258.5,-53.7"/>
<polygon fill="none" stroke="#000000" points="258.5,-53.7 258.5,-72.7 331.5,-72.7 331.5,-53.7 258.5,-53.7"/>
<text text-anchor="start" x="261.5" y="-59.8" font-family="Helvetica,sans-Serif" font-size="11.00" fill="#000000">&lt; 2</text>
<polygon fill="#ffffff" stroke="transparent" points="331.5,-53.7 331.5,-72.7 421.5,-72.7 421.5,-53.7 331.5,-53.7"/>
<polygon fill="none" stroke="#000000" points="331.5,-53.7 331.5,-72.7 421.5,-72.7 421.5,-53.7 331.5,-53.7"/>
<text text-anchor="start" x="386.1105" y="-59.8" font-family="Helvetica,sans-Serif" font-size="11.00" fill="#000000">0 rows</text>
<polygon fill="#ffffff" stroke="transparent" points="421.5,-53.7 421.5,-72.7 551.5,-72.7 551.5,-53.7 421.5,-53.7"/>
<polygon fill="none" stroke="#000000" points="421.5,-53.7 421.5,-72.7 551.5,-72.7 551.5,-53.7 421.5,-53.7"/>
<text text-anchor="start" x="532.9053" y="-59.8" font-family="Helvetica,sans-Serif" font-size="11.00" fill="#000000">0 &gt;</text>
<polygon fill="none" stroke="#000000" stroke-width="2" points="257,-52.7 257,-272.7 552,-272.7 552,-52.7 257,-52.7"/>
</a>
</g>
</g>
<!-- METADATA_datasets -->
<g id="node2" class="node">
<title>METADATA_datasets</title>
<g id="a_node2"><a xlink:href="../../tables/METADATA_datasets.html" xlink:title="METADATA_datasets" target="_top">
<polygon fill="#ffffff" stroke="transparent" points="26,-38.2 26,-121.2 189,-121.2 189,-38.2 26,-38.2"/>
<polygon fill="#f5f5f5" stroke="transparent" points="26.5,-97.7 26.5,-120.7 189.5,-120.7 189.5,-97.7 26.5,-97.7"/>
<polygon fill="none" stroke="#000000" points="26.5,-97.7 26.5,-120.7 189.5,-120.7 189.5,-97.7 26.5,-97.7"/>
<text text-anchor="start" x="31.5" y="-106.8" font-family="Helvetica,sans-Serif" font-weight="bold" font-size="11.00" fill="#000000">METADATA_datasets</text>
<text text-anchor="start" x="154.5437" y="-105.8" font-family="Helvetica,sans-Serif" font-size="11.00" fill="#000000">[table]</text>
<polygon fill="none" stroke="#000000" points="26.5,-75.7 26.5,-97.7 189.5,-97.7 189.5,-75.7 26.5,-75.7"/>
<image xlink:href="../../images/primaryKeys.png" width="11px" height="12px" preserveAspectRatio="xMinYMin meet" x="31.5" y="-92.7"/>
<text text-anchor="start" x="46.5" y="-82.8" font-family="Helvetica,sans-Serif" font-size="11.00" fill="#000000">DS_ID</text>
<polygon fill="none" stroke="#000000" points="26.5,-56.7 26.5,-75.7 189.5,-75.7 189.5,-56.7 26.5,-56.7"/>
<text text-anchor="start" x="29.5" y="-62.8" font-family="Helvetica,sans-Serif" font-size="11.00" fill="#000000">...</text>
<polygon fill="#ffffff" stroke="transparent" points="26.5,-37.7 26.5,-56.7 81.5,-56.7 81.5,-37.7 26.5,-37.7"/>
<polygon fill="none" stroke="#000000" points="26.5,-37.7 26.5,-56.7 81.5,-56.7 81.5,-37.7 26.5,-37.7"/>
<text text-anchor="start" x="29.5" y="-43.8" font-family="Helvetica,sans-Serif" font-size="11.00" fill="#000000"> &#160;</text>
<polygon fill="#ffffff" stroke="transparent" points="81.5,-37.7 81.5,-56.7 140.5,-56.7 140.5,-37.7 81.5,-37.7"/>
<polygon fill="none" stroke="#000000" points="81.5,-37.7 81.5,-56.7 140.5,-56.7 140.5,-37.7 81.5,-37.7"/>
<text text-anchor="start" x="105.1105" y="-43.8" font-family="Helvetica,sans-Serif" font-size="11.00" fill="#000000">0 rows</text>
<polygon fill="#ffffff" stroke="transparent" points="140.5,-37.7 140.5,-56.7 189.5,-56.7 189.5,-37.7 140.5,-37.7"/>
<polygon fill="none" stroke="#000000" points="140.5,-37.7 140.5,-56.7 189.5,-56.7 189.5,-37.7 140.5,-37.7"/>
<text text-anchor="start" x="164.7904" y="-43.8" font-family="Helvetica,sans-Serif" font-size="11.00" fill="#000000">35 &gt;</text>
</a>
</g>
</g>
<!-- METADATA_ruptures&#45;&gt;METADATA_datasets -->
<g id="edge1" class="edge">
<title>METADATA_ruptures:w&#45;&gt;METADATA_datasets:e</title>
<path fill="none" stroke="#000000" d="M244.1724,-104.2091C224.0606,-99.73 215.8411,-86.7 189.5,-86.7"/>
<polygon fill="#000000" stroke="#000000" points="250.543,-104.872 258.1274,-109.2807 254.5215,-105.286 258.5,-105.7 258.5,-105.7 258.5,-105.7 254.5215,-105.286 258.8726,-102.1193 250.543,-104.872 250.543,-104.872"/>
<ellipse fill="none" stroke="#000000" cx="247.3601" cy="-104.5407" rx="3.2" ry="3.2"/>
</g>
<!-- METADATA_events -->
<g id="node3" class="node">
<title>METADATA_events</title>
<g id="a_node3"><a xlink:href="../../tables/METADATA_events.html" xlink:title="METADATA_events" target="_top">
<polygon fill="#ffffff" stroke="transparent" points="8,-142.2 8,-225.2 207,-225.2 207,-142.2 8,-142.2"/>
<polygon fill="#f5f5f5" stroke="transparent" points="8.5,-201.7 8.5,-224.7 207.5,-224.7 207.5,-201.7 8.5,-201.7"/>
<polygon fill="none" stroke="#000000" points="8.5,-201.7 8.5,-224.7 207.5,-224.7 207.5,-201.7 8.5,-201.7"/>
<text text-anchor="start" x="13.5" y="-210.8" font-family="Helvetica,sans-Serif" font-weight="bold" font-size="11.00" fill="#000000">METADATA_events</text>
<text text-anchor="start" x="172.5437" y="-209.8" font-family="Helvetica,sans-Serif" font-size="11.00" fill="#000000">[table]</text>
<polygon fill="none" stroke="#000000" points="8.5,-179.7 8.5,-201.7 207.5,-201.7 207.5,-179.7 8.5,-179.7"/>
<image xlink:href="../../images/primaryKeys.png" width="11px" height="12px" preserveAspectRatio="xMinYMin meet" x="13.5" y="-196.7"/>
<text text-anchor="start" x="28.5" y="-186.8" font-family="Helvetica,sans-Serif" font-size="11.00" fill="#000000">EQ_ID</text>
<polygon fill="none" stroke="#000000" points="8.5,-160.7 8.5,-179.7 207.5,-179.7 207.5,-160.7 8.5,-160.7"/>
<text text-anchor="start" x="11.5" y="-166.8" font-family="Helvetica,sans-Serif" font-size="11.00" fill="#000000">...</text>
<polygon fill="#ffffff" stroke="transparent" points="8.5,-141.7 8.5,-160.7 81.5,-160.7 81.5,-141.7 8.5,-141.7"/>
<polygon fill="none" stroke="#000000" points="8.5,-141.7 8.5,-160.7 81.5,-160.7 81.5,-141.7 8.5,-141.7"/>
<text text-anchor="start" x="11.5" y="-147.8" font-family="Helvetica,sans-Serif" font-size="11.00" fill="#000000"> &#160;</text>
<polygon fill="#ffffff" stroke="transparent" points="81.5,-141.7 81.5,-160.7 149.5,-160.7 149.5,-141.7 81.5,-141.7"/>
<polygon fill="none" stroke="#000000" points="81.5,-141.7 81.5,-160.7 149.5,-160.7 149.5,-141.7 81.5,-141.7"/>
<text text-anchor="start" x="114.1105" y="-147.8" font-family="Helvetica,sans-Serif" font-size="11.00" fill="#000000">0 rows</text>
<polygon fill="#ffffff" stroke="transparent" points="149.5,-141.7 149.5,-160.7 207.5,-160.7 207.5,-141.7 149.5,-141.7"/>
<polygon fill="none" stroke="#000000" points="149.5,-141.7 149.5,-160.7 207.5,-160.7 207.5,-141.7 149.5,-141.7"/>
<text text-anchor="start" x="182.7904" y="-147.8" font-family="Helvetica,sans-Serif" font-size="11.00" fill="#000000">34 &gt;</text>
</a>
</g>
</g>
<!-- METADATA_ruptures&#45;&gt;METADATA_events -->
<g id="edge2" class="edge">
<title>METADATA_ruptures:w&#45;&gt;METADATA_events:e</title>
<path fill="none" stroke="#000000" d="M244.1076,-174.5035C231.7761,-179.7887 225.8304,-190.7 207.5,-190.7"/>
<polygon fill="#000000" stroke="#000000" points="250.6476,-173.2296 259.1883,-175.2336 254.5738,-172.4648 258.5,-171.7 258.5,-171.7 258.5,-171.7 254.5738,-172.4648 257.8117,-168.1664 250.6476,-173.2296 250.6476,-173.2296"/>
<ellipse fill="none" stroke="#000000" cx="247.5066" cy="-173.8415" rx="3.2" ry="3.2"/>
</g>
</g>
</svg>
