<?xml version="1.0" encoding="UTF-8" standalone="no"?>
<!DOCTYPE svg PUBLIC "-//W3C//DTD SVG 1.1//EN"
 "http://www.w3.org/Graphics/SVG/1.1/DTD/svg11.dtd">
<!-- Generated by graphviz version 2.40.1 (20161225.0304)
 -->
<!-- Title: oneDegreeRelationshipsDiagram Pages: 1 -->
<svg width="838pt" height="448pt"
 viewBox="0.00 0.00 838.00 447.84" xmlns="http://www.w3.org/2000/svg" xmlns:xlink="http://www.w3.org/1999/xlink">
<g id="graph0" class="graph" transform="scale(1 1) rotate(0) translate(4 443.8446)">
<title>oneDegreeRelationshipsDiagram</title>
<polygon fill="#ffffff" stroke="transparent" points="-4,4 -4,-443.8446 834,-443.8446 834,4 -4,4"/>
<text text-anchor="middle" x="72.4936" y="-7.3" font-family="Helvetica,sans-Serif" font-size="11.00" fill="#000000">Generated by SchemaSpy</text>
<!-- PAIRING_ptrup -->
<g id="node1" class="node">
<title>PAIRING_ptrup</title>
<g id="a_node1"><a xlink:href="../../tables/PAIRING_ptrup.html" xlink:title="PAIRING_ptrup" target="_top">
<polygon fill="#ffffff" stroke="transparent" points="506,-115.3446 506,-337.3446 822,-337.3446 822,-115.3446 506,-115.3446"/>
<polygon fill="#f5f5f5" stroke="transparent" points="508,-312.3446 508,-335.3446 820,-335.3446 820,-312.3446 508,-312.3446"/>
<polygon fill="none" stroke="#000000" points="508,-312.3446 508,-335.3446 820,-335.3446 820,-312.3446 508,-312.3446"/>
<text text-anchor="start" x="513" y="-321.4446" font-family="Helvetica,sans-Serif" font-weight="bold" font-size="11.00" fill="#000000">PAIRING_ptrup</text>
<text text-anchor="start" x="785.0437" y="-320.4446" font-family="Helvetica,sans-Serif" font-size="11.00" fill="#000000">[table]</text>
<polygon fill="none" stroke="#000000" points="508,-290.3446 508,-312.3446 690,-312.3446 690,-290.3446 508,-290.3446"/>
<image xlink:href="../../images/primaryKeys.png" width="11px" height="12px" preserveAspectRatio="xMinYMin meet" x="513" y="-307.345"/>
<text text-anchor="start" x="528" y="-297.4446" font-family="Helvetica,sans-Serif" font-size="11.00" fill="#000000">PT_ID</text>
<polygon fill="none" stroke="#000000" points="690,-290.3446 690,-312.3446 820,-312.3446 820,-290.3446 690,-290.3446"/>
<text text-anchor="start" x="693" y="-298.0446" font-family="Helvetica,sans-Serif" font-size="11.00" fill="#000000">integer[2000000000,10]</text>
<polygon fill="none" stroke="#000000" points="508,-268.3446 508,-290.3446 690,-290.3446 690,-268.3446 508,-268.3446"/>
<text text-anchor="start" x="528" y="-275.4446" font-family="Helvetica,sans-Serif" font-size="11.00" fill="#000000">row_entry_date_updated</text>
<polygon fill="none" stroke="#000000" points="690,-268.3446 690,-290.3446 820,-290.3446 820,-268.3446 690,-268.3446"/>
<text text-anchor="start" x="692.6372" y="-276.0446" font-family="Helvetica,sans-Serif" font-size="11.00" fill="#000000">datetime[2000000000,10]</text>
<polygon fill="none" stroke="#000000" points="508,-246.3446 508,-268.3446 690,-268.3446 690,-246.3446 508,-246.3446"/>
<image xlink:href="../../images/primaryKeys.png" width="11px" height="12px" preserveAspectRatio="xMinYMin meet" x="513" y="-263.345"/>
<text text-anchor="start" x="528" y="-253.4446" font-family="Helvetica,sans-Serif" font-size="11.00" fill="#000000">EQ_ID</text>
<polygon fill="none" stroke="#000000" points="690,-246.3446 690,-268.3446 820,-268.3446 820,-246.3446 690,-246.3446"/>
<text text-anchor="start" x="693" y="-254.0446" font-family="Helvetica,sans-Serif" font-size="11.00" fill="#000000">integer[2000000000,10]</text>
<polygon fill="none" stroke="#000000" points="508,-224.3446 508,-246.3446 690,-246.3446 690,-224.3446 508,-224.3446"/>
<image xlink:href="../../images/primaryKeys.png" width="11px" height="12px" preserveAspectRatio="xMinYMin meet" x="513" y="-241.345"/>
<text text-anchor="start" x="528" y="-231.4446" font-family="Helvetica,sans-Serif" font-size="11.00" fill="#000000">RUP_DS_ID</text>
<polygon fill="none" stroke="#000000" points="690,-224.3446 690,-246.3446 820,-246.3446 820,-224.3446 690,-224.3446"/>
<text text-anchor="start" x="693" y="-232.0446" font-family="Helvetica,sans-Serif" font-size="11.00" fill="#000000">integer[2000000000,10]</text>
<polygon fill="none" stroke="#000000" points="508,-202.3446 508,-224.3446 690,-224.3446 690,-202.3446 508,-202.3446"/>
<text text-anchor="start" x="528" y="-209.4446" font-family="Helvetica,sans-Serif" font-size="11.00" fill="#000000">distance_to_rupture_meters</text>
<polygon fill="none" stroke="#000000" points="690,-202.3446 690,-224.3446 820,-224.3446 820,-202.3446 690,-202.3446"/>
<text text-anchor="start" x="693" y="-210.0446" font-family="Helvetica,sans-Serif" font-size="11.00" fill="#000000">float[2000000000,10]</text>
<polygon fill="none" stroke="#000000" points="508,-180.3446 508,-202.3446 690,-202.3446 690,-180.3446 508,-180.3446"/>
<image xlink:href="../../images/primaryKeys.png" width="11px" height="12px" preserveAspectRatio="xMinYMin meet" x="513" y="-197.345"/>
<text text-anchor="start" x="528" y="-187.4446" font-family="Helvetica,sans-Serif" font-size="11.00" fill="#000000">PT_DS_ID</text>
<polygon fill="none" stroke="#000000" points="690,-180.3446 690,-202.3446 820,-202.3446 820,-180.3446 690,-180.3446"/>
<text text-anchor="start" x="693" y="-188.0446" font-family="Helvetica,sans-Serif" font-size="11.00" fill="#000000">integer[2000000000,10]</text>
<polygon fill="none" stroke="#000000" points="508,-158.3446 508,-180.3446 690,-180.3446 690,-158.3446 508,-158.3446"/>
<image xlink:href="../../images/foreignKeys.png" width="11px" height="12px" preserveAspectRatio="xMinYMin meet" x="513" y="-175.345"/>
<text text-anchor="start" x="528" y="-165.4446" font-family="Helvetica,sans-Serif" font-size="11.00" fill="#000000">RUP_ID</text>
<polygon fill="none" stroke="#000000" points="690,-158.3446 690,-180.3446 820,-180.3446 820,-158.3446 690,-158.3446"/>
<text text-anchor="start" x="693" y="-166.0446" font-family="Helvetica,sans-Serif" font-size="11.00" fill="#000000">integer[2000000000,10]</text>
<polygon fill="none" stroke="#000000" points="508,-136.3446 508,-158.3446 690,-158.3446 690,-136.3446 508,-136.3446"/>
<text text-anchor="start" x="528" y="-143.4446" font-family="Helvetica,sans-Serif" font-size="11.00" fill="#000000">row_entry_source_file</text>
<polygon fill="none" stroke="#000000" points="690,-136.3446 690,-158.3446 820,-158.3446 820,-136.3446 690,-136.3446"/>
<text text-anchor="start" x="693" y="-144.0446" font-family="Helvetica,sans-Serif" font-size="11.00" fill="#000000">text[2000000000,10]</text>
<polygon fill="#ffffff" stroke="transparent" points="508,-117.3446 508,-136.3446 590,-136.3446 590,-117.3446 508,-117.3446"/>
<polygon fill="none" stroke="#000000" points="508,-117.3446 508,-136.3446 590,-136.3446 590,-117.3446 508,-117.3446"/>
<text text-anchor="start" x="511" y="-123.4446" font-family="Helvetica,sans-Serif" font-size="11.00" fill="#000000">&lt; 5</text>
<polygon fill="#ffffff" stroke="transparent" points="590,-117.3446 590,-136.3446 690,-136.3446 690,-117.3446 590,-117.3446"/>
<polygon fill="none" stroke="#000000" points="590,-117.3446 590,-136.3446 690,-136.3446 690,-117.3446 590,-117.3446"/>
<text text-anchor="start" x="654.6105" y="-123.4446" font-family="Helvetica,sans-Serif" font-size="11.00" fill="#000000">0 rows</text>
<polygon fill="#ffffff" stroke="transparent" points="690,-117.3446 690,-136.3446 820,-136.3446 820,-117.3446 690,-117.3446"/>
<polygon fill="none" stroke="#000000" points="690,-117.3446 690,-136.3446 820,-136.3446 820,-117.3446 690,-117.3446"/>
<text text-anchor="start" x="801.4053" y="-123.4446" font-family="Helvetica,sans-Serif" font-size="11.00" fill="#000000">0 &gt;</text>
<polygon fill="none" stroke="#000000" stroke-width="2" points="507,-116.3446 507,-336.3446 821,-336.3446 821,-116.3446 507,-116.3446"/>
</a>
</g>
</g>
<!-- METADATA_events -->
<g id="node2" class="node">
<title>METADATA_events</title>
<g id="a_node2"><a xlink:href="../../tables/METADATA_events.html" xlink:title="METADATA_events" target="_top">
<polygon fill="#ffffff" stroke="transparent" points="8,-231.8446 8,-314.8446 207,-314.8446 207,-231.8446 8,-231.8446"/>
<polygon fill="#f5f5f5" stroke="transparent" points="8.5,-291.3446 8.5,-314.3446 207.5,-314.3446 207.5,-291.3446 8.5,-291.3446"/>
<polygon fill="none" stroke="#000000" points="8.5,-291.3446 8.5,-314.3446 207.5,-314.3446 207.5,-291.3446 8.5,-291.3446"/>
<text text-anchor="start" x="13.5" y="-300.4446" font-family="Helvetica,sans-Serif" font-weight="bold" font-size="11.00" fill="#000000">METADATA_events</text>
<text text-anchor="start" x="172.5437" y="-299.4446" font-family="Helvetica,sans-Serif" font-size="11.00" fill="#000000">[table]</text>
<polygon fill="none" stroke="#000000" points="8.5,-269.3446 8.5,-291.3446 207.5,-291.3446 207.5,-269.3446 8.5,-269.3446"/>
<image xlink:href="../../images/primaryKeys.png" width="11px" height="12px" preserveAspectRatio="xMinYMin meet" x="13.5" y="-286.345"/>
<text text-anchor="start" x="28.5" y="-276.4446" font-family="Helvetica,sans-Serif" font-size="11.00" fill="#000000">EQ_ID</text>
<polygon fill="none" stroke="#000000" points="8.5,-250.3446 8.5,-269.3446 207.5,-269.3446 207.5,-250.3446 8.5,-250.3446"/>
<text text-anchor="start" x="11.5" y="-256.4446" font-family="Helvetica,sans-Serif" font-size="11.00" fill="#000000">...</text>
<polygon fill="#ffffff" stroke="transparent" points="8.5,-231.3446 8.5,-250.3446 81.5,-250.3446 81.5,-231.3446 8.5,-231.3446"/>
<polygon fill="none" stroke="#000000" points="8.5,-231.3446 8.5,-250.3446 81.5,-250.3446 81.5,-231.3446 8.5,-231.3446"/>
<text text-anchor="start" x="11.5" y="-237.4446" font-family="Helvetica,sans-Serif" font-size="11.00" fill="#000000"> &#160;</text>
<polygon fill="#ffffff" stroke="transparent" points="81.5,-231.3446 81.5,-250.3446 149.5,-250.3446 149.5,-231.3446 81.5,-231.3446"/>
<polygon fill="none" stroke="#000000" points="81.5,-231.3446 81.5,-250.3446 149.5,-250.3446 149.5,-231.3446 81.5,-231.3446"/>
<text text-anchor="start" x="114.1105" y="-237.4446" font-family="Helvetica,sans-Serif" font-size="11.00" fill="#000000">0 rows</text>
<polygon fill="#ffffff" stroke="transparent" points="149.5,-231.3446 149.5,-250.3446 207.5,-250.3446 207.5,-231.3446 149.5,-231.3446"/>
<polygon fill="none" stroke="#000000" points="149.5,-231.3446 149.5,-250.3446 207.5,-250.3446 207.5,-231.3446 149.5,-231.3446"/>
<text text-anchor="start" x="182.7904" y="-237.4446" font-family="Helvetica,sans-Serif" font-size="11.00" fill="#000000">34 &gt;</text>
</a>
</g>
</g>
<!-- PAIRING_ptrup&#45;&gt;METADATA_events -->
<g id="edge1" class="edge">
<title>PAIRING_ptrup:w&#45;&gt;METADATA_events:e</title>
<path fill="none" stroke="#000000" d="M493.5335,-257.3943C389.5099,-258.1268 358.4783,-266.8538 248,-276.3446 229.9788,-277.8928 225.5876,-280.3446 207.5,-280.3446"/>
<polygon fill="#000000" stroke="#000000" points="500,-257.3722 508.0124,-260.9446 504,-257.3584 508,-257.3446 508,-257.3446 508,-257.3446 504,-257.3584 507.9876,-253.7447 500,-257.3722 500,-257.3722"/>
<ellipse fill="none" stroke="#000000" cx="496.8001" cy="-257.3832" rx="3.2" ry="3.2"/>
</g>
<!-- METADATA_datasets -->
<g id="node3" class="node">
<title>METADATA_datasets</title>
<g id="a_node3"><a xlink:href="../../tables/METADATA_datasets.html" xlink:title="METADATA_datasets" target="_top">
<polygon fill="#ffffff" stroke="transparent" points="26,-127.8446 26,-210.8446 189,-210.8446 189,-127.8446 26,-127.8446"/>
<polygon fill="#f5f5f5" stroke="transparent" points="26.5,-187.3446 26.5,-210.3446 189.5,-210.3446 189.5,-187.3446 26.5,-187.3446"/>
<polygon fill="none" stroke="#000000" points="26.5,-187.3446 26.5,-210.3446 189.5,-210.3446 189.5,-187.3446 26.5,-187.3446"/>
<text text-anchor="start" x="31.5" y="-196.4446" font-family="Helvetica,sans-Serif" font-weight="bold" font-size="11.00" fill="#000000">METADATA_datasets</text>
<text text-anchor="start" x="154.5437" y="-195.4446" font-family="Helvetica,sans-Serif" font-size="11.00" fill="#000000">[table]</text>
<polygon fill="none" stroke="#000000" points="26.5,-165.3446 26.5,-187.3446 189.5,-187.3446 189.5,-165.3446 26.5,-165.3446"/>
<image xlink:href="../../images/primaryKeys.png" width="11px" height="12px" preserveAspectRatio="xMinYMin meet" x="31.5" y="-182.345"/>
<text text-anchor="start" x="46.5" y="-172.4446" font-family="Helvetica,sans-Serif" font-size="11.00" fill="#000000">DS_ID</text>
<polygon fill="none" stroke="#000000" points="26.5,-146.3446 26.5,-165.3446 189.5,-165.3446 189.5,-146.3446 26.5,-146.3446"/>
<text text-anchor="start" x="29.5" y="-152.4446" font-family="Helvetica,sans-Serif" font-size="11.00" fill="#000000">...</text>
<polygon fill="#ffffff" stroke="transparent" points="26.5,-127.3446 26.5,-146.3446 81.5,-146.3446 81.5,-127.3446 26.5,-127.3446"/>
<polygon fill="none" stroke="#000000" points="26.5,-127.3446 26.5,-146.3446 81.5,-146.3446 81.5,-127.3446 26.5,-127.3446"/>
<text text-anchor="start" x="29.5" y="-133.4446" font-family="Helvetica,sans-Serif" font-size="11.00" fill="#000000"> &#160;</text>
<polygon fill="#ffffff" stroke="transparent" points="81.5,-127.3446 81.5,-146.3446 140.5,-146.3446 140.5,-127.3446 81.5,-127.3446"/>
<polygon fill="none" stroke="#000000" points="81.5,-127.3446 81.5,-146.3446 140.5,-146.3446 140.5,-127.3446 81.5,-127.3446"/>
<text text-anchor="start" x="105.1105" y="-133.4446" font-family="Helvetica,sans-Serif" font-size="11.00" fill="#000000">0 rows</text>
<polygon fill="#ffffff" stroke="transparent" points="140.5,-127.3446 140.5,-146.3446 189.5,-146.3446 189.5,-127.3446 140.5,-127.3446"/>
<polygon fill="none" stroke="#000000" points="140.5,-127.3446 140.5,-146.3446 189.5,-146.3446 189.5,-127.3446 140.5,-127.3446"/>
<text text-anchor="start" x="164.7904" y="-133.4446" font-family="Helvetica,sans-Serif" font-size="11.00" fill="#000000">35 &gt;</text>
</a>
</g>
</g>
<!-- PAIRING_ptrup&#45;&gt;METADATA_datasets -->
<g id="edge2" class="edge">
<title>PAIRING_ptrup:w&#45;&gt;METADATA_datasets:e</title>
<path fill="none" stroke="#000000" d="M493.5031,-188.4416C463.7418,-173.1795 505.728,-101.851 465,-73.3446 385.9867,-18.0416 331.3523,-24.8274 248,-73.3446 202.5005,-99.8287 242.146,-176.3446 189.5,-176.3446"/>
<polygon fill="#000000" stroke="#000000" points="500.1557,-189.7738 507.2931,-194.8746 504.0779,-190.5592 508,-191.3446 508,-191.3446 508,-191.3446 504.0779,-190.5592 508.7069,-187.8147 500.1557,-189.7738 500.1557,-189.7738"/>
<ellipse fill="none" stroke="#000000" cx="497.018" cy="-189.1454" rx="3.2" ry="3.2"/>
</g>
<!-- PAIRING_ptrup&#45;&gt;METADATA_datasets -->
<g id="edge4" class="edge">
<title>PAIRING_ptrup:w&#45;&gt;METADATA_datasets:e</title>
<path fill="none" stroke="#000000" d="M493.5134,-235.4824C389.0696,-237.4733 351.8546,-259.814 248,-221.3446 217.24,-209.9507 222.3024,-176.3446 189.5,-176.3446"/>
<polygon fill="#000000" stroke="#000000" points="500.0004,-235.4208 508.0343,-238.9445 504.0002,-235.3827 508,-235.3446 508,-235.3446 508,-235.3446 504.0002,-235.3827 507.9657,-231.7448 500.0004,-235.4208 500.0004,-235.4208"/>
<ellipse fill="none" stroke="#000000" cx="496.8005" cy="-235.4512" rx="3.2" ry="3.2"/>
</g>
<!-- PTOBS_id -->
<g id="node4" class="node">
<title>PTOBS_id</title>
<g id="a_node4"><a xlink:href="../../tables/PTOBS_id.html" xlink:title="PTOBS_id" target="_top">
<polygon fill="#ffffff" stroke="transparent" points="256,-286.8446 256,-435.8446 457,-435.8446 457,-286.8446 256,-286.8446"/>
<polygon fill="#f5f5f5" stroke="transparent" points="256.5,-412.3446 256.5,-435.3446 457.5,-435.3446 457.5,-412.3446 256.5,-412.3446"/>
<polygon fill="none" stroke="#000000" points="256.5,-412.3446 256.5,-435.3446 457.5,-435.3446 457.5,-412.3446 256.5,-412.3446"/>
<text text-anchor="start" x="261.5" y="-421.4446" font-family="Helvetica,sans-Serif" font-weight="bold" font-size="11.00" fill="#000000">PTOBS_id</text>
<text text-anchor="start" x="422.5437" y="-420.4446" font-family="Helvetica,sans-Serif" font-size="11.00" fill="#000000">[table]</text>
<polygon fill="none" stroke="#000000" points="256.5,-390.3446 256.5,-412.3446 457.5,-412.3446 457.5,-390.3446 256.5,-390.3446"/>
<image xlink:href="../../images/primaryKeys.png" width="11px" height="12px" preserveAspectRatio="xMinYMin meet" x="261.5" y="-407.345"/>
<text text-anchor="start" x="276.5" y="-397.4446" font-family="Helvetica,sans-Serif" font-size="11.00" fill="#000000">DS_ID</text>
<polygon fill="none" stroke="#000000" points="256.5,-368.3446 256.5,-390.3446 457.5,-390.3446 457.5,-368.3446 256.5,-368.3446"/>
<image xlink:href="../../images/primaryKeys.png" width="11px" height="12px" preserveAspectRatio="xMinYMin meet" x="261.5" y="-385.345"/>
<text text-anchor="start" x="276.5" y="-375.4446" font-family="Helvetica,sans-Serif" font-size="11.00" fill="#000000">EQ_ID</text>
<polygon fill="none" stroke="#000000" points="256.5,-346.3446 256.5,-368.3446 457.5,-368.3446 457.5,-346.3446 256.5,-346.3446"/>
<image xlink:href="../../images/primaryKeys.png" width="11px" height="12px" preserveAspectRatio="xMinYMin meet" x="261.5" y="-363.345"/>
<text text-anchor="start" x="276.5" y="-353.4446" font-family="Helvetica,sans-Serif" font-size="11.00" fill="#000000">MEAS_ID</text>
<polygon fill="none" stroke="#000000" points="256.5,-324.3446 256.5,-346.3446 457.5,-346.3446 457.5,-324.3446 256.5,-324.3446"/>
<image xlink:href="../../images/primaryKeys.png" width="11px" height="12px" preserveAspectRatio="xMinYMin meet" x="261.5" y="-341.345"/>
<text text-anchor="start" x="276.5" y="-331.4446" font-family="Helvetica,sans-Serif" font-size="11.00" fill="#000000">PT_ID</text>
<polygon fill="none" stroke="#000000" points="256.5,-305.3446 256.5,-324.3446 457.5,-324.3446 457.5,-305.3446 256.5,-305.3446"/>
<text text-anchor="start" x="259.5" y="-311.4446" font-family="Helvetica,sans-Serif" font-size="11.00" fill="#000000">...</text>
<polygon fill="#ffffff" stroke="transparent" points="256.5,-286.3446 256.5,-305.3446 334.5,-305.3446 334.5,-286.3446 256.5,-286.3446"/>
<polygon fill="none" stroke="#000000" points="256.5,-286.3446 256.5,-305.3446 334.5,-305.3446 334.5,-286.3446 256.5,-286.3446"/>
<text text-anchor="start" x="259.5" y="-292.4446" font-family="Helvetica,sans-Serif" font-size="11.00" fill="#000000">&lt; 2</text>
<polygon fill="#ffffff" stroke="transparent" points="334.5,-286.3446 334.5,-305.3446 401.5,-305.3446 401.5,-286.3446 334.5,-286.3446"/>
<polygon fill="none" stroke="#000000" points="334.5,-286.3446 334.5,-305.3446 401.5,-305.3446 401.5,-286.3446 334.5,-286.3446"/>
<text text-anchor="start" x="366.1105" y="-292.4446" font-family="Helvetica,sans-Serif" font-size="11.00" fill="#000000">0 rows</text>
<polygon fill="#ffffff" stroke="transparent" points="401.5,-286.3446 401.5,-305.3446 457.5,-305.3446 457.5,-286.3446 401.5,-286.3446"/>
<polygon fill="none" stroke="#000000" points="401.5,-286.3446 401.5,-305.3446 457.5,-305.3446 457.5,-286.3446 401.5,-286.3446"/>
<text text-anchor="start" x="432.7904" y="-292.4446" font-family="Helvetica,sans-Serif" font-size="11.00" fill="#000000">35 &gt;</text>
</a>
</g>
</g>
<!-- PAIRING_ptrup&#45;&gt;PTOBS_id -->
<g id="edge3" class="edge">
<title>PAIRING_ptrup:w&#45;&gt;PTOBS_id:e</title>
<path fill="none" stroke="#000000" d="M494.0046,-305.5137C481.0564,-314.5927 478.6385,-335.3446 457.5,-335.3446"/>
<polygon fill="#000000" stroke="#000000" points="500.3329,-303.6286 509.0278,-304.7948 504.1665,-302.4866 508,-301.3446 508,-301.3446 508,-301.3446 504.1665,-302.4866 506.9722,-297.8945 500.3329,-303.6286 500.3329,-303.6286"/>
<ellipse fill="none" stroke="#000000" cx="497.2661" cy="-304.5422" rx="3.2" ry="3.2"/>
</g>
<!-- RUPOBS_id -->
<g id="node5" class="node">
<title>RUPOBS_id</title>
<g id="a_node5"><a xlink:href="../../tables/RUPOBS_id.html" xlink:title="RUPOBS_id" target="_top">
<polygon fill="#ffffff" stroke="transparent" points="275,-83.8446 275,-210.8446 438,-210.8446 438,-83.8446 275,-83.8446"/>
<polygon fill="#f5f5f5" stroke="transparent" points="275.5,-187.3446 275.5,-210.3446 438.5,-210.3446 438.5,-187.3446 275.5,-187.3446"/>
<polygon fill="none" stroke="#000000" points="275.5,-187.3446 275.5,-210.3446 438.5,-210.3446 438.5,-187.3446 275.5,-187.3446"/>
<text text-anchor="start" x="280.5" y="-196.4446" font-family="Helvetica,sans-Serif" font-weight="bold" font-size="11.00" fill="#000000">RUPOBS_id</text>
<text text-anchor="start" x="403.5437" y="-195.4446" font-family="Helvetica,sans-Serif" font-size="11.00" fill="#000000">[table]</text>
<polygon fill="none" stroke="#000000" points="275.5,-165.3446 275.5,-187.3446 438.5,-187.3446 438.5,-165.3446 275.5,-165.3446"/>
<image xlink:href="../../images/primaryKeys.png" width="11px" height="12px" preserveAspectRatio="xMinYMin meet" x="280.5" y="-182.345"/>
<text text-anchor="start" x="295.5" y="-172.4446" font-family="Helvetica,sans-Serif" font-size="11.00" fill="#000000">DS_ID</text>
<polygon fill="none" stroke="#000000" points="275.5,-143.3446 275.5,-165.3446 438.5,-165.3446 438.5,-143.3446 275.5,-143.3446"/>
<image xlink:href="../../images/primaryKeys.png" width="11px" height="12px" preserveAspectRatio="xMinYMin meet" x="280.5" y="-160.345"/>
<text text-anchor="start" x="295.5" y="-150.4446" font-family="Helvetica,sans-Serif" font-size="11.00" fill="#000000">EQ_ID</text>
<polygon fill="none" stroke="#000000" points="275.5,-121.3446 275.5,-143.3446 438.5,-143.3446 438.5,-121.3446 275.5,-121.3446"/>
<image xlink:href="../../images/primaryKeys.png" width="11px" height="12px" preserveAspectRatio="xMinYMin meet" x="280.5" y="-138.345"/>
<text text-anchor="start" x="295.5" y="-128.4446" font-family="Helvetica,sans-Serif" font-size="11.00" fill="#000000">RUP_ID</text>
<polygon fill="none" stroke="#000000" points="275.5,-102.3446 275.5,-121.3446 438.5,-121.3446 438.5,-102.3446 275.5,-102.3446"/>
<text text-anchor="start" x="278.5" y="-108.4446" font-family="Helvetica,sans-Serif" font-size="11.00" fill="#000000">...</text>
<polygon fill="#ffffff" stroke="transparent" points="275.5,-83.3446 275.5,-102.3446 334.5,-102.3446 334.5,-83.3446 275.5,-83.3446"/>
<polygon fill="none" stroke="#000000" points="275.5,-83.3446 275.5,-102.3446 334.5,-102.3446 334.5,-83.3446 275.5,-83.3446"/>
<text text-anchor="start" x="278.5" y="-89.4446" font-family="Helvetica,sans-Serif" font-size="11.00" fill="#000000">&lt; 2</text>
<polygon fill="#ffffff" stroke="transparent" points="334.5,-83.3446 334.5,-102.3446 391.5,-102.3446 391.5,-83.3446 334.5,-83.3446"/>
<polygon fill="none" stroke="#000000" points="334.5,-83.3446 334.5,-102.3446 391.5,-102.3446 391.5,-83.3446 334.5,-83.3446"/>
<text text-anchor="start" x="356.1105" y="-89.4446" font-family="Helvetica,sans-Serif" font-size="11.00" fill="#000000">0 rows</text>
<polygon fill="#ffffff" stroke="transparent" points="391.5,-83.3446 391.5,-102.3446 438.5,-102.3446 438.5,-83.3446 391.5,-83.3446"/>
<polygon fill="none" stroke="#000000" points="391.5,-83.3446 391.5,-102.3446 438.5,-102.3446 438.5,-83.3446 391.5,-83.3446"/>
<text text-anchor="start" x="413.7904" y="-89.4446" font-family="Helvetica,sans-Serif" font-size="11.00" fill="#000000">10 &gt;</text>
</a>
</g>
</g>
<!-- PAIRING_ptrup&#45;&gt;RUPOBS_id -->
<g id="edge5" class="edge">
<title>PAIRING_ptrup:w&#45;&gt;RUPOBS_id:e</title>
<path fill="none" stroke="#000000" d="M493.6254,-166.8015C472.2524,-158.4421 467.8891,-132.3446 438.5,-132.3446"/>
<polygon fill="#000000" stroke="#000000" points="500.1223,-167.9509 507.3728,-172.8896 504.0612,-168.6478 508,-169.3446 508,-169.3446 508,-169.3446 504.0612,-168.6478 508.6272,-165.7997 500.1223,-167.9509 500.1223,-167.9509"/>
<ellipse fill="none" stroke="#000000" cx="496.9713" cy="-167.3934" rx="3.2" ry="3.2"/>
</g>
<!-- PTOBS_id&#45;&gt;METADATA_events -->
<g id="edge7" class="edge">
<title>PTOBS_id:w&#45;&gt;METADATA_events:e</title>
<path fill="none" stroke="#000000" d="M242.6394,-375.3411C217.8773,-356.8198 250.6495,-280.3446 207.5,-280.3446"/>
<polygon fill="#000000" stroke="#000000" points="248.8142,-377.1246 255.501,-382.8033 252.6571,-378.2346 256.5,-379.3446 256.5,-379.3446 256.5,-379.3446 252.6571,-378.2346 257.499,-375.886 248.8142,-377.1246 248.8142,-377.1246"/>
<ellipse fill="none" stroke="#000000" cx="245.7399" cy="-376.2366" rx="3.2" ry="3.2"/>
</g>
<!-- PTOBS_id&#45;&gt;METADATA_datasets -->
<g id="edge6" class="edge">
<title>PTOBS_id:w&#45;&gt;METADATA_datasets:e</title>
<path fill="none" stroke="#000000" d="M241.9735,-399.5335C166.4191,-378.2399 288.3372,-176.3446 189.5,-176.3446"/>
<polygon fill="#000000" stroke="#000000" points="248.5615,-400.3548 256.0546,-404.917 252.5307,-400.8497 256.5,-401.3446 256.5,-401.3446 256.5,-401.3446 252.5307,-400.8497 256.9454,-397.7723 248.5615,-400.3548 248.5615,-400.3548"/>
<ellipse fill="none" stroke="#000000" cx="245.386" cy="-399.9589" rx="3.2" ry="3.2"/>
</g>
<!-- RUPOBS_id&#45;&gt;METADATA_events -->
<g id="edge9" class="edge">
<title>RUPOBS_id:w&#45;&gt;METADATA_events:e</title>
<path fill="none" stroke="#000000" d="M261.1464,-157.2131C221.5232,-175.9682 265.4176,-280.3446 207.5,-280.3446"/>
<polygon fill="#000000" stroke="#000000" points="267.6551,-155.9124 276.2055,-157.8748 271.5776,-155.1285 275.5,-154.3446 275.5,-154.3446 275.5,-154.3446 271.5776,-155.1285 274.7945,-150.8144 267.6551,-155.9124 267.6551,-155.9124"/>
<ellipse fill="none" stroke="#000000" cx="264.5172" cy="-156.5395" rx="3.2" ry="3.2"/>
</g>
<!-- RUPOBS_id&#45;&gt;METADATA_datasets -->
<g id="edge8" class="edge">
<title>RUPOBS_id:w&#45;&gt;METADATA_datasets:e</title>
<path fill="none" stroke="#000000" d="M260.9162,-176.3446C234.0234,-176.3446 222.3472,-176.3446 189.5,-176.3446"/>
<polygon fill="#000000" stroke="#000000" points="267.5,-176.3447 275.5,-179.9446 271.5,-176.3447 275.5,-176.3446 275.5,-176.3446 275.5,-176.3446 271.5,-176.3447 275.5,-172.7446 267.5,-176.3447 267.5,-176.3447"/>
<ellipse fill="none" stroke="#000000" cx="264.3" cy="-176.3447" rx="3.2" ry="3.2"/>
</g>
</g>
</svg>
