<?xml version="1.0" encoding="UTF-8" standalone="no"?>
<!DOCTYPE svg PUBLIC "-//W3C//DTD SVG 1.1//EN"
 "http://www.w3.org/Graphics/SVG/1.1/DTD/svg11.dtd">
<!-- Generated by graphviz version 2.40.1 (20161225.0304)
 -->
<!-- Title: oneDegreeRelationshipsDiagram Pages: 1 -->
<svg width="819pt" height="338pt"
 viewBox="0.00 0.00 819.00 338.20" xmlns="http://www.w3.org/2000/svg" xmlns:xlink="http://www.w3.org/1999/xlink">
<g id="graph0" class="graph" transform="scale(1 1) rotate(0) translate(4 334.2)">
<title>oneDegreeRelationshipsDiagram</title>
<polygon fill="#ffffff" stroke="transparent" points="-4,4 -4,-334.2 815,-334.2 815,4 -4,4"/>
<text text-anchor="middle" x="72.4936" y="-7.3" font-family="Helvetica,sans-Serif" font-size="11.00" fill="#000000">Generated by SchemaSpy</text>
<!-- PTOBS_fns -->
<g id="node1" class="node">
<title>PTOBS_fns</title>
<g id="a_node1"><a xlink:href="../../tables/PTOBS_fns.html" xlink:title="PTOBS_fns" target="_top">
<polygon fill="#ffffff" stroke="transparent" points="506,-38.2 506,-326.2 803,-326.2 803,-38.2 506,-38.2"/>
<polygon fill="#f5f5f5" stroke="transparent" points="508.5,-301.2 508.5,-324.2 801.5,-324.2 801.5,-301.2 508.5,-301.2"/>
<polygon fill="none" stroke="#000000" points="508.5,-301.2 508.5,-324.2 801.5,-324.2 801.5,-301.2 508.5,-301.2"/>
<text text-anchor="start" x="513.5" y="-310.3" font-family="Helvetica,sans-Serif" font-weight="bold" font-size="11.00" fill="#000000">PTOBS_fns</text>
<text text-anchor="start" x="766.5437" y="-309.3" font-family="Helvetica,sans-Serif" font-size="11.00" fill="#000000">[table]</text>
<polygon fill="none" stroke="#000000" points="508.5,-279.2 508.5,-301.2 671.5,-301.2 671.5,-279.2 508.5,-279.2"/>
<text text-anchor="start" x="528.5" y="-286.3" font-family="Helvetica,sans-Serif" font-size="11.00" fill="#000000">fns_central_meters</text>
<polygon fill="none" stroke="#000000" points="671.5,-279.2 671.5,-301.2 801.5,-301.2 801.5,-279.2 671.5,-279.2"/>
<text text-anchor="start" x="674.5" y="-286.9" font-family="Helvetica,sans-Serif" font-size="11.00" fill="#000000">float[2000000000,10]</text>
<polygon fill="none" stroke="#000000" points="508.5,-257.2 508.5,-279.2 671.5,-279.2 671.5,-257.2 508.5,-257.2"/>
<text text-anchor="start" x="528.5" y="-264.3" font-family="Helvetica,sans-Serif" font-size="11.00" fill="#000000">fns_high_meters</text>
<polygon fill="none" stroke="#000000" points="671.5,-257.2 671.5,-279.2 801.5,-279.2 801.5,-257.2 671.5,-257.2"/>
<text text-anchor="start" x="674.5" y="-264.9" font-family="Helvetica,sans-Serif" font-size="11.00" fill="#000000">float[2000000000,10]</text>
<polygon fill="none" stroke="#000000" points="508.5,-235.2 508.5,-257.2 671.5,-257.2 671.5,-235.2 508.5,-235.2"/>
<text text-anchor="start" x="528.5" y="-242.3" font-family="Helvetica,sans-Serif" font-size="11.00" fill="#000000">fns_style</text>
<polygon fill="none" stroke="#000000" points="671.5,-235.2 671.5,-257.2 801.5,-257.2 801.5,-235.2 671.5,-235.2"/>
<text text-anchor="start" x="674.5" y="-242.9" font-family="Helvetica,sans-Serif" font-size="11.00" fill="#000000">text[2000000000,10]</text>
<polygon fill="none" stroke="#000000" points="508.5,-213.2 508.5,-235.2 671.5,-235.2 671.5,-213.2 508.5,-213.2"/>
<image xlink:href="../../images/primaryKeys.png" width="11px" height="12px" preserveAspectRatio="xMinYMin meet" x="513.5" y="-230.2"/>
<text text-anchor="start" x="528.5" y="-220.3" font-family="Helvetica,sans-Serif" font-size="11.00" fill="#000000">MEAS_ID</text>
<polygon fill="none" stroke="#000000" points="671.5,-213.2 671.5,-235.2 801.5,-235.2 801.5,-213.2 671.5,-213.2"/>
<text text-anchor="start" x="674.5" y="-220.9" font-family="Helvetica,sans-Serif" font-size="11.00" fill="#000000">integer[2000000000,10]</text>
<polygon fill="none" stroke="#000000" points="508.5,-191.2 508.5,-213.2 671.5,-213.2 671.5,-191.2 508.5,-191.2"/>
<text text-anchor="start" x="528.5" y="-198.3" font-family="Helvetica,sans-Serif" font-size="11.00" fill="#000000">fns_low_meters</text>
<polygon fill="none" stroke="#000000" points="671.5,-191.2 671.5,-213.2 801.5,-213.2 801.5,-191.2 671.5,-191.2"/>
<text text-anchor="start" x="674.5" y="-198.9" font-family="Helvetica,sans-Serif" font-size="11.00" fill="#000000">float[2000000000,10]</text>
<polygon fill="none" stroke="#000000" points="508.5,-169.2 508.5,-191.2 671.5,-191.2 671.5,-169.2 508.5,-169.2"/>
<image xlink:href="../../images/primaryKeys.png" width="11px" height="12px" preserveAspectRatio="xMinYMin meet" x="513.5" y="-186.2"/>
<text text-anchor="start" x="528.5" y="-176.3" font-family="Helvetica,sans-Serif" font-size="11.00" fill="#000000">DS_ID</text>
<polygon fill="none" stroke="#000000" points="671.5,-169.2 671.5,-191.2 801.5,-191.2 801.5,-169.2 671.5,-169.2"/>
<text text-anchor="start" x="674.5" y="-176.9" font-family="Helvetica,sans-Serif" font-size="11.00" fill="#000000">integer[2000000000,10]</text>
<polygon fill="none" stroke="#000000" points="508.5,-147.2 508.5,-169.2 671.5,-169.2 671.5,-147.2 508.5,-147.2"/>
<text text-anchor="start" x="528.5" y="-154.3" font-family="Helvetica,sans-Serif" font-size="11.00" fill="#000000">row_entry_source_file</text>
<polygon fill="none" stroke="#000000" points="671.5,-147.2 671.5,-169.2 801.5,-169.2 801.5,-147.2 671.5,-147.2"/>
<text text-anchor="start" x="674.5" y="-154.9" font-family="Helvetica,sans-Serif" font-size="11.00" fill="#000000">text[2000000000,10]</text>
<polygon fill="none" stroke="#000000" points="508.5,-125.2 508.5,-147.2 671.5,-147.2 671.5,-125.2 508.5,-125.2"/>
<image xlink:href="../../images/primaryKeys.png" width="11px" height="12px" preserveAspectRatio="xMinYMin meet" x="513.5" y="-142.2"/>
<text text-anchor="start" x="528.5" y="-132.3" font-family="Helvetica,sans-Serif" font-size="11.00" fill="#000000">PT_ID</text>
<polygon fill="none" stroke="#000000" points="671.5,-125.2 671.5,-147.2 801.5,-147.2 801.5,-125.2 671.5,-125.2"/>
<text text-anchor="start" x="674.5" y="-132.9" font-family="Helvetica,sans-Serif" font-size="11.00" fill="#000000">integer[2000000000,10]</text>
<polygon fill="none" stroke="#000000" points="508.5,-103.2 508.5,-125.2 671.5,-125.2 671.5,-103.2 508.5,-103.2"/>
<text text-anchor="start" x="528.5" y="-110.3" font-family="Helvetica,sans-Serif" font-size="11.00" fill="#000000">row_entry_date_updated</text>
<polygon fill="none" stroke="#000000" points="671.5,-103.2 671.5,-125.2 801.5,-125.2 801.5,-103.2 671.5,-103.2"/>
<text text-anchor="start" x="674.1372" y="-110.9" font-family="Helvetica,sans-Serif" font-size="11.00" fill="#000000">datetime[2000000000,10]</text>
<polygon fill="none" stroke="#000000" points="508.5,-81.2 508.5,-103.2 671.5,-103.2 671.5,-81.2 508.5,-81.2"/>
<image xlink:href="../../images/primaryKeys.png" width="11px" height="12px" preserveAspectRatio="xMinYMin meet" x="513.5" y="-98.2"/>
<text text-anchor="start" x="528.5" y="-88.3" font-family="Helvetica,sans-Serif" font-size="11.00" fill="#000000">EQ_ID</text>
<polygon fill="none" stroke="#000000" points="671.5,-81.2 671.5,-103.2 801.5,-103.2 801.5,-81.2 671.5,-81.2"/>
<text text-anchor="start" x="674.5" y="-88.9" font-family="Helvetica,sans-Serif" font-size="11.00" fill="#000000">integer[2000000000,10]</text>
<polygon fill="none" stroke="#000000" points="508.5,-59.2 508.5,-81.2 671.5,-81.2 671.5,-59.2 508.5,-59.2"/>
<text text-anchor="start" x="528.5" y="-66.3" font-family="Helvetica,sans-Serif" font-size="11.00" fill="#000000">fns_meas_type</text>
<polygon fill="none" stroke="#000000" points="671.5,-59.2 671.5,-81.2 801.5,-81.2 801.5,-59.2 671.5,-59.2"/>
<text text-anchor="start" x="674.5" y="-66.9" font-family="Helvetica,sans-Serif" font-size="11.00" fill="#000000">text[2000000000,10]</text>
<polygon fill="#ffffff" stroke="transparent" points="508.5,-40.2 508.5,-59.2 581.5,-59.2 581.5,-40.2 508.5,-40.2"/>
<polygon fill="none" stroke="#000000" points="508.5,-40.2 508.5,-59.2 581.5,-59.2 581.5,-40.2 508.5,-40.2"/>
<text text-anchor="start" x="511.5" y="-46.3" font-family="Helvetica,sans-Serif" font-size="11.00" fill="#000000">&lt; 4</text>
<polygon fill="#ffffff" stroke="transparent" points="581.5,-40.2 581.5,-59.2 671.5,-59.2 671.5,-40.2 581.5,-40.2"/>
<polygon fill="none" stroke="#000000" points="581.5,-40.2 581.5,-59.2 671.5,-59.2 671.5,-40.2 581.5,-40.2"/>
<text text-anchor="start" x="636.1105" y="-46.3" font-family="Helvetica,sans-Serif" font-size="11.00" fill="#000000">0 rows</text>
<polygon fill="#ffffff" stroke="transparent" points="671.5,-40.2 671.5,-59.2 801.5,-59.2 801.5,-40.2 671.5,-40.2"/>
<polygon fill="none" stroke="#000000" points="671.5,-40.2 671.5,-59.2 801.5,-59.2 801.5,-40.2 671.5,-40.2"/>
<text text-anchor="start" x="782.9053" y="-46.3" font-family="Helvetica,sans-Serif" font-size="11.00" fill="#000000">0 &gt;</text>
<polygon fill="none" stroke="#000000" stroke-width="2" points="507,-39.2 507,-325.2 802,-325.2 802,-39.2 507,-39.2"/>
</a>
</g>
</g>
<!-- METADATA_datasets -->
<g id="node2" class="node">
<title>METADATA_datasets</title>
<g id="a_node2"><a xlink:href="../../tables/METADATA_datasets.html" xlink:title="METADATA_datasets" target="_top">
<polygon fill="#ffffff" stroke="transparent" points="26,-197.7 26,-280.7 189,-280.7 189,-197.7 26,-197.7"/>
<polygon fill="#f5f5f5" stroke="transparent" points="26.5,-257.2 26.5,-280.2 189.5,-280.2 189.5,-257.2 26.5,-257.2"/>
<polygon fill="none" stroke="#000000" points="26.5,-257.2 26.5,-280.2 189.5,-280.2 189.5,-257.2 26.5,-257.2"/>
<text text-anchor="start" x="31.5" y="-266.3" font-family="Helvetica,sans-Serif" font-weight="bold" font-size="11.00" fill="#000000">METADATA_datasets</text>
<text text-anchor="start" x="154.5437" y="-265.3" font-family="Helvetica,sans-Serif" font-size="11.00" fill="#000000">[table]</text>
<polygon fill="none" stroke="#000000" points="26.5,-235.2 26.5,-257.2 189.5,-257.2 189.5,-235.2 26.5,-235.2"/>
<image xlink:href="../../images/primaryKeys.png" width="11px" height="12px" preserveAspectRatio="xMinYMin meet" x="31.5" y="-252.2"/>
<text text-anchor="start" x="46.5" y="-242.3" font-family="Helvetica,sans-Serif" font-size="11.00" fill="#000000">DS_ID</text>
<polygon fill="none" stroke="#000000" points="26.5,-216.2 26.5,-235.2 189.5,-235.2 189.5,-216.2 26.5,-216.2"/>
<text text-anchor="start" x="29.5" y="-222.3" font-family="Helvetica,sans-Serif" font-size="11.00" fill="#000000">...</text>
<polygon fill="#ffffff" stroke="transparent" points="26.5,-197.2 26.5,-216.2 81.5,-216.2 81.5,-197.2 26.5,-197.2"/>
<polygon fill="none" stroke="#000000" points="26.5,-197.2 26.5,-216.2 81.5,-216.2 81.5,-197.2 26.5,-197.2"/>
<text text-anchor="start" x="29.5" y="-203.3" font-family="Helvetica,sans-Serif" font-size="11.00" fill="#000000"> &#160;</text>
<polygon fill="#ffffff" stroke="transparent" points="81.5,-197.2 81.5,-216.2 140.5,-216.2 140.5,-197.2 81.5,-197.2"/>
<polygon fill="none" stroke="#000000" points="81.5,-197.2 81.5,-216.2 140.5,-216.2 140.5,-197.2 81.5,-197.2"/>
<text text-anchor="start" x="105.1105" y="-203.3" font-family="Helvetica,sans-Serif" font-size="11.00" fill="#000000">0 rows</text>
<polygon fill="#ffffff" stroke="transparent" points="140.5,-197.2 140.5,-216.2 189.5,-216.2 189.5,-197.2 140.5,-197.2"/>
<polygon fill="none" stroke="#000000" points="140.5,-197.2 140.5,-216.2 189.5,-216.2 189.5,-197.2 140.5,-197.2"/>
<text text-anchor="start" x="164.7904" y="-203.3" font-family="Helvetica,sans-Serif" font-size="11.00" fill="#000000">35 &gt;</text>
</a>
</g>
</g>
<!-- PTOBS_fns&#45;&gt;METADATA_datasets -->
<g id="edge1" class="edge">
<title>PTOBS_fns:w&#45;&gt;METADATA_datasets:e</title>
<path fill="none" stroke="#000000" d="M494.5769,-183.8869C475.5653,-197.3611 495.1047,-244.0917 465,-262.2 382.3547,-311.9119 343.5865,-275.0359 248,-262.2 221.2849,-258.6125 216.4549,-246.2 189.5,-246.2"/>
<polygon fill="#000000" stroke="#000000" points="500.7666,-182.2479 509.4216,-183.6801 504.6333,-181.224 508.5,-180.2 508.5,-180.2 508.5,-180.2 504.6333,-181.224 507.5784,-176.7199 500.7666,-182.2479 500.7666,-182.2479"/>
<ellipse fill="none" stroke="#000000" cx="497.6732" cy="-183.0671" rx="3.2" ry="3.2"/>
</g>
<!-- METADATA_events -->
<g id="node3" class="node">
<title>METADATA_events</title>
<g id="a_node3"><a xlink:href="../../tables/METADATA_events.html" xlink:title="METADATA_events" target="_top">
<polygon fill="#ffffff" stroke="transparent" points="8,-61.7 8,-144.7 207,-144.7 207,-61.7 8,-61.7"/>
<polygon fill="#f5f5f5" stroke="transparent" points="8.5,-121.2 8.5,-144.2 207.5,-144.2 207.5,-121.2 8.5,-121.2"/>
<polygon fill="none" stroke="#000000" points="8.5,-121.2 8.5,-144.2 207.5,-144.2 207.5,-121.2 8.5,-121.2"/>
<text text-anchor="start" x="13.5" y="-130.3" font-family="Helvetica,sans-Serif" font-weight="bold" font-size="11.00" fill="#000000">METADATA_events</text>
<text text-anchor="start" x="172.5437" y="-129.3" font-family="Helvetica,sans-Serif" font-size="11.00" fill="#000000">[table]</text>
<polygon fill="none" stroke="#000000" points="8.5,-99.2 8.5,-121.2 207.5,-121.2 207.5,-99.2 8.5,-99.2"/>
<image xlink:href="../../images/primaryKeys.png" width="11px" height="12px" preserveAspectRatio="xMinYMin meet" x="13.5" y="-116.2"/>
<text text-anchor="start" x="28.5" y="-106.3" font-family="Helvetica,sans-Serif" font-size="11.00" fill="#000000">EQ_ID</text>
<polygon fill="none" stroke="#000000" points="8.5,-80.2 8.5,-99.2 207.5,-99.2 207.5,-80.2 8.5,-80.2"/>
<text text-anchor="start" x="11.5" y="-86.3" font-family="Helvetica,sans-Serif" font-size="11.00" fill="#000000">...</text>
<polygon fill="#ffffff" stroke="transparent" points="8.5,-61.2 8.5,-80.2 81.5,-80.2 81.5,-61.2 8.5,-61.2"/>
<polygon fill="none" stroke="#000000" points="8.5,-61.2 8.5,-80.2 81.5,-80.2 81.5,-61.2 8.5,-61.2"/>
<text text-anchor="start" x="11.5" y="-67.3" font-family="Helvetica,sans-Serif" font-size="11.00" fill="#000000"> &#160;</text>
<polygon fill="#ffffff" stroke="transparent" points="81.5,-61.2 81.5,-80.2 149.5,-80.2 149.5,-61.2 81.5,-61.2"/>
<polygon fill="none" stroke="#000000" points="81.5,-61.2 81.5,-80.2 149.5,-80.2 149.5,-61.2 81.5,-61.2"/>
<text text-anchor="start" x="114.1105" y="-67.3" font-family="Helvetica,sans-Serif" font-size="11.00" fill="#000000">0 rows</text>
<polygon fill="#ffffff" stroke="transparent" points="149.5,-61.2 149.5,-80.2 207.5,-80.2 207.5,-61.2 149.5,-61.2"/>
<polygon fill="none" stroke="#000000" points="149.5,-61.2 149.5,-80.2 207.5,-80.2 207.5,-61.2 149.5,-61.2"/>
<text text-anchor="start" x="182.7904" y="-67.3" font-family="Helvetica,sans-Serif" font-size="11.00" fill="#000000">34 &gt;</text>
</a>
</g>
</g>
<!-- PTOBS_fns&#45;&gt;METADATA_events -->
<g id="edge2" class="edge">
<title>PTOBS_fns:w&#45;&gt;METADATA_events:e</title>
<path fill="none" stroke="#000000" d="M494.0293,-92.0726C389.8671,-90.2233 356.3892,-69.1983 248,-92.2 228.7314,-96.2891 227.1977,-110.2 207.5,-110.2"/>
<polygon fill="#000000" stroke="#000000" points="500.5003,-92.1295 508.4683,-95.7999 504.5002,-92.1648 508.5,-92.2 508.5,-92.2 508.5,-92.2 504.5002,-92.1648 508.5317,-88.6001 500.5003,-92.1295 500.5003,-92.1295"/>
<ellipse fill="none" stroke="#000000" cx="497.3004" cy="-92.1013" rx="3.2" ry="3.2"/>
</g>
<!-- PTOBS_id -->
<g id="node4" class="node">
<title>PTOBS_id</title>
<g id="a_node4"><a xlink:href="../../tables/PTOBS_id.html" xlink:title="PTOBS_id" target="_top">
<polygon fill="#ffffff" stroke="transparent" points="256,-102.7 256,-251.7 457,-251.7 457,-102.7 256,-102.7"/>
<polygon fill="#f5f5f5" stroke="transparent" points="256.5,-228.2 256.5,-251.2 457.5,-251.2 457.5,-228.2 256.5,-228.2"/>
<polygon fill="none" stroke="#000000" points="256.5,-228.2 256.5,-251.2 457.5,-251.2 457.5,-228.2 256.5,-228.2"/>
<text text-anchor="start" x="261.5" y="-237.3" font-family="Helvetica,sans-Serif" font-weight="bold" font-size="11.00" fill="#000000">PTOBS_id</text>
<text text-anchor="start" x="422.5437" y="-236.3" font-family="Helvetica,sans-Serif" font-size="11.00" fill="#000000">[table]</text>
<polygon fill="none" stroke="#000000" points="256.5,-206.2 256.5,-228.2 457.5,-228.2 457.5,-206.2 256.5,-206.2"/>
<image xlink:href="../../images/primaryKeys.png" width="11px" height="12px" preserveAspectRatio="xMinYMin meet" x="261.5" y="-223.2"/>
<text text-anchor="start" x="276.5" y="-213.3" font-family="Helvetica,sans-Serif" font-size="11.00" fill="#000000">DS_ID</text>
<polygon fill="none" stroke="#000000" points="256.5,-184.2 256.5,-206.2 457.5,-206.2 457.5,-184.2 256.5,-184.2"/>
<image xlink:href="../../images/primaryKeys.png" width="11px" height="12px" preserveAspectRatio="xMinYMin meet" x="261.5" y="-201.2"/>
<text text-anchor="start" x="276.5" y="-191.3" font-family="Helvetica,sans-Serif" font-size="11.00" fill="#000000">EQ_ID</text>
<polygon fill="none" stroke="#000000" points="256.5,-162.2 256.5,-184.2 457.5,-184.2 457.5,-162.2 256.5,-162.2"/>
<image xlink:href="../../images/primaryKeys.png" width="11px" height="12px" preserveAspectRatio="xMinYMin meet" x="261.5" y="-179.2"/>
<text text-anchor="start" x="276.5" y="-169.3" font-family="Helvetica,sans-Serif" font-size="11.00" fill="#000000">MEAS_ID</text>
<polygon fill="none" stroke="#000000" points="256.5,-140.2 256.5,-162.2 457.5,-162.2 457.5,-140.2 256.5,-140.2"/>
<image xlink:href="../../images/primaryKeys.png" width="11px" height="12px" preserveAspectRatio="xMinYMin meet" x="261.5" y="-157.2"/>
<text text-anchor="start" x="276.5" y="-147.3" font-family="Helvetica,sans-Serif" font-size="11.00" fill="#000000">PT_ID</text>
<polygon fill="none" stroke="#000000" points="256.5,-121.2 256.5,-140.2 457.5,-140.2 457.5,-121.2 256.5,-121.2"/>
<text text-anchor="start" x="259.5" y="-127.3" font-family="Helvetica,sans-Serif" font-size="11.00" fill="#000000">...</text>
<polygon fill="#ffffff" stroke="transparent" points="256.5,-102.2 256.5,-121.2 334.5,-121.2 334.5,-102.2 256.5,-102.2"/>
<polygon fill="none" stroke="#000000" points="256.5,-102.2 256.5,-121.2 334.5,-121.2 334.5,-102.2 256.5,-102.2"/>
<text text-anchor="start" x="259.5" y="-108.3" font-family="Helvetica,sans-Serif" font-size="11.00" fill="#000000">&lt; 2</text>
<polygon fill="#ffffff" stroke="transparent" points="334.5,-102.2 334.5,-121.2 401.5,-121.2 401.5,-102.2 334.5,-102.2"/>
<polygon fill="none" stroke="#000000" points="334.5,-102.2 334.5,-121.2 401.5,-121.2 401.5,-102.2 334.5,-102.2"/>
<text text-anchor="start" x="366.1105" y="-108.3" font-family="Helvetica,sans-Serif" font-size="11.00" fill="#000000">0 rows</text>
<polygon fill="#ffffff" stroke="transparent" points="401.5,-102.2 401.5,-121.2 457.5,-121.2 457.5,-102.2 401.5,-102.2"/>
<polygon fill="none" stroke="#000000" points="401.5,-102.2 401.5,-121.2 457.5,-121.2 457.5,-102.2 401.5,-102.2"/>
<text text-anchor="start" x="432.7904" y="-108.3" font-family="Helvetica,sans-Serif" font-size="11.00" fill="#000000">35 &gt;</text>
</a>
</g>
</g>
<!-- PTOBS_fns&#45;&gt;PTOBS_id -->
<g id="edge3" class="edge">
<title>PTOBS_fns:w&#45;&gt;PTOBS_id:e</title>
<path fill="none" stroke="#000000" d="M494.637,-219.4935C479.7732,-206.868 483.5451,-173.2 457.5,-173.2"/>
<polygon fill="#000000" stroke="#000000" points="500.9247,-221.6281 507.3427,-227.6089 504.7123,-222.9141 508.5,-224.2 508.5,-224.2 508.5,-224.2 504.7123,-222.9141 509.6573,-220.7911 500.9247,-221.6281 500.9247,-221.6281"/>
<ellipse fill="none" stroke="#000000" cx="497.8945" cy="-220.5994" rx="3.2" ry="3.2"/>
</g>
<!-- PTOBS_fns&#45;&gt;PTOBS_id -->
<g id="edge4" class="edge">
<title>PTOBS_fns:w&#45;&gt;PTOBS_id:e</title>
<path fill="none" stroke="#000000" d="M494.2671,-138.4133C481.8925,-142.5858 475.4046,-151.2 457.5,-151.2"/>
<polygon fill="#000000" stroke="#000000" points="500.595,-137.4293 509.0532,-139.7572 504.5475,-136.8147 508.5,-136.2 508.5,-136.2 508.5,-136.2 504.5475,-136.8147 507.9468,-132.6428 500.595,-137.4293 500.595,-137.4293"/>
<ellipse fill="none" stroke="#000000" cx="497.433" cy="-137.921" rx="3.2" ry="3.2"/>
</g>
<!-- PTOBS_id&#45;&gt;METADATA_datasets -->
<g id="edge5" class="edge">
<title>PTOBS_id:w&#45;&gt;METADATA_datasets:e</title>
<path fill="none" stroke="#000000" d="M242.1502,-219.4756C222.4326,-226.3121 216.3706,-246.2 189.5,-246.2"/>
<polygon fill="#000000" stroke="#000000" points="248.5987,-218.453 257.0639,-220.7556 252.5494,-217.8265 256.5,-217.2 256.5,-217.2 256.5,-217.2 252.5494,-217.8265 255.9361,-213.6444 248.5987,-218.453 248.5987,-218.453"/>
<ellipse fill="none" stroke="#000000" cx="245.4382" cy="-218.9542" rx="3.2" ry="3.2"/>
</g>
<!-- PTOBS_id&#45;&gt;METADATA_events -->
<g id="edge6" class="edge">
<title>PTOBS_id:w&#45;&gt;METADATA_events:e</title>
<path fill="none" stroke="#000000" d="M242.5028,-190.63C222.0234,-172.9747 244.9734,-110.2 207.5,-110.2"/>
<polygon fill="#000000" stroke="#000000" points="248.8951,-192.717 255.3827,-198.6222 252.6975,-193.9585 256.5,-195.2 256.5,-195.2 256.5,-195.2 252.6975,-193.9585 257.6173,-191.7778 248.8951,-192.717 248.8951,-192.717"/>
<ellipse fill="none" stroke="#000000" cx="245.8531" cy="-191.7238" rx="3.2" ry="3.2"/>
</g>
</g>
</svg>
