<?xml version="1.0" encoding="UTF-8" standalone="no"?>
<!DOCTYPE svg PUBLIC "-//W3C//DTD SVG 1.1//EN"
 "http://www.w3.org/Graphics/SVG/1.1/DTD/svg11.dtd">
<!-- Generated by graphviz version 2.40.1 (20161225.0304)
 -->
<!-- Title: oneDegreeRelationshipsDiagram Pages: 1 -->
<svg width="883pt" height="300pt"
 viewBox="0.00 0.00 883.00 300.11" xmlns="http://www.w3.org/2000/svg" xmlns:xlink="http://www.w3.org/1999/xlink">
<g id="graph0" class="graph" transform="scale(1 1) rotate(0) translate(4 296.1124)">
<title>oneDegreeRelationshipsDiagram</title>
<polygon fill="#ffffff" stroke="transparent" points="-4,4 -4,-296.1124 879,-296.1124 879,4 -4,4"/>
<text text-anchor="middle" x="72.4936" y="-7.3" font-family="Helvetica,sans-Serif" font-size="11.00" fill="#000000">Generated by SchemaSpy</text>
<!-- PTOBS_id -->
<g id="node1" class="node">
<title>PTOBS_id</title>
<g id="a_node1"><a xlink:href="../../tables/PTOBS_id.html" xlink:title="PTOBS_id" target="_top">
<polygon fill="#ffffff" stroke="transparent" points="256,-105.2 256,-254.2 457,-254.2 457,-105.2 256,-105.2"/>
<polygon fill="#f5f5f5" stroke="transparent" points="256.5,-230.7 256.5,-253.7 457.5,-253.7 457.5,-230.7 256.5,-230.7"/>
<polygon fill="none" stroke="#000000" points="256.5,-230.7 256.5,-253.7 457.5,-253.7 457.5,-230.7 256.5,-230.7"/>
<text text-anchor="start" x="261.5" y="-239.8" font-family="Helvetica,sans-Serif" font-weight="bold" font-size="11.00" fill="#000000">PTOBS_id</text>
<text text-anchor="start" x="422.5437" y="-238.8" font-family="Helvetica,sans-Serif" font-size="11.00" fill="#000000">[table]</text>
<polygon fill="none" stroke="#000000" points="256.5,-208.7 256.5,-230.7 457.5,-230.7 457.5,-208.7 256.5,-208.7"/>
<image xlink:href="../../images/primaryKeys.png" width="11px" height="12px" preserveAspectRatio="xMinYMin meet" x="261.5" y="-225.7"/>
<text text-anchor="start" x="276.5" y="-215.8" font-family="Helvetica,sans-Serif" font-size="11.00" fill="#000000">DS_ID</text>
<polygon fill="none" stroke="#000000" points="256.5,-186.7 256.5,-208.7 457.5,-208.7 457.5,-186.7 256.5,-186.7"/>
<image xlink:href="../../images/primaryKeys.png" width="11px" height="12px" preserveAspectRatio="xMinYMin meet" x="261.5" y="-203.7"/>
<text text-anchor="start" x="276.5" y="-193.8" font-family="Helvetica,sans-Serif" font-size="11.00" fill="#000000">EQ_ID</text>
<polygon fill="none" stroke="#000000" points="256.5,-164.7 256.5,-186.7 457.5,-186.7 457.5,-164.7 256.5,-164.7"/>
<image xlink:href="../../images/primaryKeys.png" width="11px" height="12px" preserveAspectRatio="xMinYMin meet" x="261.5" y="-181.7"/>
<text text-anchor="start" x="276.5" y="-171.8" font-family="Helvetica,sans-Serif" font-size="11.00" fill="#000000">MEAS_ID</text>
<polygon fill="none" stroke="#000000" points="256.5,-142.7 256.5,-164.7 457.5,-164.7 457.5,-142.7 256.5,-142.7"/>
<image xlink:href="../../images/primaryKeys.png" width="11px" height="12px" preserveAspectRatio="xMinYMin meet" x="261.5" y="-159.7"/>
<text text-anchor="start" x="276.5" y="-149.8" font-family="Helvetica,sans-Serif" font-size="11.00" fill="#000000">PT_ID</text>
<polygon fill="none" stroke="#000000" points="256.5,-123.7 256.5,-142.7 457.5,-142.7 457.5,-123.7 256.5,-123.7"/>
<text text-anchor="start" x="259.5" y="-129.8" font-family="Helvetica,sans-Serif" font-size="11.00" fill="#000000">...</text>
<polygon fill="#ffffff" stroke="transparent" points="256.5,-104.7 256.5,-123.7 334.5,-123.7 334.5,-104.7 256.5,-104.7"/>
<polygon fill="none" stroke="#000000" points="256.5,-104.7 256.5,-123.7 334.5,-123.7 334.5,-104.7 256.5,-104.7"/>
<text text-anchor="start" x="259.5" y="-110.8" font-family="Helvetica,sans-Serif" font-size="11.00" fill="#000000">&lt; 2</text>
<polygon fill="#ffffff" stroke="transparent" points="334.5,-104.7 334.5,-123.7 401.5,-123.7 401.5,-104.7 334.5,-104.7"/>
<polygon fill="none" stroke="#000000" points="334.5,-104.7 334.5,-123.7 401.5,-123.7 401.5,-104.7 334.5,-104.7"/>
<text text-anchor="start" x="366.1105" y="-110.8" font-family="Helvetica,sans-Serif" font-size="11.00" fill="#000000">0 rows</text>
<polygon fill="#ffffff" stroke="transparent" points="401.5,-104.7 401.5,-123.7 457.5,-123.7 457.5,-104.7 401.5,-104.7"/>
<polygon fill="none" stroke="#000000" points="401.5,-104.7 401.5,-123.7 457.5,-123.7 457.5,-104.7 401.5,-104.7"/>
<text text-anchor="start" x="432.7904" y="-110.8" font-family="Helvetica,sans-Serif" font-size="11.00" fill="#000000">35 &gt;</text>
</a>
</g>
</g>
<!-- METADATA_datasets -->
<g id="node2" class="node">
<title>METADATA_datasets</title>
<g id="a_node2"><a xlink:href="../../tables/METADATA_datasets.html" xlink:title="METADATA_datasets" target="_top">
<polygon fill="#ffffff" stroke="transparent" points="26,-38.2 26,-121.2 189,-121.2 189,-38.2 26,-38.2"/>
<polygon fill="#f5f5f5" stroke="transparent" points="26.5,-97.7 26.5,-120.7 189.5,-120.7 189.5,-97.7 26.5,-97.7"/>
<polygon fill="none" stroke="#000000" points="26.5,-97.7 26.5,-120.7 189.5,-120.7 189.5,-97.7 26.5,-97.7"/>
<text text-anchor="start" x="31.5" y="-106.8" font-family="Helvetica,sans-Serif" font-weight="bold" font-size="11.00" fill="#000000">METADATA_datasets</text>
<text text-anchor="start" x="154.5437" y="-105.8" font-family="Helvetica,sans-Serif" font-size="11.00" fill="#000000">[table]</text>
<polygon fill="none" stroke="#000000" points="26.5,-75.7 26.5,-97.7 189.5,-97.7 189.5,-75.7 26.5,-75.7"/>
<image xlink:href="../../images/primaryKeys.png" width="11px" height="12px" preserveAspectRatio="xMinYMin meet" x="31.5" y="-92.7"/>
<text text-anchor="start" x="46.5" y="-82.8" font-family="Helvetica,sans-Serif" font-size="11.00" fill="#000000">DS_ID</text>
<polygon fill="none" stroke="#000000" points="26.5,-56.7 26.5,-75.7 189.5,-75.7 189.5,-56.7 26.5,-56.7"/>
<text text-anchor="start" x="29.5" y="-62.8" font-family="Helvetica,sans-Serif" font-size="11.00" fill="#000000">...</text>
<polygon fill="#ffffff" stroke="transparent" points="26.5,-37.7 26.5,-56.7 81.5,-56.7 81.5,-37.7 26.5,-37.7"/>
<polygon fill="none" stroke="#000000" points="26.5,-37.7 26.5,-56.7 81.5,-56.7 81.5,-37.7 26.5,-37.7"/>
<text text-anchor="start" x="29.5" y="-43.8" font-family="Helvetica,sans-Serif" font-size="11.00" fill="#000000"> &#160;</text>
<polygon fill="#ffffff" stroke="transparent" points="81.5,-37.7 81.5,-56.7 140.5,-56.7 140.5,-37.7 81.5,-37.7"/>
<polygon fill="none" stroke="#000000" points="81.5,-37.7 81.5,-56.7 140.5,-56.7 140.5,-37.7 81.5,-37.7"/>
<text text-anchor="start" x="105.1105" y="-43.8" font-family="Helvetica,sans-Serif" font-size="11.00" fill="#000000">0 rows</text>
<polygon fill="#ffffff" stroke="transparent" points="140.5,-37.7 140.5,-56.7 189.5,-56.7 189.5,-37.7 140.5,-37.7"/>
<polygon fill="none" stroke="#000000" points="140.5,-37.7 140.5,-56.7 189.5,-56.7 189.5,-37.7 140.5,-37.7"/>
<text text-anchor="start" x="164.7904" y="-43.8" font-family="Helvetica,sans-Serif" font-size="11.00" fill="#000000">35 &gt;</text>
</a>
</g>
</g>
<!-- PTOBS_id&#45;&gt;METADATA_datasets -->
<g id="edge1" class="edge">
<title>PTOBS_id:w&#45;&gt;METADATA_datasets:e</title>
<path fill="none" stroke="#000000" d="M242.1838,-216.9221C200.5769,-197.8229 249.9999,-86.7 189.5,-86.7"/>
<polygon fill="#000000" stroke="#000000" points="248.6465,-218.1761 255.8142,-223.2341 252.5732,-218.938 256.5,-219.7 256.5,-219.7 256.5,-219.7 252.5732,-218.938 257.1858,-216.1659 248.6465,-218.1761 248.6465,-218.1761"/>
<ellipse fill="none" stroke="#000000" cx="245.5051" cy="-217.5665" rx="3.2" ry="3.2"/>
</g>
<!-- METADATA_events -->
<g id="node3" class="node">
<title>METADATA_events</title>
<g id="a_node3"><a xlink:href="../../tables/METADATA_events.html" xlink:title="METADATA_events" target="_top">
<polygon fill="#ffffff" stroke="transparent" points="8,-189.2 8,-272.2 207,-272.2 207,-189.2 8,-189.2"/>
<polygon fill="#f5f5f5" stroke="transparent" points="8.5,-248.7 8.5,-271.7 207.5,-271.7 207.5,-248.7 8.5,-248.7"/>
<polygon fill="none" stroke="#000000" points="8.5,-248.7 8.5,-271.7 207.5,-271.7 207.5,-248.7 8.5,-248.7"/>
<text text-anchor="start" x="13.5" y="-257.8" font-family="Helvetica,sans-Serif" font-weight="bold" font-size="11.00" fill="#000000">METADATA_events</text>
<text text-anchor="start" x="172.5437" y="-256.8" font-family="Helvetica,sans-Serif" font-size="11.00" fill="#000000">[table]</text>
<polygon fill="none" stroke="#000000" points="8.5,-226.7 8.5,-248.7 207.5,-248.7 207.5,-226.7 8.5,-226.7"/>
<image xlink:href="../../images/primaryKeys.png" width="11px" height="12px" preserveAspectRatio="xMinYMin meet" x="13.5" y="-243.7"/>
<text text-anchor="start" x="28.5" y="-233.8" font-family="Helvetica,sans-Serif" font-size="11.00" fill="#000000">EQ_ID</text>
<polygon fill="none" stroke="#000000" points="8.5,-207.7 8.5,-226.7 207.5,-226.7 207.5,-207.7 8.5,-207.7"/>
<text text-anchor="start" x="11.5" y="-213.8" font-family="Helvetica,sans-Serif" font-size="11.00" fill="#000000">...</text>
<polygon fill="#ffffff" stroke="transparent" points="8.5,-188.7 8.5,-207.7 81.5,-207.7 81.5,-188.7 8.5,-188.7"/>
<polygon fill="none" stroke="#000000" points="8.5,-188.7 8.5,-207.7 81.5,-207.7 81.5,-188.7 8.5,-188.7"/>
<text text-anchor="start" x="11.5" y="-194.8" font-family="Helvetica,sans-Serif" font-size="11.00" fill="#000000"> &#160;</text>
<polygon fill="#ffffff" stroke="transparent" points="81.5,-188.7 81.5,-207.7 149.5,-207.7 149.5,-188.7 81.5,-188.7"/>
<polygon fill="none" stroke="#000000" points="81.5,-188.7 81.5,-207.7 149.5,-207.7 149.5,-188.7 81.5,-188.7"/>
<text text-anchor="start" x="114.1105" y="-194.8" font-family="Helvetica,sans-Serif" font-size="11.00" fill="#000000">0 rows</text>
<polygon fill="#ffffff" stroke="transparent" points="149.5,-188.7 149.5,-207.7 207.5,-207.7 207.5,-188.7 149.5,-188.7"/>
<polygon fill="none" stroke="#000000" points="149.5,-188.7 149.5,-207.7 207.5,-207.7 207.5,-188.7 149.5,-188.7"/>
<text text-anchor="start" x="182.7904" y="-194.8" font-family="Helvetica,sans-Serif" font-size="11.00" fill="#000000">34 &gt;</text>
</a>
</g>
</g>
<!-- PTOBS_id&#45;&gt;METADATA_events -->
<g id="edge2" class="edge">
<title>PTOBS_id:w&#45;&gt;METADATA_events:e</title>
<path fill="none" stroke="#000000" d="M242.7637,-202.2885C229.8632,-212.7952 229.6826,-237.7 207.5,-237.7"/>
<polygon fill="#000000" stroke="#000000" points="248.9121,-200.2347 257.6406,-201.1145 252.7061,-198.9673 256.5,-197.7 256.5,-197.7 256.5,-197.7 252.7061,-198.9673 255.3594,-194.2855 248.9121,-200.2347 248.9121,-200.2347"/>
<ellipse fill="none" stroke="#000000" cx="245.877" cy="-201.2486" rx="3.2" ry="3.2"/>
</g>
<!-- PTOBS_slip_nonzero -->
<g id="node4" class="node">
<title>PTOBS_slip_nonzero</title>
<g id="a_node4"><a xlink:href="../../tables/PTOBS_slip_nonzero.html" xlink:title="PTOBS_slip_nonzero" target="_top">
<polygon fill="#ffffff" stroke="transparent" points="506,-40.7 506,-284.7 867,-284.7 867,-40.7 506,-40.7"/>
<polygon fill="#f5f5f5" stroke="transparent" points="508.5,-259.7 508.5,-282.7 865.5,-282.7 865.5,-259.7 508.5,-259.7"/>
<polygon fill="none" stroke="#000000" points="508.5,-259.7 508.5,-282.7 865.5,-282.7 865.5,-259.7 508.5,-259.7"/>
<text text-anchor="start" x="513.5" y="-268.8" font-family="Helvetica,sans-Serif" font-weight="bold" font-size="11.00" fill="#000000">PTOBS_slip_nonzero</text>
<text text-anchor="start" x="830.5437" y="-267.8" font-family="Helvetica,sans-Serif" font-size="11.00" fill="#000000">[table]</text>
<polygon fill="none" stroke="#000000" points="508.5,-237.7 508.5,-259.7 735.5,-259.7 735.5,-237.7 508.5,-237.7"/>
<image xlink:href="../../images/primaryKeys.png" width="11px" height="12px" preserveAspectRatio="xMinYMin meet" x="513.5" y="-254.7"/>
<text text-anchor="start" x="528.5" y="-244.8" font-family="Helvetica,sans-Serif" font-size="11.00" fill="#000000">PT_ID</text>
<polygon fill="none" stroke="#000000" points="735.5,-237.7 735.5,-259.7 865.5,-259.7 865.5,-237.7 735.5,-237.7"/>
<text text-anchor="start" x="738.5" y="-245.4" font-family="Helvetica,sans-Serif" font-size="11.00" fill="#000000">integer[2000000000,10]</text>
<polygon fill="none" stroke="#000000" points="508.5,-215.7 508.5,-237.7 735.5,-237.7 735.5,-215.7 508.5,-215.7"/>
<text text-anchor="start" x="528.5" y="-222.8" font-family="Helvetica,sans-Serif" font-size="11.00" fill="#000000">row_entry_date_updated</text>
<polygon fill="none" stroke="#000000" points="735.5,-215.7 735.5,-237.7 865.5,-237.7 865.5,-215.7 735.5,-215.7"/>
<text text-anchor="start" x="738.1372" y="-223.4" font-family="Helvetica,sans-Serif" font-size="11.00" fill="#000000">datetime[2000000000,10]</text>
<polygon fill="none" stroke="#000000" points="508.5,-193.7 508.5,-215.7 735.5,-215.7 735.5,-193.7 508.5,-193.7"/>
<image xlink:href="../../images/primaryKeys.png" width="11px" height="12px" preserveAspectRatio="xMinYMin meet" x="513.5" y="-210.7"/>
<text text-anchor="start" x="528.5" y="-200.8" font-family="Helvetica,sans-Serif" font-size="11.00" fill="#000000">EQ_ID</text>
<polygon fill="none" stroke="#000000" points="735.5,-193.7 735.5,-215.7 865.5,-215.7 865.5,-193.7 735.5,-193.7"/>
<text text-anchor="start" x="738.5" y="-201.4" font-family="Helvetica,sans-Serif" font-size="11.00" fill="#000000">integer[2000000000,10]</text>
<polygon fill="none" stroke="#000000" points="508.5,-171.7 508.5,-193.7 735.5,-193.7 735.5,-171.7 508.5,-171.7"/>
<text text-anchor="start" x="528.5" y="-178.8" font-family="Helvetica,sans-Serif" font-size="11.00" fill="#000000">slip_unknown_vertical_nonzero</text>
<polygon fill="none" stroke="#000000" points="735.5,-171.7 735.5,-193.7 865.5,-193.7 865.5,-171.7 735.5,-171.7"/>
<text text-anchor="start" x="738.5" y="-179.4" font-family="Helvetica,sans-Serif" font-size="11.00" fill="#000000">boolean[2000000000,10]</text>
<polygon fill="none" stroke="#000000" points="508.5,-149.7 508.5,-171.7 735.5,-171.7 735.5,-149.7 508.5,-149.7"/>
<text text-anchor="start" x="528.5" y="-156.8" font-family="Helvetica,sans-Serif" font-size="11.00" fill="#000000">slip_unknown_lateral_nonzero</text>
<polygon fill="none" stroke="#000000" points="735.5,-149.7 735.5,-171.7 865.5,-171.7 865.5,-149.7 735.5,-149.7"/>
<text text-anchor="start" x="738.5" y="-157.4" font-family="Helvetica,sans-Serif" font-size="11.00" fill="#000000">boolean[2000000000,10]</text>
<polygon fill="none" stroke="#000000" points="508.5,-127.7 508.5,-149.7 735.5,-149.7 735.5,-127.7 508.5,-127.7"/>
<image xlink:href="../../images/primaryKeys.png" width="11px" height="12px" preserveAspectRatio="xMinYMin meet" x="513.5" y="-144.7"/>
<text text-anchor="start" x="528.5" y="-134.8" font-family="Helvetica,sans-Serif" font-size="11.00" fill="#000000">MEAS_ID</text>
<polygon fill="none" stroke="#000000" points="735.5,-127.7 735.5,-149.7 865.5,-149.7 865.5,-127.7 735.5,-127.7"/>
<text text-anchor="start" x="738.5" y="-135.4" font-family="Helvetica,sans-Serif" font-size="11.00" fill="#000000">integer[2000000000,10]</text>
<polygon fill="none" stroke="#000000" points="508.5,-105.7 508.5,-127.7 735.5,-127.7 735.5,-105.7 508.5,-105.7"/>
<image xlink:href="../../images/primaryKeys.png" width="11px" height="12px" preserveAspectRatio="xMinYMin meet" x="513.5" y="-122.7"/>
<text text-anchor="start" x="528.5" y="-112.8" font-family="Helvetica,sans-Serif" font-size="11.00" fill="#000000">DS_ID</text>
<polygon fill="none" stroke="#000000" points="735.5,-105.7 735.5,-127.7 865.5,-127.7 865.5,-105.7 735.5,-105.7"/>
<text text-anchor="start" x="738.5" y="-113.4" font-family="Helvetica,sans-Serif" font-size="11.00" fill="#000000">integer[2000000000,10]</text>
<polygon fill="none" stroke="#000000" points="508.5,-83.7 508.5,-105.7 735.5,-105.7 735.5,-83.7 508.5,-83.7"/>
<text text-anchor="start" x="528.5" y="-90.8" font-family="Helvetica,sans-Serif" font-size="11.00" fill="#000000">slip_unknown_unspecified_nonzero</text>
<polygon fill="none" stroke="#000000" points="735.5,-83.7 735.5,-105.7 865.5,-105.7 865.5,-83.7 735.5,-83.7"/>
<text text-anchor="start" x="738.5" y="-91.4" font-family="Helvetica,sans-Serif" font-size="11.00" fill="#000000">boolean[2000000000,10]</text>
<polygon fill="none" stroke="#000000" points="508.5,-61.7 508.5,-83.7 735.5,-83.7 735.5,-61.7 508.5,-61.7"/>
<text text-anchor="start" x="528.5" y="-68.8" font-family="Helvetica,sans-Serif" font-size="11.00" fill="#000000">row_entry_source_file</text>
<polygon fill="none" stroke="#000000" points="735.5,-61.7 735.5,-83.7 865.5,-83.7 865.5,-61.7 735.5,-61.7"/>
<text text-anchor="start" x="738.5" y="-69.4" font-family="Helvetica,sans-Serif" font-size="11.00" fill="#000000">text[2000000000,10]</text>
<polygon fill="#ffffff" stroke="transparent" points="508.5,-42.7 508.5,-61.7 613.5,-61.7 613.5,-42.7 508.5,-42.7"/>
<polygon fill="none" stroke="#000000" points="508.5,-42.7 508.5,-61.7 613.5,-61.7 613.5,-42.7 508.5,-42.7"/>
<text text-anchor="start" x="511.5" y="-48.8" font-family="Helvetica,sans-Serif" font-size="11.00" fill="#000000">&lt; 4</text>
<polygon fill="#ffffff" stroke="transparent" points="613.5,-42.7 613.5,-61.7 735.5,-61.7 735.5,-42.7 613.5,-42.7"/>
<polygon fill="none" stroke="#000000" points="613.5,-42.7 613.5,-61.7 735.5,-61.7 735.5,-42.7 613.5,-42.7"/>
<text text-anchor="start" x="700.1105" y="-48.8" font-family="Helvetica,sans-Serif" font-size="11.00" fill="#000000">0 rows</text>
<polygon fill="#ffffff" stroke="transparent" points="735.5,-42.7 735.5,-61.7 865.5,-61.7 865.5,-42.7 735.5,-42.7"/>
<polygon fill="none" stroke="#000000" points="735.5,-42.7 735.5,-61.7 865.5,-61.7 865.5,-42.7 735.5,-42.7"/>
<text text-anchor="start" x="846.9053" y="-48.8" font-family="Helvetica,sans-Serif" font-size="11.00" fill="#000000">0 &gt;</text>
<polygon fill="none" stroke="#000000" stroke-width="2" points="507,-41.7 507,-283.7 866,-283.7 866,-41.7 507,-41.7"/>
</a>
</g>
</g>
<!-- PTOBS_slip_nonzero&#45;&gt;PTOBS_id -->
<g id="edge5" class="edge">
<title>PTOBS_slip_nonzero:w&#45;&gt;PTOBS_id:e</title>
<path fill="none" stroke="#000000" d="M494.5658,-142.9444C481.14,-152.6631 479.5965,-175.7 457.5,-175.7"/>
<polygon fill="#000000" stroke="#000000" points="500.8471,-141.0311 509.549,-142.1438 504.6736,-139.8655 508.5,-138.7 508.5,-138.7 508.5,-138.7 504.6736,-139.8655 507.451,-135.2562 500.8471,-141.0311 500.8471,-141.0311"/>
<ellipse fill="none" stroke="#000000" cx="497.786" cy="-141.9635" rx="3.2" ry="3.2"/>
</g>
<!-- PTOBS_slip_nonzero&#45;&gt;PTOBS_id -->
<g id="edge6" class="edge">
<title>PTOBS_slip_nonzero:w&#45;&gt;PTOBS_id:e</title>
<path fill="none" stroke="#000000" d="M494.5154,-244.618C470.3397,-226.4344 499.4315,-153.7 457.5,-153.7"/>
<polygon fill="#000000" stroke="#000000" points="500.8205,-246.4584 507.4913,-252.1558 504.6602,-247.5792 508.5,-248.7 508.5,-248.7 508.5,-248.7 504.6602,-247.5792 509.5087,-245.2442 500.8205,-246.4584 500.8205,-246.4584"/>
<ellipse fill="none" stroke="#000000" cx="497.7487" cy="-245.5617" rx="3.2" ry="3.2"/>
</g>
<!-- PTOBS_slip_nonzero&#45;&gt;METADATA_datasets -->
<g id="edge3" class="edge">
<title>PTOBS_slip_nonzero:w&#45;&gt;METADATA_datasets:e</title>
<path fill="none" stroke="#000000" d="M494.2509,-113.3675C484.7697,-108.2207 480.0931,-98.5319 465,-94.7 346.2707,-64.5563 311.9961,-86.7 189.5,-86.7"/>
<polygon fill="#000000" stroke="#000000" points="500.7102,-114.8781 507.6802,-120.2054 504.6051,-115.7891 508.5,-116.7 508.5,-116.7 508.5,-116.7 504.6051,-115.7891 509.3198,-113.1946 500.7102,-114.8781 500.7102,-114.8781"/>
<ellipse fill="none" stroke="#000000" cx="497.5943" cy="-114.1494" rx="3.2" ry="3.2"/>
</g>
<!-- PTOBS_slip_nonzero&#45;&gt;METADATA_events -->
<g id="edge4" class="edge">
<title>PTOBS_slip_nonzero:w&#45;&gt;METADATA_events:e</title>
<path fill="none" stroke="#000000" d="M494.3751,-209.294C481.0619,-221.1437 488.6096,-252.6553 465,-264.7 379.0895,-308.5283 340.3062,-292.6481 248,-264.7 227.2949,-258.431 229.1333,-237.7 207.5,-237.7"/>
<polygon fill="#000000" stroke="#000000" points="500.8923,-207.1744 509.6135,-208.1235 504.6961,-205.9372 508.5,-204.7 508.5,-204.7 508.5,-204.7 504.6961,-205.9372 507.3865,-201.2765 500.8923,-207.1744 500.8923,-207.1744"/>
<ellipse fill="none" stroke="#000000" cx="497.8492" cy="-208.1641" rx="3.2" ry="3.2"/>
</g>
</g>
</svg>
