<?xml version="1.0" encoding="UTF-8" standalone="no"?>
<!DOCTYPE svg PUBLIC "-//W3C//DTD SVG 1.1//EN"
 "http://www.w3.org/Graphics/SVG/1.1/DTD/svg11.dtd">
<!-- Generated by graphviz version 2.40.1 (20161225.0304)
 -->
<!-- Title: oneDegreeRelationshipsDiagram Pages: 1 -->
<svg width="847pt" height="756pt"
 viewBox="0.00 0.00 847.00 756.20" xmlns="http://www.w3.org/2000/svg" xmlns:xlink="http://www.w3.org/1999/xlink">
<g id="graph0" class="graph" transform="scale(1 1) rotate(0) translate(4 752.2)">
<title>oneDegreeRelationshipsDiagram</title>
<polygon fill="#ffffff" stroke="transparent" points="-4,4 -4,-752.2 843,-752.2 843,4 -4,4"/>
<text text-anchor="middle" x="72.4936" y="-7.3" font-family="Helvetica,sans-Serif" font-size="11.00" fill="#000000">Generated by SchemaSpy</text>
<!-- PTOBS_compass -->
<g id="node1" class="node">
<title>PTOBS_compass</title>
<g id="a_node1"><a xlink:href="../../tables/PTOBS_compass.html" xlink:title="PTOBS_compass" target="_top">
<polygon fill="#ffffff" stroke="transparent" points="506,-38.2 506,-744.2 831,-744.2 831,-38.2 506,-38.2"/>
<polygon fill="#f5f5f5" stroke="transparent" points="508.5,-719.2 508.5,-742.2 829.5,-742.2 829.5,-719.2 508.5,-719.2"/>
<polygon fill="none" stroke="#000000" points="508.5,-719.2 508.5,-742.2 829.5,-742.2 829.5,-719.2 508.5,-719.2"/>
<text text-anchor="start" x="513.5" y="-728.3" font-family="Helvetica,sans-Serif" font-weight="bold" font-size="11.00" fill="#000000">PTOBS_compass</text>
<text text-anchor="start" x="794.5437" y="-727.3" font-family="Helvetica,sans-Serif" font-size="11.00" fill="#000000">[table]</text>
<polygon fill="none" stroke="#000000" points="508.5,-697.2 508.5,-719.2 699.5,-719.2 699.5,-697.2 508.5,-697.2"/>
<image xlink:href="../../images/primaryKeys.png" width="11px" height="12px" preserveAspectRatio="xMinYMin meet" x="513.5" y="-714.2"/>
<text text-anchor="start" x="528.5" y="-704.3" font-family="Helvetica,sans-Serif" font-size="11.00" fill="#000000">EQ_ID</text>
<polygon fill="none" stroke="#000000" points="699.5,-697.2 699.5,-719.2 829.5,-719.2 829.5,-697.2 699.5,-697.2"/>
<text text-anchor="start" x="702.5" y="-704.9" font-family="Helvetica,sans-Serif" font-size="11.00" fill="#000000">integer[2000000000,10]</text>
<polygon fill="none" stroke="#000000" points="508.5,-675.2 508.5,-697.2 699.5,-697.2 699.5,-675.2 508.5,-675.2"/>
<text text-anchor="start" x="528.5" y="-682.3" font-family="Helvetica,sans-Serif" font-size="11.00" fill="#000000">fault_dip_high</text>
<polygon fill="none" stroke="#000000" points="699.5,-675.2 699.5,-697.2 829.5,-697.2 829.5,-675.2 699.5,-675.2"/>
<text text-anchor="start" x="702.5" y="-682.9" font-family="Helvetica,sans-Serif" font-size="11.00" fill="#000000">float[2000000000,10]</text>
<polygon fill="none" stroke="#000000" points="508.5,-653.2 508.5,-675.2 699.5,-675.2 699.5,-653.2 508.5,-653.2"/>
<text text-anchor="start" x="528.5" y="-660.3" font-family="Helvetica,sans-Serif" font-size="11.00" fill="#000000">fault_dip_azimuth_central</text>
<polygon fill="none" stroke="#000000" points="699.5,-653.2 699.5,-675.2 829.5,-675.2 829.5,-653.2 699.5,-653.2"/>
<text text-anchor="start" x="702.5" y="-660.9" font-family="Helvetica,sans-Serif" font-size="11.00" fill="#000000">float[2000000000,10]</text>
<polygon fill="none" stroke="#000000" points="508.5,-631.2 508.5,-653.2 699.5,-653.2 699.5,-631.2 508.5,-631.2"/>
<text text-anchor="start" x="528.5" y="-638.3" font-family="Helvetica,sans-Serif" font-size="11.00" fill="#000000">fault_dip_azimuth_low</text>
<polygon fill="none" stroke="#000000" points="699.5,-631.2 699.5,-653.2 829.5,-653.2 829.5,-631.2 699.5,-631.2"/>
<text text-anchor="start" x="702.5" y="-638.9" font-family="Helvetica,sans-Serif" font-size="11.00" fill="#000000">float[2000000000,10]</text>
<polygon fill="none" stroke="#000000" points="508.5,-609.2 508.5,-631.2 699.5,-631.2 699.5,-609.2 508.5,-609.2"/>
<text text-anchor="start" x="528.5" y="-616.3" font-family="Helvetica,sans-Serif" font-size="11.00" fill="#000000">slip_azimuth_central</text>
<polygon fill="none" stroke="#000000" points="699.5,-609.2 699.5,-631.2 829.5,-631.2 829.5,-609.2 699.5,-609.2"/>
<text text-anchor="start" x="702.5" y="-616.9" font-family="Helvetica,sans-Serif" font-size="11.00" fill="#000000">float[2000000000,10]</text>
<polygon fill="none" stroke="#000000" points="508.5,-587.2 508.5,-609.2 699.5,-609.2 699.5,-587.2 508.5,-587.2"/>
<image xlink:href="../../images/primaryKeys.png" width="11px" height="12px" preserveAspectRatio="xMinYMin meet" x="513.5" y="-604.2"/>
<text text-anchor="start" x="528.5" y="-594.3" font-family="Helvetica,sans-Serif" font-size="11.00" fill="#000000">DS_ID</text>
<polygon fill="none" stroke="#000000" points="699.5,-587.2 699.5,-609.2 829.5,-609.2 829.5,-587.2 699.5,-587.2"/>
<text text-anchor="start" x="702.5" y="-594.9" font-family="Helvetica,sans-Serif" font-size="11.00" fill="#000000">integer[2000000000,10]</text>
<polygon fill="none" stroke="#000000" points="508.5,-565.2 508.5,-587.2 699.5,-587.2 699.5,-565.2 508.5,-565.2"/>
<text text-anchor="start" x="528.5" y="-572.3" font-family="Helvetica,sans-Serif" font-size="11.00" fill="#000000">fault_dip_meas_type</text>
<polygon fill="none" stroke="#000000" points="699.5,-565.2 699.5,-587.2 829.5,-587.2 829.5,-565.2 699.5,-565.2"/>
<text text-anchor="start" x="702.5" y="-572.9" font-family="Helvetica,sans-Serif" font-size="11.00" fill="#000000">text[2000000000,10]</text>
<polygon fill="none" stroke="#000000" points="508.5,-543.2 508.5,-565.2 699.5,-565.2 699.5,-543.2 508.5,-543.2"/>
<text text-anchor="start" x="528.5" y="-550.3" font-family="Helvetica,sans-Serif" font-size="11.00" fill="#000000">slip_azimuth_high</text>
<polygon fill="none" stroke="#000000" points="699.5,-543.2 699.5,-565.2 829.5,-565.2 829.5,-543.2 699.5,-543.2"/>
<text text-anchor="start" x="702.5" y="-550.9" font-family="Helvetica,sans-Serif" font-size="11.00" fill="#000000">float[2000000000,10]</text>
<polygon fill="none" stroke="#000000" points="508.5,-521.2 508.5,-543.2 699.5,-543.2 699.5,-521.2 508.5,-521.2"/>
<text text-anchor="start" x="528.5" y="-528.3" font-family="Helvetica,sans-Serif" font-size="11.00" fill="#000000">fault_dip_azimuth_high</text>
<polygon fill="none" stroke="#000000" points="699.5,-521.2 699.5,-543.2 829.5,-543.2 829.5,-521.2 699.5,-521.2"/>
<text text-anchor="start" x="702.5" y="-528.9" font-family="Helvetica,sans-Serif" font-size="11.00" fill="#000000">float[2000000000,10]</text>
<polygon fill="none" stroke="#000000" points="508.5,-499.2 508.5,-521.2 699.5,-521.2 699.5,-499.2 508.5,-499.2"/>
<text text-anchor="start" x="528.5" y="-506.3" font-family="Helvetica,sans-Serif" font-size="11.00" fill="#000000">slip_plunge_meas_type</text>
<polygon fill="none" stroke="#000000" points="699.5,-499.2 699.5,-521.2 829.5,-521.2 829.5,-499.2 699.5,-499.2"/>
<text text-anchor="start" x="702.5" y="-506.9" font-family="Helvetica,sans-Serif" font-size="11.00" fill="#000000">text[2000000000,10]</text>
<polygon fill="none" stroke="#000000" points="508.5,-477.2 508.5,-499.2 699.5,-499.2 699.5,-477.2 508.5,-477.2"/>
<text text-anchor="start" x="528.5" y="-484.3" font-family="Helvetica,sans-Serif" font-size="11.00" fill="#000000">fault_dip_low</text>
<polygon fill="none" stroke="#000000" points="699.5,-477.2 699.5,-499.2 829.5,-499.2 829.5,-477.2 699.5,-477.2"/>
<text text-anchor="start" x="702.5" y="-484.9" font-family="Helvetica,sans-Serif" font-size="11.00" fill="#000000">float[2000000000,10]</text>
<polygon fill="none" stroke="#000000" points="508.5,-455.2 508.5,-477.2 699.5,-477.2 699.5,-455.2 508.5,-455.2"/>
<text text-anchor="start" x="528.5" y="-462.3" font-family="Helvetica,sans-Serif" font-size="11.00" fill="#000000">fault_dip_central</text>
<polygon fill="none" stroke="#000000" points="699.5,-455.2 699.5,-477.2 829.5,-477.2 829.5,-455.2 699.5,-455.2"/>
<text text-anchor="start" x="702.5" y="-462.9" font-family="Helvetica,sans-Serif" font-size="11.00" fill="#000000">float[2000000000,10]</text>
<polygon fill="none" stroke="#000000" points="508.5,-433.2 508.5,-455.2 699.5,-455.2 699.5,-433.2 508.5,-433.2"/>
<text text-anchor="start" x="528.5" y="-440.3" font-family="Helvetica,sans-Serif" font-size="11.00" fill="#000000">row_entry_source_file</text>
<polygon fill="none" stroke="#000000" points="699.5,-433.2 699.5,-455.2 829.5,-455.2 829.5,-433.2 699.5,-433.2"/>
<text text-anchor="start" x="702.5" y="-440.9" font-family="Helvetica,sans-Serif" font-size="11.00" fill="#000000">text[2000000000,10]</text>
<polygon fill="none" stroke="#000000" points="508.5,-411.2 508.5,-433.2 699.5,-433.2 699.5,-411.2 508.5,-411.2"/>
<text text-anchor="start" x="528.5" y="-418.3" font-family="Helvetica,sans-Serif" font-size="11.00" fill="#000000">slip_rake_central</text>
<polygon fill="none" stroke="#000000" points="699.5,-411.2 699.5,-433.2 829.5,-433.2 829.5,-411.2 699.5,-411.2"/>
<text text-anchor="start" x="702.5" y="-418.9" font-family="Helvetica,sans-Serif" font-size="11.00" fill="#000000">float[2000000000,10]</text>
<polygon fill="none" stroke="#000000" points="508.5,-389.2 508.5,-411.2 699.5,-411.2 699.5,-389.2 508.5,-389.2"/>
<text text-anchor="start" x="528.5" y="-396.3" font-family="Helvetica,sans-Serif" font-size="11.00" fill="#000000">row_entry_date_updated</text>
<polygon fill="none" stroke="#000000" points="699.5,-389.2 699.5,-411.2 829.5,-411.2 829.5,-389.2 699.5,-389.2"/>
<text text-anchor="start" x="702.1372" y="-396.9" font-family="Helvetica,sans-Serif" font-size="11.00" fill="#000000">datetime[2000000000,10]</text>
<polygon fill="none" stroke="#000000" points="508.5,-367.2 508.5,-389.2 699.5,-389.2 699.5,-367.2 508.5,-367.2"/>
<text text-anchor="start" x="528.5" y="-374.3" font-family="Helvetica,sans-Serif" font-size="11.00" fill="#000000">slip_plunge_low</text>
<polygon fill="none" stroke="#000000" points="699.5,-367.2 699.5,-389.2 829.5,-389.2 829.5,-367.2 699.5,-367.2"/>
<text text-anchor="start" x="702.5" y="-374.9" font-family="Helvetica,sans-Serif" font-size="11.00" fill="#000000">float[2000000000,10]</text>
<polygon fill="none" stroke="#000000" points="508.5,-345.2 508.5,-367.2 699.5,-367.2 699.5,-345.2 508.5,-345.2"/>
<text text-anchor="start" x="528.5" y="-352.3" font-family="Helvetica,sans-Serif" font-size="11.00" fill="#000000">slip_rake_high</text>
<polygon fill="none" stroke="#000000" points="699.5,-345.2 699.5,-367.2 829.5,-367.2 829.5,-345.2 699.5,-345.2"/>
<text text-anchor="start" x="702.5" y="-352.9" font-family="Helvetica,sans-Serif" font-size="11.00" fill="#000000">float[2000000000,10]</text>
<polygon fill="none" stroke="#000000" points="508.5,-323.2 508.5,-345.2 699.5,-345.2 699.5,-323.2 508.5,-323.2"/>
<text text-anchor="start" x="528.5" y="-330.3" font-family="Helvetica,sans-Serif" font-size="11.00" fill="#000000">slip_plunge_central</text>
<polygon fill="none" stroke="#000000" points="699.5,-323.2 699.5,-345.2 829.5,-345.2 829.5,-323.2 699.5,-323.2"/>
<text text-anchor="start" x="702.5" y="-330.9" font-family="Helvetica,sans-Serif" font-size="11.00" fill="#000000">float[2000000000,10]</text>
<polygon fill="none" stroke="#000000" points="508.5,-301.2 508.5,-323.2 699.5,-323.2 699.5,-301.2 508.5,-301.2"/>
<text text-anchor="start" x="528.5" y="-308.3" font-family="Helvetica,sans-Serif" font-size="11.00" fill="#000000">fault_strike_meas_type</text>
<polygon fill="none" stroke="#000000" points="699.5,-301.2 699.5,-323.2 829.5,-323.2 829.5,-301.2 699.5,-301.2"/>
<text text-anchor="start" x="702.5" y="-308.9" font-family="Helvetica,sans-Serif" font-size="11.00" fill="#000000">text[2000000000,10]</text>
<polygon fill="none" stroke="#000000" points="508.5,-279.2 508.5,-301.2 699.5,-301.2 699.5,-279.2 508.5,-279.2"/>
<text text-anchor="start" x="528.5" y="-286.3" font-family="Helvetica,sans-Serif" font-size="11.00" fill="#000000">fault_strike_high</text>
<polygon fill="none" stroke="#000000" points="699.5,-279.2 699.5,-301.2 829.5,-301.2 829.5,-279.2 699.5,-279.2"/>
<text text-anchor="start" x="702.5" y="-286.9" font-family="Helvetica,sans-Serif" font-size="11.00" fill="#000000">float[2000000000,10]</text>
<polygon fill="none" stroke="#000000" points="508.5,-257.2 508.5,-279.2 699.5,-279.2 699.5,-257.2 508.5,-257.2"/>
<image xlink:href="../../images/primaryKeys.png" width="11px" height="12px" preserveAspectRatio="xMinYMin meet" x="513.5" y="-274.2"/>
<text text-anchor="start" x="528.5" y="-264.3" font-family="Helvetica,sans-Serif" font-size="11.00" fill="#000000">MEAS_ID</text>
<polygon fill="none" stroke="#000000" points="699.5,-257.2 699.5,-279.2 829.5,-279.2 829.5,-257.2 699.5,-257.2"/>
<text text-anchor="start" x="702.5" y="-264.9" font-family="Helvetica,sans-Serif" font-size="11.00" fill="#000000">integer[2000000000,10]</text>
<polygon fill="none" stroke="#000000" points="508.5,-235.2 508.5,-257.2 699.5,-257.2 699.5,-235.2 508.5,-235.2"/>
<text text-anchor="start" x="528.5" y="-242.3" font-family="Helvetica,sans-Serif" font-size="11.00" fill="#000000">fault_strike_low</text>
<polygon fill="none" stroke="#000000" points="699.5,-235.2 699.5,-257.2 829.5,-257.2 829.5,-235.2 699.5,-235.2"/>
<text text-anchor="start" x="702.5" y="-242.9" font-family="Helvetica,sans-Serif" font-size="11.00" fill="#000000">float[2000000000,10]</text>
<polygon fill="none" stroke="#000000" points="508.5,-213.2 508.5,-235.2 699.5,-235.2 699.5,-213.2 508.5,-213.2"/>
<text text-anchor="start" x="528.5" y="-220.3" font-family="Helvetica,sans-Serif" font-size="11.00" fill="#000000">fault_strike_central</text>
<polygon fill="none" stroke="#000000" points="699.5,-213.2 699.5,-235.2 829.5,-235.2 829.5,-213.2 699.5,-213.2"/>
<text text-anchor="start" x="702.5" y="-220.9" font-family="Helvetica,sans-Serif" font-size="11.00" fill="#000000">float[2000000000,10]</text>
<polygon fill="none" stroke="#000000" points="508.5,-191.2 508.5,-213.2 699.5,-213.2 699.5,-191.2 508.5,-191.2"/>
<text text-anchor="start" x="528.5" y="-198.3" font-family="Helvetica,sans-Serif" font-size="11.00" fill="#000000">slip_plunge_high</text>
<polygon fill="none" stroke="#000000" points="699.5,-191.2 699.5,-213.2 829.5,-213.2 829.5,-191.2 699.5,-191.2"/>
<text text-anchor="start" x="702.5" y="-198.9" font-family="Helvetica,sans-Serif" font-size="11.00" fill="#000000">float[2000000000,10]</text>
<polygon fill="none" stroke="#000000" points="508.5,-169.2 508.5,-191.2 699.5,-191.2 699.5,-169.2 508.5,-169.2"/>
<text text-anchor="start" x="528.5" y="-176.3" font-family="Helvetica,sans-Serif" font-size="11.00" fill="#000000">fault_dip_azimuth_meas_type</text>
<polygon fill="none" stroke="#000000" points="699.5,-169.2 699.5,-191.2 829.5,-191.2 829.5,-169.2 699.5,-169.2"/>
<text text-anchor="start" x="702.5" y="-176.9" font-family="Helvetica,sans-Serif" font-size="11.00" fill="#000000">text[2000000000,10]</text>
<polygon fill="none" stroke="#000000" points="508.5,-147.2 508.5,-169.2 699.5,-169.2 699.5,-147.2 508.5,-147.2"/>
<image xlink:href="../../images/primaryKeys.png" width="11px" height="12px" preserveAspectRatio="xMinYMin meet" x="513.5" y="-164.2"/>
<text text-anchor="start" x="528.5" y="-154.3" font-family="Helvetica,sans-Serif" font-size="11.00" fill="#000000">PT_ID</text>
<polygon fill="none" stroke="#000000" points="699.5,-147.2 699.5,-169.2 829.5,-169.2 829.5,-147.2 699.5,-147.2"/>
<text text-anchor="start" x="702.5" y="-154.9" font-family="Helvetica,sans-Serif" font-size="11.00" fill="#000000">integer[2000000000,10]</text>
<polygon fill="none" stroke="#000000" points="508.5,-125.2 508.5,-147.2 699.5,-147.2 699.5,-125.2 508.5,-125.2"/>
<text text-anchor="start" x="528.5" y="-132.3" font-family="Helvetica,sans-Serif" font-size="11.00" fill="#000000">slip_azimuth_low</text>
<polygon fill="none" stroke="#000000" points="699.5,-125.2 699.5,-147.2 829.5,-147.2 829.5,-125.2 699.5,-125.2"/>
<text text-anchor="start" x="702.5" y="-132.9" font-family="Helvetica,sans-Serif" font-size="11.00" fill="#000000">float[2000000000,10]</text>
<polygon fill="none" stroke="#000000" points="508.5,-103.2 508.5,-125.2 699.5,-125.2 699.5,-103.2 508.5,-103.2"/>
<text text-anchor="start" x="528.5" y="-110.3" font-family="Helvetica,sans-Serif" font-size="11.00" fill="#000000">slip_rake_meas_type</text>
<polygon fill="none" stroke="#000000" points="699.5,-103.2 699.5,-125.2 829.5,-125.2 829.5,-103.2 699.5,-103.2"/>
<text text-anchor="start" x="702.5" y="-110.9" font-family="Helvetica,sans-Serif" font-size="11.00" fill="#000000">text[2000000000,10]</text>
<polygon fill="none" stroke="#000000" points="508.5,-81.2 508.5,-103.2 699.5,-103.2 699.5,-81.2 508.5,-81.2"/>
<text text-anchor="start" x="528.5" y="-88.3" font-family="Helvetica,sans-Serif" font-size="11.00" fill="#000000">slip_rake_low</text>
<polygon fill="none" stroke="#000000" points="699.5,-81.2 699.5,-103.2 829.5,-103.2 829.5,-81.2 699.5,-81.2"/>
<text text-anchor="start" x="702.5" y="-88.9" font-family="Helvetica,sans-Serif" font-size="11.00" fill="#000000">float[2000000000,10]</text>
<polygon fill="none" stroke="#000000" points="508.5,-59.2 508.5,-81.2 699.5,-81.2 699.5,-59.2 508.5,-59.2"/>
<text text-anchor="start" x="528.5" y="-66.3" font-family="Helvetica,sans-Serif" font-size="11.00" fill="#000000">slip_azimuth_meas_type</text>
<polygon fill="none" stroke="#000000" points="699.5,-59.2 699.5,-81.2 829.5,-81.2 829.5,-59.2 699.5,-59.2"/>
<text text-anchor="start" x="702.5" y="-66.9" font-family="Helvetica,sans-Serif" font-size="11.00" fill="#000000">text[2000000000,10]</text>
<polygon fill="#ffffff" stroke="transparent" points="508.5,-40.2 508.5,-59.2 595.5,-59.2 595.5,-40.2 508.5,-40.2"/>
<polygon fill="none" stroke="#000000" points="508.5,-40.2 508.5,-59.2 595.5,-59.2 595.5,-40.2 508.5,-40.2"/>
<text text-anchor="start" x="511.5" y="-46.3" font-family="Helvetica,sans-Serif" font-size="11.00" fill="#000000">&lt; 4</text>
<polygon fill="#ffffff" stroke="transparent" points="595.5,-40.2 595.5,-59.2 699.5,-59.2 699.5,-40.2 595.5,-40.2"/>
<polygon fill="none" stroke="#000000" points="595.5,-40.2 595.5,-59.2 699.5,-59.2 699.5,-40.2 595.5,-40.2"/>
<text text-anchor="start" x="664.1105" y="-46.3" font-family="Helvetica,sans-Serif" font-size="11.00" fill="#000000">0 rows</text>
<polygon fill="#ffffff" stroke="transparent" points="699.5,-40.2 699.5,-59.2 829.5,-59.2 829.5,-40.2 699.5,-40.2"/>
<polygon fill="none" stroke="#000000" points="699.5,-40.2 699.5,-59.2 829.5,-59.2 829.5,-40.2 699.5,-40.2"/>
<text text-anchor="start" x="810.9053" y="-46.3" font-family="Helvetica,sans-Serif" font-size="11.00" fill="#000000">0 &gt;</text>
<polygon fill="none" stroke="#000000" stroke-width="2" points="507,-39.2 507,-743.2 830,-743.2 830,-39.2 507,-39.2"/>
</a>
</g>
</g>
<!-- METADATA_datasets -->
<g id="node2" class="node">
<title>METADATA_datasets</title>
<g id="a_node2"><a xlink:href="../../tables/METADATA_datasets.html" xlink:title="METADATA_datasets" target="_top">
<polygon fill="#ffffff" stroke="transparent" points="26,-523.7 26,-606.7 189,-606.7 189,-523.7 26,-523.7"/>
<polygon fill="#f5f5f5" stroke="transparent" points="26.5,-583.2 26.5,-606.2 189.5,-606.2 189.5,-583.2 26.5,-583.2"/>
<polygon fill="none" stroke="#000000" points="26.5,-583.2 26.5,-606.2 189.5,-606.2 189.5,-583.2 26.5,-583.2"/>
<text text-anchor="start" x="31.5" y="-592.3" font-family="Helvetica,sans-Serif" font-weight="bold" font-size="11.00" fill="#000000">METADATA_datasets</text>
<text text-anchor="start" x="154.5437" y="-591.3" font-family="Helvetica,sans-Serif" font-size="11.00" fill="#000000">[table]</text>
<polygon fill="none" stroke="#000000" points="26.5,-561.2 26.5,-583.2 189.5,-583.2 189.5,-561.2 26.5,-561.2"/>
<image xlink:href="../../images/primaryKeys.png" width="11px" height="12px" preserveAspectRatio="xMinYMin meet" x="31.5" y="-578.2"/>
<text text-anchor="start" x="46.5" y="-568.3" font-family="Helvetica,sans-Serif" font-size="11.00" fill="#000000">DS_ID</text>
<polygon fill="none" stroke="#000000" points="26.5,-542.2 26.5,-561.2 189.5,-561.2 189.5,-542.2 26.5,-542.2"/>
<text text-anchor="start" x="29.5" y="-548.3" font-family="Helvetica,sans-Serif" font-size="11.00" fill="#000000">...</text>
<polygon fill="#ffffff" stroke="transparent" points="26.5,-523.2 26.5,-542.2 81.5,-542.2 81.5,-523.2 26.5,-523.2"/>
<polygon fill="none" stroke="#000000" points="26.5,-523.2 26.5,-542.2 81.5,-542.2 81.5,-523.2 26.5,-523.2"/>
<text text-anchor="start" x="29.5" y="-529.3" font-family="Helvetica,sans-Serif" font-size="11.00" fill="#000000"> &#160;</text>
<polygon fill="#ffffff" stroke="transparent" points="81.5,-523.2 81.5,-542.2 140.5,-542.2 140.5,-523.2 81.5,-523.2"/>
<polygon fill="none" stroke="#000000" points="81.5,-523.2 81.5,-542.2 140.5,-542.2 140.5,-523.2 81.5,-523.2"/>
<text text-anchor="start" x="105.1105" y="-529.3" font-family="Helvetica,sans-Serif" font-size="11.00" fill="#000000">0 rows</text>
<polygon fill="#ffffff" stroke="transparent" points="140.5,-523.2 140.5,-542.2 189.5,-542.2 189.5,-523.2 140.5,-523.2"/>
<polygon fill="none" stroke="#000000" points="140.5,-523.2 140.5,-542.2 189.5,-542.2 189.5,-523.2 140.5,-523.2"/>
<text text-anchor="start" x="164.7904" y="-529.3" font-family="Helvetica,sans-Serif" font-size="11.00" fill="#000000">35 &gt;</text>
</a>
</g>
</g>
<!-- PTOBS_compass&#45;&gt;METADATA_datasets -->
<g id="edge1" class="edge">
<title>PTOBS_compass:w&#45;&gt;METADATA_datasets:e</title>
<path fill="none" stroke="#000000" d="M493.8874,-598.1059C363.6928,-596.404 326.747,-572.2 189.5,-572.2"/>
<polygon fill="#000000" stroke="#000000" points="500.5002,-598.1484 508.4768,-601.7999 504.5001,-598.1742 508.5,-598.2 508.5,-598.2 508.5,-598.2 504.5001,-598.1742 508.5232,-594.6001 500.5002,-598.1484 500.5002,-598.1484"/>
<ellipse fill="none" stroke="#000000" cx="497.3002" cy="-598.1278" rx="3.2" ry="3.2"/>
</g>
<!-- METADATA_events -->
<g id="node3" class="node">
<title>METADATA_events</title>
<g id="a_node3"><a xlink:href="../../tables/METADATA_events.html" xlink:title="METADATA_events" target="_top">
<polygon fill="#ffffff" stroke="transparent" points="8,-394.7 8,-477.7 207,-477.7 207,-394.7 8,-394.7"/>
<polygon fill="#f5f5f5" stroke="transparent" points="8.5,-454.2 8.5,-477.2 207.5,-477.2 207.5,-454.2 8.5,-454.2"/>
<polygon fill="none" stroke="#000000" points="8.5,-454.2 8.5,-477.2 207.5,-477.2 207.5,-454.2 8.5,-454.2"/>
<text text-anchor="start" x="13.5" y="-463.3" font-family="Helvetica,sans-Serif" font-weight="bold" font-size="11.00" fill="#000000">METADATA_events</text>
<text text-anchor="start" x="172.5437" y="-462.3" font-family="Helvetica,sans-Serif" font-size="11.00" fill="#000000">[table]</text>
<polygon fill="none" stroke="#000000" points="8.5,-432.2 8.5,-454.2 207.5,-454.2 207.5,-432.2 8.5,-432.2"/>
<image xlink:href="../../images/primaryKeys.png" width="11px" height="12px" preserveAspectRatio="xMinYMin meet" x="13.5" y="-449.2"/>
<text text-anchor="start" x="28.5" y="-439.3" font-family="Helvetica,sans-Serif" font-size="11.00" fill="#000000">EQ_ID</text>
<polygon fill="none" stroke="#000000" points="8.5,-413.2 8.5,-432.2 207.5,-432.2 207.5,-413.2 8.5,-413.2"/>
<text text-anchor="start" x="11.5" y="-419.3" font-family="Helvetica,sans-Serif" font-size="11.00" fill="#000000">...</text>
<polygon fill="#ffffff" stroke="transparent" points="8.5,-394.2 8.5,-413.2 81.5,-413.2 81.5,-394.2 8.5,-394.2"/>
<polygon fill="none" stroke="#000000" points="8.5,-394.2 8.5,-413.2 81.5,-413.2 81.5,-394.2 8.5,-394.2"/>
<text text-anchor="start" x="11.5" y="-400.3" font-family="Helvetica,sans-Serif" font-size="11.00" fill="#000000"> &#160;</text>
<polygon fill="#ffffff" stroke="transparent" points="81.5,-394.2 81.5,-413.2 149.5,-413.2 149.5,-394.2 81.5,-394.2"/>
<polygon fill="none" stroke="#000000" points="81.5,-394.2 81.5,-413.2 149.5,-413.2 149.5,-394.2 81.5,-394.2"/>
<text text-anchor="start" x="114.1105" y="-400.3" font-family="Helvetica,sans-Serif" font-size="11.00" fill="#000000">0 rows</text>
<polygon fill="#ffffff" stroke="transparent" points="149.5,-394.2 149.5,-413.2 207.5,-413.2 207.5,-394.2 149.5,-394.2"/>
<polygon fill="none" stroke="#000000" points="149.5,-394.2 149.5,-413.2 207.5,-413.2 207.5,-394.2 149.5,-394.2"/>
<text text-anchor="start" x="182.7904" y="-400.3" font-family="Helvetica,sans-Serif" font-size="11.00" fill="#000000">34 &gt;</text>
</a>
</g>
</g>
<!-- PTOBS_compass&#45;&gt;METADATA_events -->
<g id="edge2" class="edge">
<title>PTOBS_compass:w&#45;&gt;METADATA_events:e</title>
<path fill="none" stroke="#000000" d="M494.7484,-703.3742C431.0797,-667.4579 248.4908,-443.2 207.5,-443.2"/>
<polygon fill="#000000" stroke="#000000" points="500.9513,-705.5509 507.3079,-711.5969 504.7257,-706.8755 508.5,-708.2 508.5,-708.2 508.5,-708.2 504.7257,-706.8755 509.6921,-704.8031 500.9513,-705.5509 500.9513,-705.5509"/>
<ellipse fill="none" stroke="#000000" cx="497.9318" cy="-704.4913" rx="3.2" ry="3.2"/>
</g>
<!-- PTOBS_id -->
<g id="node4" class="node">
<title>PTOBS_id</title>
<g id="a_node4"><a xlink:href="../../tables/PTOBS_id.html" xlink:title="PTOBS_id" target="_top">
<polygon fill="#ffffff" stroke="transparent" points="256,-299.7 256,-448.7 457,-448.7 457,-299.7 256,-299.7"/>
<polygon fill="#f5f5f5" stroke="transparent" points="256.5,-425.2 256.5,-448.2 457.5,-448.2 457.5,-425.2 256.5,-425.2"/>
<polygon fill="none" stroke="#000000" points="256.5,-425.2 256.5,-448.2 457.5,-448.2 457.5,-425.2 256.5,-425.2"/>
<text text-anchor="start" x="261.5" y="-434.3" font-family="Helvetica,sans-Serif" font-weight="bold" font-size="11.00" fill="#000000">PTOBS_id</text>
<text text-anchor="start" x="422.5437" y="-433.3" font-family="Helvetica,sans-Serif" font-size="11.00" fill="#000000">[table]</text>
<polygon fill="none" stroke="#000000" points="256.5,-403.2 256.5,-425.2 457.5,-425.2 457.5,-403.2 256.5,-403.2"/>
<image xlink:href="../../images/primaryKeys.png" width="11px" height="12px" preserveAspectRatio="xMinYMin meet" x="261.5" y="-420.2"/>
<text text-anchor="start" x="276.5" y="-410.3" font-family="Helvetica,sans-Serif" font-size="11.00" fill="#000000">DS_ID</text>
<polygon fill="none" stroke="#000000" points="256.5,-381.2 256.5,-403.2 457.5,-403.2 457.5,-381.2 256.5,-381.2"/>
<image xlink:href="../../images/primaryKeys.png" width="11px" height="12px" preserveAspectRatio="xMinYMin meet" x="261.5" y="-398.2"/>
<text text-anchor="start" x="276.5" y="-388.3" font-family="Helvetica,sans-Serif" font-size="11.00" fill="#000000">EQ_ID</text>
<polygon fill="none" stroke="#000000" points="256.5,-359.2 256.5,-381.2 457.5,-381.2 457.5,-359.2 256.5,-359.2"/>
<image xlink:href="../../images/primaryKeys.png" width="11px" height="12px" preserveAspectRatio="xMinYMin meet" x="261.5" y="-376.2"/>
<text text-anchor="start" x="276.5" y="-366.3" font-family="Helvetica,sans-Serif" font-size="11.00" fill="#000000">MEAS_ID</text>
<polygon fill="none" stroke="#000000" points="256.5,-337.2 256.5,-359.2 457.5,-359.2 457.5,-337.2 256.5,-337.2"/>
<image xlink:href="../../images/primaryKeys.png" width="11px" height="12px" preserveAspectRatio="xMinYMin meet" x="261.5" y="-354.2"/>
<text text-anchor="start" x="276.5" y="-344.3" font-family="Helvetica,sans-Serif" font-size="11.00" fill="#000000">PT_ID</text>
<polygon fill="none" stroke="#000000" points="256.5,-318.2 256.5,-337.2 457.5,-337.2 457.5,-318.2 256.5,-318.2"/>
<text text-anchor="start" x="259.5" y="-324.3" font-family="Helvetica,sans-Serif" font-size="11.00" fill="#000000">...</text>
<polygon fill="#ffffff" stroke="transparent" points="256.5,-299.2 256.5,-318.2 334.5,-318.2 334.5,-299.2 256.5,-299.2"/>
<polygon fill="none" stroke="#000000" points="256.5,-299.2 256.5,-318.2 334.5,-318.2 334.5,-299.2 256.5,-299.2"/>
<text text-anchor="start" x="259.5" y="-305.3" font-family="Helvetica,sans-Serif" font-size="11.00" fill="#000000">&lt; 2</text>
<polygon fill="#ffffff" stroke="transparent" points="334.5,-299.2 334.5,-318.2 401.5,-318.2 401.5,-299.2 334.5,-299.2"/>
<polygon fill="none" stroke="#000000" points="334.5,-299.2 334.5,-318.2 401.5,-318.2 401.5,-299.2 334.5,-299.2"/>
<text text-anchor="start" x="366.1105" y="-305.3" font-family="Helvetica,sans-Serif" font-size="11.00" fill="#000000">0 rows</text>
<polygon fill="#ffffff" stroke="transparent" points="401.5,-299.2 401.5,-318.2 457.5,-318.2 457.5,-299.2 401.5,-299.2"/>
<polygon fill="none" stroke="#000000" points="401.5,-299.2 401.5,-318.2 457.5,-318.2 457.5,-299.2 401.5,-299.2"/>
<text text-anchor="start" x="432.7904" y="-305.3" font-family="Helvetica,sans-Serif" font-size="11.00" fill="#000000">35 &gt;</text>
</a>
</g>
</g>
<!-- PTOBS_compass&#45;&gt;PTOBS_id -->
<g id="edge3" class="edge">
<title>PTOBS_compass:w&#45;&gt;PTOBS_id:e</title>
<path fill="none" stroke="#000000" d="M494.5193,-272.074C468.2331,-290.7055 502.2447,-370.2 457.5,-370.2"/>
<polygon fill="#000000" stroke="#000000" points="500.7905,-270.3363 509.4613,-271.6693 504.6452,-269.2681 508.5,-268.2 508.5,-268.2 508.5,-268.2 504.6452,-269.2681 507.5387,-264.7307 500.7905,-270.3363 500.7905,-270.3363"/>
<ellipse fill="none" stroke="#000000" cx="497.7067" cy="-271.1908" rx="3.2" ry="3.2"/>
</g>
<!-- PTOBS_compass&#45;&gt;PTOBS_id -->
<g id="edge4" class="edge">
<title>PTOBS_compass:w&#45;&gt;PTOBS_id:e</title>
<path fill="none" stroke="#000000" d="M494.1141,-160.4662C436.1558,-181.9029 539.2983,-348.2 457.5,-348.2"/>
<polygon fill="#000000" stroke="#000000" points="500.5974,-159.4449 509.0602,-161.7561 504.5487,-158.8225 508.5,-158.2 508.5,-158.2 508.5,-158.2 504.5487,-158.8225 507.9398,-154.6439 500.5974,-159.4449 500.5974,-159.4449"/>
<ellipse fill="none" stroke="#000000" cx="497.4364" cy="-159.9429" rx="3.2" ry="3.2"/>
</g>
<!-- PTOBS_id&#45;&gt;METADATA_datasets -->
<g id="edge5" class="edge">
<title>PTOBS_id:w&#45;&gt;METADATA_datasets:e</title>
<path fill="none" stroke="#000000" d="M242.0588,-416.6818C192.0324,-436.7828 260.114,-572.2 189.5,-572.2"/>
<polygon fill="#000000" stroke="#000000" points="248.6156,-415.555 257.1098,-417.748 252.5578,-414.8775 256.5,-414.2 256.5,-414.2 256.5,-414.2 252.5578,-414.8775 255.8902,-410.652 248.6156,-415.555 248.6156,-415.555"/>
<ellipse fill="none" stroke="#000000" cx="245.4618" cy="-416.097" rx="3.2" ry="3.2"/>
</g>
<!-- PTOBS_id&#45;&gt;METADATA_events -->
<g id="edge6" class="edge">
<title>PTOBS_id:w&#45;&gt;METADATA_events:e</title>
<path fill="none" stroke="#000000" d="M242.5912,-397.2765C228.7553,-410.1764 232.7939,-443.2 207.5,-443.2"/>
<polygon fill="#000000" stroke="#000000" points="248.9849,-394.9429 257.7343,-395.5818 252.7425,-393.5715 256.5,-392.2 256.5,-392.2 256.5,-392.2 252.7425,-393.5715 255.2657,-388.8182 248.9849,-394.9429 248.9849,-394.9429"/>
<ellipse fill="none" stroke="#000000" cx="245.9789" cy="-396.0401" rx="3.2" ry="3.2"/>
</g>
</g>
</svg>
