<?xml version="1.0" encoding="UTF-8" standalone="no"?>
<!DOCTYPE svg PUBLIC "-//W3C//DTD SVG 1.1//EN"
 "http://www.w3.org/Graphics/SVG/1.1/DTD/svg11.dtd">
<!-- Generated by graphviz version 2.40.1 (20161225.0304)
 -->
<!-- Title: oneDegreeRelationshipsDiagram Pages: 1 -->
<svg width="819pt" height="360pt"
 viewBox="0.00 0.00 819.00 360.20" xmlns="http://www.w3.org/2000/svg" xmlns:xlink="http://www.w3.org/1999/xlink">
<g id="graph0" class="graph" transform="scale(1 1) rotate(0) translate(4 356.2)">
<title>oneDegreeRelationshipsDiagram</title>
<polygon fill="#ffffff" stroke="transparent" points="-4,4 -4,-356.2 815,-356.2 815,4 -4,4"/>
<text text-anchor="middle" x="72.4936" y="-7.3" font-family="Helvetica,sans-Serif" font-size="11.00" fill="#000000">Generated by SchemaSpy</text>
<!-- PTOBS_ads -->
<g id="node1" class="node">
<title>PTOBS_ads</title>
<g id="a_node1"><a xlink:href="../../tables/PTOBS_ads.html" xlink:title="PTOBS_ads" target="_top">
<polygon fill="#ffffff" stroke="transparent" points="506,-38.2 506,-348.2 803,-348.2 803,-38.2 506,-38.2"/>
<polygon fill="#f5f5f5" stroke="transparent" points="508.5,-323.2 508.5,-346.2 801.5,-346.2 801.5,-323.2 508.5,-323.2"/>
<polygon fill="none" stroke="#000000" points="508.5,-323.2 508.5,-346.2 801.5,-346.2 801.5,-323.2 508.5,-323.2"/>
<text text-anchor="start" x="513.5" y="-332.3" font-family="Helvetica,sans-Serif" font-weight="bold" font-size="11.00" fill="#000000">PTOBS_ads</text>
<text text-anchor="start" x="766.5437" y="-331.3" font-family="Helvetica,sans-Serif" font-size="11.00" fill="#000000">[table]</text>
<polygon fill="none" stroke="#000000" points="508.5,-301.2 508.5,-323.2 671.5,-323.2 671.5,-301.2 508.5,-301.2"/>
<text text-anchor="start" x="528.5" y="-308.3" font-family="Helvetica,sans-Serif" font-size="11.00" fill="#000000">ads_style</text>
<polygon fill="none" stroke="#000000" points="671.5,-301.2 671.5,-323.2 801.5,-323.2 801.5,-301.2 671.5,-301.2"/>
<text text-anchor="start" x="674.5" y="-308.9" font-family="Helvetica,sans-Serif" font-size="11.00" fill="#000000">text[2000000000,10]</text>
<polygon fill="none" stroke="#000000" points="508.5,-279.2 508.5,-301.2 671.5,-301.2 671.5,-279.2 508.5,-279.2"/>
<text text-anchor="start" x="528.5" y="-286.3" font-family="Helvetica,sans-Serif" font-size="11.00" fill="#000000">ads_low_meters</text>
<polygon fill="none" stroke="#000000" points="671.5,-279.2 671.5,-301.2 801.5,-301.2 801.5,-279.2 671.5,-279.2"/>
<text text-anchor="start" x="674.5" y="-286.9" font-family="Helvetica,sans-Serif" font-size="11.00" fill="#000000">float[2000000000,10]</text>
<polygon fill="none" stroke="#000000" points="508.5,-257.2 508.5,-279.2 671.5,-279.2 671.5,-257.2 508.5,-257.2"/>
<image xlink:href="../../images/primaryKeys.png" width="11px" height="12px" preserveAspectRatio="xMinYMin meet" x="513.5" y="-274.2"/>
<text text-anchor="start" x="528.5" y="-264.3" font-family="Helvetica,sans-Serif" font-size="11.00" fill="#000000">MEAS_ID</text>
<polygon fill="none" stroke="#000000" points="671.5,-257.2 671.5,-279.2 801.5,-279.2 801.5,-257.2 671.5,-257.2"/>
<text text-anchor="start" x="674.5" y="-264.9" font-family="Helvetica,sans-Serif" font-size="11.00" fill="#000000">integer[2000000000,10]</text>
<polygon fill="none" stroke="#000000" points="508.5,-235.2 508.5,-257.2 671.5,-257.2 671.5,-235.2 508.5,-235.2"/>
<text text-anchor="start" x="528.5" y="-242.3" font-family="Helvetica,sans-Serif" font-size="11.00" fill="#000000">ads_meas_type</text>
<polygon fill="none" stroke="#000000" points="671.5,-235.2 671.5,-257.2 801.5,-257.2 801.5,-235.2 671.5,-235.2"/>
<text text-anchor="start" x="674.5" y="-242.9" font-family="Helvetica,sans-Serif" font-size="11.00" fill="#000000">text[2000000000,10]</text>
<polygon fill="none" stroke="#000000" points="508.5,-213.2 508.5,-235.2 671.5,-235.2 671.5,-213.2 508.5,-213.2"/>
<image xlink:href="../../images/primaryKeys.png" width="11px" height="12px" preserveAspectRatio="xMinYMin meet" x="513.5" y="-230.2"/>
<text text-anchor="start" x="528.5" y="-220.3" font-family="Helvetica,sans-Serif" font-size="11.00" fill="#000000">DS_ID</text>
<polygon fill="none" stroke="#000000" points="671.5,-213.2 671.5,-235.2 801.5,-235.2 801.5,-213.2 671.5,-213.2"/>
<text text-anchor="start" x="674.5" y="-220.9" font-family="Helvetica,sans-Serif" font-size="11.00" fill="#000000">integer[2000000000,10]</text>
<polygon fill="none" stroke="#000000" points="508.5,-191.2 508.5,-213.2 671.5,-213.2 671.5,-191.2 508.5,-191.2"/>
<text text-anchor="start" x="528.5" y="-198.3" font-family="Helvetica,sans-Serif" font-size="11.00" fill="#000000">row_entry_source_file</text>
<polygon fill="none" stroke="#000000" points="671.5,-191.2 671.5,-213.2 801.5,-213.2 801.5,-191.2 671.5,-191.2"/>
<text text-anchor="start" x="674.5" y="-198.9" font-family="Helvetica,sans-Serif" font-size="11.00" fill="#000000">text[2000000000,10]</text>
<polygon fill="none" stroke="#000000" points="508.5,-169.2 508.5,-191.2 671.5,-191.2 671.5,-169.2 508.5,-169.2"/>
<text text-anchor="start" x="528.5" y="-176.3" font-family="Helvetica,sans-Serif" font-size="11.00" fill="#000000">ads_central_meters</text>
<polygon fill="none" stroke="#000000" points="671.5,-169.2 671.5,-191.2 801.5,-191.2 801.5,-169.2 671.5,-169.2"/>
<text text-anchor="start" x="674.5" y="-176.9" font-family="Helvetica,sans-Serif" font-size="11.00" fill="#000000">float[2000000000,10]</text>
<polygon fill="none" stroke="#000000" points="508.5,-147.2 508.5,-169.2 671.5,-169.2 671.5,-147.2 508.5,-147.2"/>
<image xlink:href="../../images/primaryKeys.png" width="11px" height="12px" preserveAspectRatio="xMinYMin meet" x="513.5" y="-164.2"/>
<text text-anchor="start" x="528.5" y="-154.3" font-family="Helvetica,sans-Serif" font-size="11.00" fill="#000000">PT_ID</text>
<polygon fill="none" stroke="#000000" points="671.5,-147.2 671.5,-169.2 801.5,-169.2 801.5,-147.2 671.5,-147.2"/>
<text text-anchor="start" x="674.5" y="-154.9" font-family="Helvetica,sans-Serif" font-size="11.00" fill="#000000">integer[2000000000,10]</text>
<polygon fill="none" stroke="#000000" points="508.5,-125.2 508.5,-147.2 671.5,-147.2 671.5,-125.2 508.5,-125.2"/>
<text text-anchor="start" x="528.5" y="-132.3" font-family="Helvetica,sans-Serif" font-size="11.00" fill="#000000">row_entry_date_updated</text>
<polygon fill="none" stroke="#000000" points="671.5,-125.2 671.5,-147.2 801.5,-147.2 801.5,-125.2 671.5,-125.2"/>
<text text-anchor="start" x="674.1372" y="-132.9" font-family="Helvetica,sans-Serif" font-size="11.00" fill="#000000">datetime[2000000000,10]</text>
<polygon fill="none" stroke="#000000" points="508.5,-103.2 508.5,-125.2 671.5,-125.2 671.5,-103.2 508.5,-103.2"/>
<image xlink:href="../../images/primaryKeys.png" width="11px" height="12px" preserveAspectRatio="xMinYMin meet" x="513.5" y="-120.2"/>
<text text-anchor="start" x="528.5" y="-110.3" font-family="Helvetica,sans-Serif" font-size="11.00" fill="#000000">EQ_ID</text>
<polygon fill="none" stroke="#000000" points="671.5,-103.2 671.5,-125.2 801.5,-125.2 801.5,-103.2 671.5,-103.2"/>
<text text-anchor="start" x="674.5" y="-110.9" font-family="Helvetica,sans-Serif" font-size="11.00" fill="#000000">integer[2000000000,10]</text>
<polygon fill="none" stroke="#000000" points="508.5,-81.2 508.5,-103.2 671.5,-103.2 671.5,-81.2 508.5,-81.2"/>
<text text-anchor="start" x="528.5" y="-88.3" font-family="Helvetica,sans-Serif" font-size="11.00" fill="#000000">ads_high_meters</text>
<polygon fill="none" stroke="#000000" points="671.5,-81.2 671.5,-103.2 801.5,-103.2 801.5,-81.2 671.5,-81.2"/>
<text text-anchor="start" x="674.5" y="-88.9" font-family="Helvetica,sans-Serif" font-size="11.00" fill="#000000">float[2000000000,10]</text>
<polygon fill="none" stroke="#000000" points="508.5,-59.2 508.5,-81.2 671.5,-81.2 671.5,-59.2 508.5,-59.2"/>
<text text-anchor="start" x="528.5" y="-66.3" font-family="Helvetica,sans-Serif" font-size="11.00" fill="#000000">ads_downside</text>
<polygon fill="none" stroke="#000000" points="671.5,-59.2 671.5,-81.2 801.5,-81.2 801.5,-59.2 671.5,-59.2"/>
<text text-anchor="start" x="674.5" y="-66.9" font-family="Helvetica,sans-Serif" font-size="11.00" fill="#000000">text[2000000000,10]</text>
<polygon fill="#ffffff" stroke="transparent" points="508.5,-40.2 508.5,-59.2 581.5,-59.2 581.5,-40.2 508.5,-40.2"/>
<polygon fill="none" stroke="#000000" points="508.5,-40.2 508.5,-59.2 581.5,-59.2 581.5,-40.2 508.5,-40.2"/>
<text text-anchor="start" x="511.5" y="-46.3" font-family="Helvetica,sans-Serif" font-size="11.00" fill="#000000">&lt; 4</text>
<polygon fill="#ffffff" stroke="transparent" points="581.5,-40.2 581.5,-59.2 671.5,-59.2 671.5,-40.2 581.5,-40.2"/>
<polygon fill="none" stroke="#000000" points="581.5,-40.2 581.5,-59.2 671.5,-59.2 671.5,-40.2 581.5,-40.2"/>
<text text-anchor="start" x="636.1105" y="-46.3" font-family="Helvetica,sans-Serif" font-size="11.00" fill="#000000">0 rows</text>
<polygon fill="#ffffff" stroke="transparent" points="671.5,-40.2 671.5,-59.2 801.5,-59.2 801.5,-40.2 671.5,-40.2"/>
<polygon fill="none" stroke="#000000" points="671.5,-40.2 671.5,-59.2 801.5,-59.2 801.5,-40.2 671.5,-40.2"/>
<text text-anchor="start" x="782.9053" y="-46.3" font-family="Helvetica,sans-Serif" font-size="11.00" fill="#000000">0 &gt;</text>
<polygon fill="none" stroke="#000000" stroke-width="2" points="507,-39.2 507,-347.2 802,-347.2 802,-39.2 507,-39.2"/>
</a>
</g>
</g>
<!-- METADATA_datasets -->
<g id="node2" class="node">
<title>METADATA_datasets</title>
<g id="a_node2"><a xlink:href="../../tables/METADATA_datasets.html" xlink:title="METADATA_datasets" target="_top">
<polygon fill="#ffffff" stroke="transparent" points="26,-219.7 26,-302.7 189,-302.7 189,-219.7 26,-219.7"/>
<polygon fill="#f5f5f5" stroke="transparent" points="26.5,-279.2 26.5,-302.2 189.5,-302.2 189.5,-279.2 26.5,-279.2"/>
<polygon fill="none" stroke="#000000" points="26.5,-279.2 26.5,-302.2 189.5,-302.2 189.5,-279.2 26.5,-279.2"/>
<text text-anchor="start" x="31.5" y="-288.3" font-family="Helvetica,sans-Serif" font-weight="bold" font-size="11.00" fill="#000000">METADATA_datasets</text>
<text text-anchor="start" x="154.5437" y="-287.3" font-family="Helvetica,sans-Serif" font-size="11.00" fill="#000000">[table]</text>
<polygon fill="none" stroke="#000000" points="26.5,-257.2 26.5,-279.2 189.5,-279.2 189.5,-257.2 26.5,-257.2"/>
<image xlink:href="../../images/primaryKeys.png" width="11px" height="12px" preserveAspectRatio="xMinYMin meet" x="31.5" y="-274.2"/>
<text text-anchor="start" x="46.5" y="-264.3" font-family="Helvetica,sans-Serif" font-size="11.00" fill="#000000">DS_ID</text>
<polygon fill="none" stroke="#000000" points="26.5,-238.2 26.5,-257.2 189.5,-257.2 189.5,-238.2 26.5,-238.2"/>
<text text-anchor="start" x="29.5" y="-244.3" font-family="Helvetica,sans-Serif" font-size="11.00" fill="#000000">...</text>
<polygon fill="#ffffff" stroke="transparent" points="26.5,-219.2 26.5,-238.2 81.5,-238.2 81.5,-219.2 26.5,-219.2"/>
<polygon fill="none" stroke="#000000" points="26.5,-219.2 26.5,-238.2 81.5,-238.2 81.5,-219.2 26.5,-219.2"/>
<text text-anchor="start" x="29.5" y="-225.3" font-family="Helvetica,sans-Serif" font-size="11.00" fill="#000000"> &#160;</text>
<polygon fill="#ffffff" stroke="transparent" points="81.5,-219.2 81.5,-238.2 140.5,-238.2 140.5,-219.2 81.5,-219.2"/>
<polygon fill="none" stroke="#000000" points="81.5,-219.2 81.5,-238.2 140.5,-238.2 140.5,-219.2 81.5,-219.2"/>
<text text-anchor="start" x="105.1105" y="-225.3" font-family="Helvetica,sans-Serif" font-size="11.00" fill="#000000">0 rows</text>
<polygon fill="#ffffff" stroke="transparent" points="140.5,-219.2 140.5,-238.2 189.5,-238.2 189.5,-219.2 140.5,-219.2"/>
<polygon fill="none" stroke="#000000" points="140.5,-219.2 140.5,-238.2 189.5,-238.2 189.5,-219.2 140.5,-219.2"/>
<text text-anchor="start" x="164.7904" y="-225.3" font-family="Helvetica,sans-Serif" font-size="11.00" fill="#000000">35 &gt;</text>
</a>
</g>
</g>
<!-- PTOBS_ads&#45;&gt;METADATA_datasets -->
<g id="edge1" class="edge">
<title>PTOBS_ads:w&#45;&gt;METADATA_datasets:e</title>
<path fill="none" stroke="#000000" d="M494.3751,-228.794C481.0619,-240.6437 488.6096,-272.1553 465,-284.2 379.0895,-328.0283 343.5865,-297.0359 248,-284.2 221.2849,-280.6125 216.4549,-268.2 189.5,-268.2"/>
<polygon fill="#000000" stroke="#000000" points="500.8923,-226.6744 509.6135,-227.6235 504.6961,-225.4372 508.5,-224.2 508.5,-224.2 508.5,-224.2 504.6961,-225.4372 507.3865,-220.7765 500.8923,-226.6744 500.8923,-226.6744"/>
<ellipse fill="none" stroke="#000000" cx="497.8492" cy="-227.6641" rx="3.2" ry="3.2"/>
</g>
<!-- METADATA_events -->
<g id="node3" class="node">
<title>METADATA_events</title>
<g id="a_node3"><a xlink:href="../../tables/METADATA_events.html" xlink:title="METADATA_events" target="_top">
<polygon fill="#ffffff" stroke="transparent" points="8,-83.7 8,-166.7 207,-166.7 207,-83.7 8,-83.7"/>
<polygon fill="#f5f5f5" stroke="transparent" points="8.5,-143.2 8.5,-166.2 207.5,-166.2 207.5,-143.2 8.5,-143.2"/>
<polygon fill="none" stroke="#000000" points="8.5,-143.2 8.5,-166.2 207.5,-166.2 207.5,-143.2 8.5,-143.2"/>
<text text-anchor="start" x="13.5" y="-152.3" font-family="Helvetica,sans-Serif" font-weight="bold" font-size="11.00" fill="#000000">METADATA_events</text>
<text text-anchor="start" x="172.5437" y="-151.3" font-family="Helvetica,sans-Serif" font-size="11.00" fill="#000000">[table]</text>
<polygon fill="none" stroke="#000000" points="8.5,-121.2 8.5,-143.2 207.5,-143.2 207.5,-121.2 8.5,-121.2"/>
<image xlink:href="../../images/primaryKeys.png" width="11px" height="12px" preserveAspectRatio="xMinYMin meet" x="13.5" y="-138.2"/>
<text text-anchor="start" x="28.5" y="-128.3" font-family="Helvetica,sans-Serif" font-size="11.00" fill="#000000">EQ_ID</text>
<polygon fill="none" stroke="#000000" points="8.5,-102.2 8.5,-121.2 207.5,-121.2 207.5,-102.2 8.5,-102.2"/>
<text text-anchor="start" x="11.5" y="-108.3" font-family="Helvetica,sans-Serif" font-size="11.00" fill="#000000">...</text>
<polygon fill="#ffffff" stroke="transparent" points="8.5,-83.2 8.5,-102.2 81.5,-102.2 81.5,-83.2 8.5,-83.2"/>
<polygon fill="none" stroke="#000000" points="8.5,-83.2 8.5,-102.2 81.5,-102.2 81.5,-83.2 8.5,-83.2"/>
<text text-anchor="start" x="11.5" y="-89.3" font-family="Helvetica,sans-Serif" font-size="11.00" fill="#000000"> &#160;</text>
<polygon fill="#ffffff" stroke="transparent" points="81.5,-83.2 81.5,-102.2 149.5,-102.2 149.5,-83.2 81.5,-83.2"/>
<polygon fill="none" stroke="#000000" points="81.5,-83.2 81.5,-102.2 149.5,-102.2 149.5,-83.2 81.5,-83.2"/>
<text text-anchor="start" x="114.1105" y="-89.3" font-family="Helvetica,sans-Serif" font-size="11.00" fill="#000000">0 rows</text>
<polygon fill="#ffffff" stroke="transparent" points="149.5,-83.2 149.5,-102.2 207.5,-102.2 207.5,-83.2 149.5,-83.2"/>
<polygon fill="none" stroke="#000000" points="149.5,-83.2 149.5,-102.2 207.5,-102.2 207.5,-83.2 149.5,-83.2"/>
<text text-anchor="start" x="182.7904" y="-89.3" font-family="Helvetica,sans-Serif" font-size="11.00" fill="#000000">34 &gt;</text>
</a>
</g>
</g>
<!-- PTOBS_ads&#45;&gt;METADATA_events -->
<g id="edge2" class="edge">
<title>PTOBS_ads:w&#45;&gt;METADATA_events:e</title>
<path fill="none" stroke="#000000" d="M494.0293,-114.0726C389.8671,-112.2233 356.3892,-91.1983 248,-114.2 228.7314,-118.2891 227.1977,-132.2 207.5,-132.2"/>
<polygon fill="#000000" stroke="#000000" points="500.5003,-114.1295 508.4683,-117.7999 504.5002,-114.1648 508.5,-114.2 508.5,-114.2 508.5,-114.2 504.5002,-114.1648 508.5317,-110.6001 500.5003,-114.1295 500.5003,-114.1295"/>
<ellipse fill="none" stroke="#000000" cx="497.3004" cy="-114.1013" rx="3.2" ry="3.2"/>
</g>
<!-- PTOBS_id -->
<g id="node4" class="node">
<title>PTOBS_id</title>
<g id="a_node4"><a xlink:href="../../tables/PTOBS_id.html" xlink:title="PTOBS_id" target="_top">
<polygon fill="#ffffff" stroke="transparent" points="256,-124.7 256,-273.7 457,-273.7 457,-124.7 256,-124.7"/>
<polygon fill="#f5f5f5" stroke="transparent" points="256.5,-250.2 256.5,-273.2 457.5,-273.2 457.5,-250.2 256.5,-250.2"/>
<polygon fill="none" stroke="#000000" points="256.5,-250.2 256.5,-273.2 457.5,-273.2 457.5,-250.2 256.5,-250.2"/>
<text text-anchor="start" x="261.5" y="-259.3" font-family="Helvetica,sans-Serif" font-weight="bold" font-size="11.00" fill="#000000">PTOBS_id</text>
<text text-anchor="start" x="422.5437" y="-258.3" font-family="Helvetica,sans-Serif" font-size="11.00" fill="#000000">[table]</text>
<polygon fill="none" stroke="#000000" points="256.5,-228.2 256.5,-250.2 457.5,-250.2 457.5,-228.2 256.5,-228.2"/>
<image xlink:href="../../images/primaryKeys.png" width="11px" height="12px" preserveAspectRatio="xMinYMin meet" x="261.5" y="-245.2"/>
<text text-anchor="start" x="276.5" y="-235.3" font-family="Helvetica,sans-Serif" font-size="11.00" fill="#000000">DS_ID</text>
<polygon fill="none" stroke="#000000" points="256.5,-206.2 256.5,-228.2 457.5,-228.2 457.5,-206.2 256.5,-206.2"/>
<image xlink:href="../../images/primaryKeys.png" width="11px" height="12px" preserveAspectRatio="xMinYMin meet" x="261.5" y="-223.2"/>
<text text-anchor="start" x="276.5" y="-213.3" font-family="Helvetica,sans-Serif" font-size="11.00" fill="#000000">EQ_ID</text>
<polygon fill="none" stroke="#000000" points="256.5,-184.2 256.5,-206.2 457.5,-206.2 457.5,-184.2 256.5,-184.2"/>
<image xlink:href="../../images/primaryKeys.png" width="11px" height="12px" preserveAspectRatio="xMinYMin meet" x="261.5" y="-201.2"/>
<text text-anchor="start" x="276.5" y="-191.3" font-family="Helvetica,sans-Serif" font-size="11.00" fill="#000000">MEAS_ID</text>
<polygon fill="none" stroke="#000000" points="256.5,-162.2 256.5,-184.2 457.5,-184.2 457.5,-162.2 256.5,-162.2"/>
<image xlink:href="../../images/primaryKeys.png" width="11px" height="12px" preserveAspectRatio="xMinYMin meet" x="261.5" y="-179.2"/>
<text text-anchor="start" x="276.5" y="-169.3" font-family="Helvetica,sans-Serif" font-size="11.00" fill="#000000">PT_ID</text>
<polygon fill="none" stroke="#000000" points="256.5,-143.2 256.5,-162.2 457.5,-162.2 457.5,-143.2 256.5,-143.2"/>
<text text-anchor="start" x="259.5" y="-149.3" font-family="Helvetica,sans-Serif" font-size="11.00" fill="#000000">...</text>
<polygon fill="#ffffff" stroke="transparent" points="256.5,-124.2 256.5,-143.2 334.5,-143.2 334.5,-124.2 256.5,-124.2"/>
<polygon fill="none" stroke="#000000" points="256.5,-124.2 256.5,-143.2 334.5,-143.2 334.5,-124.2 256.5,-124.2"/>
<text text-anchor="start" x="259.5" y="-130.3" font-family="Helvetica,sans-Serif" font-size="11.00" fill="#000000">&lt; 2</text>
<polygon fill="#ffffff" stroke="transparent" points="334.5,-124.2 334.5,-143.2 401.5,-143.2 401.5,-124.2 334.5,-124.2"/>
<polygon fill="none" stroke="#000000" points="334.5,-124.2 334.5,-143.2 401.5,-143.2 401.5,-124.2 334.5,-124.2"/>
<text text-anchor="start" x="366.1105" y="-130.3" font-family="Helvetica,sans-Serif" font-size="11.00" fill="#000000">0 rows</text>
<polygon fill="#ffffff" stroke="transparent" points="401.5,-124.2 401.5,-143.2 457.5,-143.2 457.5,-124.2 401.5,-124.2"/>
<polygon fill="none" stroke="#000000" points="401.5,-124.2 401.5,-143.2 457.5,-143.2 457.5,-124.2 401.5,-124.2"/>
<text text-anchor="start" x="432.7904" y="-130.3" font-family="Helvetica,sans-Serif" font-size="11.00" fill="#000000">35 &gt;</text>
</a>
</g>
</g>
<!-- PTOBS_ads&#45;&gt;PTOBS_id -->
<g id="edge3" class="edge">
<title>PTOBS_ads:w&#45;&gt;PTOBS_id:e</title>
<path fill="none" stroke="#000000" d="M494.6487,-263.6335C475.9288,-247.652 491.0486,-195.2 457.5,-195.2"/>
<polygon fill="#000000" stroke="#000000" points="500.9022,-265.6951 507.3728,-271.619 504.7011,-266.9476 508.5,-268.2 508.5,-268.2 508.5,-268.2 504.7011,-266.9476 509.6272,-264.781 500.9022,-265.6951 500.9022,-265.6951"/>
<ellipse fill="none" stroke="#000000" cx="497.8631" cy="-264.6932" rx="3.2" ry="3.2"/>
</g>
<!-- PTOBS_ads&#45;&gt;PTOBS_id -->
<g id="edge4" class="edge">
<title>PTOBS_ads:w&#45;&gt;PTOBS_id:e</title>
<path fill="none" stroke="#000000" d="M494.2671,-160.4133C481.8925,-164.5858 475.4046,-173.2 457.5,-173.2"/>
<polygon fill="#000000" stroke="#000000" points="500.595,-159.4293 509.0532,-161.7572 504.5475,-158.8147 508.5,-158.2 508.5,-158.2 508.5,-158.2 504.5475,-158.8147 507.9468,-154.6428 500.595,-159.4293 500.595,-159.4293"/>
<ellipse fill="none" stroke="#000000" cx="497.433" cy="-159.921" rx="3.2" ry="3.2"/>
</g>
<!-- PTOBS_id&#45;&gt;METADATA_datasets -->
<g id="edge5" class="edge">
<title>PTOBS_id:w&#45;&gt;METADATA_datasets:e</title>
<path fill="none" stroke="#000000" d="M242.1502,-241.4756C222.4326,-248.3121 216.3706,-268.2 189.5,-268.2"/>
<polygon fill="#000000" stroke="#000000" points="248.5987,-240.453 257.0639,-242.7556 252.5494,-239.8265 256.5,-239.2 256.5,-239.2 256.5,-239.2 252.5494,-239.8265 255.9361,-235.6444 248.5987,-240.453 248.5987,-240.453"/>
<ellipse fill="none" stroke="#000000" cx="245.4382" cy="-240.9542" rx="3.2" ry="3.2"/>
</g>
<!-- PTOBS_id&#45;&gt;METADATA_events -->
<g id="edge6" class="edge">
<title>PTOBS_id:w&#45;&gt;METADATA_events:e</title>
<path fill="none" stroke="#000000" d="M242.5028,-212.63C222.0234,-194.9747 244.9734,-132.2 207.5,-132.2"/>
<polygon fill="#000000" stroke="#000000" points="248.8951,-214.717 255.3827,-220.6222 252.6975,-215.9585 256.5,-217.2 256.5,-217.2 256.5,-217.2 252.6975,-215.9585 257.6173,-213.7778 248.8951,-214.717 248.8951,-214.717"/>
<ellipse fill="none" stroke="#000000" cx="245.8531" cy="-213.7238" rx="3.2" ry="3.2"/>
</g>
</g>
</svg>
