<?xml version="1.0" encoding="UTF-8" standalone="no"?>
<!DOCTYPE svg PUBLIC "-//W3C//DTD SVG 1.1//EN"
 "http://www.w3.org/Graphics/SVG/1.1/DTD/svg11.dtd">
<!-- Generated by graphviz version 2.40.1 (20161225.0304)
 -->
<!-- Title: oneDegreeRelationshipsDiagram Pages: 1 -->
<svg width="819pt" height="338pt"
 viewBox="0.00 0.00 819.00 338.20" xmlns="http://www.w3.org/2000/svg" xmlns:xlink="http://www.w3.org/1999/xlink">
<g id="graph0" class="graph" transform="scale(1 1) rotate(0) translate(4 334.2)">
<title>oneDegreeRelationshipsDiagram</title>
<polygon fill="#ffffff" stroke="transparent" points="-4,4 -4,-334.2 815,-334.2 815,4 -4,4"/>
<text text-anchor="middle" x="72.4936" y="-7.3" font-family="Helvetica,sans-Serif" font-size="11.00" fill="#000000">Generated by SchemaSpy</text>
<!-- PTOBS_fps -->
<g id="node1" class="node">
<title>PTOBS_fps</title>
<g id="a_node1"><a xlink:href="../../tables/PTOBS_fps.html" xlink:title="PTOBS_fps" target="_top">
<polygon fill="#ffffff" stroke="transparent" points="506,-38.2 506,-326.2 803,-326.2 803,-38.2 506,-38.2"/>
<polygon fill="#f5f5f5" stroke="transparent" points="508.5,-301.2 508.5,-324.2 801.5,-324.2 801.5,-301.2 508.5,-301.2"/>
<polygon fill="none" stroke="#000000" points="508.5,-301.2 508.5,-324.2 801.5,-324.2 801.5,-301.2 508.5,-301.2"/>
<text text-anchor="start" x="513.5" y="-310.3" font-family="Helvetica,sans-Serif" font-weight="bold" font-size="11.00" fill="#000000">PTOBS_fps</text>
<text text-anchor="start" x="766.5437" y="-309.3" font-family="Helvetica,sans-Serif" font-size="11.00" fill="#000000">[table]</text>
<polygon fill="none" stroke="#000000" points="508.5,-279.2 508.5,-301.2 671.5,-301.2 671.5,-279.2 508.5,-279.2"/>
<text text-anchor="start" x="528.5" y="-286.3" font-family="Helvetica,sans-Serif" font-size="11.00" fill="#000000">fps_high_meters</text>
<polygon fill="none" stroke="#000000" points="671.5,-279.2 671.5,-301.2 801.5,-301.2 801.5,-279.2 671.5,-279.2"/>
<text text-anchor="start" x="674.5" y="-286.9" font-family="Helvetica,sans-Serif" font-size="11.00" fill="#000000">float[2000000000,10]</text>
<polygon fill="none" stroke="#000000" points="508.5,-257.2 508.5,-279.2 671.5,-279.2 671.5,-257.2 508.5,-257.2"/>
<text text-anchor="start" x="528.5" y="-264.3" font-family="Helvetica,sans-Serif" font-size="11.00" fill="#000000">fps_low_meters</text>
<polygon fill="none" stroke="#000000" points="671.5,-257.2 671.5,-279.2 801.5,-279.2 801.5,-257.2 671.5,-257.2"/>
<text text-anchor="start" x="674.5" y="-264.9" font-family="Helvetica,sans-Serif" font-size="11.00" fill="#000000">float[2000000000,10]</text>
<polygon fill="none" stroke="#000000" points="508.5,-235.2 508.5,-257.2 671.5,-257.2 671.5,-235.2 508.5,-235.2"/>
<image xlink:href="../../images/primaryKeys.png" width="11px" height="12px" preserveAspectRatio="xMinYMin meet" x="513.5" y="-252.2"/>
<text text-anchor="start" x="528.5" y="-242.3" font-family="Helvetica,sans-Serif" font-size="11.00" fill="#000000">DS_ID</text>
<polygon fill="none" stroke="#000000" points="671.5,-235.2 671.5,-257.2 801.5,-257.2 801.5,-235.2 671.5,-235.2"/>
<text text-anchor="start" x="674.5" y="-242.9" font-family="Helvetica,sans-Serif" font-size="11.00" fill="#000000">integer[2000000000,10]</text>
<polygon fill="none" stroke="#000000" points="508.5,-213.2 508.5,-235.2 671.5,-235.2 671.5,-213.2 508.5,-213.2"/>
<text text-anchor="start" x="528.5" y="-220.3" font-family="Helvetica,sans-Serif" font-size="11.00" fill="#000000">fps_central_meters</text>
<polygon fill="none" stroke="#000000" points="671.5,-213.2 671.5,-235.2 801.5,-235.2 801.5,-213.2 671.5,-213.2"/>
<text text-anchor="start" x="674.5" y="-220.9" font-family="Helvetica,sans-Serif" font-size="11.00" fill="#000000">float[2000000000,10]</text>
<polygon fill="none" stroke="#000000" points="508.5,-191.2 508.5,-213.2 671.5,-213.2 671.5,-191.2 508.5,-191.2"/>
<text text-anchor="start" x="528.5" y="-198.3" font-family="Helvetica,sans-Serif" font-size="11.00" fill="#000000">fps_style</text>
<polygon fill="none" stroke="#000000" points="671.5,-191.2 671.5,-213.2 801.5,-213.2 801.5,-191.2 671.5,-191.2"/>
<text text-anchor="start" x="674.5" y="-198.9" font-family="Helvetica,sans-Serif" font-size="11.00" fill="#000000">text[2000000000,10]</text>
<polygon fill="none" stroke="#000000" points="508.5,-169.2 508.5,-191.2 671.5,-191.2 671.5,-169.2 508.5,-169.2"/>
<text text-anchor="start" x="528.5" y="-176.3" font-family="Helvetica,sans-Serif" font-size="11.00" fill="#000000">row_entry_source_file</text>
<polygon fill="none" stroke="#000000" points="671.5,-169.2 671.5,-191.2 801.5,-191.2 801.5,-169.2 671.5,-169.2"/>
<text text-anchor="start" x="674.5" y="-176.9" font-family="Helvetica,sans-Serif" font-size="11.00" fill="#000000">text[2000000000,10]</text>
<polygon fill="none" stroke="#000000" points="508.5,-147.2 508.5,-169.2 671.5,-169.2 671.5,-147.2 508.5,-147.2"/>
<image xlink:href="../../images/primaryKeys.png" width="11px" height="12px" preserveAspectRatio="xMinYMin meet" x="513.5" y="-164.2"/>
<text text-anchor="start" x="528.5" y="-154.3" font-family="Helvetica,sans-Serif" font-size="11.00" fill="#000000">PT_ID</text>
<polygon fill="none" stroke="#000000" points="671.5,-147.2 671.5,-169.2 801.5,-169.2 801.5,-147.2 671.5,-147.2"/>
<text text-anchor="start" x="674.5" y="-154.9" font-family="Helvetica,sans-Serif" font-size="11.00" fill="#000000">integer[2000000000,10]</text>
<polygon fill="none" stroke="#000000" points="508.5,-125.2 508.5,-147.2 671.5,-147.2 671.5,-125.2 508.5,-125.2"/>
<text text-anchor="start" x="528.5" y="-132.3" font-family="Helvetica,sans-Serif" font-size="11.00" fill="#000000">row_entry_date_updated</text>
<polygon fill="none" stroke="#000000" points="671.5,-125.2 671.5,-147.2 801.5,-147.2 801.5,-125.2 671.5,-125.2"/>
<text text-anchor="start" x="674.1372" y="-132.9" font-family="Helvetica,sans-Serif" font-size="11.00" fill="#000000">datetime[2000000000,10]</text>
<polygon fill="none" stroke="#000000" points="508.5,-103.2 508.5,-125.2 671.5,-125.2 671.5,-103.2 508.5,-103.2"/>
<image xlink:href="../../images/primaryKeys.png" width="11px" height="12px" preserveAspectRatio="xMinYMin meet" x="513.5" y="-120.2"/>
<text text-anchor="start" x="528.5" y="-110.3" font-family="Helvetica,sans-Serif" font-size="11.00" fill="#000000">EQ_ID</text>
<polygon fill="none" stroke="#000000" points="671.5,-103.2 671.5,-125.2 801.5,-125.2 801.5,-103.2 671.5,-103.2"/>
<text text-anchor="start" x="674.5" y="-110.9" font-family="Helvetica,sans-Serif" font-size="11.00" fill="#000000">integer[2000000000,10]</text>
<polygon fill="none" stroke="#000000" points="508.5,-81.2 508.5,-103.2 671.5,-103.2 671.5,-81.2 508.5,-81.2"/>
<image xlink:href="../../images/primaryKeys.png" width="11px" height="12px" preserveAspectRatio="xMinYMin meet" x="513.5" y="-98.2"/>
<text text-anchor="start" x="528.5" y="-88.3" font-family="Helvetica,sans-Serif" font-size="11.00" fill="#000000">MEAS_ID</text>
<polygon fill="none" stroke="#000000" points="671.5,-81.2 671.5,-103.2 801.5,-103.2 801.5,-81.2 671.5,-81.2"/>
<text text-anchor="start" x="674.5" y="-88.9" font-family="Helvetica,sans-Serif" font-size="11.00" fill="#000000">integer[2000000000,10]</text>
<polygon fill="none" stroke="#000000" points="508.5,-59.2 508.5,-81.2 671.5,-81.2 671.5,-59.2 508.5,-59.2"/>
<text text-anchor="start" x="528.5" y="-66.3" font-family="Helvetica,sans-Serif" font-size="11.00" fill="#000000">fps_meas_type</text>
<polygon fill="none" stroke="#000000" points="671.5,-59.2 671.5,-81.2 801.5,-81.2 801.5,-59.2 671.5,-59.2"/>
<text text-anchor="start" x="674.5" y="-66.9" font-family="Helvetica,sans-Serif" font-size="11.00" fill="#000000">text[2000000000,10]</text>
<polygon fill="#ffffff" stroke="transparent" points="508.5,-40.2 508.5,-59.2 581.5,-59.2 581.5,-40.2 508.5,-40.2"/>
<polygon fill="none" stroke="#000000" points="508.5,-40.2 508.5,-59.2 581.5,-59.2 581.5,-40.2 508.5,-40.2"/>
<text text-anchor="start" x="511.5" y="-46.3" font-family="Helvetica,sans-Serif" font-size="11.00" fill="#000000">&lt; 4</text>
<polygon fill="#ffffff" stroke="transparent" points="581.5,-40.2 581.5,-59.2 671.5,-59.2 671.5,-40.2 581.5,-40.2"/>
<polygon fill="none" stroke="#000000" points="581.5,-40.2 581.5,-59.2 671.5,-59.2 671.5,-40.2 581.5,-40.2"/>
<text text-anchor="start" x="636.1105" y="-46.3" font-family="Helvetica,sans-Serif" font-size="11.00" fill="#000000">0 rows</text>
<polygon fill="#ffffff" stroke="transparent" points="671.5,-40.2 671.5,-59.2 801.5,-59.2 801.5,-40.2 671.5,-40.2"/>
<polygon fill="none" stroke="#000000" points="671.5,-40.2 671.5,-59.2 801.5,-59.2 801.5,-40.2 671.5,-40.2"/>
<text text-anchor="start" x="782.9053" y="-46.3" font-family="Helvetica,sans-Serif" font-size="11.00" fill="#000000">0 &gt;</text>
<polygon fill="none" stroke="#000000" stroke-width="2" points="507,-39.2 507,-325.2 802,-325.2 802,-39.2 507,-39.2"/>
</a>
</g>
</g>
<!-- METADATA_datasets -->
<g id="node2" class="node">
<title>METADATA_datasets</title>
<g id="a_node2"><a xlink:href="../../tables/METADATA_datasets.html" xlink:title="METADATA_datasets" target="_top">
<polygon fill="#ffffff" stroke="transparent" points="26,-186.7 26,-269.7 189,-269.7 189,-186.7 26,-186.7"/>
<polygon fill="#f5f5f5" stroke="transparent" points="26.5,-246.2 26.5,-269.2 189.5,-269.2 189.5,-246.2 26.5,-246.2"/>
<polygon fill="none" stroke="#000000" points="26.5,-246.2 26.5,-269.2 189.5,-269.2 189.5,-246.2 26.5,-246.2"/>
<text text-anchor="start" x="31.5" y="-255.3" font-family="Helvetica,sans-Serif" font-weight="bold" font-size="11.00" fill="#000000">METADATA_datasets</text>
<text text-anchor="start" x="154.5437" y="-254.3" font-family="Helvetica,sans-Serif" font-size="11.00" fill="#000000">[table]</text>
<polygon fill="none" stroke="#000000" points="26.5,-224.2 26.5,-246.2 189.5,-246.2 189.5,-224.2 26.5,-224.2"/>
<image xlink:href="../../images/primaryKeys.png" width="11px" height="12px" preserveAspectRatio="xMinYMin meet" x="31.5" y="-241.2"/>
<text text-anchor="start" x="46.5" y="-231.3" font-family="Helvetica,sans-Serif" font-size="11.00" fill="#000000">DS_ID</text>
<polygon fill="none" stroke="#000000" points="26.5,-205.2 26.5,-224.2 189.5,-224.2 189.5,-205.2 26.5,-205.2"/>
<text text-anchor="start" x="29.5" y="-211.3" font-family="Helvetica,sans-Serif" font-size="11.00" fill="#000000">...</text>
<polygon fill="#ffffff" stroke="transparent" points="26.5,-186.2 26.5,-205.2 81.5,-205.2 81.5,-186.2 26.5,-186.2"/>
<polygon fill="none" stroke="#000000" points="26.5,-186.2 26.5,-205.2 81.5,-205.2 81.5,-186.2 26.5,-186.2"/>
<text text-anchor="start" x="29.5" y="-192.3" font-family="Helvetica,sans-Serif" font-size="11.00" fill="#000000"> &#160;</text>
<polygon fill="#ffffff" stroke="transparent" points="81.5,-186.2 81.5,-205.2 140.5,-205.2 140.5,-186.2 81.5,-186.2"/>
<polygon fill="none" stroke="#000000" points="81.5,-186.2 81.5,-205.2 140.5,-205.2 140.5,-186.2 81.5,-186.2"/>
<text text-anchor="start" x="105.1105" y="-192.3" font-family="Helvetica,sans-Serif" font-size="11.00" fill="#000000">0 rows</text>
<polygon fill="#ffffff" stroke="transparent" points="140.5,-186.2 140.5,-205.2 189.5,-205.2 189.5,-186.2 140.5,-186.2"/>
<polygon fill="none" stroke="#000000" points="140.5,-186.2 140.5,-205.2 189.5,-205.2 189.5,-186.2 140.5,-186.2"/>
<text text-anchor="start" x="164.7904" y="-192.3" font-family="Helvetica,sans-Serif" font-size="11.00" fill="#000000">35 &gt;</text>
</a>
</g>
</g>
<!-- PTOBS_fps&#45;&gt;METADATA_datasets -->
<g id="edge1" class="edge">
<title>PTOBS_fps:w&#45;&gt;METADATA_datasets:e</title>
<path fill="none" stroke="#000000" d="M494.0084,-247.0941C484.8542,-248.3111 478.5091,-250.4262 465,-251.2 368.7134,-256.7156 343.5865,-264.0359 248,-251.2 221.2849,-247.6125 216.4549,-235.2 189.5,-235.2"/>
<polygon fill="#000000" stroke="#000000" points="500.5152,-246.6927 508.7217,-249.7932 504.5076,-246.4464 508.5,-246.2 508.5,-246.2 508.5,-246.2 504.5076,-246.4464 508.2783,-242.6068 500.5152,-246.6927 500.5152,-246.6927"/>
<ellipse fill="none" stroke="#000000" cx="497.3213" cy="-246.8898" rx="3.2" ry="3.2"/>
</g>
<!-- METADATA_events -->
<g id="node3" class="node">
<title>METADATA_events</title>
<g id="a_node3"><a xlink:href="../../tables/METADATA_events.html" xlink:title="METADATA_events" target="_top">
<polygon fill="#ffffff" stroke="transparent" points="8,-50.7 8,-133.7 207,-133.7 207,-50.7 8,-50.7"/>
<polygon fill="#f5f5f5" stroke="transparent" points="8.5,-110.2 8.5,-133.2 207.5,-133.2 207.5,-110.2 8.5,-110.2"/>
<polygon fill="none" stroke="#000000" points="8.5,-110.2 8.5,-133.2 207.5,-133.2 207.5,-110.2 8.5,-110.2"/>
<text text-anchor="start" x="13.5" y="-119.3" font-family="Helvetica,sans-Serif" font-weight="bold" font-size="11.00" fill="#000000">METADATA_events</text>
<text text-anchor="start" x="172.5437" y="-118.3" font-family="Helvetica,sans-Serif" font-size="11.00" fill="#000000">[table]</text>
<polygon fill="none" stroke="#000000" points="8.5,-88.2 8.5,-110.2 207.5,-110.2 207.5,-88.2 8.5,-88.2"/>
<image xlink:href="../../images/primaryKeys.png" width="11px" height="12px" preserveAspectRatio="xMinYMin meet" x="13.5" y="-105.2"/>
<text text-anchor="start" x="28.5" y="-95.3" font-family="Helvetica,sans-Serif" font-size="11.00" fill="#000000">EQ_ID</text>
<polygon fill="none" stroke="#000000" points="8.5,-69.2 8.5,-88.2 207.5,-88.2 207.5,-69.2 8.5,-69.2"/>
<text text-anchor="start" x="11.5" y="-75.3" font-family="Helvetica,sans-Serif" font-size="11.00" fill="#000000">...</text>
<polygon fill="#ffffff" stroke="transparent" points="8.5,-50.2 8.5,-69.2 81.5,-69.2 81.5,-50.2 8.5,-50.2"/>
<polygon fill="none" stroke="#000000" points="8.5,-50.2 8.5,-69.2 81.5,-69.2 81.5,-50.2 8.5,-50.2"/>
<text text-anchor="start" x="11.5" y="-56.3" font-family="Helvetica,sans-Serif" font-size="11.00" fill="#000000"> &#160;</text>
<polygon fill="#ffffff" stroke="transparent" points="81.5,-50.2 81.5,-69.2 149.5,-69.2 149.5,-50.2 81.5,-50.2"/>
<polygon fill="none" stroke="#000000" points="81.5,-50.2 81.5,-69.2 149.5,-69.2 149.5,-50.2 81.5,-50.2"/>
<text text-anchor="start" x="114.1105" y="-56.3" font-family="Helvetica,sans-Serif" font-size="11.00" fill="#000000">0 rows</text>
<polygon fill="#ffffff" stroke="transparent" points="149.5,-50.2 149.5,-69.2 207.5,-69.2 207.5,-50.2 149.5,-50.2"/>
<polygon fill="none" stroke="#000000" points="149.5,-50.2 149.5,-69.2 207.5,-69.2 207.5,-50.2 149.5,-50.2"/>
<text text-anchor="start" x="182.7904" y="-56.3" font-family="Helvetica,sans-Serif" font-size="11.00" fill="#000000">34 &gt;</text>
</a>
</g>
</g>
<!-- PTOBS_fps&#45;&gt;METADATA_events -->
<g id="edge2" class="edge">
<title>PTOBS_fps:w&#45;&gt;METADATA_events:e</title>
<path fill="none" stroke="#000000" d="M494.382,-109.8958C484.3964,-102.3387 482.0707,-86.9424 465,-81.2 373.5889,-50.4503 342.3435,-61.179 248,-81.2 228.7314,-85.2891 227.1977,-99.2 207.5,-99.2"/>
<polygon fill="#000000" stroke="#000000" points="500.8477,-111.867 507.4501,-117.6435 504.6739,-113.0335 508.5,-114.2 508.5,-114.2 508.5,-114.2 504.6739,-113.0335 509.5499,-110.7565 500.8477,-111.867 500.8477,-111.867"/>
<ellipse fill="none" stroke="#000000" cx="497.7868" cy="-110.9338" rx="3.2" ry="3.2"/>
</g>
<!-- PTOBS_id -->
<g id="node4" class="node">
<title>PTOBS_id</title>
<g id="a_node4"><a xlink:href="../../tables/PTOBS_id.html" xlink:title="PTOBS_id" target="_top">
<polygon fill="#ffffff" stroke="transparent" points="256,-91.7 256,-240.7 457,-240.7 457,-91.7 256,-91.7"/>
<polygon fill="#f5f5f5" stroke="transparent" points="256.5,-217.2 256.5,-240.2 457.5,-240.2 457.5,-217.2 256.5,-217.2"/>
<polygon fill="none" stroke="#000000" points="256.5,-217.2 256.5,-240.2 457.5,-240.2 457.5,-217.2 256.5,-217.2"/>
<text text-anchor="start" x="261.5" y="-226.3" font-family="Helvetica,sans-Serif" font-weight="bold" font-size="11.00" fill="#000000">PTOBS_id</text>
<text text-anchor="start" x="422.5437" y="-225.3" font-family="Helvetica,sans-Serif" font-size="11.00" fill="#000000">[table]</text>
<polygon fill="none" stroke="#000000" points="256.5,-195.2 256.5,-217.2 457.5,-217.2 457.5,-195.2 256.5,-195.2"/>
<image xlink:href="../../images/primaryKeys.png" width="11px" height="12px" preserveAspectRatio="xMinYMin meet" x="261.5" y="-212.2"/>
<text text-anchor="start" x="276.5" y="-202.3" font-family="Helvetica,sans-Serif" font-size="11.00" fill="#000000">DS_ID</text>
<polygon fill="none" stroke="#000000" points="256.5,-173.2 256.5,-195.2 457.5,-195.2 457.5,-173.2 256.5,-173.2"/>
<image xlink:href="../../images/primaryKeys.png" width="11px" height="12px" preserveAspectRatio="xMinYMin meet" x="261.5" y="-190.2"/>
<text text-anchor="start" x="276.5" y="-180.3" font-family="Helvetica,sans-Serif" font-size="11.00" fill="#000000">EQ_ID</text>
<polygon fill="none" stroke="#000000" points="256.5,-151.2 256.5,-173.2 457.5,-173.2 457.5,-151.2 256.5,-151.2"/>
<image xlink:href="../../images/primaryKeys.png" width="11px" height="12px" preserveAspectRatio="xMinYMin meet" x="261.5" y="-168.2"/>
<text text-anchor="start" x="276.5" y="-158.3" font-family="Helvetica,sans-Serif" font-size="11.00" fill="#000000">MEAS_ID</text>
<polygon fill="none" stroke="#000000" points="256.5,-129.2 256.5,-151.2 457.5,-151.2 457.5,-129.2 256.5,-129.2"/>
<image xlink:href="../../images/primaryKeys.png" width="11px" height="12px" preserveAspectRatio="xMinYMin meet" x="261.5" y="-146.2"/>
<text text-anchor="start" x="276.5" y="-136.3" font-family="Helvetica,sans-Serif" font-size="11.00" fill="#000000">PT_ID</text>
<polygon fill="none" stroke="#000000" points="256.5,-110.2 256.5,-129.2 457.5,-129.2 457.5,-110.2 256.5,-110.2"/>
<text text-anchor="start" x="259.5" y="-116.3" font-family="Helvetica,sans-Serif" font-size="11.00" fill="#000000">...</text>
<polygon fill="#ffffff" stroke="transparent" points="256.5,-91.2 256.5,-110.2 334.5,-110.2 334.5,-91.2 256.5,-91.2"/>
<polygon fill="none" stroke="#000000" points="256.5,-91.2 256.5,-110.2 334.5,-110.2 334.5,-91.2 256.5,-91.2"/>
<text text-anchor="start" x="259.5" y="-97.3" font-family="Helvetica,sans-Serif" font-size="11.00" fill="#000000">&lt; 2</text>
<polygon fill="#ffffff" stroke="transparent" points="334.5,-91.2 334.5,-110.2 401.5,-110.2 401.5,-91.2 334.5,-91.2"/>
<polygon fill="none" stroke="#000000" points="334.5,-91.2 334.5,-110.2 401.5,-110.2 401.5,-91.2 334.5,-91.2"/>
<text text-anchor="start" x="366.1105" y="-97.3" font-family="Helvetica,sans-Serif" font-size="11.00" fill="#000000">0 rows</text>
<polygon fill="#ffffff" stroke="transparent" points="401.5,-91.2 401.5,-110.2 457.5,-110.2 457.5,-91.2 401.5,-91.2"/>
<polygon fill="none" stroke="#000000" points="401.5,-91.2 401.5,-110.2 457.5,-110.2 457.5,-91.2 401.5,-91.2"/>
<text text-anchor="start" x="432.7904" y="-97.3" font-family="Helvetica,sans-Serif" font-size="11.00" fill="#000000">35 &gt;</text>
</a>
</g>
</g>
<!-- PTOBS_fps&#45;&gt;PTOBS_id -->
<g id="edge3" class="edge">
<title>PTOBS_fps:w&#45;&gt;PTOBS_id:e</title>
<path fill="none" stroke="#000000" d="M494.6872,-96.7929C476.5536,-112.366 489.9781,-162.2 457.5,-162.2"/>
<polygon fill="#000000" stroke="#000000" points="500.9087,-94.7242 509.6359,-95.6161 504.7043,-93.4621 508.5,-92.2 508.5,-92.2 508.5,-92.2 504.7043,-93.4621 507.3641,-88.7839 500.9087,-94.7242 500.9087,-94.7242"/>
<ellipse fill="none" stroke="#000000" cx="497.8721" cy="-95.7339" rx="3.2" ry="3.2"/>
</g>
<!-- PTOBS_fps&#45;&gt;PTOBS_id -->
<g id="edge4" class="edge">
<title>PTOBS_fps:w&#45;&gt;PTOBS_id:e</title>
<path fill="none" stroke="#000000" d="M494.1506,-155.544C481.8075,-150.537 475.7155,-140.2 457.5,-140.2"/>
<polygon fill="#000000" stroke="#000000" points="500.6336,-156.7439 507.8448,-161.7399 504.5668,-157.472 508.5,-158.2 508.5,-158.2 508.5,-158.2 504.5668,-157.472 509.1552,-154.6601 500.6336,-156.7439 500.6336,-156.7439"/>
<ellipse fill="none" stroke="#000000" cx="497.4871" cy="-156.1615" rx="3.2" ry="3.2"/>
</g>
<!-- PTOBS_id&#45;&gt;METADATA_datasets -->
<g id="edge5" class="edge">
<title>PTOBS_id:w&#45;&gt;METADATA_datasets:e</title>
<path fill="none" stroke="#000000" d="M242.1502,-208.4756C222.4326,-215.3121 216.3706,-235.2 189.5,-235.2"/>
<polygon fill="#000000" stroke="#000000" points="248.5987,-207.453 257.0639,-209.7556 252.5494,-206.8265 256.5,-206.2 256.5,-206.2 256.5,-206.2 252.5494,-206.8265 255.9361,-202.6444 248.5987,-207.453 248.5987,-207.453"/>
<ellipse fill="none" stroke="#000000" cx="245.4382" cy="-207.9542" rx="3.2" ry="3.2"/>
</g>
<!-- PTOBS_id&#45;&gt;METADATA_events -->
<g id="edge6" class="edge">
<title>PTOBS_id:w&#45;&gt;METADATA_events:e</title>
<path fill="none" stroke="#000000" d="M242.5028,-179.63C222.0234,-161.9747 244.9734,-99.2 207.5,-99.2"/>
<polygon fill="#000000" stroke="#000000" points="248.8951,-181.717 255.3827,-187.6222 252.6975,-182.9585 256.5,-184.2 256.5,-184.2 256.5,-184.2 252.6975,-182.9585 257.6173,-180.7778 248.8951,-181.717 248.8951,-181.717"/>
<ellipse fill="none" stroke="#000000" cx="245.8531" cy="-180.7238" rx="3.2" ry="3.2"/>
</g>
</g>
</svg>
