<?xml version="1.0" encoding="UTF-8" standalone="no"?>
<!DOCTYPE svg PUBLIC "-//W3C//DTD SVG 1.1//EN"
 "http://www.w3.org/Graphics/SVG/1.1/DTD/svg11.dtd">
<!-- Generated by graphviz version 2.40.1 (20161225.0304)
 -->
<!-- Title: oneDegreeRelationshipsDiagram Pages: 1 -->
<svg width="880pt" height="448pt"
 viewBox="0.00 0.00 880.00 448.20" xmlns="http://www.w3.org/2000/svg" xmlns:xlink="http://www.w3.org/1999/xlink">
<g id="graph0" class="graph" transform="scale(1 1) rotate(0) translate(4 444.2)">
<title>oneDegreeRelationshipsDiagram</title>
<polygon fill="#ffffff" stroke="transparent" points="-4,4 -4,-444.2 876,-444.2 876,4 -4,4"/>
<text text-anchor="middle" x="72.4936" y="-7.3" font-family="Helvetica,sans-Serif" font-size="11.00" fill="#000000">Generated by SchemaSpy</text>
<!-- PTOBS_elevation -->
<g id="node1" class="node">
<title>PTOBS_elevation</title>
<g id="a_node1"><a xlink:href="../../tables/PTOBS_elevation.html" xlink:title="PTOBS_elevation" target="_top">
<polygon fill="#ffffff" stroke="transparent" points="506,-38.2 506,-436.2 864,-436.2 864,-38.2 506,-38.2"/>
<polygon fill="#f5f5f5" stroke="transparent" points="508,-411.2 508,-434.2 862,-434.2 862,-411.2 508,-411.2"/>
<polygon fill="none" stroke="#000000" points="508,-411.2 508,-434.2 862,-434.2 862,-411.2 508,-411.2"/>
<text text-anchor="start" x="513" y="-420.3" font-family="Helvetica,sans-Serif" font-weight="bold" font-size="11.00" fill="#000000">PTOBS_elevation</text>
<text text-anchor="start" x="827.0437" y="-419.3" font-family="Helvetica,sans-Serif" font-size="11.00" fill="#000000">[table]</text>
<polygon fill="none" stroke="#000000" points="508,-389.2 508,-411.2 732,-411.2 732,-389.2 508,-389.2"/>
<text text-anchor="start" x="528" y="-396.3" font-family="Helvetica,sans-Serif" font-size="11.00" fill="#000000">slope_percent_gdal_horns_formula</text>
<polygon fill="none" stroke="#000000" points="732,-389.2 732,-411.2 862,-411.2 862,-389.2 732,-389.2"/>
<text text-anchor="start" x="735" y="-396.9" font-family="Helvetica,sans-Serif" font-size="11.00" fill="#000000">float[2000000000,10]</text>
<polygon fill="none" stroke="#000000" points="508,-367.2 508,-389.2 732,-389.2 732,-367.2 508,-367.2"/>
<text text-anchor="start" x="528" y="-374.3" font-family="Helvetica,sans-Serif" font-size="11.00" fill="#000000">row_entry_date_updated</text>
<polygon fill="none" stroke="#000000" points="732,-367.2 732,-389.2 862,-389.2 862,-367.2 732,-367.2"/>
<text text-anchor="start" x="734.6372" y="-374.9" font-family="Helvetica,sans-Serif" font-size="11.00" fill="#000000">datetime[2000000000,10]</text>
<polygon fill="none" stroke="#000000" points="508,-345.2 508,-367.2 732,-367.2 732,-345.2 508,-345.2"/>
<text text-anchor="start" x="528" y="-352.3" font-family="Helvetica,sans-Serif" font-size="11.00" fill="#000000">terrain_ruggedness_index</text>
<polygon fill="none" stroke="#000000" points="732,-345.2 732,-367.2 862,-367.2 862,-345.2 732,-345.2"/>
<text text-anchor="start" x="735" y="-352.9" font-family="Helvetica,sans-Serif" font-size="11.00" fill="#000000">float[2000000000,10]</text>
<polygon fill="none" stroke="#000000" points="508,-323.2 508,-345.2 732,-345.2 732,-323.2 508,-323.2"/>
<text text-anchor="start" x="528" y="-330.3" font-family="Helvetica,sans-Serif" font-size="11.00" fill="#000000">elevation_meters</text>
<polygon fill="none" stroke="#000000" points="732,-323.2 732,-345.2 862,-345.2 862,-323.2 732,-323.2"/>
<text text-anchor="start" x="735" y="-330.9" font-family="Helvetica,sans-Serif" font-size="11.00" fill="#000000">float[2000000000,10]</text>
<polygon fill="none" stroke="#000000" points="508,-301.2 508,-323.2 732,-323.2 732,-301.2 508,-301.2"/>
<image xlink:href="../../images/primaryKeys.png" width="11px" height="12px" preserveAspectRatio="xMinYMin meet" x="513" y="-318.2"/>
<text text-anchor="start" x="528" y="-308.3" font-family="Helvetica,sans-Serif" font-size="11.00" fill="#000000">DS_ID</text>
<polygon fill="none" stroke="#000000" points="732,-301.2 732,-323.2 862,-323.2 862,-301.2 732,-301.2"/>
<text text-anchor="start" x="735" y="-308.9" font-family="Helvetica,sans-Serif" font-size="11.00" fill="#000000">integer[2000000000,10]</text>
<polygon fill="none" stroke="#000000" points="508,-279.2 508,-301.2 732,-301.2 732,-279.2 508,-279.2"/>
<text text-anchor="start" x="528" y="-286.3" font-family="Helvetica,sans-Serif" font-size="11.00" fill="#000000">slope_percent_gaussian_gradient</text>
<polygon fill="none" stroke="#000000" points="732,-279.2 732,-301.2 862,-301.2 862,-279.2 732,-279.2"/>
<text text-anchor="start" x="735" y="-286.9" font-family="Helvetica,sans-Serif" font-size="11.00" fill="#000000">float[2000000000,10]</text>
<polygon fill="none" stroke="#000000" points="508,-257.2 508,-279.2 732,-279.2 732,-257.2 508,-257.2"/>
<text text-anchor="start" x="528" y="-264.3" font-family="Helvetica,sans-Serif" font-size="11.00" fill="#000000">row_entry_source_file</text>
<polygon fill="none" stroke="#000000" points="732,-257.2 732,-279.2 862,-279.2 862,-257.2 732,-257.2"/>
<text text-anchor="start" x="735" y="-264.9" font-family="Helvetica,sans-Serif" font-size="11.00" fill="#000000">text[2000000000,10]</text>
<polygon fill="none" stroke="#000000" points="508,-235.2 508,-257.2 732,-257.2 732,-235.2 508,-235.2"/>
<text text-anchor="start" x="528" y="-242.3" font-family="Helvetica,sans-Serif" font-size="11.00" fill="#000000">topo_position_index</text>
<polygon fill="none" stroke="#000000" points="732,-235.2 732,-257.2 862,-257.2 862,-235.2 732,-235.2"/>
<text text-anchor="start" x="735" y="-242.9" font-family="Helvetica,sans-Serif" font-size="11.00" fill="#000000">float[2000000000,10]</text>
<polygon fill="none" stroke="#000000" points="508,-213.2 508,-235.2 732,-235.2 732,-213.2 508,-213.2"/>
<image xlink:href="../../images/primaryKeys.png" width="11px" height="12px" preserveAspectRatio="xMinYMin meet" x="513" y="-230.2"/>
<text text-anchor="start" x="528" y="-220.3" font-family="Helvetica,sans-Serif" font-size="11.00" fill="#000000">PT_ID</text>
<polygon fill="none" stroke="#000000" points="732,-213.2 732,-235.2 862,-235.2 862,-213.2 732,-213.2"/>
<text text-anchor="start" x="735" y="-220.9" font-family="Helvetica,sans-Serif" font-size="11.00" fill="#000000">integer[2000000000,10]</text>
<polygon fill="none" stroke="#000000" points="508,-191.2 508,-213.2 732,-213.2 732,-191.2 508,-191.2"/>
<text text-anchor="start" x="528" y="-198.3" font-family="Helvetica,sans-Serif" font-size="11.00" fill="#000000">prominence_500_meter_radius</text>
<polygon fill="none" stroke="#000000" points="732,-191.2 732,-213.2 862,-213.2 862,-191.2 732,-191.2"/>
<text text-anchor="start" x="735" y="-198.9" font-family="Helvetica,sans-Serif" font-size="11.00" fill="#000000">float[2000000000,10]</text>
<polygon fill="none" stroke="#000000" points="508,-169.2 508,-191.2 732,-191.2 732,-169.2 508,-169.2"/>
<image xlink:href="../../images/primaryKeys.png" width="11px" height="12px" preserveAspectRatio="xMinYMin meet" x="513" y="-186.2"/>
<text text-anchor="start" x="528" y="-176.3" font-family="Helvetica,sans-Serif" font-size="11.00" fill="#000000">EQ_ID</text>
<polygon fill="none" stroke="#000000" points="732,-169.2 732,-191.2 862,-191.2 862,-169.2 732,-169.2"/>
<text text-anchor="start" x="735" y="-176.9" font-family="Helvetica,sans-Serif" font-size="11.00" fill="#000000">integer[2000000000,10]</text>
<polygon fill="none" stroke="#000000" points="508,-147.2 508,-169.2 732,-169.2 732,-147.2 508,-147.2"/>
<text text-anchor="start" x="528" y="-154.3" font-family="Helvetica,sans-Serif" font-size="11.00" fill="#000000">prominence_1000_meter_radius</text>
<polygon fill="none" stroke="#000000" points="732,-147.2 732,-169.2 862,-169.2 862,-147.2 732,-147.2"/>
<text text-anchor="start" x="735" y="-154.9" font-family="Helvetica,sans-Serif" font-size="11.00" fill="#000000">float[2000000000,10]</text>
<polygon fill="none" stroke="#000000" points="508,-125.2 508,-147.2 732,-147.2 732,-125.2 508,-125.2"/>
<text text-anchor="start" x="528" y="-132.3" font-family="Helvetica,sans-Serif" font-size="11.00" fill="#000000">prominence_250_meter_radius</text>
<polygon fill="none" stroke="#000000" points="732,-125.2 732,-147.2 862,-147.2 862,-125.2 732,-125.2"/>
<text text-anchor="start" x="735" y="-132.9" font-family="Helvetica,sans-Serif" font-size="11.00" fill="#000000">float[2000000000,10]</text>
<polygon fill="none" stroke="#000000" points="508,-103.2 508,-125.2 732,-125.2 732,-103.2 508,-103.2"/>
<text text-anchor="start" x="528" y="-110.3" font-family="Helvetica,sans-Serif" font-size="11.00" fill="#000000">terrain_class</text>
<polygon fill="none" stroke="#000000" points="732,-103.2 732,-125.2 862,-125.2 862,-103.2 732,-103.2"/>
<text text-anchor="start" x="735" y="-110.9" font-family="Helvetica,sans-Serif" font-size="11.00" fill="#000000">integer[2000000000,10]</text>
<polygon fill="none" stroke="#000000" points="508,-81.2 508,-103.2 732,-103.2 732,-81.2 508,-81.2"/>
<text text-anchor="start" x="528" y="-88.3" font-family="Helvetica,sans-Serif" font-size="11.00" fill="#000000">terrain_roughness</text>
<polygon fill="none" stroke="#000000" points="732,-81.2 732,-103.2 862,-103.2 862,-81.2 732,-81.2"/>
<text text-anchor="start" x="735" y="-88.9" font-family="Helvetica,sans-Serif" font-size="11.00" fill="#000000">integer[2000000000,10]</text>
<polygon fill="none" stroke="#000000" points="508,-59.2 508,-81.2 732,-81.2 732,-59.2 508,-59.2"/>
<text text-anchor="start" x="528" y="-66.3" font-family="Helvetica,sans-Serif" font-size="11.00" fill="#000000">prominence_125_meter_radius</text>
<polygon fill="none" stroke="#000000" points="732,-59.2 732,-81.2 862,-81.2 862,-59.2 732,-59.2"/>
<text text-anchor="start" x="735" y="-66.9" font-family="Helvetica,sans-Serif" font-size="11.00" fill="#000000">float[2000000000,10]</text>
<polygon fill="#ffffff" stroke="transparent" points="508,-40.2 508,-59.2 611,-59.2 611,-40.2 508,-40.2"/>
<polygon fill="none" stroke="#000000" points="508,-40.2 508,-59.2 611,-59.2 611,-40.2 508,-40.2"/>
<text text-anchor="start" x="511" y="-46.3" font-family="Helvetica,sans-Serif" font-size="11.00" fill="#000000">&lt; 3</text>
<polygon fill="#ffffff" stroke="transparent" points="611,-40.2 611,-59.2 732,-59.2 732,-40.2 611,-40.2"/>
<polygon fill="none" stroke="#000000" points="611,-40.2 611,-59.2 732,-59.2 732,-40.2 611,-40.2"/>
<text text-anchor="start" x="696.6105" y="-46.3" font-family="Helvetica,sans-Serif" font-size="11.00" fill="#000000">0 rows</text>
<polygon fill="#ffffff" stroke="transparent" points="732,-40.2 732,-59.2 862,-59.2 862,-40.2 732,-40.2"/>
<polygon fill="none" stroke="#000000" points="732,-40.2 732,-59.2 862,-59.2 862,-40.2 732,-40.2"/>
<text text-anchor="start" x="843.4053" y="-46.3" font-family="Helvetica,sans-Serif" font-size="11.00" fill="#000000">0 &gt;</text>
<polygon fill="none" stroke="#000000" stroke-width="2" points="507,-39.2 507,-435.2 863,-435.2 863,-39.2 507,-39.2"/>
</a>
</g>
</g>
<!-- METADATA_datasets -->
<g id="node2" class="node">
<title>METADATA_datasets</title>
<g id="a_node2"><a xlink:href="../../tables/METADATA_datasets.html" xlink:title="METADATA_datasets" target="_top">
<polygon fill="#ffffff" stroke="transparent" points="26,-270.7 26,-353.7 189,-353.7 189,-270.7 26,-270.7"/>
<polygon fill="#f5f5f5" stroke="transparent" points="26.5,-330.2 26.5,-353.2 189.5,-353.2 189.5,-330.2 26.5,-330.2"/>
<polygon fill="none" stroke="#000000" points="26.5,-330.2 26.5,-353.2 189.5,-353.2 189.5,-330.2 26.5,-330.2"/>
<text text-anchor="start" x="31.5" y="-339.3" font-family="Helvetica,sans-Serif" font-weight="bold" font-size="11.00" fill="#000000">METADATA_datasets</text>
<text text-anchor="start" x="154.5437" y="-338.3" font-family="Helvetica,sans-Serif" font-size="11.00" fill="#000000">[table]</text>
<polygon fill="none" stroke="#000000" points="26.5,-308.2 26.5,-330.2 189.5,-330.2 189.5,-308.2 26.5,-308.2"/>
<image xlink:href="../../images/primaryKeys.png" width="11px" height="12px" preserveAspectRatio="xMinYMin meet" x="31.5" y="-325.2"/>
<text text-anchor="start" x="46.5" y="-315.3" font-family="Helvetica,sans-Serif" font-size="11.00" fill="#000000">DS_ID</text>
<polygon fill="none" stroke="#000000" points="26.5,-289.2 26.5,-308.2 189.5,-308.2 189.5,-289.2 26.5,-289.2"/>
<text text-anchor="start" x="29.5" y="-295.3" font-family="Helvetica,sans-Serif" font-size="11.00" fill="#000000">...</text>
<polygon fill="#ffffff" stroke="transparent" points="26.5,-270.2 26.5,-289.2 81.5,-289.2 81.5,-270.2 26.5,-270.2"/>
<polygon fill="none" stroke="#000000" points="26.5,-270.2 26.5,-289.2 81.5,-289.2 81.5,-270.2 26.5,-270.2"/>
<text text-anchor="start" x="29.5" y="-276.3" font-family="Helvetica,sans-Serif" font-size="11.00" fill="#000000"> &#160;</text>
<polygon fill="#ffffff" stroke="transparent" points="81.5,-270.2 81.5,-289.2 140.5,-289.2 140.5,-270.2 81.5,-270.2"/>
<polygon fill="none" stroke="#000000" points="81.5,-270.2 81.5,-289.2 140.5,-289.2 140.5,-270.2 81.5,-270.2"/>
<text text-anchor="start" x="105.1105" y="-276.3" font-family="Helvetica,sans-Serif" font-size="11.00" fill="#000000">0 rows</text>
<polygon fill="#ffffff" stroke="transparent" points="140.5,-270.2 140.5,-289.2 189.5,-289.2 189.5,-270.2 140.5,-270.2"/>
<polygon fill="none" stroke="#000000" points="140.5,-270.2 140.5,-289.2 189.5,-289.2 189.5,-270.2 140.5,-270.2"/>
<text text-anchor="start" x="164.7904" y="-276.3" font-family="Helvetica,sans-Serif" font-size="11.00" fill="#000000">35 &gt;</text>
</a>
</g>
</g>
<!-- PTOBS_elevation&#45;&gt;METADATA_datasets -->
<g id="edge1" class="edge">
<title>PTOBS_elevation:w&#45;&gt;METADATA_datasets:e</title>
<path fill="none" stroke="#000000" d="M493.8479,-315.7359C484.517,-321.1878 480.1102,-331.4128 465,-335.2 371.4493,-358.6476 343.5865,-348.0359 248,-335.2 221.2849,-331.6125 216.4549,-319.2 189.5,-319.2"/>
<polygon fill="#000000" stroke="#000000" points="500.2386,-314.1392 508.8727,-315.6926 504.1193,-313.1696 508,-312.2 508,-312.2 508,-312.2 504.1193,-313.1696 507.1273,-308.7074 500.2386,-314.1392 500.2386,-314.1392"/>
<ellipse fill="none" stroke="#000000" cx="497.134" cy="-314.9149" rx="3.2" ry="3.2"/>
</g>
<!-- METADATA_events -->
<g id="node3" class="node">
<title>METADATA_events</title>
<g id="a_node3"><a xlink:href="../../tables/METADATA_events.html" xlink:title="METADATA_events" target="_top">
<polygon fill="#ffffff" stroke="transparent" points="8,-134.7 8,-217.7 207,-217.7 207,-134.7 8,-134.7"/>
<polygon fill="#f5f5f5" stroke="transparent" points="8.5,-194.2 8.5,-217.2 207.5,-217.2 207.5,-194.2 8.5,-194.2"/>
<polygon fill="none" stroke="#000000" points="8.5,-194.2 8.5,-217.2 207.5,-217.2 207.5,-194.2 8.5,-194.2"/>
<text text-anchor="start" x="13.5" y="-203.3" font-family="Helvetica,sans-Serif" font-weight="bold" font-size="11.00" fill="#000000">METADATA_events</text>
<text text-anchor="start" x="172.5437" y="-202.3" font-family="Helvetica,sans-Serif" font-size="11.00" fill="#000000">[table]</text>
<polygon fill="none" stroke="#000000" points="8.5,-172.2 8.5,-194.2 207.5,-194.2 207.5,-172.2 8.5,-172.2"/>
<image xlink:href="../../images/primaryKeys.png" width="11px" height="12px" preserveAspectRatio="xMinYMin meet" x="13.5" y="-189.2"/>
<text text-anchor="start" x="28.5" y="-179.3" font-family="Helvetica,sans-Serif" font-size="11.00" fill="#000000">EQ_ID</text>
<polygon fill="none" stroke="#000000" points="8.5,-153.2 8.5,-172.2 207.5,-172.2 207.5,-153.2 8.5,-153.2"/>
<text text-anchor="start" x="11.5" y="-159.3" font-family="Helvetica,sans-Serif" font-size="11.00" fill="#000000">...</text>
<polygon fill="#ffffff" stroke="transparent" points="8.5,-134.2 8.5,-153.2 81.5,-153.2 81.5,-134.2 8.5,-134.2"/>
<polygon fill="none" stroke="#000000" points="8.5,-134.2 8.5,-153.2 81.5,-153.2 81.5,-134.2 8.5,-134.2"/>
<text text-anchor="start" x="11.5" y="-140.3" font-family="Helvetica,sans-Serif" font-size="11.00" fill="#000000"> &#160;</text>
<polygon fill="#ffffff" stroke="transparent" points="81.5,-134.2 81.5,-153.2 149.5,-153.2 149.5,-134.2 81.5,-134.2"/>
<polygon fill="none" stroke="#000000" points="81.5,-134.2 81.5,-153.2 149.5,-153.2 149.5,-134.2 81.5,-134.2"/>
<text text-anchor="start" x="114.1105" y="-140.3" font-family="Helvetica,sans-Serif" font-size="11.00" fill="#000000">0 rows</text>
<polygon fill="#ffffff" stroke="transparent" points="149.5,-134.2 149.5,-153.2 207.5,-153.2 207.5,-134.2 149.5,-134.2"/>
<polygon fill="none" stroke="#000000" points="149.5,-134.2 149.5,-153.2 207.5,-153.2 207.5,-134.2 149.5,-134.2"/>
<text text-anchor="start" x="182.7904" y="-140.3" font-family="Helvetica,sans-Serif" font-size="11.00" fill="#000000">34 &gt;</text>
</a>
</g>
</g>
<!-- PTOBS_elevation&#45;&gt;METADATA_events -->
<g id="edge2" class="edge">
<title>PTOBS_elevation:w&#45;&gt;METADATA_events:e</title>
<path fill="none" stroke="#000000" d="M493.6787,-177.6474C484.5832,-174.0272 479.0317,-167.5771 465,-165.2 369.9105,-149.0906 342.3435,-145.179 248,-165.2 228.7314,-169.2891 227.1977,-183.2 207.5,-183.2"/>
<polygon fill="#000000" stroke="#000000" points="500.1241,-178.7962 507.3683,-183.7441 504.0621,-179.4981 508,-180.2 508,-180.2 508,-180.2 504.0621,-179.4981 508.6317,-176.6559 500.1241,-178.7962 500.1241,-178.7962"/>
<ellipse fill="none" stroke="#000000" cx="496.9738" cy="-178.2347" rx="3.2" ry="3.2"/>
</g>
<!-- PTOBS_id -->
<g id="node4" class="node">
<title>PTOBS_id</title>
<g id="a_node4"><a xlink:href="../../tables/PTOBS_id.html" xlink:title="PTOBS_id" target="_top">
<polygon fill="#ffffff" stroke="transparent" points="256,-175.7 256,-324.7 457,-324.7 457,-175.7 256,-175.7"/>
<polygon fill="#f5f5f5" stroke="transparent" points="256.5,-301.2 256.5,-324.2 457.5,-324.2 457.5,-301.2 256.5,-301.2"/>
<polygon fill="none" stroke="#000000" points="256.5,-301.2 256.5,-324.2 457.5,-324.2 457.5,-301.2 256.5,-301.2"/>
<text text-anchor="start" x="261.5" y="-310.3" font-family="Helvetica,sans-Serif" font-weight="bold" font-size="11.00" fill="#000000">PTOBS_id</text>
<text text-anchor="start" x="422.5437" y="-309.3" font-family="Helvetica,sans-Serif" font-size="11.00" fill="#000000">[table]</text>
<polygon fill="none" stroke="#000000" points="256.5,-279.2 256.5,-301.2 457.5,-301.2 457.5,-279.2 256.5,-279.2"/>
<image xlink:href="../../images/primaryKeys.png" width="11px" height="12px" preserveAspectRatio="xMinYMin meet" x="261.5" y="-296.2"/>
<text text-anchor="start" x="276.5" y="-286.3" font-family="Helvetica,sans-Serif" font-size="11.00" fill="#000000">DS_ID</text>
<polygon fill="none" stroke="#000000" points="256.5,-257.2 256.5,-279.2 457.5,-279.2 457.5,-257.2 256.5,-257.2"/>
<image xlink:href="../../images/primaryKeys.png" width="11px" height="12px" preserveAspectRatio="xMinYMin meet" x="261.5" y="-274.2"/>
<text text-anchor="start" x="276.5" y="-264.3" font-family="Helvetica,sans-Serif" font-size="11.00" fill="#000000">EQ_ID</text>
<polygon fill="none" stroke="#000000" points="256.5,-235.2 256.5,-257.2 457.5,-257.2 457.5,-235.2 256.5,-235.2"/>
<image xlink:href="../../images/primaryKeys.png" width="11px" height="12px" preserveAspectRatio="xMinYMin meet" x="261.5" y="-252.2"/>
<text text-anchor="start" x="276.5" y="-242.3" font-family="Helvetica,sans-Serif" font-size="11.00" fill="#000000">MEAS_ID</text>
<polygon fill="none" stroke="#000000" points="256.5,-213.2 256.5,-235.2 457.5,-235.2 457.5,-213.2 256.5,-213.2"/>
<image xlink:href="../../images/primaryKeys.png" width="11px" height="12px" preserveAspectRatio="xMinYMin meet" x="261.5" y="-230.2"/>
<text text-anchor="start" x="276.5" y="-220.3" font-family="Helvetica,sans-Serif" font-size="11.00" fill="#000000">PT_ID</text>
<polygon fill="none" stroke="#000000" points="256.5,-194.2 256.5,-213.2 457.5,-213.2 457.5,-194.2 256.5,-194.2"/>
<text text-anchor="start" x="259.5" y="-200.3" font-family="Helvetica,sans-Serif" font-size="11.00" fill="#000000">...</text>
<polygon fill="#ffffff" stroke="transparent" points="256.5,-175.2 256.5,-194.2 334.5,-194.2 334.5,-175.2 256.5,-175.2"/>
<polygon fill="none" stroke="#000000" points="256.5,-175.2 256.5,-194.2 334.5,-194.2 334.5,-175.2 256.5,-175.2"/>
<text text-anchor="start" x="259.5" y="-181.3" font-family="Helvetica,sans-Serif" font-size="11.00" fill="#000000">&lt; 2</text>
<polygon fill="#ffffff" stroke="transparent" points="334.5,-175.2 334.5,-194.2 401.5,-194.2 401.5,-175.2 334.5,-175.2"/>
<polygon fill="none" stroke="#000000" points="334.5,-175.2 334.5,-194.2 401.5,-194.2 401.5,-175.2 334.5,-175.2"/>
<text text-anchor="start" x="366.1105" y="-181.3" font-family="Helvetica,sans-Serif" font-size="11.00" fill="#000000">0 rows</text>
<polygon fill="#ffffff" stroke="transparent" points="401.5,-175.2 401.5,-194.2 457.5,-194.2 457.5,-175.2 401.5,-175.2"/>
<polygon fill="none" stroke="#000000" points="401.5,-175.2 401.5,-194.2 457.5,-194.2 457.5,-175.2 401.5,-175.2"/>
<text text-anchor="start" x="432.7904" y="-181.3" font-family="Helvetica,sans-Serif" font-size="11.00" fill="#000000">35 &gt;</text>
</a>
</g>
</g>
<!-- PTOBS_elevation&#45;&gt;PTOBS_id -->
<g id="edge3" class="edge">
<title>PTOBS_elevation:w&#45;&gt;PTOBS_id:e</title>
<path fill="none" stroke="#000000" d="M493.4203,-224.2C481.5435,-224.2 474.158,-224.2 457.5,-224.2"/>
<polygon fill="#000000" stroke="#000000" points="500,-224.2001 508,-227.8 504,-224.2 508,-224.2 508,-224.2 508,-224.2 504,-224.2 508,-220.6 500,-224.2001 500,-224.2001"/>
<ellipse fill="none" stroke="#000000" cx="496.8" cy="-224.2001" rx="3.2" ry="3.2"/>
</g>
<!-- PTOBS_id&#45;&gt;METADATA_datasets -->
<g id="edge4" class="edge">
<title>PTOBS_id:w&#45;&gt;METADATA_datasets:e</title>
<path fill="none" stroke="#000000" d="M242.1502,-292.4756C222.4326,-299.3121 216.3706,-319.2 189.5,-319.2"/>
<polygon fill="#000000" stroke="#000000" points="248.5987,-291.453 257.0639,-293.7556 252.5494,-290.8265 256.5,-290.2 256.5,-290.2 256.5,-290.2 252.5494,-290.8265 255.9361,-286.6444 248.5987,-291.453 248.5987,-291.453"/>
<ellipse fill="none" stroke="#000000" cx="245.4382" cy="-291.9542" rx="3.2" ry="3.2"/>
</g>
<!-- PTOBS_id&#45;&gt;METADATA_events -->
<g id="edge5" class="edge">
<title>PTOBS_id:w&#45;&gt;METADATA_events:e</title>
<path fill="none" stroke="#000000" d="M242.5028,-263.63C222.0234,-245.9747 244.9734,-183.2 207.5,-183.2"/>
<polygon fill="#000000" stroke="#000000" points="248.8951,-265.717 255.3827,-271.6222 252.6975,-266.9585 256.5,-268.2 256.5,-268.2 256.5,-268.2 252.6975,-266.9585 257.6173,-264.7778 248.8951,-265.717 248.8951,-265.717"/>
<ellipse fill="none" stroke="#000000" cx="245.8531" cy="-264.7238" rx="3.2" ry="3.2"/>
</g>
</g>
</svg>
