<?xml version="1.0" encoding="UTF-8" standalone="no"?>
<!DOCTYPE svg PUBLIC "-//W3C//DTD SVG 1.1//EN"
 "http://www.w3.org/Graphics/SVG/1.1/DTD/svg11.dtd">
<!-- Generated by graphviz version 2.40.1 (20161225.0304)
 -->
<!-- Title: oneDegreeRelationshipsDiagram Pages: 1 -->
<svg width="819pt" height="273pt"
 viewBox="0.00 0.00 819.00 273.47" xmlns="http://www.w3.org/2000/svg" xmlns:xlink="http://www.w3.org/1999/xlink">
<g id="graph0" class="graph" transform="scale(1 1) rotate(0) translate(4 269.4715)">
<title>oneDegreeRelationshipsDiagram</title>
<polygon fill="#ffffff" stroke="transparent" points="-4,4 -4,-269.4715 815,-269.4715 815,4 -4,4"/>
<text text-anchor="middle" x="72.4936" y="-7.3" font-family="Helvetica,sans-Serif" font-size="11.00" fill="#000000">Generated by SchemaSpy</text>
<!-- PTOBS_confidence -->
<g id="node1" class="node">
<title>PTOBS_confidence</title>
<g id="a_node1"><a xlink:href="../../tables/PTOBS_confidence.html" xlink:title="PTOBS_confidence" target="_top">
<polygon fill="#ffffff" stroke="transparent" points="506,-38.2 506,-238.2 803,-238.2 803,-38.2 506,-38.2"/>
<polygon fill="#f5f5f5" stroke="transparent" points="508.5,-213.2 508.5,-236.2 801.5,-236.2 801.5,-213.2 508.5,-213.2"/>
<polygon fill="none" stroke="#000000" points="508.5,-213.2 508.5,-236.2 801.5,-236.2 801.5,-213.2 508.5,-213.2"/>
<text text-anchor="start" x="513.5" y="-222.3" font-family="Helvetica,sans-Serif" font-weight="bold" font-size="11.00" fill="#000000">PTOBS_confidence</text>
<text text-anchor="start" x="766.5437" y="-221.3" font-family="Helvetica,sans-Serif" font-size="11.00" fill="#000000">[table]</text>
<polygon fill="none" stroke="#000000" points="508.5,-191.2 508.5,-213.2 671.5,-213.2 671.5,-191.2 508.5,-191.2"/>
<text text-anchor="start" x="528.5" y="-198.3" font-family="Helvetica,sans-Serif" font-size="11.00" fill="#000000">originator_quality_note</text>
<polygon fill="none" stroke="#000000" points="671.5,-191.2 671.5,-213.2 801.5,-213.2 801.5,-191.2 671.5,-191.2"/>
<text text-anchor="start" x="674.5" y="-198.9" font-family="Helvetica,sans-Serif" font-size="11.00" fill="#000000">text[2000000000,10]</text>
<polygon fill="none" stroke="#000000" points="508.5,-169.2 508.5,-191.2 671.5,-191.2 671.5,-169.2 508.5,-169.2"/>
<image xlink:href="../../images/primaryKeys.png" width="11px" height="12px" preserveAspectRatio="xMinYMin meet" x="513.5" y="-186.2"/>
<text text-anchor="start" x="528.5" y="-176.3" font-family="Helvetica,sans-Serif" font-size="11.00" fill="#000000">MEAS_ID</text>
<polygon fill="none" stroke="#000000" points="671.5,-169.2 671.5,-191.2 801.5,-191.2 801.5,-169.2 671.5,-169.2"/>
<text text-anchor="start" x="674.5" y="-176.9" font-family="Helvetica,sans-Serif" font-size="11.00" fill="#000000">integer[2000000000,10]</text>
<polygon fill="none" stroke="#000000" points="508.5,-147.2 508.5,-169.2 671.5,-169.2 671.5,-147.2 508.5,-147.2"/>
<image xlink:href="../../images/primaryKeys.png" width="11px" height="12px" preserveAspectRatio="xMinYMin meet" x="513.5" y="-164.2"/>
<text text-anchor="start" x="528.5" y="-154.3" font-family="Helvetica,sans-Serif" font-size="11.00" fill="#000000">DS_ID</text>
<polygon fill="none" stroke="#000000" points="671.5,-147.2 671.5,-169.2 801.5,-169.2 801.5,-147.2 671.5,-147.2"/>
<text text-anchor="start" x="674.5" y="-154.9" font-family="Helvetica,sans-Serif" font-size="11.00" fill="#000000">integer[2000000000,10]</text>
<polygon fill="none" stroke="#000000" points="508.5,-125.2 508.5,-147.2 671.5,-147.2 671.5,-125.2 508.5,-125.2"/>
<text text-anchor="start" x="528.5" y="-132.3" font-family="Helvetica,sans-Serif" font-size="11.00" fill="#000000">row_entry_source_file</text>
<polygon fill="none" stroke="#000000" points="671.5,-125.2 671.5,-147.2 801.5,-147.2 801.5,-125.2 671.5,-125.2"/>
<text text-anchor="start" x="674.5" y="-132.9" font-family="Helvetica,sans-Serif" font-size="11.00" fill="#000000">text[2000000000,10]</text>
<polygon fill="none" stroke="#000000" points="508.5,-103.2 508.5,-125.2 671.5,-125.2 671.5,-103.2 508.5,-103.2"/>
<image xlink:href="../../images/primaryKeys.png" width="11px" height="12px" preserveAspectRatio="xMinYMin meet" x="513.5" y="-120.2"/>
<text text-anchor="start" x="528.5" y="-110.3" font-family="Helvetica,sans-Serif" font-size="11.00" fill="#000000">PT_ID</text>
<polygon fill="none" stroke="#000000" points="671.5,-103.2 671.5,-125.2 801.5,-125.2 801.5,-103.2 671.5,-103.2"/>
<text text-anchor="start" x="674.5" y="-110.9" font-family="Helvetica,sans-Serif" font-size="11.00" fill="#000000">integer[2000000000,10]</text>
<polygon fill="none" stroke="#000000" points="508.5,-81.2 508.5,-103.2 671.5,-103.2 671.5,-81.2 508.5,-81.2"/>
<text text-anchor="start" x="528.5" y="-88.3" font-family="Helvetica,sans-Serif" font-size="11.00" fill="#000000">row_entry_date_updated</text>
<polygon fill="none" stroke="#000000" points="671.5,-81.2 671.5,-103.2 801.5,-103.2 801.5,-81.2 671.5,-81.2"/>
<text text-anchor="start" x="674.1372" y="-88.9" font-family="Helvetica,sans-Serif" font-size="11.00" fill="#000000">datetime[2000000000,10]</text>
<polygon fill="none" stroke="#000000" points="508.5,-59.2 508.5,-81.2 671.5,-81.2 671.5,-59.2 508.5,-59.2"/>
<image xlink:href="../../images/primaryKeys.png" width="11px" height="12px" preserveAspectRatio="xMinYMin meet" x="513.5" y="-76.2"/>
<text text-anchor="start" x="528.5" y="-66.3" font-family="Helvetica,sans-Serif" font-size="11.00" fill="#000000">EQ_ID</text>
<polygon fill="none" stroke="#000000" points="671.5,-59.2 671.5,-81.2 801.5,-81.2 801.5,-59.2 671.5,-59.2"/>
<text text-anchor="start" x="674.5" y="-66.9" font-family="Helvetica,sans-Serif" font-size="11.00" fill="#000000">integer[2000000000,10]</text>
<polygon fill="#ffffff" stroke="transparent" points="508.5,-40.2 508.5,-59.2 581.5,-59.2 581.5,-40.2 508.5,-40.2"/>
<polygon fill="none" stroke="#000000" points="508.5,-40.2 508.5,-59.2 581.5,-59.2 581.5,-40.2 508.5,-40.2"/>
<text text-anchor="start" x="511.5" y="-46.3" font-family="Helvetica,sans-Serif" font-size="11.00" fill="#000000">&lt; 4</text>
<polygon fill="#ffffff" stroke="transparent" points="581.5,-40.2 581.5,-59.2 671.5,-59.2 671.5,-40.2 581.5,-40.2"/>
<polygon fill="none" stroke="#000000" points="581.5,-40.2 581.5,-59.2 671.5,-59.2 671.5,-40.2 581.5,-40.2"/>
<text text-anchor="start" x="636.1105" y="-46.3" font-family="Helvetica,sans-Serif" font-size="11.00" fill="#000000">0 rows</text>
<polygon fill="#ffffff" stroke="transparent" points="671.5,-40.2 671.5,-59.2 801.5,-59.2 801.5,-40.2 671.5,-40.2"/>
<polygon fill="none" stroke="#000000" points="671.5,-40.2 671.5,-59.2 801.5,-59.2 801.5,-40.2 671.5,-40.2"/>
<text text-anchor="start" x="782.9053" y="-46.3" font-family="Helvetica,sans-Serif" font-size="11.00" fill="#000000">0 &gt;</text>
<polygon fill="none" stroke="#000000" stroke-width="2" points="507,-39.2 507,-237.2 802,-237.2 802,-39.2 507,-39.2"/>
</a>
</g>
</g>
<!-- METADATA_datasets -->
<g id="node2" class="node">
<title>METADATA_datasets</title>
<g id="a_node2"><a xlink:href="../../tables/METADATA_datasets.html" xlink:title="METADATA_datasets" target="_top">
<polygon fill="#ffffff" stroke="transparent" points="26,-175.7 26,-258.7 189,-258.7 189,-175.7 26,-175.7"/>
<polygon fill="#f5f5f5" stroke="transparent" points="26.5,-235.2 26.5,-258.2 189.5,-258.2 189.5,-235.2 26.5,-235.2"/>
<polygon fill="none" stroke="#000000" points="26.5,-235.2 26.5,-258.2 189.5,-258.2 189.5,-235.2 26.5,-235.2"/>
<text text-anchor="start" x="31.5" y="-244.3" font-family="Helvetica,sans-Serif" font-weight="bold" font-size="11.00" fill="#000000">METADATA_datasets</text>
<text text-anchor="start" x="154.5437" y="-243.3" font-family="Helvetica,sans-Serif" font-size="11.00" fill="#000000">[table]</text>
<polygon fill="none" stroke="#000000" points="26.5,-213.2 26.5,-235.2 189.5,-235.2 189.5,-213.2 26.5,-213.2"/>
<image xlink:href="../../images/primaryKeys.png" width="11px" height="12px" preserveAspectRatio="xMinYMin meet" x="31.5" y="-230.2"/>
<text text-anchor="start" x="46.5" y="-220.3" font-family="Helvetica,sans-Serif" font-size="11.00" fill="#000000">DS_ID</text>
<polygon fill="none" stroke="#000000" points="26.5,-194.2 26.5,-213.2 189.5,-213.2 189.5,-194.2 26.5,-194.2"/>
<text text-anchor="start" x="29.5" y="-200.3" font-family="Helvetica,sans-Serif" font-size="11.00" fill="#000000">...</text>
<polygon fill="#ffffff" stroke="transparent" points="26.5,-175.2 26.5,-194.2 81.5,-194.2 81.5,-175.2 26.5,-175.2"/>
<polygon fill="none" stroke="#000000" points="26.5,-175.2 26.5,-194.2 81.5,-194.2 81.5,-175.2 26.5,-175.2"/>
<text text-anchor="start" x="29.5" y="-181.3" font-family="Helvetica,sans-Serif" font-size="11.00" fill="#000000"> &#160;</text>
<polygon fill="#ffffff" stroke="transparent" points="81.5,-175.2 81.5,-194.2 140.5,-194.2 140.5,-175.2 81.5,-175.2"/>
<polygon fill="none" stroke="#000000" points="81.5,-175.2 81.5,-194.2 140.5,-194.2 140.5,-175.2 81.5,-175.2"/>
<text text-anchor="start" x="105.1105" y="-181.3" font-family="Helvetica,sans-Serif" font-size="11.00" fill="#000000">0 rows</text>
<polygon fill="#ffffff" stroke="transparent" points="140.5,-175.2 140.5,-194.2 189.5,-194.2 189.5,-175.2 140.5,-175.2"/>
<polygon fill="none" stroke="#000000" points="140.5,-175.2 140.5,-194.2 189.5,-194.2 189.5,-175.2 140.5,-175.2"/>
<text text-anchor="start" x="164.7904" y="-181.3" font-family="Helvetica,sans-Serif" font-size="11.00" fill="#000000">35 &gt;</text>
</a>
</g>
</g>
<!-- PTOBS_confidence&#45;&gt;METADATA_datasets -->
<g id="edge1" class="edge">
<title>PTOBS_confidence:w&#45;&gt;METADATA_datasets:e</title>
<path fill="none" stroke="#000000" d="M494.5769,-161.8869C475.5653,-175.3611 495.1047,-222.0917 465,-240.2 382.3547,-289.9119 343.5865,-253.0359 248,-240.2 221.2849,-236.6125 216.4549,-224.2 189.5,-224.2"/>
<polygon fill="#000000" stroke="#000000" points="500.7666,-160.2479 509.4216,-161.6801 504.6333,-159.224 508.5,-158.2 508.5,-158.2 508.5,-158.2 504.6333,-159.224 507.5784,-154.7199 500.7666,-160.2479 500.7666,-160.2479"/>
<ellipse fill="none" stroke="#000000" cx="497.6732" cy="-161.0671" rx="3.2" ry="3.2"/>
</g>
<!-- METADATA_events -->
<g id="node3" class="node">
<title>METADATA_events</title>
<g id="a_node3"><a xlink:href="../../tables/METADATA_events.html" xlink:title="METADATA_events" target="_top">
<polygon fill="#ffffff" stroke="transparent" points="8,-39.7 8,-122.7 207,-122.7 207,-39.7 8,-39.7"/>
<polygon fill="#f5f5f5" stroke="transparent" points="8.5,-99.2 8.5,-122.2 207.5,-122.2 207.5,-99.2 8.5,-99.2"/>
<polygon fill="none" stroke="#000000" points="8.5,-99.2 8.5,-122.2 207.5,-122.2 207.5,-99.2 8.5,-99.2"/>
<text text-anchor="start" x="13.5" y="-108.3" font-family="Helvetica,sans-Serif" font-weight="bold" font-size="11.00" fill="#000000">METADATA_events</text>
<text text-anchor="start" x="172.5437" y="-107.3" font-family="Helvetica,sans-Serif" font-size="11.00" fill="#000000">[table]</text>
<polygon fill="none" stroke="#000000" points="8.5,-77.2 8.5,-99.2 207.5,-99.2 207.5,-77.2 8.5,-77.2"/>
<image xlink:href="../../images/primaryKeys.png" width="11px" height="12px" preserveAspectRatio="xMinYMin meet" x="13.5" y="-94.2"/>
<text text-anchor="start" x="28.5" y="-84.3" font-family="Helvetica,sans-Serif" font-size="11.00" fill="#000000">EQ_ID</text>
<polygon fill="none" stroke="#000000" points="8.5,-58.2 8.5,-77.2 207.5,-77.2 207.5,-58.2 8.5,-58.2"/>
<text text-anchor="start" x="11.5" y="-64.3" font-family="Helvetica,sans-Serif" font-size="11.00" fill="#000000">...</text>
<polygon fill="#ffffff" stroke="transparent" points="8.5,-39.2 8.5,-58.2 81.5,-58.2 81.5,-39.2 8.5,-39.2"/>
<polygon fill="none" stroke="#000000" points="8.5,-39.2 8.5,-58.2 81.5,-58.2 81.5,-39.2 8.5,-39.2"/>
<text text-anchor="start" x="11.5" y="-45.3" font-family="Helvetica,sans-Serif" font-size="11.00" fill="#000000"> &#160;</text>
<polygon fill="#ffffff" stroke="transparent" points="81.5,-39.2 81.5,-58.2 149.5,-58.2 149.5,-39.2 81.5,-39.2"/>
<polygon fill="none" stroke="#000000" points="81.5,-39.2 81.5,-58.2 149.5,-58.2 149.5,-39.2 81.5,-39.2"/>
<text text-anchor="start" x="114.1105" y="-45.3" font-family="Helvetica,sans-Serif" font-size="11.00" fill="#000000">0 rows</text>
<polygon fill="#ffffff" stroke="transparent" points="149.5,-39.2 149.5,-58.2 207.5,-58.2 207.5,-39.2 149.5,-39.2"/>
<polygon fill="none" stroke="#000000" points="149.5,-39.2 149.5,-58.2 207.5,-58.2 207.5,-39.2 149.5,-39.2"/>
<text text-anchor="start" x="182.7904" y="-45.3" font-family="Helvetica,sans-Serif" font-size="11.00" fill="#000000">34 &gt;</text>
</a>
</g>
</g>
<!-- PTOBS_confidence&#45;&gt;METADATA_events -->
<g id="edge2" class="edge">
<title>PTOBS_confidence:w&#45;&gt;METADATA_events:e</title>
<path fill="none" stroke="#000000" d="M494.0293,-70.0726C389.8671,-68.2233 356.3892,-47.1983 248,-70.2 228.7314,-74.2891 227.1977,-88.2 207.5,-88.2"/>
<polygon fill="#000000" stroke="#000000" points="500.5003,-70.1295 508.4683,-73.7999 504.5002,-70.1648 508.5,-70.2 508.5,-70.2 508.5,-70.2 504.5002,-70.1648 508.5317,-66.6001 500.5003,-70.1295 500.5003,-70.1295"/>
<ellipse fill="none" stroke="#000000" cx="497.3004" cy="-70.1013" rx="3.2" ry="3.2"/>
</g>
<!-- PTOBS_id -->
<g id="node4" class="node">
<title>PTOBS_id</title>
<g id="a_node4"><a xlink:href="../../tables/PTOBS_id.html" xlink:title="PTOBS_id" target="_top">
<polygon fill="#ffffff" stroke="transparent" points="256,-80.7 256,-229.7 457,-229.7 457,-80.7 256,-80.7"/>
<polygon fill="#f5f5f5" stroke="transparent" points="256.5,-206.2 256.5,-229.2 457.5,-229.2 457.5,-206.2 256.5,-206.2"/>
<polygon fill="none" stroke="#000000" points="256.5,-206.2 256.5,-229.2 457.5,-229.2 457.5,-206.2 256.5,-206.2"/>
<text text-anchor="start" x="261.5" y="-215.3" font-family="Helvetica,sans-Serif" font-weight="bold" font-size="11.00" fill="#000000">PTOBS_id</text>
<text text-anchor="start" x="422.5437" y="-214.3" font-family="Helvetica,sans-Serif" font-size="11.00" fill="#000000">[table]</text>
<polygon fill="none" stroke="#000000" points="256.5,-184.2 256.5,-206.2 457.5,-206.2 457.5,-184.2 256.5,-184.2"/>
<image xlink:href="../../images/primaryKeys.png" width="11px" height="12px" preserveAspectRatio="xMinYMin meet" x="261.5" y="-201.2"/>
<text text-anchor="start" x="276.5" y="-191.3" font-family="Helvetica,sans-Serif" font-size="11.00" fill="#000000">DS_ID</text>
<polygon fill="none" stroke="#000000" points="256.5,-162.2 256.5,-184.2 457.5,-184.2 457.5,-162.2 256.5,-162.2"/>
<image xlink:href="../../images/primaryKeys.png" width="11px" height="12px" preserveAspectRatio="xMinYMin meet" x="261.5" y="-179.2"/>
<text text-anchor="start" x="276.5" y="-169.3" font-family="Helvetica,sans-Serif" font-size="11.00" fill="#000000">EQ_ID</text>
<polygon fill="none" stroke="#000000" points="256.5,-140.2 256.5,-162.2 457.5,-162.2 457.5,-140.2 256.5,-140.2"/>
<image xlink:href="../../images/primaryKeys.png" width="11px" height="12px" preserveAspectRatio="xMinYMin meet" x="261.5" y="-157.2"/>
<text text-anchor="start" x="276.5" y="-147.3" font-family="Helvetica,sans-Serif" font-size="11.00" fill="#000000">MEAS_ID</text>
<polygon fill="none" stroke="#000000" points="256.5,-118.2 256.5,-140.2 457.5,-140.2 457.5,-118.2 256.5,-118.2"/>
<image xlink:href="../../images/primaryKeys.png" width="11px" height="12px" preserveAspectRatio="xMinYMin meet" x="261.5" y="-135.2"/>
<text text-anchor="start" x="276.5" y="-125.3" font-family="Helvetica,sans-Serif" font-size="11.00" fill="#000000">PT_ID</text>
<polygon fill="none" stroke="#000000" points="256.5,-99.2 256.5,-118.2 457.5,-118.2 457.5,-99.2 256.5,-99.2"/>
<text text-anchor="start" x="259.5" y="-105.3" font-family="Helvetica,sans-Serif" font-size="11.00" fill="#000000">...</text>
<polygon fill="#ffffff" stroke="transparent" points="256.5,-80.2 256.5,-99.2 334.5,-99.2 334.5,-80.2 256.5,-80.2"/>
<polygon fill="none" stroke="#000000" points="256.5,-80.2 256.5,-99.2 334.5,-99.2 334.5,-80.2 256.5,-80.2"/>
<text text-anchor="start" x="259.5" y="-86.3" font-family="Helvetica,sans-Serif" font-size="11.00" fill="#000000">&lt; 2</text>
<polygon fill="#ffffff" stroke="transparent" points="334.5,-80.2 334.5,-99.2 401.5,-99.2 401.5,-80.2 334.5,-80.2"/>
<polygon fill="none" stroke="#000000" points="334.5,-80.2 334.5,-99.2 401.5,-99.2 401.5,-80.2 334.5,-80.2"/>
<text text-anchor="start" x="366.1105" y="-86.3" font-family="Helvetica,sans-Serif" font-size="11.00" fill="#000000">0 rows</text>
<polygon fill="#ffffff" stroke="transparent" points="401.5,-80.2 401.5,-99.2 457.5,-99.2 457.5,-80.2 401.5,-80.2"/>
<polygon fill="none" stroke="#000000" points="401.5,-80.2 401.5,-99.2 457.5,-99.2 457.5,-80.2 401.5,-80.2"/>
<text text-anchor="start" x="432.7904" y="-86.3" font-family="Helvetica,sans-Serif" font-size="11.00" fill="#000000">35 &gt;</text>
</a>
</g>
</g>
<!-- PTOBS_confidence&#45;&gt;PTOBS_id -->
<g id="edge3" class="edge">
<title>PTOBS_confidence:w&#45;&gt;PTOBS_id:e</title>
<path fill="none" stroke="#000000" d="M494.3364,-176.4088C481.5486,-168.548 477.6673,-151.2 457.5,-151.2"/>
<polygon fill="#000000" stroke="#000000" points="500.7721,-178.1314 507.5691,-183.6776 504.636,-179.1657 508.5,-180.2 508.5,-180.2 508.5,-180.2 504.636,-179.1657 509.4309,-176.7224 500.7721,-178.1314 500.7721,-178.1314"/>
<ellipse fill="none" stroke="#000000" cx="497.6809" cy="-177.3039" rx="3.2" ry="3.2"/>
</g>
<!-- PTOBS_confidence&#45;&gt;PTOBS_id -->
<g id="edge4" class="edge">
<title>PTOBS_confidence:w&#45;&gt;PTOBS_id:e</title>
<path fill="none" stroke="#000000" d="M494.2671,-116.4133C481.8925,-120.5858 475.4046,-129.2 457.5,-129.2"/>
<polygon fill="#000000" stroke="#000000" points="500.595,-115.4293 509.0532,-117.7572 504.5475,-114.8147 508.5,-114.2 508.5,-114.2 508.5,-114.2 504.5475,-114.8147 507.9468,-110.6428 500.595,-115.4293 500.595,-115.4293"/>
<ellipse fill="none" stroke="#000000" cx="497.433" cy="-115.921" rx="3.2" ry="3.2"/>
</g>
<!-- PTOBS_id&#45;&gt;METADATA_datasets -->
<g id="edge5" class="edge">
<title>PTOBS_id:w&#45;&gt;METADATA_datasets:e</title>
<path fill="none" stroke="#000000" d="M242.1502,-197.4756C222.4326,-204.3121 216.3706,-224.2 189.5,-224.2"/>
<polygon fill="#000000" stroke="#000000" points="248.5987,-196.453 257.0639,-198.7556 252.5494,-195.8265 256.5,-195.2 256.5,-195.2 256.5,-195.2 252.5494,-195.8265 255.9361,-191.6444 248.5987,-196.453 248.5987,-196.453"/>
<ellipse fill="none" stroke="#000000" cx="245.4382" cy="-196.9542" rx="3.2" ry="3.2"/>
</g>
<!-- PTOBS_id&#45;&gt;METADATA_events -->
<g id="edge6" class="edge">
<title>PTOBS_id:w&#45;&gt;METADATA_events:e</title>
<path fill="none" stroke="#000000" d="M242.5028,-168.63C222.0234,-150.9747 244.9734,-88.2 207.5,-88.2"/>
<polygon fill="#000000" stroke="#000000" points="248.8951,-170.717 255.3827,-176.6222 252.6975,-171.9585 256.5,-173.2 256.5,-173.2 256.5,-173.2 252.6975,-171.9585 257.6173,-169.7778 248.8951,-170.717 248.8951,-170.717"/>
<ellipse fill="none" stroke="#000000" cx="245.8531" cy="-169.7238" rx="3.2" ry="3.2"/>
</g>
</g>
</svg>
