<?xml version="1.0" encoding="UTF-8" standalone="no"?>
<!DOCTYPE svg PUBLIC "-//W3C//DTD SVG 1.1//EN"
 "http://www.w3.org/Graphics/SVG/1.1/DTD/svg11.dtd">
<!-- Generated by graphviz version 2.40.1 (20161225.0304)
 -->
<!-- Title: oneDegreeRelationshipsDiagram Pages: 1 -->
<svg width="819pt" height="360pt"
 viewBox="0.00 0.00 819.00 360.20" xmlns="http://www.w3.org/2000/svg" xmlns:xlink="http://www.w3.org/1999/xlink">
<g id="graph0" class="graph" transform="scale(1 1) rotate(0) translate(4 356.2)">
<title>oneDegreeRelationshipsDiagram</title>
<polygon fill="#ffffff" stroke="transparent" points="-4,4 -4,-356.2 815,-356.2 815,4 -4,4"/>
<text text-anchor="middle" x="72.4936" y="-7.3" font-family="Helvetica,sans-Serif" font-size="11.00" fill="#000000">Generated by SchemaSpy</text>
<!-- PTOBS_id -->
<g id="node1" class="node">
<title>PTOBS_id</title>
<g id="a_node1"><a xlink:href="../../tables/PTOBS_id.html" xlink:title="PTOBS_id" target="_top">
<polygon fill="#ffffff" stroke="transparent" points="256,-168.7 256,-317.7 457,-317.7 457,-168.7 256,-168.7"/>
<polygon fill="#f5f5f5" stroke="transparent" points="256.5,-294.2 256.5,-317.2 457.5,-317.2 457.5,-294.2 256.5,-294.2"/>
<polygon fill="none" stroke="#000000" points="256.5,-294.2 256.5,-317.2 457.5,-317.2 457.5,-294.2 256.5,-294.2"/>
<text text-anchor="start" x="261.5" y="-303.3" font-family="Helvetica,sans-Serif" font-weight="bold" font-size="11.00" fill="#000000">PTOBS_id</text>
<text text-anchor="start" x="422.5437" y="-302.3" font-family="Helvetica,sans-Serif" font-size="11.00" fill="#000000">[table]</text>
<polygon fill="none" stroke="#000000" points="256.5,-272.2 256.5,-294.2 457.5,-294.2 457.5,-272.2 256.5,-272.2"/>
<image xlink:href="../../images/primaryKeys.png" width="11px" height="12px" preserveAspectRatio="xMinYMin meet" x="261.5" y="-289.2"/>
<text text-anchor="start" x="276.5" y="-279.3" font-family="Helvetica,sans-Serif" font-size="11.00" fill="#000000">DS_ID</text>
<polygon fill="none" stroke="#000000" points="256.5,-250.2 256.5,-272.2 457.5,-272.2 457.5,-250.2 256.5,-250.2"/>
<image xlink:href="../../images/primaryKeys.png" width="11px" height="12px" preserveAspectRatio="xMinYMin meet" x="261.5" y="-267.2"/>
<text text-anchor="start" x="276.5" y="-257.3" font-family="Helvetica,sans-Serif" font-size="11.00" fill="#000000">EQ_ID</text>
<polygon fill="none" stroke="#000000" points="256.5,-228.2 256.5,-250.2 457.5,-250.2 457.5,-228.2 256.5,-228.2"/>
<image xlink:href="../../images/primaryKeys.png" width="11px" height="12px" preserveAspectRatio="xMinYMin meet" x="261.5" y="-245.2"/>
<text text-anchor="start" x="276.5" y="-235.3" font-family="Helvetica,sans-Serif" font-size="11.00" fill="#000000">MEAS_ID</text>
<polygon fill="none" stroke="#000000" points="256.5,-206.2 256.5,-228.2 457.5,-228.2 457.5,-206.2 256.5,-206.2"/>
<image xlink:href="../../images/primaryKeys.png" width="11px" height="12px" preserveAspectRatio="xMinYMin meet" x="261.5" y="-223.2"/>
<text text-anchor="start" x="276.5" y="-213.3" font-family="Helvetica,sans-Serif" font-size="11.00" fill="#000000">PT_ID</text>
<polygon fill="none" stroke="#000000" points="256.5,-187.2 256.5,-206.2 457.5,-206.2 457.5,-187.2 256.5,-187.2"/>
<text text-anchor="start" x="259.5" y="-193.3" font-family="Helvetica,sans-Serif" font-size="11.00" fill="#000000">...</text>
<polygon fill="#ffffff" stroke="transparent" points="256.5,-168.2 256.5,-187.2 334.5,-187.2 334.5,-168.2 256.5,-168.2"/>
<polygon fill="none" stroke="#000000" points="256.5,-168.2 256.5,-187.2 334.5,-187.2 334.5,-168.2 256.5,-168.2"/>
<text text-anchor="start" x="259.5" y="-174.3" font-family="Helvetica,sans-Serif" font-size="11.00" fill="#000000">&lt; 2</text>
<polygon fill="#ffffff" stroke="transparent" points="334.5,-168.2 334.5,-187.2 401.5,-187.2 401.5,-168.2 334.5,-168.2"/>
<polygon fill="none" stroke="#000000" points="334.5,-168.2 334.5,-187.2 401.5,-187.2 401.5,-168.2 334.5,-168.2"/>
<text text-anchor="start" x="366.1105" y="-174.3" font-family="Helvetica,sans-Serif" font-size="11.00" fill="#000000">0 rows</text>
<polygon fill="#ffffff" stroke="transparent" points="401.5,-168.2 401.5,-187.2 457.5,-187.2 457.5,-168.2 401.5,-168.2"/>
<polygon fill="none" stroke="#000000" points="401.5,-168.2 401.5,-187.2 457.5,-187.2 457.5,-168.2 401.5,-168.2"/>
<text text-anchor="start" x="432.7904" y="-174.3" font-family="Helvetica,sans-Serif" font-size="11.00" fill="#000000">35 &gt;</text>
</a>
</g>
</g>
<!-- METADATA_datasets -->
<g id="node2" class="node">
<title>METADATA_datasets</title>
<g id="a_node2"><a xlink:href="../../tables/METADATA_datasets.html" xlink:title="METADATA_datasets" target="_top">
<polygon fill="#ffffff" stroke="transparent" points="26,-263.7 26,-346.7 189,-346.7 189,-263.7 26,-263.7"/>
<polygon fill="#f5f5f5" stroke="transparent" points="26.5,-323.2 26.5,-346.2 189.5,-346.2 189.5,-323.2 26.5,-323.2"/>
<polygon fill="none" stroke="#000000" points="26.5,-323.2 26.5,-346.2 189.5,-346.2 189.5,-323.2 26.5,-323.2"/>
<text text-anchor="start" x="31.5" y="-332.3" font-family="Helvetica,sans-Serif" font-weight="bold" font-size="11.00" fill="#000000">METADATA_datasets</text>
<text text-anchor="start" x="154.5437" y="-331.3" font-family="Helvetica,sans-Serif" font-size="11.00" fill="#000000">[table]</text>
<polygon fill="none" stroke="#000000" points="26.5,-301.2 26.5,-323.2 189.5,-323.2 189.5,-301.2 26.5,-301.2"/>
<image xlink:href="../../images/primaryKeys.png" width="11px" height="12px" preserveAspectRatio="xMinYMin meet" x="31.5" y="-318.2"/>
<text text-anchor="start" x="46.5" y="-308.3" font-family="Helvetica,sans-Serif" font-size="11.00" fill="#000000">DS_ID</text>
<polygon fill="none" stroke="#000000" points="26.5,-282.2 26.5,-301.2 189.5,-301.2 189.5,-282.2 26.5,-282.2"/>
<text text-anchor="start" x="29.5" y="-288.3" font-family="Helvetica,sans-Serif" font-size="11.00" fill="#000000">...</text>
<polygon fill="#ffffff" stroke="transparent" points="26.5,-263.2 26.5,-282.2 81.5,-282.2 81.5,-263.2 26.5,-263.2"/>
<polygon fill="none" stroke="#000000" points="26.5,-263.2 26.5,-282.2 81.5,-282.2 81.5,-263.2 26.5,-263.2"/>
<text text-anchor="start" x="29.5" y="-269.3" font-family="Helvetica,sans-Serif" font-size="11.00" fill="#000000"> &#160;</text>
<polygon fill="#ffffff" stroke="transparent" points="81.5,-263.2 81.5,-282.2 140.5,-282.2 140.5,-263.2 81.5,-263.2"/>
<polygon fill="none" stroke="#000000" points="81.5,-263.2 81.5,-282.2 140.5,-282.2 140.5,-263.2 81.5,-263.2"/>
<text text-anchor="start" x="105.1105" y="-269.3" font-family="Helvetica,sans-Serif" font-size="11.00" fill="#000000">0 rows</text>
<polygon fill="#ffffff" stroke="transparent" points="140.5,-263.2 140.5,-282.2 189.5,-282.2 189.5,-263.2 140.5,-263.2"/>
<polygon fill="none" stroke="#000000" points="140.5,-263.2 140.5,-282.2 189.5,-282.2 189.5,-263.2 140.5,-263.2"/>
<text text-anchor="start" x="164.7904" y="-269.3" font-family="Helvetica,sans-Serif" font-size="11.00" fill="#000000">35 &gt;</text>
</a>
</g>
</g>
<!-- PTOBS_id&#45;&gt;METADATA_datasets -->
<g id="edge1" class="edge">
<title>PTOBS_id:w&#45;&gt;METADATA_datasets:e</title>
<path fill="none" stroke="#000000" d="M242.1502,-285.4756C222.4326,-292.3121 216.3706,-312.2 189.5,-312.2"/>
<polygon fill="#000000" stroke="#000000" points="248.5987,-284.453 257.0639,-286.7556 252.5494,-283.8265 256.5,-283.2 256.5,-283.2 256.5,-283.2 252.5494,-283.8265 255.9361,-279.6444 248.5987,-284.453 248.5987,-284.453"/>
<ellipse fill="none" stroke="#000000" cx="245.4382" cy="-284.9542" rx="3.2" ry="3.2"/>
</g>
<!-- METADATA_events -->
<g id="node3" class="node">
<title>METADATA_events</title>
<g id="a_node3"><a xlink:href="../../tables/METADATA_events.html" xlink:title="METADATA_events" target="_top">
<polygon fill="#ffffff" stroke="transparent" points="8,-127.7 8,-210.7 207,-210.7 207,-127.7 8,-127.7"/>
<polygon fill="#f5f5f5" stroke="transparent" points="8.5,-187.2 8.5,-210.2 207.5,-210.2 207.5,-187.2 8.5,-187.2"/>
<polygon fill="none" stroke="#000000" points="8.5,-187.2 8.5,-210.2 207.5,-210.2 207.5,-187.2 8.5,-187.2"/>
<text text-anchor="start" x="13.5" y="-196.3" font-family="Helvetica,sans-Serif" font-weight="bold" font-size="11.00" fill="#000000">METADATA_events</text>
<text text-anchor="start" x="172.5437" y="-195.3" font-family="Helvetica,sans-Serif" font-size="11.00" fill="#000000">[table]</text>
<polygon fill="none" stroke="#000000" points="8.5,-165.2 8.5,-187.2 207.5,-187.2 207.5,-165.2 8.5,-165.2"/>
<image xlink:href="../../images/primaryKeys.png" width="11px" height="12px" preserveAspectRatio="xMinYMin meet" x="13.5" y="-182.2"/>
<text text-anchor="start" x="28.5" y="-172.3" font-family="Helvetica,sans-Serif" font-size="11.00" fill="#000000">EQ_ID</text>
<polygon fill="none" stroke="#000000" points="8.5,-146.2 8.5,-165.2 207.5,-165.2 207.5,-146.2 8.5,-146.2"/>
<text text-anchor="start" x="11.5" y="-152.3" font-family="Helvetica,sans-Serif" font-size="11.00" fill="#000000">...</text>
<polygon fill="#ffffff" stroke="transparent" points="8.5,-127.2 8.5,-146.2 81.5,-146.2 81.5,-127.2 8.5,-127.2"/>
<polygon fill="none" stroke="#000000" points="8.5,-127.2 8.5,-146.2 81.5,-146.2 81.5,-127.2 8.5,-127.2"/>
<text text-anchor="start" x="11.5" y="-133.3" font-family="Helvetica,sans-Serif" font-size="11.00" fill="#000000"> &#160;</text>
<polygon fill="#ffffff" stroke="transparent" points="81.5,-127.2 81.5,-146.2 149.5,-146.2 149.5,-127.2 81.5,-127.2"/>
<polygon fill="none" stroke="#000000" points="81.5,-127.2 81.5,-146.2 149.5,-146.2 149.5,-127.2 81.5,-127.2"/>
<text text-anchor="start" x="114.1105" y="-133.3" font-family="Helvetica,sans-Serif" font-size="11.00" fill="#000000">0 rows</text>
<polygon fill="#ffffff" stroke="transparent" points="149.5,-127.2 149.5,-146.2 207.5,-146.2 207.5,-127.2 149.5,-127.2"/>
<polygon fill="none" stroke="#000000" points="149.5,-127.2 149.5,-146.2 207.5,-146.2 207.5,-127.2 149.5,-127.2"/>
<text text-anchor="start" x="182.7904" y="-133.3" font-family="Helvetica,sans-Serif" font-size="11.00" fill="#000000">34 &gt;</text>
</a>
</g>
</g>
<!-- PTOBS_id&#45;&gt;METADATA_events -->
<g id="edge2" class="edge">
<title>PTOBS_id:w&#45;&gt;METADATA_events:e</title>
<path fill="none" stroke="#000000" d="M242.5028,-256.63C222.0234,-238.9747 244.9734,-176.2 207.5,-176.2"/>
<polygon fill="#000000" stroke="#000000" points="248.8951,-258.717 255.3827,-264.6222 252.6975,-259.9585 256.5,-261.2 256.5,-261.2 256.5,-261.2 252.6975,-259.9585 257.6173,-257.7778 248.8951,-258.717 248.8951,-258.717"/>
<ellipse fill="none" stroke="#000000" cx="245.8531" cy="-257.7238" rx="3.2" ry="3.2"/>
</g>
<!-- PTOBS_sh -->
<g id="node4" class="node">
<title>PTOBS_sh</title>
<g id="a_node4"><a xlink:href="../../tables/PTOBS_sh.html" xlink:title="PTOBS_sh" target="_top">
<polygon fill="#ffffff" stroke="transparent" points="506,-38.2 506,-348.2 803,-348.2 803,-38.2 506,-38.2"/>
<polygon fill="#f5f5f5" stroke="transparent" points="508.5,-323.2 508.5,-346.2 801.5,-346.2 801.5,-323.2 508.5,-323.2"/>
<polygon fill="none" stroke="#000000" points="508.5,-323.2 508.5,-346.2 801.5,-346.2 801.5,-323.2 508.5,-323.2"/>
<text text-anchor="start" x="513.5" y="-332.3" font-family="Helvetica,sans-Serif" font-weight="bold" font-size="11.00" fill="#000000">PTOBS_sh</text>
<text text-anchor="start" x="766.5437" y="-331.3" font-family="Helvetica,sans-Serif" font-size="11.00" fill="#000000">[table]</text>
<polygon fill="none" stroke="#000000" points="508.5,-301.2 508.5,-323.2 671.5,-323.2 671.5,-301.2 508.5,-301.2"/>
<text text-anchor="start" x="528.5" y="-308.3" font-family="Helvetica,sans-Serif" font-size="11.00" fill="#000000">sh_central_meters</text>
<polygon fill="none" stroke="#000000" points="671.5,-301.2 671.5,-323.2 801.5,-323.2 801.5,-301.2 671.5,-301.2"/>
<text text-anchor="start" x="674.5" y="-308.9" font-family="Helvetica,sans-Serif" font-size="11.00" fill="#000000">float[2000000000,10]</text>
<polygon fill="none" stroke="#000000" points="508.5,-279.2 508.5,-301.2 671.5,-301.2 671.5,-279.2 508.5,-279.2"/>
<image xlink:href="../../images/primaryKeys.png" width="11px" height="12px" preserveAspectRatio="xMinYMin meet" x="513.5" y="-296.2"/>
<text text-anchor="start" x="528.5" y="-286.3" font-family="Helvetica,sans-Serif" font-size="11.00" fill="#000000">MEAS_ID</text>
<polygon fill="none" stroke="#000000" points="671.5,-279.2 671.5,-301.2 801.5,-301.2 801.5,-279.2 671.5,-279.2"/>
<text text-anchor="start" x="674.5" y="-286.9" font-family="Helvetica,sans-Serif" font-size="11.00" fill="#000000">integer[2000000000,10]</text>
<polygon fill="none" stroke="#000000" points="508.5,-257.2 508.5,-279.2 671.5,-279.2 671.5,-257.2 508.5,-257.2"/>
<image xlink:href="../../images/primaryKeys.png" width="11px" height="12px" preserveAspectRatio="xMinYMin meet" x="513.5" y="-274.2"/>
<text text-anchor="start" x="528.5" y="-264.3" font-family="Helvetica,sans-Serif" font-size="11.00" fill="#000000">DS_ID</text>
<polygon fill="none" stroke="#000000" points="671.5,-257.2 671.5,-279.2 801.5,-279.2 801.5,-257.2 671.5,-257.2"/>
<text text-anchor="start" x="674.5" y="-264.9" font-family="Helvetica,sans-Serif" font-size="11.00" fill="#000000">integer[2000000000,10]</text>
<polygon fill="none" stroke="#000000" points="508.5,-235.2 508.5,-257.2 671.5,-257.2 671.5,-235.2 508.5,-235.2"/>
<text text-anchor="start" x="528.5" y="-242.3" font-family="Helvetica,sans-Serif" font-size="11.00" fill="#000000">row_entry_source_file</text>
<polygon fill="none" stroke="#000000" points="671.5,-235.2 671.5,-257.2 801.5,-257.2 801.5,-235.2 671.5,-235.2"/>
<text text-anchor="start" x="674.5" y="-242.9" font-family="Helvetica,sans-Serif" font-size="11.00" fill="#000000">text[2000000000,10]</text>
<polygon fill="none" stroke="#000000" points="508.5,-213.2 508.5,-235.2 671.5,-235.2 671.5,-213.2 508.5,-213.2"/>
<text text-anchor="start" x="528.5" y="-220.3" font-family="Helvetica,sans-Serif" font-size="11.00" fill="#000000">sh_high_meters</text>
<polygon fill="none" stroke="#000000" points="671.5,-213.2 671.5,-235.2 801.5,-235.2 801.5,-213.2 671.5,-213.2"/>
<text text-anchor="start" x="674.5" y="-220.9" font-family="Helvetica,sans-Serif" font-size="11.00" fill="#000000">float[2000000000,10]</text>
<polygon fill="none" stroke="#000000" points="508.5,-191.2 508.5,-213.2 671.5,-213.2 671.5,-191.2 508.5,-191.2"/>
<image xlink:href="../../images/primaryKeys.png" width="11px" height="12px" preserveAspectRatio="xMinYMin meet" x="513.5" y="-208.2"/>
<text text-anchor="start" x="528.5" y="-198.3" font-family="Helvetica,sans-Serif" font-size="11.00" fill="#000000">PT_ID</text>
<polygon fill="none" stroke="#000000" points="671.5,-191.2 671.5,-213.2 801.5,-213.2 801.5,-191.2 671.5,-191.2"/>
<text text-anchor="start" x="674.5" y="-198.9" font-family="Helvetica,sans-Serif" font-size="11.00" fill="#000000">integer[2000000000,10]</text>
<polygon fill="none" stroke="#000000" points="508.5,-169.2 508.5,-191.2 671.5,-191.2 671.5,-169.2 508.5,-169.2"/>
<text text-anchor="start" x="528.5" y="-176.3" font-family="Helvetica,sans-Serif" font-size="11.00" fill="#000000">row_entry_date_updated</text>
<polygon fill="none" stroke="#000000" points="671.5,-169.2 671.5,-191.2 801.5,-191.2 801.5,-169.2 671.5,-169.2"/>
<text text-anchor="start" x="674.1372" y="-176.9" font-family="Helvetica,sans-Serif" font-size="11.00" fill="#000000">datetime[2000000000,10]</text>
<polygon fill="none" stroke="#000000" points="508.5,-147.2 508.5,-169.2 671.5,-169.2 671.5,-147.2 508.5,-147.2"/>
<image xlink:href="../../images/primaryKeys.png" width="11px" height="12px" preserveAspectRatio="xMinYMin meet" x="513.5" y="-164.2"/>
<text text-anchor="start" x="528.5" y="-154.3" font-family="Helvetica,sans-Serif" font-size="11.00" fill="#000000">EQ_ID</text>
<polygon fill="none" stroke="#000000" points="671.5,-147.2 671.5,-169.2 801.5,-169.2 801.5,-147.2 671.5,-147.2"/>
<text text-anchor="start" x="674.5" y="-154.9" font-family="Helvetica,sans-Serif" font-size="11.00" fill="#000000">integer[2000000000,10]</text>
<polygon fill="none" stroke="#000000" points="508.5,-125.2 508.5,-147.2 671.5,-147.2 671.5,-125.2 508.5,-125.2"/>
<text text-anchor="start" x="528.5" y="-132.3" font-family="Helvetica,sans-Serif" font-size="11.00" fill="#000000">sh_style</text>
<polygon fill="none" stroke="#000000" points="671.5,-125.2 671.5,-147.2 801.5,-147.2 801.5,-125.2 671.5,-125.2"/>
<text text-anchor="start" x="674.5" y="-132.9" font-family="Helvetica,sans-Serif" font-size="11.00" fill="#000000">text[2000000000,10]</text>
<polygon fill="none" stroke="#000000" points="508.5,-103.2 508.5,-125.2 671.5,-125.2 671.5,-103.2 508.5,-103.2"/>
<text text-anchor="start" x="528.5" y="-110.3" font-family="Helvetica,sans-Serif" font-size="11.00" fill="#000000">sh_meas_type</text>
<polygon fill="none" stroke="#000000" points="671.5,-103.2 671.5,-125.2 801.5,-125.2 801.5,-103.2 671.5,-103.2"/>
<text text-anchor="start" x="674.5" y="-110.9" font-family="Helvetica,sans-Serif" font-size="11.00" fill="#000000">text[2000000000,10]</text>
<polygon fill="none" stroke="#000000" points="508.5,-81.2 508.5,-103.2 671.5,-103.2 671.5,-81.2 508.5,-81.2"/>
<text text-anchor="start" x="528.5" y="-88.3" font-family="Helvetica,sans-Serif" font-size="11.00" fill="#000000">sh_low_meters</text>
<polygon fill="none" stroke="#000000" points="671.5,-81.2 671.5,-103.2 801.5,-103.2 801.5,-81.2 671.5,-81.2"/>
<text text-anchor="start" x="674.5" y="-88.9" font-family="Helvetica,sans-Serif" font-size="11.00" fill="#000000">float[2000000000,10]</text>
<polygon fill="none" stroke="#000000" points="508.5,-59.2 508.5,-81.2 671.5,-81.2 671.5,-59.2 508.5,-59.2"/>
<text text-anchor="start" x="528.5" y="-66.3" font-family="Helvetica,sans-Serif" font-size="11.00" fill="#000000">sh_downside</text>
<polygon fill="none" stroke="#000000" points="671.5,-59.2 671.5,-81.2 801.5,-81.2 801.5,-59.2 671.5,-59.2"/>
<text text-anchor="start" x="674.5" y="-66.9" font-family="Helvetica,sans-Serif" font-size="11.00" fill="#000000">text[2000000000,10]</text>
<polygon fill="#ffffff" stroke="transparent" points="508.5,-40.2 508.5,-59.2 581.5,-59.2 581.5,-40.2 508.5,-40.2"/>
<polygon fill="none" stroke="#000000" points="508.5,-40.2 508.5,-59.2 581.5,-59.2 581.5,-40.2 508.5,-40.2"/>
<text text-anchor="start" x="511.5" y="-46.3" font-family="Helvetica,sans-Serif" font-size="11.00" fill="#000000">&lt; 4</text>
<polygon fill="#ffffff" stroke="transparent" points="581.5,-40.2 581.5,-59.2 671.5,-59.2 671.5,-40.2 581.5,-40.2"/>
<polygon fill="none" stroke="#000000" points="581.5,-40.2 581.5,-59.2 671.5,-59.2 671.5,-40.2 581.5,-40.2"/>
<text text-anchor="start" x="636.1105" y="-46.3" font-family="Helvetica,sans-Serif" font-size="11.00" fill="#000000">0 rows</text>
<polygon fill="#ffffff" stroke="transparent" points="671.5,-40.2 671.5,-59.2 801.5,-59.2 801.5,-40.2 671.5,-40.2"/>
<polygon fill="none" stroke="#000000" points="671.5,-40.2 671.5,-59.2 801.5,-59.2 801.5,-40.2 671.5,-40.2"/>
<text text-anchor="start" x="782.9053" y="-46.3" font-family="Helvetica,sans-Serif" font-size="11.00" fill="#000000">0 &gt;</text>
<polygon fill="none" stroke="#000000" stroke-width="2" points="507,-39.2 507,-347.2 802,-347.2 802,-39.2 507,-39.2"/>
</a>
</g>
</g>
<!-- PTOBS_sh&#45;&gt;PTOBS_id -->
<g id="edge5" class="edge">
<title>PTOBS_sh:w&#45;&gt;PTOBS_id:e</title>
<path fill="none" stroke="#000000" d="M494.637,-285.4935C479.7732,-272.868 483.5451,-239.2 457.5,-239.2"/>
<polygon fill="#000000" stroke="#000000" points="500.9247,-287.6281 507.3427,-293.6089 504.7123,-288.9141 508.5,-290.2 508.5,-290.2 508.5,-290.2 504.7123,-288.9141 509.6573,-286.7911 500.9247,-287.6281 500.9247,-287.6281"/>
<ellipse fill="none" stroke="#000000" cx="497.8945" cy="-286.5994" rx="3.2" ry="3.2"/>
</g>
<!-- PTOBS_sh&#45;&gt;PTOBS_id -->
<g id="edge6" class="edge">
<title>PTOBS_sh:w&#45;&gt;PTOBS_id:e</title>
<path fill="none" stroke="#000000" d="M494.2671,-204.4133C481.8925,-208.5858 475.4046,-217.2 457.5,-217.2"/>
<polygon fill="#000000" stroke="#000000" points="500.595,-203.4293 509.0532,-205.7572 504.5475,-202.8147 508.5,-202.2 508.5,-202.2 508.5,-202.2 504.5475,-202.8147 507.9468,-198.6428 500.595,-203.4293 500.595,-203.4293"/>
<ellipse fill="none" stroke="#000000" cx="497.433" cy="-203.921" rx="3.2" ry="3.2"/>
</g>
<!-- PTOBS_sh&#45;&gt;METADATA_datasets -->
<g id="edge3" class="edge">
<title>PTOBS_sh:w&#45;&gt;METADATA_datasets:e</title>
<path fill="none" stroke="#000000" d="M494.3751,-272.794C481.0619,-284.6437 488.6096,-316.1553 465,-328.2 379.0895,-372.0283 343.5865,-341.0359 248,-328.2 221.2849,-324.6125 216.4549,-312.2 189.5,-312.2"/>
<polygon fill="#000000" stroke="#000000" points="500.8923,-270.6744 509.6135,-271.6235 504.6961,-269.4372 508.5,-268.2 508.5,-268.2 508.5,-268.2 504.6961,-269.4372 507.3865,-264.7765 500.8923,-270.6744 500.8923,-270.6744"/>
<ellipse fill="none" stroke="#000000" cx="497.8492" cy="-271.6641" rx="3.2" ry="3.2"/>
</g>
<!-- PTOBS_sh&#45;&gt;METADATA_events -->
<g id="edge4" class="edge">
<title>PTOBS_sh:w&#45;&gt;METADATA_events:e</title>
<path fill="none" stroke="#000000" d="M494.0293,-158.0726C389.8671,-156.2233 356.3892,-135.1983 248,-158.2 228.7314,-162.2891 227.1977,-176.2 207.5,-176.2"/>
<polygon fill="#000000" stroke="#000000" points="500.5003,-158.1295 508.4683,-161.7999 504.5002,-158.1648 508.5,-158.2 508.5,-158.2 508.5,-158.2 504.5002,-158.1648 508.5317,-154.6001 500.5003,-158.1295 500.5003,-158.1295"/>
<ellipse fill="none" stroke="#000000" cx="497.3004" cy="-158.1013" rx="3.2" ry="3.2"/>
</g>
</g>
</svg>
