<?xml version="1.0" encoding="UTF-8" standalone="no"?>
<!DOCTYPE svg PUBLIC "-//W3C//DTD SVG 1.1//EN"
 "http://www.w3.org/Graphics/SVG/1.1/DTD/svg11.dtd">
<!-- Generated by graphviz version 2.40.1 (20161225.0304)
 -->
<!-- Title: oneDegreeRelationshipsDiagram Pages: 1 -->
<svg width="819pt" height="316pt"
 viewBox="0.00 0.00 819.00 316.20" xmlns="http://www.w3.org/2000/svg" xmlns:xlink="http://www.w3.org/1999/xlink">
<g id="graph0" class="graph" transform="scale(1 1) rotate(0) translate(4 312.2)">
<title>oneDegreeRelationshipsDiagram</title>
<polygon fill="#ffffff" stroke="transparent" points="-4,4 -4,-312.2 815,-312.2 815,4 -4,4"/>
<text text-anchor="middle" x="72.4936" y="-7.3" font-family="Helvetica,sans-Serif" font-size="11.00" fill="#000000">Generated by SchemaSpy</text>
<!-- PTOBS_fzw -->
<g id="node1" class="node">
<title>PTOBS_fzw</title>
<g id="a_node1"><a xlink:href="../../tables/PTOBS_fzw.html" xlink:title="PTOBS_fzw" target="_top">
<polygon fill="#ffffff" stroke="transparent" points="506,-38.2 506,-304.2 803,-304.2 803,-38.2 506,-38.2"/>
<polygon fill="#f5f5f5" stroke="transparent" points="508.5,-279.2 508.5,-302.2 801.5,-302.2 801.5,-279.2 508.5,-279.2"/>
<polygon fill="none" stroke="#000000" points="508.5,-279.2 508.5,-302.2 801.5,-302.2 801.5,-279.2 508.5,-279.2"/>
<text text-anchor="start" x="513.5" y="-288.3" font-family="Helvetica,sans-Serif" font-weight="bold" font-size="11.00" fill="#000000">PTOBS_fzw</text>
<text text-anchor="start" x="766.5437" y="-287.3" font-family="Helvetica,sans-Serif" font-size="11.00" fill="#000000">[table]</text>
<polygon fill="none" stroke="#000000" points="508.5,-257.2 508.5,-279.2 671.5,-279.2 671.5,-257.2 508.5,-257.2"/>
<image xlink:href="../../images/primaryKeys.png" width="11px" height="12px" preserveAspectRatio="xMinYMin meet" x="513.5" y="-274.2"/>
<text text-anchor="start" x="528.5" y="-264.3" font-family="Helvetica,sans-Serif" font-size="11.00" fill="#000000">PT_ID</text>
<polygon fill="none" stroke="#000000" points="671.5,-257.2 671.5,-279.2 801.5,-279.2 801.5,-257.2 671.5,-257.2"/>
<text text-anchor="start" x="674.5" y="-264.9" font-family="Helvetica,sans-Serif" font-size="11.00" fill="#000000">integer[2000000000,10]</text>
<polygon fill="none" stroke="#000000" points="508.5,-235.2 508.5,-257.2 671.5,-257.2 671.5,-235.2 508.5,-235.2"/>
<text text-anchor="start" x="528.5" y="-242.3" font-family="Helvetica,sans-Serif" font-size="11.00" fill="#000000">fzw_high_meters</text>
<polygon fill="none" stroke="#000000" points="671.5,-235.2 671.5,-257.2 801.5,-257.2 801.5,-235.2 671.5,-235.2"/>
<text text-anchor="start" x="674.5" y="-242.9" font-family="Helvetica,sans-Serif" font-size="11.00" fill="#000000">float[2000000000,10]</text>
<polygon fill="none" stroke="#000000" points="508.5,-213.2 508.5,-235.2 671.5,-235.2 671.5,-213.2 508.5,-213.2"/>
<image xlink:href="../../images/primaryKeys.png" width="11px" height="12px" preserveAspectRatio="xMinYMin meet" x="513.5" y="-230.2"/>
<text text-anchor="start" x="528.5" y="-220.3" font-family="Helvetica,sans-Serif" font-size="11.00" fill="#000000">EQ_ID</text>
<polygon fill="none" stroke="#000000" points="671.5,-213.2 671.5,-235.2 801.5,-235.2 801.5,-213.2 671.5,-213.2"/>
<text text-anchor="start" x="674.5" y="-220.9" font-family="Helvetica,sans-Serif" font-size="11.00" fill="#000000">integer[2000000000,10]</text>
<polygon fill="none" stroke="#000000" points="508.5,-191.2 508.5,-213.2 671.5,-213.2 671.5,-191.2 508.5,-191.2"/>
<text text-anchor="start" x="528.5" y="-198.3" font-family="Helvetica,sans-Serif" font-size="11.00" fill="#000000">fzw_meas_type</text>
<polygon fill="none" stroke="#000000" points="671.5,-191.2 671.5,-213.2 801.5,-213.2 801.5,-191.2 671.5,-191.2"/>
<text text-anchor="start" x="674.5" y="-198.9" font-family="Helvetica,sans-Serif" font-size="11.00" fill="#000000">text[2000000000,10]</text>
<polygon fill="none" stroke="#000000" points="508.5,-169.2 508.5,-191.2 671.5,-191.2 671.5,-169.2 508.5,-169.2"/>
<text text-anchor="start" x="528.5" y="-176.3" font-family="Helvetica,sans-Serif" font-size="11.00" fill="#000000">fzw_central_meters</text>
<polygon fill="none" stroke="#000000" points="671.5,-169.2 671.5,-191.2 801.5,-191.2 801.5,-169.2 671.5,-169.2"/>
<text text-anchor="start" x="674.5" y="-176.9" font-family="Helvetica,sans-Serif" font-size="11.00" fill="#000000">float[2000000000,10]</text>
<polygon fill="none" stroke="#000000" points="508.5,-147.2 508.5,-169.2 671.5,-169.2 671.5,-147.2 508.5,-147.2"/>
<image xlink:href="../../images/primaryKeys.png" width="11px" height="12px" preserveAspectRatio="xMinYMin meet" x="513.5" y="-164.2"/>
<text text-anchor="start" x="528.5" y="-154.3" font-family="Helvetica,sans-Serif" font-size="11.00" fill="#000000">MEAS_ID</text>
<polygon fill="none" stroke="#000000" points="671.5,-147.2 671.5,-169.2 801.5,-169.2 801.5,-147.2 671.5,-147.2"/>
<text text-anchor="start" x="674.5" y="-154.9" font-family="Helvetica,sans-Serif" font-size="11.00" fill="#000000">integer[2000000000,10]</text>
<polygon fill="none" stroke="#000000" points="508.5,-125.2 508.5,-147.2 671.5,-147.2 671.5,-125.2 508.5,-125.2"/>
<text text-anchor="start" x="528.5" y="-132.3" font-family="Helvetica,sans-Serif" font-size="11.00" fill="#000000">row_entry_date_updated</text>
<polygon fill="none" stroke="#000000" points="671.5,-125.2 671.5,-147.2 801.5,-147.2 801.5,-125.2 671.5,-125.2"/>
<text text-anchor="start" x="674.1372" y="-132.9" font-family="Helvetica,sans-Serif" font-size="11.00" fill="#000000">datetime[2000000000,10]</text>
<polygon fill="none" stroke="#000000" points="508.5,-103.2 508.5,-125.2 671.5,-125.2 671.5,-103.2 508.5,-103.2"/>
<image xlink:href="../../images/primaryKeys.png" width="11px" height="12px" preserveAspectRatio="xMinYMin meet" x="513.5" y="-120.2"/>
<text text-anchor="start" x="528.5" y="-110.3" font-family="Helvetica,sans-Serif" font-size="11.00" fill="#000000">DS_ID</text>
<polygon fill="none" stroke="#000000" points="671.5,-103.2 671.5,-125.2 801.5,-125.2 801.5,-103.2 671.5,-103.2"/>
<text text-anchor="start" x="674.5" y="-110.9" font-family="Helvetica,sans-Serif" font-size="11.00" fill="#000000">integer[2000000000,10]</text>
<polygon fill="none" stroke="#000000" points="508.5,-81.2 508.5,-103.2 671.5,-103.2 671.5,-81.2 508.5,-81.2"/>
<text text-anchor="start" x="528.5" y="-88.3" font-family="Helvetica,sans-Serif" font-size="11.00" fill="#000000">row_entry_source_file</text>
<polygon fill="none" stroke="#000000" points="671.5,-81.2 671.5,-103.2 801.5,-103.2 801.5,-81.2 671.5,-81.2"/>
<text text-anchor="start" x="674.5" y="-88.9" font-family="Helvetica,sans-Serif" font-size="11.00" fill="#000000">text[2000000000,10]</text>
<polygon fill="none" stroke="#000000" points="508.5,-59.2 508.5,-81.2 671.5,-81.2 671.5,-59.2 508.5,-59.2"/>
<text text-anchor="start" x="528.5" y="-66.3" font-family="Helvetica,sans-Serif" font-size="11.00" fill="#000000">fzw_low_meters</text>
<polygon fill="none" stroke="#000000" points="671.5,-59.2 671.5,-81.2 801.5,-81.2 801.5,-59.2 671.5,-59.2"/>
<text text-anchor="start" x="674.5" y="-66.9" font-family="Helvetica,sans-Serif" font-size="11.00" fill="#000000">float[2000000000,10]</text>
<polygon fill="#ffffff" stroke="transparent" points="508.5,-40.2 508.5,-59.2 581.5,-59.2 581.5,-40.2 508.5,-40.2"/>
<polygon fill="none" stroke="#000000" points="508.5,-40.2 508.5,-59.2 581.5,-59.2 581.5,-40.2 508.5,-40.2"/>
<text text-anchor="start" x="511.5" y="-46.3" font-family="Helvetica,sans-Serif" font-size="11.00" fill="#000000">&lt; 4</text>
<polygon fill="#ffffff" stroke="transparent" points="581.5,-40.2 581.5,-59.2 671.5,-59.2 671.5,-40.2 581.5,-40.2"/>
<polygon fill="none" stroke="#000000" points="581.5,-40.2 581.5,-59.2 671.5,-59.2 671.5,-40.2 581.5,-40.2"/>
<text text-anchor="start" x="636.1105" y="-46.3" font-family="Helvetica,sans-Serif" font-size="11.00" fill="#000000">0 rows</text>
<polygon fill="#ffffff" stroke="transparent" points="671.5,-40.2 671.5,-59.2 801.5,-59.2 801.5,-40.2 671.5,-40.2"/>
<polygon fill="none" stroke="#000000" points="671.5,-40.2 671.5,-59.2 801.5,-59.2 801.5,-40.2 671.5,-40.2"/>
<text text-anchor="start" x="782.9053" y="-46.3" font-family="Helvetica,sans-Serif" font-size="11.00" fill="#000000">0 &gt;</text>
<polygon fill="none" stroke="#000000" stroke-width="2" points="507,-39.2 507,-303.2 802,-303.2 802,-39.2 507,-39.2"/>
</a>
</g>
</g>
<!-- METADATA_datasets -->
<g id="node2" class="node">
<title>METADATA_datasets</title>
<g id="a_node2"><a xlink:href="../../tables/METADATA_datasets.html" xlink:title="METADATA_datasets" target="_top">
<polygon fill="#ffffff" stroke="transparent" points="26,-46.7 26,-129.7 189,-129.7 189,-46.7 26,-46.7"/>
<polygon fill="#f5f5f5" stroke="transparent" points="26.5,-106.2 26.5,-129.2 189.5,-129.2 189.5,-106.2 26.5,-106.2"/>
<polygon fill="none" stroke="#000000" points="26.5,-106.2 26.5,-129.2 189.5,-129.2 189.5,-106.2 26.5,-106.2"/>
<text text-anchor="start" x="31.5" y="-115.3" font-family="Helvetica,sans-Serif" font-weight="bold" font-size="11.00" fill="#000000">METADATA_datasets</text>
<text text-anchor="start" x="154.5437" y="-114.3" font-family="Helvetica,sans-Serif" font-size="11.00" fill="#000000">[table]</text>
<polygon fill="none" stroke="#000000" points="26.5,-84.2 26.5,-106.2 189.5,-106.2 189.5,-84.2 26.5,-84.2"/>
<image xlink:href="../../images/primaryKeys.png" width="11px" height="12px" preserveAspectRatio="xMinYMin meet" x="31.5" y="-101.2"/>
<text text-anchor="start" x="46.5" y="-91.3" font-family="Helvetica,sans-Serif" font-size="11.00" fill="#000000">DS_ID</text>
<polygon fill="none" stroke="#000000" points="26.5,-65.2 26.5,-84.2 189.5,-84.2 189.5,-65.2 26.5,-65.2"/>
<text text-anchor="start" x="29.5" y="-71.3" font-family="Helvetica,sans-Serif" font-size="11.00" fill="#000000">...</text>
<polygon fill="#ffffff" stroke="transparent" points="26.5,-46.2 26.5,-65.2 81.5,-65.2 81.5,-46.2 26.5,-46.2"/>
<polygon fill="none" stroke="#000000" points="26.5,-46.2 26.5,-65.2 81.5,-65.2 81.5,-46.2 26.5,-46.2"/>
<text text-anchor="start" x="29.5" y="-52.3" font-family="Helvetica,sans-Serif" font-size="11.00" fill="#000000"> &#160;</text>
<polygon fill="#ffffff" stroke="transparent" points="81.5,-46.2 81.5,-65.2 140.5,-65.2 140.5,-46.2 81.5,-46.2"/>
<polygon fill="none" stroke="#000000" points="81.5,-46.2 81.5,-65.2 140.5,-65.2 140.5,-46.2 81.5,-46.2"/>
<text text-anchor="start" x="105.1105" y="-52.3" font-family="Helvetica,sans-Serif" font-size="11.00" fill="#000000">0 rows</text>
<polygon fill="#ffffff" stroke="transparent" points="140.5,-46.2 140.5,-65.2 189.5,-65.2 189.5,-46.2 140.5,-46.2"/>
<polygon fill="none" stroke="#000000" points="140.5,-46.2 140.5,-65.2 189.5,-65.2 189.5,-46.2 140.5,-46.2"/>
<text text-anchor="start" x="164.7904" y="-52.3" font-family="Helvetica,sans-Serif" font-size="11.00" fill="#000000">35 &gt;</text>
</a>
</g>
</g>
<!-- PTOBS_fzw&#45;&gt;METADATA_datasets -->
<g id="edge1" class="edge">
<title>PTOBS_fzw:w&#45;&gt;METADATA_datasets:e</title>
<path fill="none" stroke="#000000" d="M494.1661,-112.3785C484.8926,-109.7864 478.8877,-105.1338 465,-103.2 343.6745,-86.306 311.9961,-95.2 189.5,-95.2"/>
<polygon fill="#000000" stroke="#000000" points="500.5638,-113.1914 508.0461,-117.7713 504.5319,-113.6957 508.5,-114.2 508.5,-114.2 508.5,-114.2 504.5319,-113.6957 508.9539,-110.6287 500.5638,-113.1914 500.5638,-113.1914"/>
<ellipse fill="none" stroke="#000000" cx="497.3894" cy="-112.788" rx="3.2" ry="3.2"/>
</g>
<!-- METADATA_events -->
<g id="node3" class="node">
<title>METADATA_events</title>
<g id="a_node3"><a xlink:href="../../tables/METADATA_events.html" xlink:title="METADATA_events" target="_top">
<polygon fill="#ffffff" stroke="transparent" points="8,-197.7 8,-280.7 207,-280.7 207,-197.7 8,-197.7"/>
<polygon fill="#f5f5f5" stroke="transparent" points="8.5,-257.2 8.5,-280.2 207.5,-280.2 207.5,-257.2 8.5,-257.2"/>
<polygon fill="none" stroke="#000000" points="8.5,-257.2 8.5,-280.2 207.5,-280.2 207.5,-257.2 8.5,-257.2"/>
<text text-anchor="start" x="13.5" y="-266.3" font-family="Helvetica,sans-Serif" font-weight="bold" font-size="11.00" fill="#000000">METADATA_events</text>
<text text-anchor="start" x="172.5437" y="-265.3" font-family="Helvetica,sans-Serif" font-size="11.00" fill="#000000">[table]</text>
<polygon fill="none" stroke="#000000" points="8.5,-235.2 8.5,-257.2 207.5,-257.2 207.5,-235.2 8.5,-235.2"/>
<image xlink:href="../../images/primaryKeys.png" width="11px" height="12px" preserveAspectRatio="xMinYMin meet" x="13.5" y="-252.2"/>
<text text-anchor="start" x="28.5" y="-242.3" font-family="Helvetica,sans-Serif" font-size="11.00" fill="#000000">EQ_ID</text>
<polygon fill="none" stroke="#000000" points="8.5,-216.2 8.5,-235.2 207.5,-235.2 207.5,-216.2 8.5,-216.2"/>
<text text-anchor="start" x="11.5" y="-222.3" font-family="Helvetica,sans-Serif" font-size="11.00" fill="#000000">...</text>
<polygon fill="#ffffff" stroke="transparent" points="8.5,-197.2 8.5,-216.2 81.5,-216.2 81.5,-197.2 8.5,-197.2"/>
<polygon fill="none" stroke="#000000" points="8.5,-197.2 8.5,-216.2 81.5,-216.2 81.5,-197.2 8.5,-197.2"/>
<text text-anchor="start" x="11.5" y="-203.3" font-family="Helvetica,sans-Serif" font-size="11.00" fill="#000000"> &#160;</text>
<polygon fill="#ffffff" stroke="transparent" points="81.5,-197.2 81.5,-216.2 149.5,-216.2 149.5,-197.2 81.5,-197.2"/>
<polygon fill="none" stroke="#000000" points="81.5,-197.2 81.5,-216.2 149.5,-216.2 149.5,-197.2 81.5,-197.2"/>
<text text-anchor="start" x="114.1105" y="-203.3" font-family="Helvetica,sans-Serif" font-size="11.00" fill="#000000">0 rows</text>
<polygon fill="#ffffff" stroke="transparent" points="149.5,-197.2 149.5,-216.2 207.5,-216.2 207.5,-197.2 149.5,-197.2"/>
<polygon fill="none" stroke="#000000" points="149.5,-197.2 149.5,-216.2 207.5,-216.2 207.5,-197.2 149.5,-197.2"/>
<text text-anchor="start" x="182.7904" y="-203.3" font-family="Helvetica,sans-Serif" font-size="11.00" fill="#000000">34 &gt;</text>
</a>
</g>
</g>
<!-- PTOBS_fzw&#45;&gt;METADATA_events -->
<g id="edge2" class="edge">
<title>PTOBS_fzw:w&#45;&gt;METADATA_events:e</title>
<path fill="none" stroke="#000000" d="M494.4807,-228.8695C482.8548,-239.2124 485.7514,-263.8733 465,-273.2 377.032,-312.7369 340.3062,-301.1481 248,-273.2 227.2949,-266.931 229.1333,-246.2 207.5,-246.2"/>
<polygon fill="#000000" stroke="#000000" points="500.9099,-226.7281 509.6376,-227.6155 504.705,-225.464 508.5,-224.2 508.5,-224.2 508.5,-224.2 504.705,-225.464 507.3624,-220.7845 500.9099,-226.7281 500.9099,-226.7281"/>
<ellipse fill="none" stroke="#000000" cx="497.8739" cy="-227.7393" rx="3.2" ry="3.2"/>
</g>
<!-- PTOBS_id -->
<g id="node4" class="node">
<title>PTOBS_id</title>
<g id="a_node4"><a xlink:href="../../tables/PTOBS_id.html" xlink:title="PTOBS_id" target="_top">
<polygon fill="#ffffff" stroke="transparent" points="256,-113.7 256,-262.7 457,-262.7 457,-113.7 256,-113.7"/>
<polygon fill="#f5f5f5" stroke="transparent" points="256.5,-239.2 256.5,-262.2 457.5,-262.2 457.5,-239.2 256.5,-239.2"/>
<polygon fill="none" stroke="#000000" points="256.5,-239.2 256.5,-262.2 457.5,-262.2 457.5,-239.2 256.5,-239.2"/>
<text text-anchor="start" x="261.5" y="-248.3" font-family="Helvetica,sans-Serif" font-weight="bold" font-size="11.00" fill="#000000">PTOBS_id</text>
<text text-anchor="start" x="422.5437" y="-247.3" font-family="Helvetica,sans-Serif" font-size="11.00" fill="#000000">[table]</text>
<polygon fill="none" stroke="#000000" points="256.5,-217.2 256.5,-239.2 457.5,-239.2 457.5,-217.2 256.5,-217.2"/>
<image xlink:href="../../images/primaryKeys.png" width="11px" height="12px" preserveAspectRatio="xMinYMin meet" x="261.5" y="-234.2"/>
<text text-anchor="start" x="276.5" y="-224.3" font-family="Helvetica,sans-Serif" font-size="11.00" fill="#000000">DS_ID</text>
<polygon fill="none" stroke="#000000" points="256.5,-195.2 256.5,-217.2 457.5,-217.2 457.5,-195.2 256.5,-195.2"/>
<image xlink:href="../../images/primaryKeys.png" width="11px" height="12px" preserveAspectRatio="xMinYMin meet" x="261.5" y="-212.2"/>
<text text-anchor="start" x="276.5" y="-202.3" font-family="Helvetica,sans-Serif" font-size="11.00" fill="#000000">EQ_ID</text>
<polygon fill="none" stroke="#000000" points="256.5,-173.2 256.5,-195.2 457.5,-195.2 457.5,-173.2 256.5,-173.2"/>
<image xlink:href="../../images/primaryKeys.png" width="11px" height="12px" preserveAspectRatio="xMinYMin meet" x="261.5" y="-190.2"/>
<text text-anchor="start" x="276.5" y="-180.3" font-family="Helvetica,sans-Serif" font-size="11.00" fill="#000000">MEAS_ID</text>
<polygon fill="none" stroke="#000000" points="256.5,-151.2 256.5,-173.2 457.5,-173.2 457.5,-151.2 256.5,-151.2"/>
<image xlink:href="../../images/primaryKeys.png" width="11px" height="12px" preserveAspectRatio="xMinYMin meet" x="261.5" y="-168.2"/>
<text text-anchor="start" x="276.5" y="-158.3" font-family="Helvetica,sans-Serif" font-size="11.00" fill="#000000">PT_ID</text>
<polygon fill="none" stroke="#000000" points="256.5,-132.2 256.5,-151.2 457.5,-151.2 457.5,-132.2 256.5,-132.2"/>
<text text-anchor="start" x="259.5" y="-138.3" font-family="Helvetica,sans-Serif" font-size="11.00" fill="#000000">...</text>
<polygon fill="#ffffff" stroke="transparent" points="256.5,-113.2 256.5,-132.2 334.5,-132.2 334.5,-113.2 256.5,-113.2"/>
<polygon fill="none" stroke="#000000" points="256.5,-113.2 256.5,-132.2 334.5,-132.2 334.5,-113.2 256.5,-113.2"/>
<text text-anchor="start" x="259.5" y="-119.3" font-family="Helvetica,sans-Serif" font-size="11.00" fill="#000000">&lt; 2</text>
<polygon fill="#ffffff" stroke="transparent" points="334.5,-113.2 334.5,-132.2 401.5,-132.2 401.5,-113.2 334.5,-113.2"/>
<polygon fill="none" stroke="#000000" points="334.5,-113.2 334.5,-132.2 401.5,-132.2 401.5,-113.2 334.5,-113.2"/>
<text text-anchor="start" x="366.1105" y="-119.3" font-family="Helvetica,sans-Serif" font-size="11.00" fill="#000000">0 rows</text>
<polygon fill="#ffffff" stroke="transparent" points="401.5,-113.2 401.5,-132.2 457.5,-132.2 457.5,-113.2 401.5,-113.2"/>
<polygon fill="none" stroke="#000000" points="401.5,-113.2 401.5,-132.2 457.5,-132.2 457.5,-113.2 401.5,-113.2"/>
<text text-anchor="start" x="432.7904" y="-119.3" font-family="Helvetica,sans-Serif" font-size="11.00" fill="#000000">35 &gt;</text>
</a>
</g>
</g>
<!-- PTOBS_fzw&#45;&gt;PTOBS_id -->
<g id="edge3" class="edge">
<title>PTOBS_fzw:w&#45;&gt;PTOBS_id:e</title>
<path fill="none" stroke="#000000" d="M494.1325,-161.8152C481.6124,-168.9593 476.9792,-184.2 457.5,-184.2"/>
<polygon fill="#000000" stroke="#000000" points="500.7418,-160.1522 509.3785,-161.6912 504.6209,-159.1761 508.5,-158.2 508.5,-158.2 508.5,-158.2 504.6209,-159.1761 507.6215,-154.7088 500.7418,-160.1522 500.7418,-160.1522"/>
<ellipse fill="none" stroke="#000000" cx="497.6386" cy="-160.933" rx="3.2" ry="3.2"/>
</g>
<!-- PTOBS_fzw&#45;&gt;PTOBS_id -->
<g id="edge4" class="edge">
<title>PTOBS_fzw:w&#45;&gt;PTOBS_id:e</title>
<path fill="none" stroke="#000000" d="M494.4998,-264.4274C466.9963,-245.5446 503.858,-162.2 457.5,-162.2"/>
<polygon fill="#000000" stroke="#000000" points="500.7755,-266.1185 507.5633,-271.676 504.6378,-267.1592 508.5,-268.2 508.5,-268.2 508.5,-268.2 504.6378,-267.1592 509.4367,-264.724 500.7755,-266.1185 500.7755,-266.1185"/>
<ellipse fill="none" stroke="#000000" cx="497.6857" cy="-265.2859" rx="3.2" ry="3.2"/>
</g>
<!-- PTOBS_id&#45;&gt;METADATA_datasets -->
<g id="edge5" class="edge">
<title>PTOBS_id:w&#45;&gt;METADATA_datasets:e</title>
<path fill="none" stroke="#000000" d="M242.1838,-225.4221C200.5769,-206.3229 249.9999,-95.2 189.5,-95.2"/>
<polygon fill="#000000" stroke="#000000" points="248.6465,-226.6761 255.8142,-231.7341 252.5732,-227.438 256.5,-228.2 256.5,-228.2 256.5,-228.2 252.5732,-227.438 257.1858,-224.6659 248.6465,-226.6761 248.6465,-226.6761"/>
<ellipse fill="none" stroke="#000000" cx="245.5051" cy="-226.0665" rx="3.2" ry="3.2"/>
</g>
<!-- PTOBS_id&#45;&gt;METADATA_events -->
<g id="edge6" class="edge">
<title>PTOBS_id:w&#45;&gt;METADATA_events:e</title>
<path fill="none" stroke="#000000" d="M242.7637,-210.7885C229.8632,-221.2952 229.6826,-246.2 207.5,-246.2"/>
<polygon fill="#000000" stroke="#000000" points="248.9121,-208.7347 257.6406,-209.6145 252.7061,-207.4673 256.5,-206.2 256.5,-206.2 256.5,-206.2 252.7061,-207.4673 255.3594,-202.7855 248.9121,-208.7347 248.9121,-208.7347"/>
<ellipse fill="none" stroke="#000000" cx="245.877" cy="-209.7486" rx="3.2" ry="3.2"/>
</g>
</g>
</svg>
