<?xml version="1.0" encoding="UTF-8" standalone="no"?>
<!DOCTYPE svg PUBLIC "-//W3C//DTD SVG 1.1//EN"
 "http://www.w3.org/Graphics/SVG/1.1/DTD/svg11.dtd">
<!-- Generated by graphviz version 2.40.1 (20161225.0304)
 -->
<!-- Title: oneDegreeRelationshipsDiagram Pages: 1 -->
<svg width="819pt" height="338pt"
 viewBox="0.00 0.00 819.00 338.20" xmlns="http://www.w3.org/2000/svg" xmlns:xlink="http://www.w3.org/1999/xlink">
<g id="graph0" class="graph" transform="scale(1 1) rotate(0) translate(4 334.2)">
<title>oneDegreeRelationshipsDiagram</title>
<polygon fill="#ffffff" stroke="transparent" points="-4,4 -4,-334.2 815,-334.2 815,4 -4,4"/>
<text text-anchor="middle" x="72.4936" y="-7.3" font-family="Helvetica,sans-Serif" font-size="11.00" fill="#000000">Generated by SchemaSpy</text>
<!-- PTOBS_id -->
<g id="node1" class="node">
<title>PTOBS_id</title>
<g id="a_node1"><a xlink:href="../../tables/PTOBS_id.html" xlink:title="PTOBS_id" target="_top">
<polygon fill="#ffffff" stroke="transparent" points="256,-80.7 256,-229.7 457,-229.7 457,-80.7 256,-80.7"/>
<polygon fill="#f5f5f5" stroke="transparent" points="256.5,-206.2 256.5,-229.2 457.5,-229.2 457.5,-206.2 256.5,-206.2"/>
<polygon fill="none" stroke="#000000" points="256.5,-206.2 256.5,-229.2 457.5,-229.2 457.5,-206.2 256.5,-206.2"/>
<text text-anchor="start" x="261.5" y="-215.3" font-family="Helvetica,sans-Serif" font-weight="bold" font-size="11.00" fill="#000000">PTOBS_id</text>
<text text-anchor="start" x="422.5437" y="-214.3" font-family="Helvetica,sans-Serif" font-size="11.00" fill="#000000">[table]</text>
<polygon fill="none" stroke="#000000" points="256.5,-184.2 256.5,-206.2 457.5,-206.2 457.5,-184.2 256.5,-184.2"/>
<image xlink:href="../../images/primaryKeys.png" width="11px" height="12px" preserveAspectRatio="xMinYMin meet" x="261.5" y="-201.2"/>
<text text-anchor="start" x="276.5" y="-191.3" font-family="Helvetica,sans-Serif" font-size="11.00" fill="#000000">DS_ID</text>
<polygon fill="none" stroke="#000000" points="256.5,-162.2 256.5,-184.2 457.5,-184.2 457.5,-162.2 256.5,-162.2"/>
<image xlink:href="../../images/primaryKeys.png" width="11px" height="12px" preserveAspectRatio="xMinYMin meet" x="261.5" y="-179.2"/>
<text text-anchor="start" x="276.5" y="-169.3" font-family="Helvetica,sans-Serif" font-size="11.00" fill="#000000">EQ_ID</text>
<polygon fill="none" stroke="#000000" points="256.5,-140.2 256.5,-162.2 457.5,-162.2 457.5,-140.2 256.5,-140.2"/>
<image xlink:href="../../images/primaryKeys.png" width="11px" height="12px" preserveAspectRatio="xMinYMin meet" x="261.5" y="-157.2"/>
<text text-anchor="start" x="276.5" y="-147.3" font-family="Helvetica,sans-Serif" font-size="11.00" fill="#000000">MEAS_ID</text>
<polygon fill="none" stroke="#000000" points="256.5,-118.2 256.5,-140.2 457.5,-140.2 457.5,-118.2 256.5,-118.2"/>
<image xlink:href="../../images/primaryKeys.png" width="11px" height="12px" preserveAspectRatio="xMinYMin meet" x="261.5" y="-135.2"/>
<text text-anchor="start" x="276.5" y="-125.3" font-family="Helvetica,sans-Serif" font-size="11.00" fill="#000000">PT_ID</text>
<polygon fill="none" stroke="#000000" points="256.5,-99.2 256.5,-118.2 457.5,-118.2 457.5,-99.2 256.5,-99.2"/>
<text text-anchor="start" x="259.5" y="-105.3" font-family="Helvetica,sans-Serif" font-size="11.00" fill="#000000">...</text>
<polygon fill="#ffffff" stroke="transparent" points="256.5,-80.2 256.5,-99.2 334.5,-99.2 334.5,-80.2 256.5,-80.2"/>
<polygon fill="none" stroke="#000000" points="256.5,-80.2 256.5,-99.2 334.5,-99.2 334.5,-80.2 256.5,-80.2"/>
<text text-anchor="start" x="259.5" y="-86.3" font-family="Helvetica,sans-Serif" font-size="11.00" fill="#000000">&lt; 2</text>
<polygon fill="#ffffff" stroke="transparent" points="334.5,-80.2 334.5,-99.2 401.5,-99.2 401.5,-80.2 334.5,-80.2"/>
<polygon fill="none" stroke="#000000" points="334.5,-80.2 334.5,-99.2 401.5,-99.2 401.5,-80.2 334.5,-80.2"/>
<text text-anchor="start" x="366.1105" y="-86.3" font-family="Helvetica,sans-Serif" font-size="11.00" fill="#000000">0 rows</text>
<polygon fill="#ffffff" stroke="transparent" points="401.5,-80.2 401.5,-99.2 457.5,-99.2 457.5,-80.2 401.5,-80.2"/>
<polygon fill="none" stroke="#000000" points="401.5,-80.2 401.5,-99.2 457.5,-99.2 457.5,-80.2 401.5,-80.2"/>
<text text-anchor="start" x="432.7904" y="-86.3" font-family="Helvetica,sans-Serif" font-size="11.00" fill="#000000">35 &gt;</text>
</a>
</g>
</g>
<!-- METADATA_datasets -->
<g id="node2" class="node">
<title>METADATA_datasets</title>
<g id="a_node2"><a xlink:href="../../tables/METADATA_datasets.html" xlink:title="METADATA_datasets" target="_top">
<polygon fill="#ffffff" stroke="transparent" points="26,-175.7 26,-258.7 189,-258.7 189,-175.7 26,-175.7"/>
<polygon fill="#f5f5f5" stroke="transparent" points="26.5,-235.2 26.5,-258.2 189.5,-258.2 189.5,-235.2 26.5,-235.2"/>
<polygon fill="none" stroke="#000000" points="26.5,-235.2 26.5,-258.2 189.5,-258.2 189.5,-235.2 26.5,-235.2"/>
<text text-anchor="start" x="31.5" y="-244.3" font-family="Helvetica,sans-Serif" font-weight="bold" font-size="11.00" fill="#000000">METADATA_datasets</text>
<text text-anchor="start" x="154.5437" y="-243.3" font-family="Helvetica,sans-Serif" font-size="11.00" fill="#000000">[table]</text>
<polygon fill="none" stroke="#000000" points="26.5,-213.2 26.5,-235.2 189.5,-235.2 189.5,-213.2 26.5,-213.2"/>
<image xlink:href="../../images/primaryKeys.png" width="11px" height="12px" preserveAspectRatio="xMinYMin meet" x="31.5" y="-230.2"/>
<text text-anchor="start" x="46.5" y="-220.3" font-family="Helvetica,sans-Serif" font-size="11.00" fill="#000000">DS_ID</text>
<polygon fill="none" stroke="#000000" points="26.5,-194.2 26.5,-213.2 189.5,-213.2 189.5,-194.2 26.5,-194.2"/>
<text text-anchor="start" x="29.5" y="-200.3" font-family="Helvetica,sans-Serif" font-size="11.00" fill="#000000">...</text>
<polygon fill="#ffffff" stroke="transparent" points="26.5,-175.2 26.5,-194.2 81.5,-194.2 81.5,-175.2 26.5,-175.2"/>
<polygon fill="none" stroke="#000000" points="26.5,-175.2 26.5,-194.2 81.5,-194.2 81.5,-175.2 26.5,-175.2"/>
<text text-anchor="start" x="29.5" y="-181.3" font-family="Helvetica,sans-Serif" font-size="11.00" fill="#000000"> &#160;</text>
<polygon fill="#ffffff" stroke="transparent" points="81.5,-175.2 81.5,-194.2 140.5,-194.2 140.5,-175.2 81.5,-175.2"/>
<polygon fill="none" stroke="#000000" points="81.5,-175.2 81.5,-194.2 140.5,-194.2 140.5,-175.2 81.5,-175.2"/>
<text text-anchor="start" x="105.1105" y="-181.3" font-family="Helvetica,sans-Serif" font-size="11.00" fill="#000000">0 rows</text>
<polygon fill="#ffffff" stroke="transparent" points="140.5,-175.2 140.5,-194.2 189.5,-194.2 189.5,-175.2 140.5,-175.2"/>
<polygon fill="none" stroke="#000000" points="140.5,-175.2 140.5,-194.2 189.5,-194.2 189.5,-175.2 140.5,-175.2"/>
<text text-anchor="start" x="164.7904" y="-181.3" font-family="Helvetica,sans-Serif" font-size="11.00" fill="#000000">35 &gt;</text>
</a>
</g>
</g>
<!-- PTOBS_id&#45;&gt;METADATA_datasets -->
<g id="edge1" class="edge">
<title>PTOBS_id:w&#45;&gt;METADATA_datasets:e</title>
<path fill="none" stroke="#000000" d="M242.1502,-197.4756C222.4326,-204.3121 216.3706,-224.2 189.5,-224.2"/>
<polygon fill="#000000" stroke="#000000" points="248.5987,-196.453 257.0639,-198.7556 252.5494,-195.8265 256.5,-195.2 256.5,-195.2 256.5,-195.2 252.5494,-195.8265 255.9361,-191.6444 248.5987,-196.453 248.5987,-196.453"/>
<ellipse fill="none" stroke="#000000" cx="245.4382" cy="-196.9542" rx="3.2" ry="3.2"/>
</g>
<!-- METADATA_events -->
<g id="node3" class="node">
<title>METADATA_events</title>
<g id="a_node3"><a xlink:href="../../tables/METADATA_events.html" xlink:title="METADATA_events" target="_top">
<polygon fill="#ffffff" stroke="transparent" points="8,-54.7 8,-137.7 207,-137.7 207,-54.7 8,-54.7"/>
<polygon fill="#f5f5f5" stroke="transparent" points="8.5,-114.2 8.5,-137.2 207.5,-137.2 207.5,-114.2 8.5,-114.2"/>
<polygon fill="none" stroke="#000000" points="8.5,-114.2 8.5,-137.2 207.5,-137.2 207.5,-114.2 8.5,-114.2"/>
<text text-anchor="start" x="13.5" y="-123.3" font-family="Helvetica,sans-Serif" font-weight="bold" font-size="11.00" fill="#000000">METADATA_events</text>
<text text-anchor="start" x="172.5437" y="-122.3" font-family="Helvetica,sans-Serif" font-size="11.00" fill="#000000">[table]</text>
<polygon fill="none" stroke="#000000" points="8.5,-92.2 8.5,-114.2 207.5,-114.2 207.5,-92.2 8.5,-92.2"/>
<image xlink:href="../../images/primaryKeys.png" width="11px" height="12px" preserveAspectRatio="xMinYMin meet" x="13.5" y="-109.2"/>
<text text-anchor="start" x="28.5" y="-99.3" font-family="Helvetica,sans-Serif" font-size="11.00" fill="#000000">EQ_ID</text>
<polygon fill="none" stroke="#000000" points="8.5,-73.2 8.5,-92.2 207.5,-92.2 207.5,-73.2 8.5,-73.2"/>
<text text-anchor="start" x="11.5" y="-79.3" font-family="Helvetica,sans-Serif" font-size="11.00" fill="#000000">...</text>
<polygon fill="#ffffff" stroke="transparent" points="8.5,-54.2 8.5,-73.2 81.5,-73.2 81.5,-54.2 8.5,-54.2"/>
<polygon fill="none" stroke="#000000" points="8.5,-54.2 8.5,-73.2 81.5,-73.2 81.5,-54.2 8.5,-54.2"/>
<text text-anchor="start" x="11.5" y="-60.3" font-family="Helvetica,sans-Serif" font-size="11.00" fill="#000000"> &#160;</text>
<polygon fill="#ffffff" stroke="transparent" points="81.5,-54.2 81.5,-73.2 149.5,-73.2 149.5,-54.2 81.5,-54.2"/>
<polygon fill="none" stroke="#000000" points="81.5,-54.2 81.5,-73.2 149.5,-73.2 149.5,-54.2 81.5,-54.2"/>
<text text-anchor="start" x="114.1105" y="-60.3" font-family="Helvetica,sans-Serif" font-size="11.00" fill="#000000">0 rows</text>
<polygon fill="#ffffff" stroke="transparent" points="149.5,-54.2 149.5,-73.2 207.5,-73.2 207.5,-54.2 149.5,-54.2"/>
<polygon fill="none" stroke="#000000" points="149.5,-54.2 149.5,-73.2 207.5,-73.2 207.5,-54.2 149.5,-54.2"/>
<text text-anchor="start" x="182.7904" y="-60.3" font-family="Helvetica,sans-Serif" font-size="11.00" fill="#000000">34 &gt;</text>
</a>
</g>
</g>
<!-- PTOBS_id&#45;&gt;METADATA_events -->
<g id="edge2" class="edge">
<title>PTOBS_id:w&#45;&gt;METADATA_events:e</title>
<path fill="none" stroke="#000000" d="M242.4782,-168.1658C225.62,-152.1154 239.2455,-103.2 207.5,-103.2"/>
<polygon fill="#000000" stroke="#000000" points="248.9706,-170.4967 255.2835,-176.5882 252.7353,-171.8483 256.5,-173.2 256.5,-173.2 256.5,-173.2 252.7353,-171.8483 257.7165,-169.8118 248.9706,-170.4967 248.9706,-170.4967"/>
<ellipse fill="none" stroke="#000000" cx="245.9588" cy="-169.4154" rx="3.2" ry="3.2"/>
</g>
<!-- PTOBS_nhs -->
<g id="node4" class="node">
<title>PTOBS_nhs</title>
<g id="a_node4"><a xlink:href="../../tables/PTOBS_nhs.html" xlink:title="PTOBS_nhs" target="_top">
<polygon fill="#ffffff" stroke="transparent" points="506,-38.2 506,-326.2 803,-326.2 803,-38.2 506,-38.2"/>
<polygon fill="#f5f5f5" stroke="transparent" points="508.5,-301.2 508.5,-324.2 801.5,-324.2 801.5,-301.2 508.5,-301.2"/>
<polygon fill="none" stroke="#000000" points="508.5,-301.2 508.5,-324.2 801.5,-324.2 801.5,-301.2 508.5,-301.2"/>
<text text-anchor="start" x="513.5" y="-310.3" font-family="Helvetica,sans-Serif" font-weight="bold" font-size="11.00" fill="#000000">PTOBS_nhs</text>
<text text-anchor="start" x="766.5437" y="-309.3" font-family="Helvetica,sans-Serif" font-size="11.00" fill="#000000">[table]</text>
<polygon fill="none" stroke="#000000" points="508.5,-279.2 508.5,-301.2 671.5,-301.2 671.5,-279.2 508.5,-279.2"/>
<text text-anchor="start" x="528.5" y="-286.3" font-family="Helvetica,sans-Serif" font-size="11.00" fill="#000000">nhs_central_meters</text>
<polygon fill="none" stroke="#000000" points="671.5,-279.2 671.5,-301.2 801.5,-301.2 801.5,-279.2 671.5,-279.2"/>
<text text-anchor="start" x="674.5" y="-286.9" font-family="Helvetica,sans-Serif" font-size="11.00" fill="#000000">float[2000000000,10]</text>
<polygon fill="none" stroke="#000000" points="508.5,-257.2 508.5,-279.2 671.5,-279.2 671.5,-257.2 508.5,-257.2"/>
<text text-anchor="start" x="528.5" y="-264.3" font-family="Helvetica,sans-Serif" font-size="11.00" fill="#000000">nhs_high_meters</text>
<polygon fill="none" stroke="#000000" points="671.5,-257.2 671.5,-279.2 801.5,-279.2 801.5,-257.2 671.5,-257.2"/>
<text text-anchor="start" x="674.5" y="-264.9" font-family="Helvetica,sans-Serif" font-size="11.00" fill="#000000">float[2000000000,10]</text>
<polygon fill="none" stroke="#000000" points="508.5,-235.2 508.5,-257.2 671.5,-257.2 671.5,-235.2 508.5,-235.2"/>
<text text-anchor="start" x="528.5" y="-242.3" font-family="Helvetica,sans-Serif" font-size="11.00" fill="#000000">nhs_low_meters</text>
<polygon fill="none" stroke="#000000" points="671.5,-235.2 671.5,-257.2 801.5,-257.2 801.5,-235.2 671.5,-235.2"/>
<text text-anchor="start" x="674.5" y="-242.9" font-family="Helvetica,sans-Serif" font-size="11.00" fill="#000000">float[2000000000,10]</text>
<polygon fill="none" stroke="#000000" points="508.5,-213.2 508.5,-235.2 671.5,-235.2 671.5,-213.2 508.5,-213.2"/>
<image xlink:href="../../images/primaryKeys.png" width="11px" height="12px" preserveAspectRatio="xMinYMin meet" x="513.5" y="-230.2"/>
<text text-anchor="start" x="528.5" y="-220.3" font-family="Helvetica,sans-Serif" font-size="11.00" fill="#000000">DS_ID</text>
<polygon fill="none" stroke="#000000" points="671.5,-213.2 671.5,-235.2 801.5,-235.2 801.5,-213.2 671.5,-213.2"/>
<text text-anchor="start" x="674.5" y="-220.9" font-family="Helvetica,sans-Serif" font-size="11.00" fill="#000000">integer[2000000000,10]</text>
<polygon fill="none" stroke="#000000" points="508.5,-191.2 508.5,-213.2 671.5,-213.2 671.5,-191.2 508.5,-191.2"/>
<text text-anchor="start" x="528.5" y="-198.3" font-family="Helvetica,sans-Serif" font-size="11.00" fill="#000000">row_entry_source_file</text>
<polygon fill="none" stroke="#000000" points="671.5,-191.2 671.5,-213.2 801.5,-213.2 801.5,-191.2 671.5,-191.2"/>
<text text-anchor="start" x="674.5" y="-198.9" font-family="Helvetica,sans-Serif" font-size="11.00" fill="#000000">text[2000000000,10]</text>
<polygon fill="none" stroke="#000000" points="508.5,-169.2 508.5,-191.2 671.5,-191.2 671.5,-169.2 508.5,-169.2"/>
<text text-anchor="start" x="528.5" y="-176.3" font-family="Helvetica,sans-Serif" font-size="11.00" fill="#000000">nhs_style</text>
<polygon fill="none" stroke="#000000" points="671.5,-169.2 671.5,-191.2 801.5,-191.2 801.5,-169.2 671.5,-169.2"/>
<text text-anchor="start" x="674.5" y="-176.9" font-family="Helvetica,sans-Serif" font-size="11.00" fill="#000000">text[2000000000,10]</text>
<polygon fill="none" stroke="#000000" points="508.5,-147.2 508.5,-169.2 671.5,-169.2 671.5,-147.2 508.5,-147.2"/>
<image xlink:href="../../images/primaryKeys.png" width="11px" height="12px" preserveAspectRatio="xMinYMin meet" x="513.5" y="-164.2"/>
<text text-anchor="start" x="528.5" y="-154.3" font-family="Helvetica,sans-Serif" font-size="11.00" fill="#000000">PT_ID</text>
<polygon fill="none" stroke="#000000" points="671.5,-147.2 671.5,-169.2 801.5,-169.2 801.5,-147.2 671.5,-147.2"/>
<text text-anchor="start" x="674.5" y="-154.9" font-family="Helvetica,sans-Serif" font-size="11.00" fill="#000000">integer[2000000000,10]</text>
<polygon fill="none" stroke="#000000" points="508.5,-125.2 508.5,-147.2 671.5,-147.2 671.5,-125.2 508.5,-125.2"/>
<text text-anchor="start" x="528.5" y="-132.3" font-family="Helvetica,sans-Serif" font-size="11.00" fill="#000000">row_entry_date_updated</text>
<polygon fill="none" stroke="#000000" points="671.5,-125.2 671.5,-147.2 801.5,-147.2 801.5,-125.2 671.5,-125.2"/>
<text text-anchor="start" x="674.1372" y="-132.9" font-family="Helvetica,sans-Serif" font-size="11.00" fill="#000000">datetime[2000000000,10]</text>
<polygon fill="none" stroke="#000000" points="508.5,-103.2 508.5,-125.2 671.5,-125.2 671.5,-103.2 508.5,-103.2"/>
<image xlink:href="../../images/primaryKeys.png" width="11px" height="12px" preserveAspectRatio="xMinYMin meet" x="513.5" y="-120.2"/>
<text text-anchor="start" x="528.5" y="-110.3" font-family="Helvetica,sans-Serif" font-size="11.00" fill="#000000">EQ_ID</text>
<polygon fill="none" stroke="#000000" points="671.5,-103.2 671.5,-125.2 801.5,-125.2 801.5,-103.2 671.5,-103.2"/>
<text text-anchor="start" x="674.5" y="-110.9" font-family="Helvetica,sans-Serif" font-size="11.00" fill="#000000">integer[2000000000,10]</text>
<polygon fill="none" stroke="#000000" points="508.5,-81.2 508.5,-103.2 671.5,-103.2 671.5,-81.2 508.5,-81.2"/>
<image xlink:href="../../images/primaryKeys.png" width="11px" height="12px" preserveAspectRatio="xMinYMin meet" x="513.5" y="-98.2"/>
<text text-anchor="start" x="528.5" y="-88.3" font-family="Helvetica,sans-Serif" font-size="11.00" fill="#000000">MEAS_ID</text>
<polygon fill="none" stroke="#000000" points="671.5,-81.2 671.5,-103.2 801.5,-103.2 801.5,-81.2 671.5,-81.2"/>
<text text-anchor="start" x="674.5" y="-88.9" font-family="Helvetica,sans-Serif" font-size="11.00" fill="#000000">integer[2000000000,10]</text>
<polygon fill="none" stroke="#000000" points="508.5,-59.2 508.5,-81.2 671.5,-81.2 671.5,-59.2 508.5,-59.2"/>
<text text-anchor="start" x="528.5" y="-66.3" font-family="Helvetica,sans-Serif" font-size="11.00" fill="#000000">nhs_meas_type</text>
<polygon fill="none" stroke="#000000" points="671.5,-59.2 671.5,-81.2 801.5,-81.2 801.5,-59.2 671.5,-59.2"/>
<text text-anchor="start" x="674.5" y="-66.9" font-family="Helvetica,sans-Serif" font-size="11.00" fill="#000000">text[2000000000,10]</text>
<polygon fill="#ffffff" stroke="transparent" points="508.5,-40.2 508.5,-59.2 581.5,-59.2 581.5,-40.2 508.5,-40.2"/>
<polygon fill="none" stroke="#000000" points="508.5,-40.2 508.5,-59.2 581.5,-59.2 581.5,-40.2 508.5,-40.2"/>
<text text-anchor="start" x="511.5" y="-46.3" font-family="Helvetica,sans-Serif" font-size="11.00" fill="#000000">&lt; 4</text>
<polygon fill="#ffffff" stroke="transparent" points="581.5,-40.2 581.5,-59.2 671.5,-59.2 671.5,-40.2 581.5,-40.2"/>
<polygon fill="none" stroke="#000000" points="581.5,-40.2 581.5,-59.2 671.5,-59.2 671.5,-40.2 581.5,-40.2"/>
<text text-anchor="start" x="636.1105" y="-46.3" font-family="Helvetica,sans-Serif" font-size="11.00" fill="#000000">0 rows</text>
<polygon fill="#ffffff" stroke="transparent" points="671.5,-40.2 671.5,-59.2 801.5,-59.2 801.5,-40.2 671.5,-40.2"/>
<polygon fill="none" stroke="#000000" points="671.5,-40.2 671.5,-59.2 801.5,-59.2 801.5,-40.2 671.5,-40.2"/>
<text text-anchor="start" x="782.9053" y="-46.3" font-family="Helvetica,sans-Serif" font-size="11.00" fill="#000000">0 &gt;</text>
<polygon fill="none" stroke="#000000" stroke-width="2" points="507,-39.2 507,-325.2 802,-325.2 802,-39.2 507,-39.2"/>
</a>
</g>
</g>
<!-- PTOBS_nhs&#45;&gt;PTOBS_id -->
<g id="edge5" class="edge">
<title>PTOBS_nhs:w&#45;&gt;PTOBS_id:e</title>
<path fill="none" stroke="#000000" d="M494.7854,-96.8296C478.572,-110.7383 486.2036,-151.2 457.5,-151.2"/>
<polygon fill="#000000" stroke="#000000" points="500.9202,-94.7587 509.6514,-95.6109 504.7101,-93.4794 508.5,-92.2 508.5,-92.2 508.5,-92.2 504.7101,-93.4794 507.3486,-88.7891 500.9202,-94.7587 500.9202,-94.7587"/>
<ellipse fill="none" stroke="#000000" cx="497.8883" cy="-95.7822" rx="3.2" ry="3.2"/>
</g>
<!-- PTOBS_nhs&#45;&gt;PTOBS_id -->
<g id="edge6" class="edge">
<title>PTOBS_nhs:w&#45;&gt;PTOBS_id:e</title>
<path fill="none" stroke="#000000" d="M494.3364,-154.4088C481.5486,-146.548 477.6673,-129.2 457.5,-129.2"/>
<polygon fill="#000000" stroke="#000000" points="500.7721,-156.1314 507.5691,-161.6776 504.636,-157.1657 508.5,-158.2 508.5,-158.2 508.5,-158.2 504.636,-157.1657 509.4309,-154.7224 500.7721,-156.1314 500.7721,-156.1314"/>
<ellipse fill="none" stroke="#000000" cx="497.6809" cy="-155.3039" rx="3.2" ry="3.2"/>
</g>
<!-- PTOBS_nhs&#45;&gt;METADATA_datasets -->
<g id="edge3" class="edge">
<title>PTOBS_nhs:w&#45;&gt;METADATA_datasets:e</title>
<path fill="none" stroke="#000000" d="M494.2824,-226.7942C484.9101,-230.6287 479.4182,-237.6325 465,-240.2 370.0493,-257.1085 343.5865,-253.0359 248,-240.2 221.2849,-236.6125 216.4549,-224.2 189.5,-224.2"/>
<polygon fill="#000000" stroke="#000000" points="500.6299,-225.6361 509.1462,-227.7415 504.565,-224.918 508.5,-224.2 508.5,-224.2 508.5,-224.2 504.565,-224.918 507.8538,-220.6585 500.6299,-225.6361 500.6299,-225.6361"/>
<ellipse fill="none" stroke="#000000" cx="497.4819" cy="-226.2105" rx="3.2" ry="3.2"/>
</g>
<!-- PTOBS_nhs&#45;&gt;METADATA_events -->
<g id="edge4" class="edge">
<title>PTOBS_nhs:w&#45;&gt;METADATA_events:e</title>
<path fill="none" stroke="#000000" d="M494.6545,-109.7098C483.4651,-100.2346 484.6265,-78.3953 465,-70.2 376.0028,-33.0379 338.8636,-37.8684 248,-70.2 226.1248,-77.9837 230.7188,-103.2 207.5,-103.2"/>
<polygon fill="#000000" stroke="#000000" points="500.8902,-111.732 507.3894,-117.6244 504.6951,-112.966 508.5,-114.2 508.5,-114.2 508.5,-114.2 504.6951,-112.966 509.6106,-110.7756 500.8902,-111.732 500.8902,-111.732"/>
<ellipse fill="none" stroke="#000000" cx="497.8463" cy="-110.7448" rx="3.2" ry="3.2"/>
</g>
</g>
</svg>
