<?xml version="1.0" encoding="UTF-8" standalone="no"?>
<!DOCTYPE svg PUBLIC "-//W3C//DTD SVG 1.1//EN"
 "http://www.w3.org/Graphics/SVG/1.1/DTD/svg11.dtd">
<!-- Generated by graphviz version 2.40.1 (20161225.0304)
 -->
<!-- Title: oneDegreeRelationshipsDiagram Pages: 1 -->
<svg width="843pt" height="444pt"
 viewBox="0.00 0.00 843.00 443.93" xmlns="http://www.w3.org/2000/svg" xmlns:xlink="http://www.w3.org/1999/xlink">
<g id="graph0" class="graph" transform="scale(1 1) rotate(0) translate(4 439.9308)">
<title>oneDegreeRelationshipsDiagram</title>
<polygon fill="#ffffff" stroke="transparent" points="-4,4 -4,-439.9308 839,-439.9308 839,4 -4,4"/>
<text text-anchor="middle" x="72.4936" y="-7.3" font-family="Helvetica,sans-Serif" font-size="11.00" fill="#000000">Generated by SchemaSpy</text>
<!-- METADATA_geology -->
<g id="node1" class="node">
<title>METADATA_geology</title>
<g id="a_node1"><a xlink:href="../../tables/METADATA_geology.html" xlink:title="METADATA_geology" target="_top">
<polygon fill="#ffffff" stroke="transparent" points="275,-256.4308 275,-339.4308 438,-339.4308 438,-256.4308 275,-256.4308"/>
<polygon fill="#f5f5f5" stroke="transparent" points="275.5,-315.9308 275.5,-338.9308 438.5,-338.9308 438.5,-315.9308 275.5,-315.9308"/>
<polygon fill="none" stroke="#000000" points="275.5,-315.9308 275.5,-338.9308 438.5,-338.9308 438.5,-315.9308 275.5,-315.9308"/>
<text text-anchor="start" x="280.5" y="-325.0308" font-family="Helvetica,sans-Serif" font-weight="bold" font-size="11.00" fill="#000000">METADATA_geology</text>
<text text-anchor="start" x="403.5437" y="-324.0308" font-family="Helvetica,sans-Serif" font-size="11.00" fill="#000000">[table]</text>
<polygon fill="none" stroke="#000000" points="275.5,-293.9308 275.5,-315.9308 438.5,-315.9308 438.5,-293.9308 275.5,-293.9308"/>
<image xlink:href="../../images/primaryKeys.png" width="11px" height="12px" preserveAspectRatio="xMinYMin meet" x="280.5" y="-310.931"/>
<text text-anchor="start" x="295.5" y="-301.0308" font-family="Helvetica,sans-Serif" font-size="11.00" fill="#000000">DS_ID</text>
<polygon fill="none" stroke="#000000" points="275.5,-274.9308 275.5,-293.9308 438.5,-293.9308 438.5,-274.9308 275.5,-274.9308"/>
<text text-anchor="start" x="278.5" y="-281.0308" font-family="Helvetica,sans-Serif" font-size="11.00" fill="#000000">...</text>
<polygon fill="#ffffff" stroke="transparent" points="275.5,-255.9308 275.5,-274.9308 337.5,-274.9308 337.5,-255.9308 275.5,-255.9308"/>
<polygon fill="none" stroke="#000000" points="275.5,-255.9308 275.5,-274.9308 337.5,-274.9308 337.5,-255.9308 275.5,-255.9308"/>
<text text-anchor="start" x="278.5" y="-262.0308" font-family="Helvetica,sans-Serif" font-size="11.00" fill="#000000">&lt; 1</text>
<polygon fill="#ffffff" stroke="transparent" points="337.5,-255.9308 337.5,-274.9308 396.5,-274.9308 396.5,-255.9308 337.5,-255.9308"/>
<polygon fill="none" stroke="#000000" points="337.5,-255.9308 337.5,-274.9308 396.5,-274.9308 396.5,-255.9308 337.5,-255.9308"/>
<text text-anchor="start" x="361.1105" y="-262.0308" font-family="Helvetica,sans-Serif" font-size="11.00" fill="#000000">0 rows</text>
<polygon fill="#ffffff" stroke="transparent" points="396.5,-255.9308 396.5,-274.9308 438.5,-274.9308 438.5,-255.9308 396.5,-255.9308"/>
<polygon fill="none" stroke="#000000" points="396.5,-255.9308 396.5,-274.9308 438.5,-274.9308 438.5,-255.9308 396.5,-255.9308"/>
<text text-anchor="start" x="419.9053" y="-262.0308" font-family="Helvetica,sans-Serif" font-size="11.00" fill="#000000">2 &gt;</text>
</a>
</g>
</g>
<!-- METADATA_datasets -->
<g id="node2" class="node">
<title>METADATA_datasets</title>
<g id="a_node2"><a xlink:href="../../tables/METADATA_datasets.html" xlink:title="METADATA_datasets" target="_top">
<polygon fill="#ffffff" stroke="transparent" points="26,-152.4308 26,-235.4308 189,-235.4308 189,-152.4308 26,-152.4308"/>
<polygon fill="#f5f5f5" stroke="transparent" points="26.5,-211.9308 26.5,-234.9308 189.5,-234.9308 189.5,-211.9308 26.5,-211.9308"/>
<polygon fill="none" stroke="#000000" points="26.5,-211.9308 26.5,-234.9308 189.5,-234.9308 189.5,-211.9308 26.5,-211.9308"/>
<text text-anchor="start" x="31.5" y="-221.0308" font-family="Helvetica,sans-Serif" font-weight="bold" font-size="11.00" fill="#000000">METADATA_datasets</text>
<text text-anchor="start" x="154.5437" y="-220.0308" font-family="Helvetica,sans-Serif" font-size="11.00" fill="#000000">[table]</text>
<polygon fill="none" stroke="#000000" points="26.5,-189.9308 26.5,-211.9308 189.5,-211.9308 189.5,-189.9308 26.5,-189.9308"/>
<image xlink:href="../../images/primaryKeys.png" width="11px" height="12px" preserveAspectRatio="xMinYMin meet" x="31.5" y="-206.931"/>
<text text-anchor="start" x="46.5" y="-197.0308" font-family="Helvetica,sans-Serif" font-size="11.00" fill="#000000">DS_ID</text>
<polygon fill="none" stroke="#000000" points="26.5,-170.9308 26.5,-189.9308 189.5,-189.9308 189.5,-170.9308 26.5,-170.9308"/>
<text text-anchor="start" x="29.5" y="-177.0308" font-family="Helvetica,sans-Serif" font-size="11.00" fill="#000000">...</text>
<polygon fill="#ffffff" stroke="transparent" points="26.5,-151.9308 26.5,-170.9308 81.5,-170.9308 81.5,-151.9308 26.5,-151.9308"/>
<polygon fill="none" stroke="#000000" points="26.5,-151.9308 26.5,-170.9308 81.5,-170.9308 81.5,-151.9308 26.5,-151.9308"/>
<text text-anchor="start" x="29.5" y="-158.0308" font-family="Helvetica,sans-Serif" font-size="11.00" fill="#000000"> &#160;</text>
<polygon fill="#ffffff" stroke="transparent" points="81.5,-151.9308 81.5,-170.9308 140.5,-170.9308 140.5,-151.9308 81.5,-151.9308"/>
<polygon fill="none" stroke="#000000" points="81.5,-151.9308 81.5,-170.9308 140.5,-170.9308 140.5,-151.9308 81.5,-151.9308"/>
<text text-anchor="start" x="105.1105" y="-158.0308" font-family="Helvetica,sans-Serif" font-size="11.00" fill="#000000">0 rows</text>
<polygon fill="#ffffff" stroke="transparent" points="140.5,-151.9308 140.5,-170.9308 189.5,-170.9308 189.5,-151.9308 140.5,-151.9308"/>
<polygon fill="none" stroke="#000000" points="140.5,-151.9308 140.5,-170.9308 189.5,-170.9308 189.5,-151.9308 140.5,-151.9308"/>
<text text-anchor="start" x="164.7904" y="-158.0308" font-family="Helvetica,sans-Serif" font-size="11.00" fill="#000000">35 &gt;</text>
</a>
</g>
</g>
<!-- METADATA_geology&#45;&gt;METADATA_datasets -->
<g id="edge1" class="edge">
<title>METADATA_geology:w&#45;&gt;METADATA_datasets:e</title>
<path fill="none" stroke="#000000" d="M265.023,-303.6903C219.5085,-291.9566 245.6128,-200.9308 189.5,-200.9308"/>
<polygon fill="#000000" stroke="#000000" points="275.1759,-300.8644 274.2352,-308.809 272.6463,-308.6208 273.587,-300.6763 275.1759,-300.8644"/>
<polyline fill="none" stroke="#000000" points="275.5,-304.9308 271.5277,-304.4604 "/>
<ellipse fill="none" stroke="#000000" cx="268.3499" cy="-304.0842" rx="3.2" ry="3.2"/>
</g>
<!-- PTOBS_geology -->
<g id="node3" class="node">
<title>PTOBS_geology</title>
<g id="a_node3"><a xlink:href="../../tables/PTOBS_geology.html" xlink:title="PTOBS_geology" target="_top">
<polygon fill="#ffffff" stroke="transparent" points="506,-121.9308 506,-431.9308 827,-431.9308 827,-121.9308 506,-121.9308"/>
<polygon fill="#f5f5f5" stroke="transparent" points="508.5,-406.9308 508.5,-429.9308 825.5,-429.9308 825.5,-406.9308 508.5,-406.9308"/>
<polygon fill="none" stroke="#000000" points="508.5,-406.9308 508.5,-429.9308 825.5,-429.9308 825.5,-406.9308 508.5,-406.9308"/>
<text text-anchor="start" x="513.5" y="-416.0308" font-family="Helvetica,sans-Serif" font-weight="bold" font-size="11.00" fill="#000000">PTOBS_geology</text>
<text text-anchor="start" x="790.5437" y="-415.0308" font-family="Helvetica,sans-Serif" font-size="11.00" fill="#000000">[table]</text>
<polygon fill="none" stroke="#000000" points="508.5,-384.9308 508.5,-406.9308 695.5,-406.9308 695.5,-384.9308 508.5,-384.9308"/>
<text text-anchor="start" x="528.5" y="-392.0308" font-family="Helvetica,sans-Serif" font-size="11.00" fill="#000000">existing_scarp</text>
<polygon fill="none" stroke="#000000" points="695.5,-384.9308 695.5,-406.9308 825.5,-406.9308 825.5,-384.9308 695.5,-384.9308"/>
<text text-anchor="start" x="698.5" y="-392.6308" font-family="Helvetica,sans-Serif" font-size="11.00" fill="#000000">integer[2000000000,10]</text>
<polygon fill="none" stroke="#000000" points="508.5,-362.9308 508.5,-384.9308 695.5,-384.9308 695.5,-362.9308 508.5,-362.9308"/>
<text text-anchor="start" x="528.5" y="-370.0308" font-family="Helvetica,sans-Serif" font-size="11.00" fill="#000000">lithology</text>
<polygon fill="none" stroke="#000000" points="695.5,-362.9308 695.5,-384.9308 825.5,-384.9308 825.5,-362.9308 695.5,-362.9308"/>
<text text-anchor="start" x="698.5" y="-370.6308" font-family="Helvetica,sans-Serif" font-size="11.00" fill="#000000">text[2000000000,10]</text>
<polygon fill="none" stroke="#000000" points="508.5,-340.9308 508.5,-362.9308 695.5,-362.9308 695.5,-340.9308 508.5,-340.9308"/>
<text text-anchor="start" x="528.5" y="-348.0308" font-family="Helvetica,sans-Serif" font-size="11.00" fill="#000000">geology</text>
<polygon fill="none" stroke="#000000" points="695.5,-340.9308 695.5,-362.9308 825.5,-362.9308 825.5,-340.9308 695.5,-340.9308"/>
<text text-anchor="start" x="698.5" y="-348.6308" font-family="Helvetica,sans-Serif" font-size="11.00" fill="#000000">text[2000000000,10]</text>
<polygon fill="none" stroke="#000000" points="508.5,-318.9308 508.5,-340.9308 695.5,-340.9308 695.5,-318.9308 508.5,-318.9308"/>
<text text-anchor="start" x="528.5" y="-326.0308" font-family="Helvetica,sans-Serif" font-size="11.00" fill="#000000">row_entry_source_file</text>
<polygon fill="none" stroke="#000000" points="695.5,-318.9308 695.5,-340.9308 825.5,-340.9308 825.5,-318.9308 695.5,-318.9308"/>
<text text-anchor="start" x="698.5" y="-326.6308" font-family="Helvetica,sans-Serif" font-size="11.00" fill="#000000">text[2000000000,10]</text>
<polygon fill="none" stroke="#000000" points="508.5,-296.9308 508.5,-318.9308 695.5,-318.9308 695.5,-296.9308 508.5,-296.9308"/>
<text text-anchor="start" x="528.5" y="-304.0308" font-family="Helvetica,sans-Serif" font-size="11.00" fill="#000000">row_entry_date_updated</text>
<polygon fill="none" stroke="#000000" points="695.5,-296.9308 695.5,-318.9308 825.5,-318.9308 825.5,-296.9308 695.5,-296.9308"/>
<text text-anchor="start" x="698.1372" y="-304.6308" font-family="Helvetica,sans-Serif" font-size="11.00" fill="#000000">datetime[2000000000,10]</text>
<polygon fill="none" stroke="#000000" points="508.5,-274.9308 508.5,-296.9308 695.5,-296.9308 695.5,-274.9308 508.5,-274.9308"/>
<image xlink:href="../../images/primaryKeys.png" width="11px" height="12px" preserveAspectRatio="xMinYMin meet" x="513.5" y="-291.931"/>
<text text-anchor="start" x="528.5" y="-282.0308" font-family="Helvetica,sans-Serif" font-size="11.00" fill="#000000">EQ_ID</text>
<polygon fill="none" stroke="#000000" points="695.5,-274.9308 695.5,-296.9308 825.5,-296.9308 825.5,-274.9308 695.5,-274.9308"/>
<text text-anchor="start" x="698.5" y="-282.6308" font-family="Helvetica,sans-Serif" font-size="11.00" fill="#000000">integer[2000000000,10]</text>
<polygon fill="none" stroke="#000000" points="508.5,-252.9308 508.5,-274.9308 695.5,-274.9308 695.5,-252.9308 508.5,-252.9308"/>
<image xlink:href="../../images/primaryKeys.png" width="11px" height="12px" preserveAspectRatio="xMinYMin meet" x="513.5" y="-269.931"/>
<text text-anchor="start" x="528.5" y="-260.0308" font-family="Helvetica,sans-Serif" font-size="11.00" fill="#000000">GEO_DS_ID</text>
<polygon fill="none" stroke="#000000" points="695.5,-252.9308 695.5,-274.9308 825.5,-274.9308 825.5,-252.9308 695.5,-252.9308"/>
<text text-anchor="start" x="698.5" y="-260.6308" font-family="Helvetica,sans-Serif" font-size="11.00" fill="#000000">integer[2000000000,10]</text>
<polygon fill="none" stroke="#000000" points="508.5,-230.9308 508.5,-252.9308 695.5,-252.9308 695.5,-230.9308 508.5,-230.9308"/>
<image xlink:href="../../images/primaryKeys.png" width="11px" height="12px" preserveAspectRatio="xMinYMin meet" x="513.5" y="-247.931"/>
<text text-anchor="start" x="528.5" y="-238.0308" font-family="Helvetica,sans-Serif" font-size="11.00" fill="#000000">PT_DS_ID</text>
<polygon fill="none" stroke="#000000" points="695.5,-230.9308 695.5,-252.9308 825.5,-252.9308 825.5,-230.9308 695.5,-230.9308"/>
<text text-anchor="start" x="698.5" y="-238.6308" font-family="Helvetica,sans-Serif" font-size="11.00" fill="#000000">integer[2000000000,10]</text>
<polygon fill="none" stroke="#000000" points="508.5,-208.9308 508.5,-230.9308 695.5,-230.9308 695.5,-208.9308 508.5,-208.9308"/>
<text text-anchor="start" x="528.5" y="-216.0308" font-family="Helvetica,sans-Serif" font-size="11.00" fill="#000000">structure</text>
<polygon fill="none" stroke="#000000" points="695.5,-208.9308 695.5,-230.9308 825.5,-230.9308 825.5,-208.9308 695.5,-208.9308"/>
<text text-anchor="start" x="698.5" y="-216.6308" font-family="Helvetica,sans-Serif" font-size="11.00" fill="#000000">text[2000000000,10]</text>
<polygon fill="none" stroke="#000000" points="508.5,-186.9308 508.5,-208.9308 695.5,-208.9308 695.5,-186.9308 508.5,-186.9308"/>
<text text-anchor="start" x="528.5" y="-194.0308" font-family="Helvetica,sans-Serif" font-size="11.00" fill="#000000">distance_to_bedrock_meters</text>
<polygon fill="none" stroke="#000000" points="695.5,-186.9308 695.5,-208.9308 825.5,-208.9308 825.5,-186.9308 695.5,-186.9308"/>
<text text-anchor="start" x="698.5" y="-194.6308" font-family="Helvetica,sans-Serif" font-size="11.00" fill="#000000">float[2000000000,10]</text>
<polygon fill="none" stroke="#000000" points="508.5,-164.9308 508.5,-186.9308 695.5,-186.9308 695.5,-164.9308 508.5,-164.9308"/>
<image xlink:href="../../images/primaryKeys.png" width="11px" height="12px" preserveAspectRatio="xMinYMin meet" x="513.5" y="-181.931"/>
<text text-anchor="start" x="528.5" y="-172.0308" font-family="Helvetica,sans-Serif" font-size="11.00" fill="#000000">PT_ID</text>
<polygon fill="none" stroke="#000000" points="695.5,-164.9308 695.5,-186.9308 825.5,-186.9308 825.5,-164.9308 695.5,-164.9308"/>
<text text-anchor="start" x="698.5" y="-172.6308" font-family="Helvetica,sans-Serif" font-size="11.00" fill="#000000">integer[2000000000,10]</text>
<polygon fill="none" stroke="#000000" points="508.5,-142.9308 508.5,-164.9308 695.5,-164.9308 695.5,-142.9308 508.5,-142.9308"/>
<text text-anchor="start" x="528.5" y="-150.0308" font-family="Helvetica,sans-Serif" font-size="11.00" fill="#000000">unit_age</text>
<polygon fill="none" stroke="#000000" points="695.5,-142.9308 695.5,-164.9308 825.5,-164.9308 825.5,-142.9308 695.5,-142.9308"/>
<text text-anchor="start" x="698.5" y="-150.6308" font-family="Helvetica,sans-Serif" font-size="11.00" fill="#000000">text[2000000000,10]</text>
<polygon fill="#ffffff" stroke="transparent" points="508.5,-123.9308 508.5,-142.9308 593.5,-142.9308 593.5,-123.9308 508.5,-123.9308"/>
<polygon fill="none" stroke="#000000" points="508.5,-123.9308 508.5,-142.9308 593.5,-142.9308 593.5,-123.9308 508.5,-123.9308"/>
<text text-anchor="start" x="511.5" y="-130.0308" font-family="Helvetica,sans-Serif" font-size="11.00" fill="#000000">&lt; 4</text>
<polygon fill="#ffffff" stroke="transparent" points="593.5,-123.9308 593.5,-142.9308 695.5,-142.9308 695.5,-123.9308 593.5,-123.9308"/>
<polygon fill="none" stroke="#000000" points="593.5,-123.9308 593.5,-142.9308 695.5,-142.9308 695.5,-123.9308 593.5,-123.9308"/>
<text text-anchor="start" x="660.1105" y="-130.0308" font-family="Helvetica,sans-Serif" font-size="11.00" fill="#000000">0 rows</text>
<polygon fill="#ffffff" stroke="transparent" points="695.5,-123.9308 695.5,-142.9308 825.5,-142.9308 825.5,-123.9308 695.5,-123.9308"/>
<polygon fill="none" stroke="#000000" points="695.5,-123.9308 695.5,-142.9308 825.5,-142.9308 825.5,-123.9308 695.5,-123.9308"/>
<text text-anchor="start" x="806.9053" y="-130.0308" font-family="Helvetica,sans-Serif" font-size="11.00" fill="#000000">0 &gt;</text>
<polygon fill="none" stroke="#000000" stroke-width="2" points="507,-122.9308 507,-430.9308 826,-430.9308 826,-122.9308 507,-122.9308"/>
</a>
</g>
</g>
<!-- PTOBS_geology&#45;&gt;METADATA_geology -->
<g id="edge3" class="edge">
<title>PTOBS_geology:w&#45;&gt;METADATA_geology:e</title>
<path fill="none" stroke="#000000" d="M494.1034,-266.6209C472.1727,-275.7423 468.9213,-304.9308 438.5,-304.9308"/>
<polygon fill="#000000" stroke="#000000" points="500.6361,-265.4002 509.1613,-267.4695 504.5681,-264.6655 508.5,-263.9308 508.5,-263.9308 508.5,-263.9308 504.5681,-264.6655 507.8387,-260.392 500.6361,-265.4002 500.6361,-265.4002"/>
<ellipse fill="none" stroke="#000000" cx="497.4906" cy="-265.988" rx="3.2" ry="3.2"/>
</g>
<!-- PTOBS_geology&#45;&gt;METADATA_datasets -->
<g id="edge4" class="edge">
<title>PTOBS_geology:w&#45;&gt;METADATA_datasets:e</title>
<path fill="none" stroke="#000000" d="M494.1859,-240.0362C445.2122,-224.6078 520.8986,-119.0686 465,-75.9308 388.6476,-17.0084 329.3764,-24.1677 248,-75.9308 196.2447,-108.852 250.8386,-200.9308 189.5,-200.9308"/>
<polygon fill="#000000" stroke="#000000" points="500.5692,-240.881 508.0276,-245.4996 504.5346,-241.4059 508.5,-241.9308 508.5,-241.9308 508.5,-241.9308 504.5346,-241.4059 508.9724,-238.3619 500.5692,-240.881 500.5692,-240.881"/>
<ellipse fill="none" stroke="#000000" cx="497.3968" cy="-240.4611" rx="3.2" ry="3.2"/>
</g>
<!-- METADATA_events -->
<g id="node4" class="node">
<title>METADATA_events</title>
<g id="a_node4"><a xlink:href="../../tables/METADATA_events.html" xlink:title="METADATA_events" target="_top">
<polygon fill="#ffffff" stroke="transparent" points="8,-285.4308 8,-368.4308 207,-368.4308 207,-285.4308 8,-285.4308"/>
<polygon fill="#f5f5f5" stroke="transparent" points="8.5,-344.9308 8.5,-367.9308 207.5,-367.9308 207.5,-344.9308 8.5,-344.9308"/>
<polygon fill="none" stroke="#000000" points="8.5,-344.9308 8.5,-367.9308 207.5,-367.9308 207.5,-344.9308 8.5,-344.9308"/>
<text text-anchor="start" x="13.5" y="-354.0308" font-family="Helvetica,sans-Serif" font-weight="bold" font-size="11.00" fill="#000000">METADATA_events</text>
<text text-anchor="start" x="172.5437" y="-353.0308" font-family="Helvetica,sans-Serif" font-size="11.00" fill="#000000">[table]</text>
<polygon fill="none" stroke="#000000" points="8.5,-322.9308 8.5,-344.9308 207.5,-344.9308 207.5,-322.9308 8.5,-322.9308"/>
<image xlink:href="../../images/primaryKeys.png" width="11px" height="12px" preserveAspectRatio="xMinYMin meet" x="13.5" y="-339.931"/>
<text text-anchor="start" x="28.5" y="-330.0308" font-family="Helvetica,sans-Serif" font-size="11.00" fill="#000000">EQ_ID</text>
<polygon fill="none" stroke="#000000" points="8.5,-303.9308 8.5,-322.9308 207.5,-322.9308 207.5,-303.9308 8.5,-303.9308"/>
<text text-anchor="start" x="11.5" y="-310.0308" font-family="Helvetica,sans-Serif" font-size="11.00" fill="#000000">...</text>
<polygon fill="#ffffff" stroke="transparent" points="8.5,-284.9308 8.5,-303.9308 81.5,-303.9308 81.5,-284.9308 8.5,-284.9308"/>
<polygon fill="none" stroke="#000000" points="8.5,-284.9308 8.5,-303.9308 81.5,-303.9308 81.5,-284.9308 8.5,-284.9308"/>
<text text-anchor="start" x="11.5" y="-291.0308" font-family="Helvetica,sans-Serif" font-size="11.00" fill="#000000"> &#160;</text>
<polygon fill="#ffffff" stroke="transparent" points="81.5,-284.9308 81.5,-303.9308 149.5,-303.9308 149.5,-284.9308 81.5,-284.9308"/>
<polygon fill="none" stroke="#000000" points="81.5,-284.9308 81.5,-303.9308 149.5,-303.9308 149.5,-284.9308 81.5,-284.9308"/>
<text text-anchor="start" x="114.1105" y="-291.0308" font-family="Helvetica,sans-Serif" font-size="11.00" fill="#000000">0 rows</text>
<polygon fill="#ffffff" stroke="transparent" points="149.5,-284.9308 149.5,-303.9308 207.5,-303.9308 207.5,-284.9308 149.5,-284.9308"/>
<polygon fill="none" stroke="#000000" points="149.5,-284.9308 149.5,-303.9308 207.5,-303.9308 207.5,-284.9308 149.5,-284.9308"/>
<text text-anchor="start" x="182.7904" y="-291.0308" font-family="Helvetica,sans-Serif" font-size="11.00" fill="#000000">34 &gt;</text>
</a>
</g>
</g>
<!-- PTOBS_geology&#45;&gt;METADATA_events -->
<g id="edge2" class="edge">
<title>PTOBS_geology:w&#45;&gt;METADATA_events:e</title>
<path fill="none" stroke="#000000" d="M494.319,-290.458C480.2734,-302.7776 489.6965,-336.8556 465,-349.9308 379.7644,-395.0574 342.7429,-367.9672 248,-349.9308 228.9877,-346.3114 226.8538,-333.9308 207.5,-333.9308"/>
<polygon fill="#000000" stroke="#000000" points="500.8789,-288.3638 509.5949,-289.3602 504.6895,-287.1473 508.5,-285.9308 508.5,-285.9308 508.5,-285.9308 504.6895,-287.1473 507.4051,-282.5013 500.8789,-288.3638 500.8789,-288.3638"/>
<ellipse fill="none" stroke="#000000" cx="497.8305" cy="-289.337" rx="3.2" ry="3.2"/>
</g>
<!-- PTOBS_id -->
<g id="node5" class="node">
<title>PTOBS_id</title>
<g id="a_node5"><a xlink:href="../../tables/PTOBS_id.html" xlink:title="PTOBS_id" target="_top">
<polygon fill="#ffffff" stroke="transparent" points="256,-86.4308 256,-235.4308 457,-235.4308 457,-86.4308 256,-86.4308"/>
<polygon fill="#f5f5f5" stroke="transparent" points="256.5,-211.9308 256.5,-234.9308 457.5,-234.9308 457.5,-211.9308 256.5,-211.9308"/>
<polygon fill="none" stroke="#000000" points="256.5,-211.9308 256.5,-234.9308 457.5,-234.9308 457.5,-211.9308 256.5,-211.9308"/>
<text text-anchor="start" x="261.5" y="-221.0308" font-family="Helvetica,sans-Serif" font-weight="bold" font-size="11.00" fill="#000000">PTOBS_id</text>
<text text-anchor="start" x="422.5437" y="-220.0308" font-family="Helvetica,sans-Serif" font-size="11.00" fill="#000000">[table]</text>
<polygon fill="none" stroke="#000000" points="256.5,-189.9308 256.5,-211.9308 457.5,-211.9308 457.5,-189.9308 256.5,-189.9308"/>
<image xlink:href="../../images/primaryKeys.png" width="11px" height="12px" preserveAspectRatio="xMinYMin meet" x="261.5" y="-206.931"/>
<text text-anchor="start" x="276.5" y="-197.0308" font-family="Helvetica,sans-Serif" font-size="11.00" fill="#000000">DS_ID</text>
<polygon fill="none" stroke="#000000" points="256.5,-167.9308 256.5,-189.9308 457.5,-189.9308 457.5,-167.9308 256.5,-167.9308"/>
<image xlink:href="../../images/primaryKeys.png" width="11px" height="12px" preserveAspectRatio="xMinYMin meet" x="261.5" y="-184.931"/>
<text text-anchor="start" x="276.5" y="-175.0308" font-family="Helvetica,sans-Serif" font-size="11.00" fill="#000000">EQ_ID</text>
<polygon fill="none" stroke="#000000" points="256.5,-145.9308 256.5,-167.9308 457.5,-167.9308 457.5,-145.9308 256.5,-145.9308"/>
<image xlink:href="../../images/primaryKeys.png" width="11px" height="12px" preserveAspectRatio="xMinYMin meet" x="261.5" y="-162.931"/>
<text text-anchor="start" x="276.5" y="-153.0308" font-family="Helvetica,sans-Serif" font-size="11.00" fill="#000000">MEAS_ID</text>
<polygon fill="none" stroke="#000000" points="256.5,-123.9308 256.5,-145.9308 457.5,-145.9308 457.5,-123.9308 256.5,-123.9308"/>
<image xlink:href="../../images/primaryKeys.png" width="11px" height="12px" preserveAspectRatio="xMinYMin meet" x="261.5" y="-140.931"/>
<text text-anchor="start" x="276.5" y="-131.0308" font-family="Helvetica,sans-Serif" font-size="11.00" fill="#000000">PT_ID</text>
<polygon fill="none" stroke="#000000" points="256.5,-104.9308 256.5,-123.9308 457.5,-123.9308 457.5,-104.9308 256.5,-104.9308"/>
<text text-anchor="start" x="259.5" y="-111.0308" font-family="Helvetica,sans-Serif" font-size="11.00" fill="#000000">...</text>
<polygon fill="#ffffff" stroke="transparent" points="256.5,-85.9308 256.5,-104.9308 334.5,-104.9308 334.5,-85.9308 256.5,-85.9308"/>
<polygon fill="none" stroke="#000000" points="256.5,-85.9308 256.5,-104.9308 334.5,-104.9308 334.5,-85.9308 256.5,-85.9308"/>
<text text-anchor="start" x="259.5" y="-92.0308" font-family="Helvetica,sans-Serif" font-size="11.00" fill="#000000">&lt; 2</text>
<polygon fill="#ffffff" stroke="transparent" points="334.5,-85.9308 334.5,-104.9308 401.5,-104.9308 401.5,-85.9308 334.5,-85.9308"/>
<polygon fill="none" stroke="#000000" points="334.5,-85.9308 334.5,-104.9308 401.5,-104.9308 401.5,-85.9308 334.5,-85.9308"/>
<text text-anchor="start" x="366.1105" y="-92.0308" font-family="Helvetica,sans-Serif" font-size="11.00" fill="#000000">0 rows</text>
<polygon fill="#ffffff" stroke="transparent" points="401.5,-85.9308 401.5,-104.9308 457.5,-104.9308 457.5,-85.9308 401.5,-85.9308"/>
<polygon fill="none" stroke="#000000" points="401.5,-85.9308 401.5,-104.9308 457.5,-104.9308 457.5,-85.9308 401.5,-85.9308"/>
<text text-anchor="start" x="432.7904" y="-92.0308" font-family="Helvetica,sans-Serif" font-size="11.00" fill="#000000">35 &gt;</text>
</a>
</g>
</g>
<!-- PTOBS_geology&#45;&gt;PTOBS_id -->
<g id="edge5" class="edge">
<title>PTOBS_geology:w&#45;&gt;PTOBS_id:e</title>
<path fill="none" stroke="#000000" d="M494.6568,-171.543C480.8325,-160.9662 480.6756,-134.9308 457.5,-134.9308"/>
<polygon fill="#000000" stroke="#000000" points="500.8739,-173.5136 507.4123,-179.3625 504.6869,-174.7222 508.5,-175.9308 508.5,-175.9308 508.5,-175.9308 504.6869,-174.7222 509.5877,-172.499 500.8739,-173.5136 500.8739,-173.5136"/>
<ellipse fill="none" stroke="#000000" cx="497.8235" cy="-172.5467" rx="3.2" ry="3.2"/>
</g>
<!-- PTOBS_id&#45;&gt;METADATA_datasets -->
<g id="edge6" class="edge">
<title>PTOBS_id:w&#45;&gt;METADATA_datasets:e</title>
<path fill="none" stroke="#000000" d="M242.0809,-200.9308C223.2359,-200.9308 213.8108,-200.9308 189.5,-200.9308"/>
<polygon fill="#000000" stroke="#000000" points="248.5,-200.9308 256.5,-204.5308 252.5,-200.9308 256.5,-200.9308 256.5,-200.9308 256.5,-200.9308 252.5,-200.9308 256.5,-197.3308 248.5,-200.9308 248.5,-200.9308"/>
<ellipse fill="none" stroke="#000000" cx="245.3" cy="-200.9308" rx="3.2" ry="3.2"/>
</g>
<!-- PTOBS_id&#45;&gt;METADATA_events -->
<g id="edge7" class="edge">
<title>PTOBS_id:w&#45;&gt;METADATA_events:e</title>
<path fill="none" stroke="#000000" d="M242.198,-181.7534C198.4698,-202.761 273.9636,-333.9308 207.5,-333.9308"/>
<polygon fill="#000000" stroke="#000000" points="248.6514,-180.4798 257.1971,-182.4626 252.5757,-179.7053 256.5,-178.9308 256.5,-178.9308 256.5,-178.9308 252.5757,-179.7053 255.8029,-175.3989 248.6514,-180.4798 248.6514,-180.4798"/>
<ellipse fill="none" stroke="#000000" cx="245.512" cy="-181.0994" rx="3.2" ry="3.2"/>
</g>
</g>
</svg>
