<?xml version="1.0" encoding="UTF-8" standalone="no"?>
<!DOCTYPE svg PUBLIC "-//W3C//DTD SVG 1.1//EN"
 "http://www.w3.org/Graphics/SVG/1.1/DTD/svg11.dtd">
<!-- Generated by graphviz version 2.40.1 (20161225.0304)
 -->
<!-- Title: oneDegreeRelationshipsDiagram Pages: 1 -->
<svg width="819pt" height="301pt"
 viewBox="0.00 0.00 819.00 300.89" xmlns="http://www.w3.org/2000/svg" xmlns:xlink="http://www.w3.org/1999/xlink">
<g id="graph0" class="graph" transform="scale(1 1) rotate(0) translate(4 296.8868)">
<title>oneDegreeRelationshipsDiagram</title>
<polygon fill="#ffffff" stroke="transparent" points="-4,4 -4,-296.8868 815,-296.8868 815,4 -4,4"/>
<text text-anchor="middle" x="72.4936" y="-7.3" font-family="Helvetica,sans-Serif" font-size="11.00" fill="#000000">Generated by SchemaSpy</text>
<!-- PTOBS_id -->
<g id="node1" class="node">
<title>PTOBS_id</title>
<g id="a_node1"><a xlink:href="../../tables/PTOBS_id.html" xlink:title="PTOBS_id" target="_top">
<polygon fill="#ffffff" stroke="transparent" points="256,-109.7 256,-258.7 457,-258.7 457,-109.7 256,-109.7"/>
<polygon fill="#f5f5f5" stroke="transparent" points="256.5,-235.2 256.5,-258.2 457.5,-258.2 457.5,-235.2 256.5,-235.2"/>
<polygon fill="none" stroke="#000000" points="256.5,-235.2 256.5,-258.2 457.5,-258.2 457.5,-235.2 256.5,-235.2"/>
<text text-anchor="start" x="261.5" y="-244.3" font-family="Helvetica,sans-Serif" font-weight="bold" font-size="11.00" fill="#000000">PTOBS_id</text>
<text text-anchor="start" x="422.5437" y="-243.3" font-family="Helvetica,sans-Serif" font-size="11.00" fill="#000000">[table]</text>
<polygon fill="none" stroke="#000000" points="256.5,-213.2 256.5,-235.2 457.5,-235.2 457.5,-213.2 256.5,-213.2"/>
<image xlink:href="../../images/primaryKeys.png" width="11px" height="12px" preserveAspectRatio="xMinYMin meet" x="261.5" y="-230.2"/>
<text text-anchor="start" x="276.5" y="-220.3" font-family="Helvetica,sans-Serif" font-size="11.00" fill="#000000">DS_ID</text>
<polygon fill="none" stroke="#000000" points="256.5,-191.2 256.5,-213.2 457.5,-213.2 457.5,-191.2 256.5,-191.2"/>
<image xlink:href="../../images/primaryKeys.png" width="11px" height="12px" preserveAspectRatio="xMinYMin meet" x="261.5" y="-208.2"/>
<text text-anchor="start" x="276.5" y="-198.3" font-family="Helvetica,sans-Serif" font-size="11.00" fill="#000000">EQ_ID</text>
<polygon fill="none" stroke="#000000" points="256.5,-169.2 256.5,-191.2 457.5,-191.2 457.5,-169.2 256.5,-169.2"/>
<image xlink:href="../../images/primaryKeys.png" width="11px" height="12px" preserveAspectRatio="xMinYMin meet" x="261.5" y="-186.2"/>
<text text-anchor="start" x="276.5" y="-176.3" font-family="Helvetica,sans-Serif" font-size="11.00" fill="#000000">MEAS_ID</text>
<polygon fill="none" stroke="#000000" points="256.5,-147.2 256.5,-169.2 457.5,-169.2 457.5,-147.2 256.5,-147.2"/>
<image xlink:href="../../images/primaryKeys.png" width="11px" height="12px" preserveAspectRatio="xMinYMin meet" x="261.5" y="-164.2"/>
<text text-anchor="start" x="276.5" y="-154.3" font-family="Helvetica,sans-Serif" font-size="11.00" fill="#000000">PT_ID</text>
<polygon fill="none" stroke="#000000" points="256.5,-128.2 256.5,-147.2 457.5,-147.2 457.5,-128.2 256.5,-128.2"/>
<text text-anchor="start" x="259.5" y="-134.3" font-family="Helvetica,sans-Serif" font-size="11.00" fill="#000000">...</text>
<polygon fill="#ffffff" stroke="transparent" points="256.5,-109.2 256.5,-128.2 334.5,-128.2 334.5,-109.2 256.5,-109.2"/>
<polygon fill="none" stroke="#000000" points="256.5,-109.2 256.5,-128.2 334.5,-128.2 334.5,-109.2 256.5,-109.2"/>
<text text-anchor="start" x="259.5" y="-115.3" font-family="Helvetica,sans-Serif" font-size="11.00" fill="#000000">&lt; 2</text>
<polygon fill="#ffffff" stroke="transparent" points="334.5,-109.2 334.5,-128.2 401.5,-128.2 401.5,-109.2 334.5,-109.2"/>
<polygon fill="none" stroke="#000000" points="334.5,-109.2 334.5,-128.2 401.5,-128.2 401.5,-109.2 334.5,-109.2"/>
<text text-anchor="start" x="366.1105" y="-115.3" font-family="Helvetica,sans-Serif" font-size="11.00" fill="#000000">0 rows</text>
<polygon fill="#ffffff" stroke="transparent" points="401.5,-109.2 401.5,-128.2 457.5,-128.2 457.5,-109.2 401.5,-109.2"/>
<polygon fill="none" stroke="#000000" points="401.5,-109.2 401.5,-128.2 457.5,-128.2 457.5,-109.2 401.5,-109.2"/>
<text text-anchor="start" x="432.7904" y="-115.3" font-family="Helvetica,sans-Serif" font-size="11.00" fill="#000000">35 &gt;</text>
</a>
</g>
</g>
<!-- METADATA_datasets -->
<g id="node2" class="node">
<title>METADATA_datasets</title>
<g id="a_node2"><a xlink:href="../../tables/METADATA_datasets.html" xlink:title="METADATA_datasets" target="_top">
<polygon fill="#ffffff" stroke="transparent" points="26,-204.7 26,-287.7 189,-287.7 189,-204.7 26,-204.7"/>
<polygon fill="#f5f5f5" stroke="transparent" points="26.5,-264.2 26.5,-287.2 189.5,-287.2 189.5,-264.2 26.5,-264.2"/>
<polygon fill="none" stroke="#000000" points="26.5,-264.2 26.5,-287.2 189.5,-287.2 189.5,-264.2 26.5,-264.2"/>
<text text-anchor="start" x="31.5" y="-273.3" font-family="Helvetica,sans-Serif" font-weight="bold" font-size="11.00" fill="#000000">METADATA_datasets</text>
<text text-anchor="start" x="154.5437" y="-272.3" font-family="Helvetica,sans-Serif" font-size="11.00" fill="#000000">[table]</text>
<polygon fill="none" stroke="#000000" points="26.5,-242.2 26.5,-264.2 189.5,-264.2 189.5,-242.2 26.5,-242.2"/>
<image xlink:href="../../images/primaryKeys.png" width="11px" height="12px" preserveAspectRatio="xMinYMin meet" x="31.5" y="-259.2"/>
<text text-anchor="start" x="46.5" y="-249.3" font-family="Helvetica,sans-Serif" font-size="11.00" fill="#000000">DS_ID</text>
<polygon fill="none" stroke="#000000" points="26.5,-223.2 26.5,-242.2 189.5,-242.2 189.5,-223.2 26.5,-223.2"/>
<text text-anchor="start" x="29.5" y="-229.3" font-family="Helvetica,sans-Serif" font-size="11.00" fill="#000000">...</text>
<polygon fill="#ffffff" stroke="transparent" points="26.5,-204.2 26.5,-223.2 81.5,-223.2 81.5,-204.2 26.5,-204.2"/>
<polygon fill="none" stroke="#000000" points="26.5,-204.2 26.5,-223.2 81.5,-223.2 81.5,-204.2 26.5,-204.2"/>
<text text-anchor="start" x="29.5" y="-210.3" font-family="Helvetica,sans-Serif" font-size="11.00" fill="#000000"> &#160;</text>
<polygon fill="#ffffff" stroke="transparent" points="81.5,-204.2 81.5,-223.2 140.5,-223.2 140.5,-204.2 81.5,-204.2"/>
<polygon fill="none" stroke="#000000" points="81.5,-204.2 81.5,-223.2 140.5,-223.2 140.5,-204.2 81.5,-204.2"/>
<text text-anchor="start" x="105.1105" y="-210.3" font-family="Helvetica,sans-Serif" font-size="11.00" fill="#000000">0 rows</text>
<polygon fill="#ffffff" stroke="transparent" points="140.5,-204.2 140.5,-223.2 189.5,-223.2 189.5,-204.2 140.5,-204.2"/>
<polygon fill="none" stroke="#000000" points="140.5,-204.2 140.5,-223.2 189.5,-223.2 189.5,-204.2 140.5,-204.2"/>
<text text-anchor="start" x="164.7904" y="-210.3" font-family="Helvetica,sans-Serif" font-size="11.00" fill="#000000">35 &gt;</text>
</a>
</g>
</g>
<!-- PTOBS_id&#45;&gt;METADATA_datasets -->
<g id="edge1" class="edge">
<title>PTOBS_id:w&#45;&gt;METADATA_datasets:e</title>
<path fill="none" stroke="#000000" d="M242.1502,-226.4756C222.4326,-233.3121 216.3706,-253.2 189.5,-253.2"/>
<polygon fill="#000000" stroke="#000000" points="248.5987,-225.453 257.0639,-227.7556 252.5494,-224.8265 256.5,-224.2 256.5,-224.2 256.5,-224.2 252.5494,-224.8265 255.9361,-220.6444 248.5987,-225.453 248.5987,-225.453"/>
<ellipse fill="none" stroke="#000000" cx="245.4382" cy="-225.9542" rx="3.2" ry="3.2"/>
</g>
<!-- METADATA_events -->
<g id="node3" class="node">
<title>METADATA_events</title>
<g id="a_node3"><a xlink:href="../../tables/METADATA_events.html" xlink:title="METADATA_events" target="_top">
<polygon fill="#ffffff" stroke="transparent" points="8,-68.7 8,-151.7 207,-151.7 207,-68.7 8,-68.7"/>
<polygon fill="#f5f5f5" stroke="transparent" points="8.5,-128.2 8.5,-151.2 207.5,-151.2 207.5,-128.2 8.5,-128.2"/>
<polygon fill="none" stroke="#000000" points="8.5,-128.2 8.5,-151.2 207.5,-151.2 207.5,-128.2 8.5,-128.2"/>
<text text-anchor="start" x="13.5" y="-137.3" font-family="Helvetica,sans-Serif" font-weight="bold" font-size="11.00" fill="#000000">METADATA_events</text>
<text text-anchor="start" x="172.5437" y="-136.3" font-family="Helvetica,sans-Serif" font-size="11.00" fill="#000000">[table]</text>
<polygon fill="none" stroke="#000000" points="8.5,-106.2 8.5,-128.2 207.5,-128.2 207.5,-106.2 8.5,-106.2"/>
<image xlink:href="../../images/primaryKeys.png" width="11px" height="12px" preserveAspectRatio="xMinYMin meet" x="13.5" y="-123.2"/>
<text text-anchor="start" x="28.5" y="-113.3" font-family="Helvetica,sans-Serif" font-size="11.00" fill="#000000">EQ_ID</text>
<polygon fill="none" stroke="#000000" points="8.5,-87.2 8.5,-106.2 207.5,-106.2 207.5,-87.2 8.5,-87.2"/>
<text text-anchor="start" x="11.5" y="-93.3" font-family="Helvetica,sans-Serif" font-size="11.00" fill="#000000">...</text>
<polygon fill="#ffffff" stroke="transparent" points="8.5,-68.2 8.5,-87.2 81.5,-87.2 81.5,-68.2 8.5,-68.2"/>
<polygon fill="none" stroke="#000000" points="8.5,-68.2 8.5,-87.2 81.5,-87.2 81.5,-68.2 8.5,-68.2"/>
<text text-anchor="start" x="11.5" y="-74.3" font-family="Helvetica,sans-Serif" font-size="11.00" fill="#000000"> &#160;</text>
<polygon fill="#ffffff" stroke="transparent" points="81.5,-68.2 81.5,-87.2 149.5,-87.2 149.5,-68.2 81.5,-68.2"/>
<polygon fill="none" stroke="#000000" points="81.5,-68.2 81.5,-87.2 149.5,-87.2 149.5,-68.2 81.5,-68.2"/>
<text text-anchor="start" x="114.1105" y="-74.3" font-family="Helvetica,sans-Serif" font-size="11.00" fill="#000000">0 rows</text>
<polygon fill="#ffffff" stroke="transparent" points="149.5,-68.2 149.5,-87.2 207.5,-87.2 207.5,-68.2 149.5,-68.2"/>
<polygon fill="none" stroke="#000000" points="149.5,-68.2 149.5,-87.2 207.5,-87.2 207.5,-68.2 149.5,-68.2"/>
<text text-anchor="start" x="182.7904" y="-74.3" font-family="Helvetica,sans-Serif" font-size="11.00" fill="#000000">34 &gt;</text>
</a>
</g>
</g>
<!-- PTOBS_id&#45;&gt;METADATA_events -->
<g id="edge2" class="edge">
<title>PTOBS_id:w&#45;&gt;METADATA_events:e</title>
<path fill="none" stroke="#000000" d="M242.5028,-197.63C222.0234,-179.9747 244.9734,-117.2 207.5,-117.2"/>
<polygon fill="#000000" stroke="#000000" points="248.8951,-199.717 255.3827,-205.6222 252.6975,-200.9585 256.5,-202.2 256.5,-202.2 256.5,-202.2 252.6975,-200.9585 257.6173,-198.7778 248.8951,-199.717 248.8951,-199.717"/>
<ellipse fill="none" stroke="#000000" cx="245.8531" cy="-198.7238" rx="3.2" ry="3.2"/>
</g>
<!-- PTOBS_location -->
<g id="node4" class="node">
<title>PTOBS_location</title>
<g id="a_node4"><a xlink:href="../../tables/PTOBS_location.html" xlink:title="PTOBS_location" target="_top">
<polygon fill="#ffffff" stroke="transparent" points="506,-38.2 506,-238.2 803,-238.2 803,-38.2 506,-38.2"/>
<polygon fill="#f5f5f5" stroke="transparent" points="508.5,-213.2 508.5,-236.2 801.5,-236.2 801.5,-213.2 508.5,-213.2"/>
<polygon fill="none" stroke="#000000" points="508.5,-213.2 508.5,-236.2 801.5,-236.2 801.5,-213.2 508.5,-213.2"/>
<text text-anchor="start" x="513.5" y="-222.3" font-family="Helvetica,sans-Serif" font-weight="bold" font-size="11.00" fill="#000000">PTOBS_location</text>
<text text-anchor="start" x="766.5437" y="-221.3" font-family="Helvetica,sans-Serif" font-size="11.00" fill="#000000">[table]</text>
<polygon fill="none" stroke="#000000" points="508.5,-191.2 508.5,-213.2 671.5,-213.2 671.5,-191.2 508.5,-191.2"/>
<image xlink:href="../../images/primaryKeys.png" width="11px" height="12px" preserveAspectRatio="xMinYMin meet" x="513.5" y="-208.2"/>
<text text-anchor="start" x="528.5" y="-198.3" font-family="Helvetica,sans-Serif" font-size="11.00" fill="#000000">DS_ID</text>
<polygon fill="none" stroke="#000000" points="671.5,-191.2 671.5,-213.2 801.5,-213.2 801.5,-191.2 671.5,-191.2"/>
<text text-anchor="start" x="674.5" y="-198.9" font-family="Helvetica,sans-Serif" font-size="11.00" fill="#000000">integer[2000000000,10]</text>
<polygon fill="none" stroke="#000000" points="508.5,-169.2 508.5,-191.2 671.5,-191.2 671.5,-169.2 508.5,-169.2"/>
<text text-anchor="start" x="528.5" y="-176.3" font-family="Helvetica,sans-Serif" font-size="11.00" fill="#000000">row_entry_source_file</text>
<polygon fill="none" stroke="#000000" points="671.5,-169.2 671.5,-191.2 801.5,-191.2 801.5,-169.2 671.5,-169.2"/>
<text text-anchor="start" x="674.5" y="-176.9" font-family="Helvetica,sans-Serif" font-size="11.00" fill="#000000">text[2000000000,10]</text>
<polygon fill="none" stroke="#000000" points="508.5,-147.2 508.5,-169.2 671.5,-169.2 671.5,-147.2 508.5,-147.2"/>
<image xlink:href="../../images/primaryKeys.png" width="11px" height="12px" preserveAspectRatio="xMinYMin meet" x="513.5" y="-164.2"/>
<text text-anchor="start" x="528.5" y="-154.3" font-family="Helvetica,sans-Serif" font-size="11.00" fill="#000000">PT_ID</text>
<polygon fill="none" stroke="#000000" points="671.5,-147.2 671.5,-169.2 801.5,-169.2 801.5,-147.2 671.5,-147.2"/>
<text text-anchor="start" x="674.5" y="-154.9" font-family="Helvetica,sans-Serif" font-size="11.00" fill="#000000">integer[2000000000,10]</text>
<polygon fill="none" stroke="#000000" points="508.5,-125.2 508.5,-147.2 671.5,-147.2 671.5,-125.2 508.5,-125.2"/>
<text text-anchor="start" x="528.5" y="-132.3" font-family="Helvetica,sans-Serif" font-size="11.00" fill="#000000">latitude_degrees</text>
<polygon fill="none" stroke="#000000" points="671.5,-125.2 671.5,-147.2 801.5,-147.2 801.5,-125.2 671.5,-125.2"/>
<text text-anchor="start" x="674.5" y="-132.9" font-family="Helvetica,sans-Serif" font-size="11.00" fill="#000000">float[2000000000,10]</text>
<polygon fill="none" stroke="#000000" points="508.5,-103.2 508.5,-125.2 671.5,-125.2 671.5,-103.2 508.5,-103.2"/>
<image xlink:href="../../images/primaryKeys.png" width="11px" height="12px" preserveAspectRatio="xMinYMin meet" x="513.5" y="-120.2"/>
<text text-anchor="start" x="528.5" y="-110.3" font-family="Helvetica,sans-Serif" font-size="11.00" fill="#000000">EQ_ID</text>
<polygon fill="none" stroke="#000000" points="671.5,-103.2 671.5,-125.2 801.5,-125.2 801.5,-103.2 671.5,-103.2"/>
<text text-anchor="start" x="674.5" y="-110.9" font-family="Helvetica,sans-Serif" font-size="11.00" fill="#000000">integer[2000000000,10]</text>
<polygon fill="none" stroke="#000000" points="508.5,-81.2 508.5,-103.2 671.5,-103.2 671.5,-81.2 508.5,-81.2"/>
<text text-anchor="start" x="528.5" y="-88.3" font-family="Helvetica,sans-Serif" font-size="11.00" fill="#000000">row_entry_date_updated</text>
<polygon fill="none" stroke="#000000" points="671.5,-81.2 671.5,-103.2 801.5,-103.2 801.5,-81.2 671.5,-81.2"/>
<text text-anchor="start" x="674.1372" y="-88.9" font-family="Helvetica,sans-Serif" font-size="11.00" fill="#000000">datetime[2000000000,10]</text>
<polygon fill="none" stroke="#000000" points="508.5,-59.2 508.5,-81.2 671.5,-81.2 671.5,-59.2 508.5,-59.2"/>
<text text-anchor="start" x="528.5" y="-66.3" font-family="Helvetica,sans-Serif" font-size="11.00" fill="#000000">longitude_degrees</text>
<polygon fill="none" stroke="#000000" points="671.5,-59.2 671.5,-81.2 801.5,-81.2 801.5,-59.2 671.5,-59.2"/>
<text text-anchor="start" x="674.5" y="-66.9" font-family="Helvetica,sans-Serif" font-size="11.00" fill="#000000">float[2000000000,10]</text>
<polygon fill="#ffffff" stroke="transparent" points="508.5,-40.2 508.5,-59.2 581.5,-59.2 581.5,-40.2 508.5,-40.2"/>
<polygon fill="none" stroke="#000000" points="508.5,-40.2 508.5,-59.2 581.5,-59.2 581.5,-40.2 508.5,-40.2"/>
<text text-anchor="start" x="511.5" y="-46.3" font-family="Helvetica,sans-Serif" font-size="11.00" fill="#000000">&lt; 3</text>
<polygon fill="#ffffff" stroke="transparent" points="581.5,-40.2 581.5,-59.2 671.5,-59.2 671.5,-40.2 581.5,-40.2"/>
<polygon fill="none" stroke="#000000" points="581.5,-40.2 581.5,-59.2 671.5,-59.2 671.5,-40.2 581.5,-40.2"/>
<text text-anchor="start" x="636.1105" y="-46.3" font-family="Helvetica,sans-Serif" font-size="11.00" fill="#000000">0 rows</text>
<polygon fill="#ffffff" stroke="transparent" points="671.5,-40.2 671.5,-59.2 801.5,-59.2 801.5,-40.2 671.5,-40.2"/>
<polygon fill="none" stroke="#000000" points="671.5,-40.2 671.5,-59.2 801.5,-59.2 801.5,-40.2 671.5,-40.2"/>
<text text-anchor="start" x="782.9053" y="-46.3" font-family="Helvetica,sans-Serif" font-size="11.00" fill="#000000">0 &gt;</text>
<polygon fill="none" stroke="#000000" stroke-width="2" points="507,-39.2 507,-237.2 802,-237.2 802,-39.2 507,-39.2"/>
</a>
</g>
</g>
<!-- PTOBS_location&#45;&gt;PTOBS_id -->
<g id="edge5" class="edge">
<title>PTOBS_location:w&#45;&gt;PTOBS_id:e</title>
<path fill="none" stroke="#000000" d="M493.776,-158.2C481.7815,-158.2 474.3229,-158.2 457.5,-158.2"/>
<polygon fill="#000000" stroke="#000000" points="500.5,-158.2001 508.5,-161.8 504.5,-158.2 508.5,-158.2 508.5,-158.2 508.5,-158.2 504.5,-158.2 508.5,-154.6 500.5,-158.2001 500.5,-158.2001"/>
<ellipse fill="none" stroke="#000000" cx="497.3" cy="-158.2001" rx="3.2" ry="3.2"/>
</g>
<!-- PTOBS_location&#45;&gt;METADATA_datasets -->
<g id="edge3" class="edge">
<title>PTOBS_location:w&#45;&gt;METADATA_datasets:e</title>
<path fill="none" stroke="#000000" d="M494.3917,-206.5662C479.5788,-219.1202 490.5938,-255.3019 465,-269.2 380.2455,-315.2239 343.5865,-282.0359 248,-269.2 221.2849,-265.6125 216.4549,-253.2 189.5,-253.2"/>
<polygon fill="#000000" stroke="#000000" points="500.8576,-204.5652 509.5643,-205.6391 504.6788,-203.3826 508.5,-202.2 508.5,-202.2 508.5,-202.2 504.6788,-203.3826 507.4357,-198.7609 500.8576,-204.5652 500.8576,-204.5652"/>
<ellipse fill="none" stroke="#000000" cx="497.8006" cy="-205.5112" rx="3.2" ry="3.2"/>
</g>
<!-- PTOBS_location&#45;&gt;METADATA_events -->
<g id="edge4" class="edge">
<title>PTOBS_location:w&#45;&gt;METADATA_events:e</title>
<path fill="none" stroke="#000000" d="M494.0198,-111.6472C484.8156,-108.0268 479.1815,-101.5764 465,-99.2 369.8818,-83.2608 342.3435,-79.179 248,-99.2 228.7314,-103.2891 227.1977,-117.2 207.5,-117.2"/>
<polygon fill="#000000" stroke="#000000" points="500.6215,-112.811 507.875,-117.7453 504.5607,-113.5055 508.5,-114.2 508.5,-114.2 508.5,-114.2 504.5607,-113.5055 509.125,-110.6547 500.6215,-112.811 500.6215,-112.811"/>
<ellipse fill="none" stroke="#000000" cx="497.4701" cy="-112.2554" rx="3.2" ry="3.2"/>
</g>
</g>
</svg>
