<?xml version="1.0" encoding="UTF-8" standalone="no"?>
<!DOCTYPE svg PUBLIC "-//W3C//DTD SVG 1.1//EN"
 "http://www.w3.org/Graphics/SVG/1.1/DTD/svg11.dtd">
<!-- Generated by graphviz version 2.40.1 (20161225.0304)
 -->
<!-- Title: oneDegreeRelationshipsDiagram Pages: 1 -->
<svg width="781pt" height="287pt"
 viewBox="0.00 0.00 781.00 286.70" xmlns="http://www.w3.org/2000/svg" xmlns:xlink="http://www.w3.org/1999/xlink">
<g id="graph0" class="graph" transform="scale(1 1) rotate(0) translate(4 282.7)">
<title>oneDegreeRelationshipsDiagram</title>
<polygon fill="#ffffff" stroke="transparent" points="-4,4 -4,-282.7 777,-282.7 777,4 -4,4"/>
<text text-anchor="middle" x="72.4936" y="-7.3" font-family="Helvetica,sans-Serif" font-size="11.00" fill="#000000">Generated by SchemaSpy</text>
<!-- RUPOBS_faultname -->
<g id="node1" class="node">
<title>RUPOBS_faultname</title>
<g id="a_node1"><a xlink:href="../../tables/RUPOBS_faultname.html" xlink:title="RUPOBS_faultname" target="_top">
<polygon fill="#ffffff" stroke="transparent" points="468,-96.7 468,-274.7 765,-274.7 765,-96.7 468,-96.7"/>
<polygon fill="#f5f5f5" stroke="transparent" points="470.5,-249.7 470.5,-272.7 763.5,-272.7 763.5,-249.7 470.5,-249.7"/>
<polygon fill="none" stroke="#000000" points="470.5,-249.7 470.5,-272.7 763.5,-272.7 763.5,-249.7 470.5,-249.7"/>
<text text-anchor="start" x="475.5" y="-258.8" font-family="Helvetica,sans-Serif" font-weight="bold" font-size="11.00" fill="#000000">RUPOBS_faultname</text>
<text text-anchor="start" x="728.5437" y="-257.8" font-family="Helvetica,sans-Serif" font-size="11.00" fill="#000000">[table]</text>
<polygon fill="none" stroke="#000000" points="470.5,-227.7 470.5,-249.7 633.5,-249.7 633.5,-227.7 470.5,-227.7"/>
<text text-anchor="start" x="490.5" y="-234.8" font-family="Helvetica,sans-Serif" font-size="11.00" fill="#000000">fault_name</text>
<polygon fill="none" stroke="#000000" points="633.5,-227.7 633.5,-249.7 763.5,-249.7 763.5,-227.7 633.5,-227.7"/>
<text text-anchor="start" x="636.5" y="-235.4" font-family="Helvetica,sans-Serif" font-size="11.00" fill="#000000">text[2000000000,10]</text>
<polygon fill="none" stroke="#000000" points="470.5,-205.7 470.5,-227.7 633.5,-227.7 633.5,-205.7 470.5,-205.7"/>
<image xlink:href="../../images/primaryKeys.png" width="11px" height="12px" preserveAspectRatio="xMinYMin meet" x="475.5" y="-222.7"/>
<text text-anchor="start" x="490.5" y="-212.8" font-family="Helvetica,sans-Serif" font-size="11.00" fill="#000000">DS_ID</text>
<polygon fill="none" stroke="#000000" points="633.5,-205.7 633.5,-227.7 763.5,-227.7 763.5,-205.7 633.5,-205.7"/>
<text text-anchor="start" x="636.5" y="-213.4" font-family="Helvetica,sans-Serif" font-size="11.00" fill="#000000">integer[2000000000,10]</text>
<polygon fill="none" stroke="#000000" points="470.5,-183.7 470.5,-205.7 633.5,-205.7 633.5,-183.7 470.5,-183.7"/>
<text text-anchor="start" x="490.5" y="-190.8" font-family="Helvetica,sans-Serif" font-size="11.00" fill="#000000">row_entry_source_file</text>
<polygon fill="none" stroke="#000000" points="633.5,-183.7 633.5,-205.7 763.5,-205.7 763.5,-183.7 633.5,-183.7"/>
<text text-anchor="start" x="636.5" y="-191.4" font-family="Helvetica,sans-Serif" font-size="11.00" fill="#000000">text[2000000000,10]</text>
<polygon fill="none" stroke="#000000" points="470.5,-161.7 470.5,-183.7 633.5,-183.7 633.5,-161.7 470.5,-161.7"/>
<text text-anchor="start" x="490.5" y="-168.8" font-family="Helvetica,sans-Serif" font-size="11.00" fill="#000000">row_entry_date_updated</text>
<polygon fill="none" stroke="#000000" points="633.5,-161.7 633.5,-183.7 763.5,-183.7 763.5,-161.7 633.5,-161.7"/>
<text text-anchor="start" x="636.1372" y="-169.4" font-family="Helvetica,sans-Serif" font-size="11.00" fill="#000000">datetime[2000000000,10]</text>
<polygon fill="none" stroke="#000000" points="470.5,-139.7 470.5,-161.7 633.5,-161.7 633.5,-139.7 470.5,-139.7"/>
<image xlink:href="../../images/primaryKeys.png" width="11px" height="12px" preserveAspectRatio="xMinYMin meet" x="475.5" y="-156.7"/>
<text text-anchor="start" x="490.5" y="-146.8" font-family="Helvetica,sans-Serif" font-size="11.00" fill="#000000">EQ_ID</text>
<polygon fill="none" stroke="#000000" points="633.5,-139.7 633.5,-161.7 763.5,-161.7 763.5,-139.7 633.5,-139.7"/>
<text text-anchor="start" x="636.5" y="-147.4" font-family="Helvetica,sans-Serif" font-size="11.00" fill="#000000">integer[2000000000,10]</text>
<polygon fill="none" stroke="#000000" points="470.5,-117.7 470.5,-139.7 633.5,-139.7 633.5,-117.7 470.5,-117.7"/>
<image xlink:href="../../images/primaryKeys.png" width="11px" height="12px" preserveAspectRatio="xMinYMin meet" x="475.5" y="-134.7"/>
<text text-anchor="start" x="490.5" y="-124.8" font-family="Helvetica,sans-Serif" font-size="11.00" fill="#000000">RUP_ID</text>
<polygon fill="none" stroke="#000000" points="633.5,-117.7 633.5,-139.7 763.5,-139.7 763.5,-117.7 633.5,-117.7"/>
<text text-anchor="start" x="636.5" y="-125.4" font-family="Helvetica,sans-Serif" font-size="11.00" fill="#000000">integer[2000000000,10]</text>
<polygon fill="#ffffff" stroke="transparent" points="470.5,-98.7 470.5,-117.7 543.5,-117.7 543.5,-98.7 470.5,-98.7"/>
<polygon fill="none" stroke="#000000" points="470.5,-98.7 470.5,-117.7 543.5,-117.7 543.5,-98.7 470.5,-98.7"/>
<text text-anchor="start" x="473.5" y="-104.8" font-family="Helvetica,sans-Serif" font-size="11.00" fill="#000000">&lt; 3</text>
<polygon fill="#ffffff" stroke="transparent" points="543.5,-98.7 543.5,-117.7 633.5,-117.7 633.5,-98.7 543.5,-98.7"/>
<polygon fill="none" stroke="#000000" points="543.5,-98.7 543.5,-117.7 633.5,-117.7 633.5,-98.7 543.5,-98.7"/>
<text text-anchor="start" x="598.1105" y="-104.8" font-family="Helvetica,sans-Serif" font-size="11.00" fill="#000000">0 rows</text>
<polygon fill="#ffffff" stroke="transparent" points="633.5,-98.7 633.5,-117.7 763.5,-117.7 763.5,-98.7 633.5,-98.7"/>
<polygon fill="none" stroke="#000000" points="633.5,-98.7 633.5,-117.7 763.5,-117.7 763.5,-98.7 633.5,-98.7"/>
<text text-anchor="start" x="744.9053" y="-104.8" font-family="Helvetica,sans-Serif" font-size="11.00" fill="#000000">0 &gt;</text>
<polygon fill="none" stroke="#000000" stroke-width="2" points="469,-97.7 469,-273.7 764,-273.7 764,-97.7 469,-97.7"/>
</a>
</g>
</g>
<!-- METADATA_datasets -->
<g id="node2" class="node">
<title>METADATA_datasets</title>
<g id="a_node2"><a xlink:href="../../tables/METADATA_datasets.html" xlink:title="METADATA_datasets" target="_top">
<polygon fill="#ffffff" stroke="transparent" points="26,-167.2 26,-250.2 189,-250.2 189,-167.2 26,-167.2"/>
<polygon fill="#f5f5f5" stroke="transparent" points="26.5,-226.7 26.5,-249.7 189.5,-249.7 189.5,-226.7 26.5,-226.7"/>
<polygon fill="none" stroke="#000000" points="26.5,-226.7 26.5,-249.7 189.5,-249.7 189.5,-226.7 26.5,-226.7"/>
<text text-anchor="start" x="31.5" y="-235.8" font-family="Helvetica,sans-Serif" font-weight="bold" font-size="11.00" fill="#000000">METADATA_datasets</text>
<text text-anchor="start" x="154.5437" y="-234.8" font-family="Helvetica,sans-Serif" font-size="11.00" fill="#000000">[table]</text>
<polygon fill="none" stroke="#000000" points="26.5,-204.7 26.5,-226.7 189.5,-226.7 189.5,-204.7 26.5,-204.7"/>
<image xlink:href="../../images/primaryKeys.png" width="11px" height="12px" preserveAspectRatio="xMinYMin meet" x="31.5" y="-221.7"/>
<text text-anchor="start" x="46.5" y="-211.8" font-family="Helvetica,sans-Serif" font-size="11.00" fill="#000000">DS_ID</text>
<polygon fill="none" stroke="#000000" points="26.5,-185.7 26.5,-204.7 189.5,-204.7 189.5,-185.7 26.5,-185.7"/>
<text text-anchor="start" x="29.5" y="-191.8" font-family="Helvetica,sans-Serif" font-size="11.00" fill="#000000">...</text>
<polygon fill="#ffffff" stroke="transparent" points="26.5,-166.7 26.5,-185.7 81.5,-185.7 81.5,-166.7 26.5,-166.7"/>
<polygon fill="none" stroke="#000000" points="26.5,-166.7 26.5,-185.7 81.5,-185.7 81.5,-166.7 26.5,-166.7"/>
<text text-anchor="start" x="29.5" y="-172.8" font-family="Helvetica,sans-Serif" font-size="11.00" fill="#000000"> &#160;</text>
<polygon fill="#ffffff" stroke="transparent" points="81.5,-166.7 81.5,-185.7 140.5,-185.7 140.5,-166.7 81.5,-166.7"/>
<polygon fill="none" stroke="#000000" points="81.5,-166.7 81.5,-185.7 140.5,-185.7 140.5,-166.7 81.5,-166.7"/>
<text text-anchor="start" x="105.1105" y="-172.8" font-family="Helvetica,sans-Serif" font-size="11.00" fill="#000000">0 rows</text>
<polygon fill="#ffffff" stroke="transparent" points="140.5,-166.7 140.5,-185.7 189.5,-185.7 189.5,-166.7 140.5,-166.7"/>
<polygon fill="none" stroke="#000000" points="140.5,-166.7 140.5,-185.7 189.5,-185.7 189.5,-166.7 140.5,-166.7"/>
<text text-anchor="start" x="164.7904" y="-172.8" font-family="Helvetica,sans-Serif" font-size="11.00" fill="#000000">35 &gt;</text>
</a>
</g>
</g>
<!-- RUPOBS_faultname&#45;&gt;METADATA_datasets -->
<g id="edge1" class="edge">
<title>RUPOBS_faultname:w&#45;&gt;METADATA_datasets:e</title>
<path fill="none" stroke="#000000" d="M455.9371,-216.6953C342.9601,-216.6215 309.3892,-215.7 189.5,-215.7"/>
<polygon fill="#000000" stroke="#000000" points="462.5,-216.6974 470.4988,-220.3 466.5,-216.6987 470.5,-216.7 470.5,-216.7 470.5,-216.7 466.5,-216.6987 470.5012,-213.1 462.5,-216.6974 462.5,-216.6974"/>
<ellipse fill="none" stroke="#000000" cx="459.3" cy="-216.6963" rx="3.2" ry="3.2"/>
</g>
<!-- METADATA_events -->
<g id="node3" class="node">
<title>METADATA_events</title>
<g id="a_node3"><a xlink:href="../../tables/METADATA_events.html" xlink:title="METADATA_events" target="_top">
<polygon fill="#ffffff" stroke="transparent" points="8,-62.2 8,-145.2 207,-145.2 207,-62.2 8,-62.2"/>
<polygon fill="#f5f5f5" stroke="transparent" points="8.5,-121.7 8.5,-144.7 207.5,-144.7 207.5,-121.7 8.5,-121.7"/>
<polygon fill="none" stroke="#000000" points="8.5,-121.7 8.5,-144.7 207.5,-144.7 207.5,-121.7 8.5,-121.7"/>
<text text-anchor="start" x="13.5" y="-130.8" font-family="Helvetica,sans-Serif" font-weight="bold" font-size="11.00" fill="#000000">METADATA_events</text>
<text text-anchor="start" x="172.5437" y="-129.8" font-family="Helvetica,sans-Serif" font-size="11.00" fill="#000000">[table]</text>
<polygon fill="none" stroke="#000000" points="8.5,-99.7 8.5,-121.7 207.5,-121.7 207.5,-99.7 8.5,-99.7"/>
<image xlink:href="../../images/primaryKeys.png" width="11px" height="12px" preserveAspectRatio="xMinYMin meet" x="13.5" y="-116.7"/>
<text text-anchor="start" x="28.5" y="-106.8" font-family="Helvetica,sans-Serif" font-size="11.00" fill="#000000">EQ_ID</text>
<polygon fill="none" stroke="#000000" points="8.5,-80.7 8.5,-99.7 207.5,-99.7 207.5,-80.7 8.5,-80.7"/>
<text text-anchor="start" x="11.5" y="-86.8" font-family="Helvetica,sans-Serif" font-size="11.00" fill="#000000">...</text>
<polygon fill="#ffffff" stroke="transparent" points="8.5,-61.7 8.5,-80.7 81.5,-80.7 81.5,-61.7 8.5,-61.7"/>
<polygon fill="none" stroke="#000000" points="8.5,-61.7 8.5,-80.7 81.5,-80.7 81.5,-61.7 8.5,-61.7"/>
<text text-anchor="start" x="11.5" y="-67.8" font-family="Helvetica,sans-Serif" font-size="11.00" fill="#000000"> &#160;</text>
<polygon fill="#ffffff" stroke="transparent" points="81.5,-61.7 81.5,-80.7 149.5,-80.7 149.5,-61.7 81.5,-61.7"/>
<polygon fill="none" stroke="#000000" points="81.5,-61.7 81.5,-80.7 149.5,-80.7 149.5,-61.7 81.5,-61.7"/>
<text text-anchor="start" x="114.1105" y="-67.8" font-family="Helvetica,sans-Serif" font-size="11.00" fill="#000000">0 rows</text>
<polygon fill="#ffffff" stroke="transparent" points="149.5,-61.7 149.5,-80.7 207.5,-80.7 207.5,-61.7 149.5,-61.7"/>
<polygon fill="none" stroke="#000000" points="149.5,-61.7 149.5,-80.7 207.5,-80.7 207.5,-61.7 149.5,-61.7"/>
<text text-anchor="start" x="182.7904" y="-67.8" font-family="Helvetica,sans-Serif" font-size="11.00" fill="#000000">34 &gt;</text>
</a>
</g>
</g>
<!-- RUPOBS_faultname&#45;&gt;METADATA_events -->
<g id="edge2" class="edge">
<title>RUPOBS_faultname:w&#45;&gt;METADATA_events:e</title>
<path fill="none" stroke="#000000" d="M456.3764,-154.3483C446.7525,-160.218 442.6535,-171.5223 427,-175.7 350.1349,-196.2144 317.556,-214.3142 248,-175.7 218.2406,-159.179 241.5377,-110.7 207.5,-110.7"/>
<polygon fill="#000000" stroke="#000000" points="462.7542,-152.7009 471.4004,-154.1856 466.6271,-151.7004 470.5,-150.7 470.5,-150.7 470.5,-150.7 466.6271,-151.7004 469.5996,-147.2144 462.7542,-152.7009 462.7542,-152.7009"/>
<ellipse fill="none" stroke="#000000" cx="459.6559" cy="-153.5012" rx="3.2" ry="3.2"/>
</g>
<!-- RUPOBS_id -->
<g id="node4" class="node">
<title>RUPOBS_id</title>
<g id="a_node4"><a xlink:href="../../tables/RUPOBS_id.html" xlink:title="RUPOBS_id" target="_top">
<polygon fill="#ffffff" stroke="transparent" points="256,-38.2 256,-165.2 419,-165.2 419,-38.2 256,-38.2"/>
<polygon fill="#f5f5f5" stroke="transparent" points="256.5,-141.7 256.5,-164.7 419.5,-164.7 419.5,-141.7 256.5,-141.7"/>
<polygon fill="none" stroke="#000000" points="256.5,-141.7 256.5,-164.7 419.5,-164.7 419.5,-141.7 256.5,-141.7"/>
<text text-anchor="start" x="261.5" y="-150.8" font-family="Helvetica,sans-Serif" font-weight="bold" font-size="11.00" fill="#000000">RUPOBS_id</text>
<text text-anchor="start" x="384.5437" y="-149.8" font-family="Helvetica,sans-Serif" font-size="11.00" fill="#000000">[table]</text>
<polygon fill="none" stroke="#000000" points="256.5,-119.7 256.5,-141.7 419.5,-141.7 419.5,-119.7 256.5,-119.7"/>
<image xlink:href="../../images/primaryKeys.png" width="11px" height="12px" preserveAspectRatio="xMinYMin meet" x="261.5" y="-136.7"/>
<text text-anchor="start" x="276.5" y="-126.8" font-family="Helvetica,sans-Serif" font-size="11.00" fill="#000000">DS_ID</text>
<polygon fill="none" stroke="#000000" points="256.5,-97.7 256.5,-119.7 419.5,-119.7 419.5,-97.7 256.5,-97.7"/>
<image xlink:href="../../images/primaryKeys.png" width="11px" height="12px" preserveAspectRatio="xMinYMin meet" x="261.5" y="-114.7"/>
<text text-anchor="start" x="276.5" y="-104.8" font-family="Helvetica,sans-Serif" font-size="11.00" fill="#000000">EQ_ID</text>
<polygon fill="none" stroke="#000000" points="256.5,-75.7 256.5,-97.7 419.5,-97.7 419.5,-75.7 256.5,-75.7"/>
<image xlink:href="../../images/primaryKeys.png" width="11px" height="12px" preserveAspectRatio="xMinYMin meet" x="261.5" y="-92.7"/>
<text text-anchor="start" x="276.5" y="-82.8" font-family="Helvetica,sans-Serif" font-size="11.00" fill="#000000">RUP_ID</text>
<polygon fill="none" stroke="#000000" points="256.5,-56.7 256.5,-75.7 419.5,-75.7 419.5,-56.7 256.5,-56.7"/>
<text text-anchor="start" x="259.5" y="-62.8" font-family="Helvetica,sans-Serif" font-size="11.00" fill="#000000">...</text>
<polygon fill="#ffffff" stroke="transparent" points="256.5,-37.7 256.5,-56.7 315.5,-56.7 315.5,-37.7 256.5,-37.7"/>
<polygon fill="none" stroke="#000000" points="256.5,-37.7 256.5,-56.7 315.5,-56.7 315.5,-37.7 256.5,-37.7"/>
<text text-anchor="start" x="259.5" y="-43.8" font-family="Helvetica,sans-Serif" font-size="11.00" fill="#000000">&lt; 2</text>
<polygon fill="#ffffff" stroke="transparent" points="315.5,-37.7 315.5,-56.7 372.5,-56.7 372.5,-37.7 315.5,-37.7"/>
<polygon fill="none" stroke="#000000" points="315.5,-37.7 315.5,-56.7 372.5,-56.7 372.5,-37.7 315.5,-37.7"/>
<text text-anchor="start" x="337.1105" y="-43.8" font-family="Helvetica,sans-Serif" font-size="11.00" fill="#000000">0 rows</text>
<polygon fill="#ffffff" stroke="transparent" points="372.5,-37.7 372.5,-56.7 419.5,-56.7 419.5,-37.7 372.5,-37.7"/>
<polygon fill="none" stroke="#000000" points="372.5,-37.7 372.5,-56.7 419.5,-56.7 419.5,-37.7 372.5,-37.7"/>
<text text-anchor="start" x="394.7904" y="-43.8" font-family="Helvetica,sans-Serif" font-size="11.00" fill="#000000">10 &gt;</text>
</a>
</g>
</g>
<!-- RUPOBS_faultname&#45;&gt;RUPOBS_id -->
<g id="edge3" class="edge">
<title>RUPOBS_faultname:w&#45;&gt;RUPOBS_id:e</title>
<path fill="none" stroke="#000000" d="M456.5759,-124.2053C442.7452,-113.3704 442.8991,-86.7 419.5,-86.7"/>
<polygon fill="#000000" stroke="#000000" points="462.8868,-126.2424 469.3941,-132.1259 466.6934,-127.4712 470.5,-128.7 470.5,-128.7 470.5,-128.7 466.6934,-127.4712 471.6059,-125.2741 462.8868,-126.2424 462.8868,-126.2424"/>
<ellipse fill="none" stroke="#000000" cx="459.8416" cy="-125.2594" rx="3.2" ry="3.2"/>
</g>
<!-- RUPOBS_id&#45;&gt;METADATA_datasets -->
<g id="edge4" class="edge">
<title>RUPOBS_id:w&#45;&gt;METADATA_datasets:e</title>
<path fill="none" stroke="#000000" d="M242.1515,-134.1374C214.3368,-150.0395 231.7778,-215.7 189.5,-215.7"/>
<polygon fill="#000000" stroke="#000000" points="248.7201,-132.5638 257.3387,-134.2009 252.6101,-131.6319 256.5,-130.7 256.5,-130.7 256.5,-130.7 252.6101,-131.6319 255.6613,-127.1991 248.7201,-132.5638 248.7201,-132.5638"/>
<ellipse fill="none" stroke="#000000" cx="245.6082" cy="-133.3093" rx="3.2" ry="3.2"/>
</g>
<!-- RUPOBS_id&#45;&gt;METADATA_events -->
<g id="edge5" class="edge">
<title>RUPOBS_id:w&#45;&gt;METADATA_events:e</title>
<path fill="none" stroke="#000000" d="M241.9859,-109.0484C230.6747,-109.6214 223.5064,-110.7 207.5,-110.7"/>
<polygon fill="#000000" stroke="#000000" points="248.5023,-108.892 256.5864,-112.299 252.5012,-108.796 256.5,-108.7 256.5,-108.7 256.5,-108.7 252.5012,-108.796 256.4136,-105.101 248.5023,-108.892 248.5023,-108.892"/>
<ellipse fill="none" stroke="#000000" cx="245.3032" cy="-108.9688" rx="3.2" ry="3.2"/>
</g>
</g>
</svg>
