<?xml version="1.0" encoding="UTF-8" standalone="no"?>
<!DOCTYPE svg PUBLIC "-//W3C//DTD SVG 1.1//EN"
 "http://www.w3.org/Graphics/SVG/1.1/DTD/svg11.dtd">
<!-- Generated by graphviz version 2.40.1 (20161225.0304)
 -->
<!-- Title: oneDegreeRelationshipsDiagram Pages: 1 -->
<svg width="993pt" height="426pt"
 viewBox="0.00 0.00 993.00 425.73" xmlns="http://www.w3.org/2000/svg" xmlns:xlink="http://www.w3.org/1999/xlink">
<g id="graph0" class="graph" transform="scale(1 1) rotate(0) translate(4 421.7291)">
<title>oneDegreeRelationshipsDiagram</title>
<polygon fill="#ffffff" stroke="transparent" points="-4,4 -4,-421.7291 989,-421.7291 989,4 -4,4"/>
<text text-anchor="middle" x="72.4936" y="-7.3" font-family="Helvetica,sans-Serif" font-size="11.00" fill="#000000">Generated by SchemaSpy</text>
<!-- METADATA_geology -->
<g id="node1" class="node">
<title>METADATA_geology</title>
<g id="a_node1"><a xlink:href="../../tables/METADATA_geology.html" xlink:title="METADATA_geology" target="_top">
<polygon fill="#ffffff" stroke="transparent" points="256,-60.7 256,-143.7 419,-143.7 419,-60.7 256,-60.7"/>
<polygon fill="#f5f5f5" stroke="transparent" points="256.5,-120.2 256.5,-143.2 419.5,-143.2 419.5,-120.2 256.5,-120.2"/>
<polygon fill="none" stroke="#000000" points="256.5,-120.2 256.5,-143.2 419.5,-143.2 419.5,-120.2 256.5,-120.2"/>
<text text-anchor="start" x="261.5" y="-129.3" font-family="Helvetica,sans-Serif" font-weight="bold" font-size="11.00" fill="#000000">METADATA_geology</text>
<text text-anchor="start" x="384.5437" y="-128.3" font-family="Helvetica,sans-Serif" font-size="11.00" fill="#000000">[table]</text>
<polygon fill="none" stroke="#000000" points="256.5,-98.2 256.5,-120.2 419.5,-120.2 419.5,-98.2 256.5,-98.2"/>
<image xlink:href="../../images/primaryKeys.png" width="11px" height="12px" preserveAspectRatio="xMinYMin meet" x="261.5" y="-115.2"/>
<text text-anchor="start" x="276.5" y="-105.3" font-family="Helvetica,sans-Serif" font-size="11.00" fill="#000000">DS_ID</text>
<polygon fill="none" stroke="#000000" points="256.5,-79.2 256.5,-98.2 419.5,-98.2 419.5,-79.2 256.5,-79.2"/>
<text text-anchor="start" x="259.5" y="-85.3" font-family="Helvetica,sans-Serif" font-size="11.00" fill="#000000">...</text>
<polygon fill="#ffffff" stroke="transparent" points="256.5,-60.2 256.5,-79.2 318.5,-79.2 318.5,-60.2 256.5,-60.2"/>
<polygon fill="none" stroke="#000000" points="256.5,-60.2 256.5,-79.2 318.5,-79.2 318.5,-60.2 256.5,-60.2"/>
<text text-anchor="start" x="259.5" y="-66.3" font-family="Helvetica,sans-Serif" font-size="11.00" fill="#000000">&lt; 1</text>
<polygon fill="#ffffff" stroke="transparent" points="318.5,-60.2 318.5,-79.2 377.5,-79.2 377.5,-60.2 318.5,-60.2"/>
<polygon fill="none" stroke="#000000" points="318.5,-60.2 318.5,-79.2 377.5,-79.2 377.5,-60.2 318.5,-60.2"/>
<text text-anchor="start" x="342.1105" y="-66.3" font-family="Helvetica,sans-Serif" font-size="11.00" fill="#000000">0 rows</text>
<polygon fill="#ffffff" stroke="transparent" points="377.5,-60.2 377.5,-79.2 419.5,-79.2 419.5,-60.2 377.5,-60.2"/>
<polygon fill="none" stroke="#000000" points="377.5,-60.2 377.5,-79.2 419.5,-79.2 419.5,-60.2 377.5,-60.2"/>
<text text-anchor="start" x="400.9053" y="-66.3" font-family="Helvetica,sans-Serif" font-size="11.00" fill="#000000">2 &gt;</text>
</a>
</g>
</g>
<!-- METADATA_datasets -->
<g id="node2" class="node">
<title>METADATA_datasets</title>
<g id="a_node2"><a xlink:href="../../tables/METADATA_datasets.html" xlink:title="METADATA_datasets" target="_top">
<polygon fill="#ffffff" stroke="transparent" points="26,-168.7 26,-251.7 189,-251.7 189,-168.7 26,-168.7"/>
<polygon fill="#f5f5f5" stroke="transparent" points="26.5,-228.2 26.5,-251.2 189.5,-251.2 189.5,-228.2 26.5,-228.2"/>
<polygon fill="none" stroke="#000000" points="26.5,-228.2 26.5,-251.2 189.5,-251.2 189.5,-228.2 26.5,-228.2"/>
<text text-anchor="start" x="31.5" y="-237.3" font-family="Helvetica,sans-Serif" font-weight="bold" font-size="11.00" fill="#000000">METADATA_datasets</text>
<text text-anchor="start" x="154.5437" y="-236.3" font-family="Helvetica,sans-Serif" font-size="11.00" fill="#000000">[table]</text>
<polygon fill="none" stroke="#000000" points="26.5,-206.2 26.5,-228.2 189.5,-228.2 189.5,-206.2 26.5,-206.2"/>
<image xlink:href="../../images/primaryKeys.png" width="11px" height="12px" preserveAspectRatio="xMinYMin meet" x="31.5" y="-223.2"/>
<text text-anchor="start" x="46.5" y="-213.3" font-family="Helvetica,sans-Serif" font-size="11.00" fill="#000000">DS_ID</text>
<polygon fill="none" stroke="#000000" points="26.5,-187.2 26.5,-206.2 189.5,-206.2 189.5,-187.2 26.5,-187.2"/>
<text text-anchor="start" x="29.5" y="-193.3" font-family="Helvetica,sans-Serif" font-size="11.00" fill="#000000">...</text>
<polygon fill="#ffffff" stroke="transparent" points="26.5,-168.2 26.5,-187.2 81.5,-187.2 81.5,-168.2 26.5,-168.2"/>
<polygon fill="none" stroke="#000000" points="26.5,-168.2 26.5,-187.2 81.5,-187.2 81.5,-168.2 26.5,-168.2"/>
<text text-anchor="start" x="29.5" y="-174.3" font-family="Helvetica,sans-Serif" font-size="11.00" fill="#000000"> &#160;</text>
<polygon fill="#ffffff" stroke="transparent" points="81.5,-168.2 81.5,-187.2 140.5,-187.2 140.5,-168.2 81.5,-168.2"/>
<polygon fill="none" stroke="#000000" points="81.5,-168.2 81.5,-187.2 140.5,-187.2 140.5,-168.2 81.5,-168.2"/>
<text text-anchor="start" x="105.1105" y="-174.3" font-family="Helvetica,sans-Serif" font-size="11.00" fill="#000000">0 rows</text>
<polygon fill="#ffffff" stroke="transparent" points="140.5,-168.2 140.5,-187.2 189.5,-187.2 189.5,-168.2 140.5,-168.2"/>
<polygon fill="none" stroke="#000000" points="140.5,-168.2 140.5,-187.2 189.5,-187.2 189.5,-168.2 140.5,-168.2"/>
<text text-anchor="start" x="164.7904" y="-174.3" font-family="Helvetica,sans-Serif" font-size="11.00" fill="#000000">35 &gt;</text>
</a>
</g>
</g>
<!-- METADATA_geology&#45;&gt;METADATA_datasets -->
<g id="edge1" class="edge">
<title>METADATA_geology:w&#45;&gt;METADATA_datasets:e</title>
<path fill="none" stroke="#000000" d="M246.0333,-110.7267C205.972,-123.8536 242.0147,-217.2 189.5,-217.2"/>
<polygon fill="#000000" stroke="#000000" points="255.131,-105.3574 256.2858,-113.2736 254.7025,-113.5045 253.5478,-105.5883 255.131,-105.3574"/>
<polyline fill="none" stroke="#000000" points="256.5,-109.2 252.5419,-109.7774 "/>
<ellipse fill="none" stroke="#000000" cx="249.3754" cy="-110.2393" rx="3.2" ry="3.2"/>
</g>
<!-- RUPOBS_geology -->
<g id="node3" class="node">
<title>RUPOBS_geology</title>
<g id="a_node3"><a xlink:href="../../tables/RUPOBS_geology.html" xlink:title="RUPOBS_geology" target="_top">
<polygon fill="#ffffff" stroke="transparent" points="680,-38.2 680,-304.2 977,-304.2 977,-38.2 680,-38.2"/>
<polygon fill="#f5f5f5" stroke="transparent" points="682.5,-279.2 682.5,-302.2 975.5,-302.2 975.5,-279.2 682.5,-279.2"/>
<polygon fill="none" stroke="#000000" points="682.5,-279.2 682.5,-302.2 975.5,-302.2 975.5,-279.2 682.5,-279.2"/>
<text text-anchor="start" x="687.5" y="-288.3" font-family="Helvetica,sans-Serif" font-weight="bold" font-size="11.00" fill="#000000">RUPOBS_geology</text>
<text text-anchor="start" x="940.5437" y="-287.3" font-family="Helvetica,sans-Serif" font-size="11.00" fill="#000000">[table]</text>
<polygon fill="none" stroke="#000000" points="682.5,-257.2 682.5,-279.2 845.5,-279.2 845.5,-257.2 682.5,-257.2"/>
<image xlink:href="../../images/primaryKeys.png" width="11px" height="12px" preserveAspectRatio="xMinYMin meet" x="687.5" y="-274.2"/>
<text text-anchor="start" x="702.5" y="-264.3" font-family="Helvetica,sans-Serif" font-size="11.00" fill="#000000">EQ_ID</text>
<polygon fill="none" stroke="#000000" points="845.5,-257.2 845.5,-279.2 975.5,-279.2 975.5,-257.2 845.5,-257.2"/>
<text text-anchor="start" x="848.5" y="-264.9" font-family="Helvetica,sans-Serif" font-size="11.00" fill="#000000">integer[2000000000,10]</text>
<polygon fill="none" stroke="#000000" points="682.5,-235.2 682.5,-257.2 845.5,-257.2 845.5,-235.2 682.5,-235.2"/>
<text text-anchor="start" x="702.5" y="-242.3" font-family="Helvetica,sans-Serif" font-size="11.00" fill="#000000">row_entry_date_updated</text>
<polygon fill="none" stroke="#000000" points="845.5,-235.2 845.5,-257.2 975.5,-257.2 975.5,-235.2 845.5,-235.2"/>
<text text-anchor="start" x="848.1372" y="-242.9" font-family="Helvetica,sans-Serif" font-size="11.00" fill="#000000">datetime[2000000000,10]</text>
<polygon fill="none" stroke="#000000" points="682.5,-213.2 682.5,-235.2 845.5,-235.2 845.5,-213.2 682.5,-213.2"/>
<image xlink:href="../../images/primaryKeys.png" width="11px" height="12px" preserveAspectRatio="xMinYMin meet" x="687.5" y="-230.2"/>
<text text-anchor="start" x="702.5" y="-220.3" font-family="Helvetica,sans-Serif" font-size="11.00" fill="#000000">NODE_ID</text>
<polygon fill="none" stroke="#000000" points="845.5,-213.2 845.5,-235.2 975.5,-235.2 975.5,-213.2 845.5,-213.2"/>
<text text-anchor="start" x="848.5" y="-220.9" font-family="Helvetica,sans-Serif" font-size="11.00" fill="#000000">integer[2000000000,10]</text>
<polygon fill="none" stroke="#000000" points="682.5,-191.2 682.5,-213.2 845.5,-213.2 845.5,-191.2 682.5,-191.2"/>
<image xlink:href="../../images/primaryKeys.png" width="11px" height="12px" preserveAspectRatio="xMinYMin meet" x="687.5" y="-208.2"/>
<text text-anchor="start" x="702.5" y="-198.3" font-family="Helvetica,sans-Serif" font-size="11.00" fill="#000000">RUP_DS_ID</text>
<polygon fill="none" stroke="#000000" points="845.5,-191.2 845.5,-213.2 975.5,-213.2 975.5,-191.2 845.5,-191.2"/>
<text text-anchor="start" x="848.5" y="-198.9" font-family="Helvetica,sans-Serif" font-size="11.00" fill="#000000">integer[2000000000,10]</text>
<polygon fill="none" stroke="#000000" points="682.5,-169.2 682.5,-191.2 845.5,-191.2 845.5,-169.2 682.5,-169.2"/>
<text text-anchor="start" x="702.5" y="-176.3" font-family="Helvetica,sans-Serif" font-size="11.00" fill="#000000">lithology</text>
<polygon fill="none" stroke="#000000" points="845.5,-169.2 845.5,-191.2 975.5,-191.2 975.5,-169.2 845.5,-169.2"/>
<text text-anchor="start" x="848.5" y="-176.9" font-family="Helvetica,sans-Serif" font-size="11.00" fill="#000000">text[2000000000,10]</text>
<polygon fill="none" stroke="#000000" points="682.5,-147.2 682.5,-169.2 845.5,-169.2 845.5,-147.2 682.5,-147.2"/>
<image xlink:href="../../images/primaryKeys.png" width="11px" height="12px" preserveAspectRatio="xMinYMin meet" x="687.5" y="-164.2"/>
<text text-anchor="start" x="702.5" y="-154.3" font-family="Helvetica,sans-Serif" font-size="11.00" fill="#000000">GEO_DS_ID</text>
<polygon fill="none" stroke="#000000" points="845.5,-147.2 845.5,-169.2 975.5,-169.2 975.5,-147.2 845.5,-147.2"/>
<text text-anchor="start" x="848.5" y="-154.9" font-family="Helvetica,sans-Serif" font-size="11.00" fill="#000000">integer[2000000000,10]</text>
<polygon fill="none" stroke="#000000" points="682.5,-125.2 682.5,-147.2 845.5,-147.2 845.5,-125.2 682.5,-125.2"/>
<text text-anchor="start" x="702.5" y="-132.3" font-family="Helvetica,sans-Serif" font-size="11.00" fill="#000000">geology</text>
<polygon fill="none" stroke="#000000" points="845.5,-125.2 845.5,-147.2 975.5,-147.2 975.5,-125.2 845.5,-125.2"/>
<text text-anchor="start" x="848.5" y="-132.9" font-family="Helvetica,sans-Serif" font-size="11.00" fill="#000000">text[2000000000,10]</text>
<polygon fill="none" stroke="#000000" points="682.5,-103.2 682.5,-125.2 845.5,-125.2 845.5,-103.2 682.5,-103.2"/>
<image xlink:href="../../images/primaryKeys.png" width="11px" height="12px" preserveAspectRatio="xMinYMin meet" x="687.5" y="-120.2"/>
<text text-anchor="start" x="702.5" y="-110.3" font-family="Helvetica,sans-Serif" font-size="11.00" fill="#000000">RUP_ID</text>
<polygon fill="none" stroke="#000000" points="845.5,-103.2 845.5,-125.2 975.5,-125.2 975.5,-103.2 845.5,-103.2"/>
<text text-anchor="start" x="848.5" y="-110.9" font-family="Helvetica,sans-Serif" font-size="11.00" fill="#000000">integer[2000000000,10]</text>
<polygon fill="none" stroke="#000000" points="682.5,-81.2 682.5,-103.2 845.5,-103.2 845.5,-81.2 682.5,-81.2"/>
<text text-anchor="start" x="702.5" y="-88.3" font-family="Helvetica,sans-Serif" font-size="11.00" fill="#000000">unit_age</text>
<polygon fill="none" stroke="#000000" points="845.5,-81.2 845.5,-103.2 975.5,-103.2 975.5,-81.2 845.5,-81.2"/>
<text text-anchor="start" x="848.5" y="-88.9" font-family="Helvetica,sans-Serif" font-size="11.00" fill="#000000">text[2000000000,10]</text>
<polygon fill="none" stroke="#000000" points="682.5,-59.2 682.5,-81.2 845.5,-81.2 845.5,-59.2 682.5,-59.2"/>
<text text-anchor="start" x="702.5" y="-66.3" font-family="Helvetica,sans-Serif" font-size="11.00" fill="#000000">row_entry_source_file</text>
<polygon fill="none" stroke="#000000" points="845.5,-59.2 845.5,-81.2 975.5,-81.2 975.5,-59.2 845.5,-59.2"/>
<text text-anchor="start" x="848.5" y="-66.9" font-family="Helvetica,sans-Serif" font-size="11.00" fill="#000000">text[2000000000,10]</text>
<polygon fill="#ffffff" stroke="transparent" points="682.5,-40.2 682.5,-59.2 755.5,-59.2 755.5,-40.2 682.5,-40.2"/>
<polygon fill="none" stroke="#000000" points="682.5,-40.2 682.5,-59.2 755.5,-59.2 755.5,-40.2 682.5,-40.2"/>
<text text-anchor="start" x="685.5" y="-46.3" font-family="Helvetica,sans-Serif" font-size="11.00" fill="#000000">&lt; 5</text>
<polygon fill="#ffffff" stroke="transparent" points="755.5,-40.2 755.5,-59.2 845.5,-59.2 845.5,-40.2 755.5,-40.2"/>
<polygon fill="none" stroke="#000000" points="755.5,-40.2 755.5,-59.2 845.5,-59.2 845.5,-40.2 755.5,-40.2"/>
<text text-anchor="start" x="810.1105" y="-46.3" font-family="Helvetica,sans-Serif" font-size="11.00" fill="#000000">0 rows</text>
<polygon fill="#ffffff" stroke="transparent" points="845.5,-40.2 845.5,-59.2 975.5,-59.2 975.5,-40.2 845.5,-40.2"/>
<polygon fill="none" stroke="#000000" points="845.5,-40.2 845.5,-59.2 975.5,-59.2 975.5,-40.2 845.5,-40.2"/>
<text text-anchor="start" x="956.9053" y="-46.3" font-family="Helvetica,sans-Serif" font-size="11.00" fill="#000000">0 &gt;</text>
<polygon fill="none" stroke="#000000" stroke-width="2" points="681,-39.2 681,-303.2 976,-303.2 976,-39.2 681,-39.2"/>
</a>
</g>
</g>
<!-- RUPOBS_geology&#45;&gt;METADATA_geology -->
<g id="edge3" class="edge">
<title>RUPOBS_geology:w&#45;&gt;METADATA_geology:e</title>
<path fill="none" stroke="#000000" d="M668.0032,-157.948C561.3181,-154.1712 533.4074,-109.2 419.5,-109.2"/>
<polygon fill="#000000" stroke="#000000" points="674.5012,-158.0609 682.4374,-161.7995 678.5006,-158.1305 682.5,-158.2 682.5,-158.2 682.5,-158.2 678.5006,-158.1305 682.5626,-154.6005 674.5012,-158.0609 674.5012,-158.0609"/>
<ellipse fill="none" stroke="#000000" cx="671.3017" cy="-158.0053" rx="3.2" ry="3.2"/>
</g>
<!-- RUPOBS_geology&#45;&gt;METADATA_datasets -->
<g id="edge5" class="edge">
<title>RUPOBS_geology:w&#45;&gt;METADATA_datasets:e</title>
<path fill="none" stroke="#000000" d="M668.0128,-201.6259C658.8417,-200.82 652.4524,-199.3261 639,-198.2 465.6829,-183.6921 415.6416,-135.8795 248,-182.2 218.7962,-190.2692 219.7981,-217.2 189.5,-217.2"/>
<polygon fill="#000000" stroke="#000000" points="674.5063,-201.8832 682.3574,-205.7972 678.5031,-202.0416 682.5,-202.2 682.5,-202.2 682.5,-202.2 678.5031,-202.0416 682.6426,-198.6028 674.5063,-201.8832 674.5063,-201.8832"/>
<ellipse fill="none" stroke="#000000" cx="671.3088" cy="-201.7564" rx="3.2" ry="3.2"/>
</g>
<!-- METADATA_events -->
<g id="node4" class="node">
<title>METADATA_events</title>
<g id="a_node4"><a xlink:href="../../tables/METADATA_events.html" xlink:title="METADATA_events" target="_top">
<polygon fill="#ffffff" stroke="transparent" points="8,-322.7 8,-405.7 207,-405.7 207,-322.7 8,-322.7"/>
<polygon fill="#f5f5f5" stroke="transparent" points="8.5,-382.2 8.5,-405.2 207.5,-405.2 207.5,-382.2 8.5,-382.2"/>
<polygon fill="none" stroke="#000000" points="8.5,-382.2 8.5,-405.2 207.5,-405.2 207.5,-382.2 8.5,-382.2"/>
<text text-anchor="start" x="13.5" y="-391.3" font-family="Helvetica,sans-Serif" font-weight="bold" font-size="11.00" fill="#000000">METADATA_events</text>
<text text-anchor="start" x="172.5437" y="-390.3" font-family="Helvetica,sans-Serif" font-size="11.00" fill="#000000">[table]</text>
<polygon fill="none" stroke="#000000" points="8.5,-360.2 8.5,-382.2 207.5,-382.2 207.5,-360.2 8.5,-360.2"/>
<image xlink:href="../../images/primaryKeys.png" width="11px" height="12px" preserveAspectRatio="xMinYMin meet" x="13.5" y="-377.2"/>
<text text-anchor="start" x="28.5" y="-367.3" font-family="Helvetica,sans-Serif" font-size="11.00" fill="#000000">EQ_ID</text>
<polygon fill="none" stroke="#000000" points="8.5,-341.2 8.5,-360.2 207.5,-360.2 207.5,-341.2 8.5,-341.2"/>
<text text-anchor="start" x="11.5" y="-347.3" font-family="Helvetica,sans-Serif" font-size="11.00" fill="#000000">...</text>
<polygon fill="#ffffff" stroke="transparent" points="8.5,-322.2 8.5,-341.2 81.5,-341.2 81.5,-322.2 8.5,-322.2"/>
<polygon fill="none" stroke="#000000" points="8.5,-322.2 8.5,-341.2 81.5,-341.2 81.5,-322.2 8.5,-322.2"/>
<text text-anchor="start" x="11.5" y="-328.3" font-family="Helvetica,sans-Serif" font-size="11.00" fill="#000000"> &#160;</text>
<polygon fill="#ffffff" stroke="transparent" points="81.5,-322.2 81.5,-341.2 149.5,-341.2 149.5,-322.2 81.5,-322.2"/>
<polygon fill="none" stroke="#000000" points="81.5,-322.2 81.5,-341.2 149.5,-341.2 149.5,-322.2 81.5,-322.2"/>
<text text-anchor="start" x="114.1105" y="-328.3" font-family="Helvetica,sans-Serif" font-size="11.00" fill="#000000">0 rows</text>
<polygon fill="#ffffff" stroke="transparent" points="149.5,-322.2 149.5,-341.2 207.5,-341.2 207.5,-322.2 149.5,-322.2"/>
<polygon fill="none" stroke="#000000" points="149.5,-322.2 149.5,-341.2 207.5,-341.2 207.5,-322.2 149.5,-322.2"/>
<text text-anchor="start" x="182.7904" y="-328.3" font-family="Helvetica,sans-Serif" font-size="11.00" fill="#000000">34 &gt;</text>
</a>
</g>
</g>
<!-- RUPOBS_geology&#45;&gt;METADATA_events -->
<g id="edge2" class="edge">
<title>RUPOBS_geology:w&#45;&gt;METADATA_events:e</title>
<path fill="none" stroke="#000000" d="M668.3545,-271.372C643.9385,-285.6383 673.9667,-344.2031 639,-368.2 495.6802,-466.5572 421.354,-389.9713 248,-377.2 229.8527,-375.8631 225.6965,-371.2 207.5,-371.2"/>
<polygon fill="#000000" stroke="#000000" points="674.6939,-269.9505 683.2877,-271.7128 678.5969,-269.0753 682.5,-268.2 682.5,-268.2 682.5,-268.2 678.5969,-269.0753 681.7123,-264.6872 674.6939,-269.9505 674.6939,-269.9505"/>
<ellipse fill="none" stroke="#000000" cx="671.5714" cy="-270.6507" rx="3.2" ry="3.2"/>
</g>
<!-- RUPOBS_location -->
<g id="node5" class="node">
<title>RUPOBS_location</title>
<g id="a_node5"><a xlink:href="../../tables/RUPOBS_location.html" xlink:title="RUPOBS_location" target="_top">
<polygon fill="#ffffff" stroke="transparent" points="468,-208.7 468,-357.7 631,-357.7 631,-208.7 468,-208.7"/>
<polygon fill="#f5f5f5" stroke="transparent" points="468.5,-334.2 468.5,-357.2 631.5,-357.2 631.5,-334.2 468.5,-334.2"/>
<polygon fill="none" stroke="#000000" points="468.5,-334.2 468.5,-357.2 631.5,-357.2 631.5,-334.2 468.5,-334.2"/>
<text text-anchor="start" x="473.5" y="-343.3" font-family="Helvetica,sans-Serif" font-weight="bold" font-size="11.00" fill="#000000">RUPOBS_location</text>
<text text-anchor="start" x="596.5437" y="-342.3" font-family="Helvetica,sans-Serif" font-size="11.00" fill="#000000">[table]</text>
<polygon fill="none" stroke="#000000" points="468.5,-312.2 468.5,-334.2 631.5,-334.2 631.5,-312.2 468.5,-312.2"/>
<image xlink:href="../../images/primaryKeys.png" width="11px" height="12px" preserveAspectRatio="xMinYMin meet" x="473.5" y="-329.2"/>
<text text-anchor="start" x="488.5" y="-319.3" font-family="Helvetica,sans-Serif" font-size="11.00" fill="#000000">NODE_ID</text>
<polygon fill="none" stroke="#000000" points="468.5,-290.2 468.5,-312.2 631.5,-312.2 631.5,-290.2 468.5,-290.2"/>
<image xlink:href="../../images/primaryKeys.png" width="11px" height="12px" preserveAspectRatio="xMinYMin meet" x="473.5" y="-307.2"/>
<text text-anchor="start" x="488.5" y="-297.3" font-family="Helvetica,sans-Serif" font-size="11.00" fill="#000000">EQ_ID</text>
<polygon fill="none" stroke="#000000" points="468.5,-268.2 468.5,-290.2 631.5,-290.2 631.5,-268.2 468.5,-268.2"/>
<image xlink:href="../../images/primaryKeys.png" width="11px" height="12px" preserveAspectRatio="xMinYMin meet" x="473.5" y="-285.2"/>
<text text-anchor="start" x="488.5" y="-275.3" font-family="Helvetica,sans-Serif" font-size="11.00" fill="#000000">DS_ID</text>
<polygon fill="none" stroke="#000000" points="468.5,-246.2 468.5,-268.2 631.5,-268.2 631.5,-246.2 468.5,-246.2"/>
<image xlink:href="../../images/primaryKeys.png" width="11px" height="12px" preserveAspectRatio="xMinYMin meet" x="473.5" y="-263.2"/>
<text text-anchor="start" x="488.5" y="-253.3" font-family="Helvetica,sans-Serif" font-size="11.00" fill="#000000">RUP_ID</text>
<polygon fill="none" stroke="#000000" points="468.5,-227.2 468.5,-246.2 631.5,-246.2 631.5,-227.2 468.5,-227.2"/>
<text text-anchor="start" x="471.5" y="-233.3" font-family="Helvetica,sans-Serif" font-size="11.00" fill="#000000">...</text>
<polygon fill="#ffffff" stroke="transparent" points="468.5,-208.2 468.5,-227.2 530.5,-227.2 530.5,-208.2 468.5,-208.2"/>
<polygon fill="none" stroke="#000000" points="468.5,-208.2 468.5,-227.2 530.5,-227.2 530.5,-208.2 468.5,-208.2"/>
<text text-anchor="start" x="471.5" y="-214.3" font-family="Helvetica,sans-Serif" font-size="11.00" fill="#000000">&lt; 3</text>
<polygon fill="#ffffff" stroke="transparent" points="530.5,-208.2 530.5,-227.2 589.5,-227.2 589.5,-208.2 530.5,-208.2"/>
<polygon fill="none" stroke="#000000" points="530.5,-208.2 530.5,-227.2 589.5,-227.2 589.5,-208.2 530.5,-208.2"/>
<text text-anchor="start" x="554.1105" y="-214.3" font-family="Helvetica,sans-Serif" font-size="11.00" fill="#000000">0 rows</text>
<polygon fill="#ffffff" stroke="transparent" points="589.5,-208.2 589.5,-227.2 631.5,-227.2 631.5,-208.2 589.5,-208.2"/>
<polygon fill="none" stroke="#000000" points="589.5,-208.2 589.5,-227.2 631.5,-227.2 631.5,-208.2 589.5,-208.2"/>
<text text-anchor="start" x="612.9053" y="-214.3" font-family="Helvetica,sans-Serif" font-size="11.00" fill="#000000">2 &gt;</text>
</a>
</g>
</g>
<!-- RUPOBS_geology&#45;&gt;RUPOBS_location -->
<g id="edge4" class="edge">
<title>RUPOBS_geology:w&#45;&gt;RUPOBS_location:e</title>
<path fill="none" stroke="#000000" d="M668.4616,-228.2035C643.198,-246.7249 675.0017,-323.2 631.5,-323.2"/>
<polygon fill="#000000" stroke="#000000" points="674.8067,-226.394 683.4873,-227.662 678.6534,-225.297 682.5,-224.2 682.5,-224.2 682.5,-224.2 678.6534,-225.297 681.5127,-220.738 674.8067,-226.394 674.8067,-226.394"/>
<ellipse fill="none" stroke="#000000" cx="671.7294" cy="-227.2717" rx="3.2" ry="3.2"/>
</g>
<!-- RUPOBS_id -->
<g id="node6" class="node">
<title>RUPOBS_id</title>
<g id="a_node6"><a xlink:href="../../tables/RUPOBS_id.html" xlink:title="RUPOBS_id" target="_top">
<polygon fill="#ffffff" stroke="transparent" points="256,-192.7 256,-319.7 419,-319.7 419,-192.7 256,-192.7"/>
<polygon fill="#f5f5f5" stroke="transparent" points="256.5,-296.2 256.5,-319.2 419.5,-319.2 419.5,-296.2 256.5,-296.2"/>
<polygon fill="none" stroke="#000000" points="256.5,-296.2 256.5,-319.2 419.5,-319.2 419.5,-296.2 256.5,-296.2"/>
<text text-anchor="start" x="261.5" y="-305.3" font-family="Helvetica,sans-Serif" font-weight="bold" font-size="11.00" fill="#000000">RUPOBS_id</text>
<text text-anchor="start" x="384.5437" y="-304.3" font-family="Helvetica,sans-Serif" font-size="11.00" fill="#000000">[table]</text>
<polygon fill="none" stroke="#000000" points="256.5,-274.2 256.5,-296.2 419.5,-296.2 419.5,-274.2 256.5,-274.2"/>
<image xlink:href="../../images/primaryKeys.png" width="11px" height="12px" preserveAspectRatio="xMinYMin meet" x="261.5" y="-291.2"/>
<text text-anchor="start" x="276.5" y="-281.3" font-family="Helvetica,sans-Serif" font-size="11.00" fill="#000000">DS_ID</text>
<polygon fill="none" stroke="#000000" points="256.5,-252.2 256.5,-274.2 419.5,-274.2 419.5,-252.2 256.5,-252.2"/>
<image xlink:href="../../images/primaryKeys.png" width="11px" height="12px" preserveAspectRatio="xMinYMin meet" x="261.5" y="-269.2"/>
<text text-anchor="start" x="276.5" y="-259.3" font-family="Helvetica,sans-Serif" font-size="11.00" fill="#000000">EQ_ID</text>
<polygon fill="none" stroke="#000000" points="256.5,-230.2 256.5,-252.2 419.5,-252.2 419.5,-230.2 256.5,-230.2"/>
<image xlink:href="../../images/primaryKeys.png" width="11px" height="12px" preserveAspectRatio="xMinYMin meet" x="261.5" y="-247.2"/>
<text text-anchor="start" x="276.5" y="-237.3" font-family="Helvetica,sans-Serif" font-size="11.00" fill="#000000">RUP_ID</text>
<polygon fill="none" stroke="#000000" points="256.5,-211.2 256.5,-230.2 419.5,-230.2 419.5,-211.2 256.5,-211.2"/>
<text text-anchor="start" x="259.5" y="-217.3" font-family="Helvetica,sans-Serif" font-size="11.00" fill="#000000">...</text>
<polygon fill="#ffffff" stroke="transparent" points="256.5,-192.2 256.5,-211.2 315.5,-211.2 315.5,-192.2 256.5,-192.2"/>
<polygon fill="none" stroke="#000000" points="256.5,-192.2 256.5,-211.2 315.5,-211.2 315.5,-192.2 256.5,-192.2"/>
<text text-anchor="start" x="259.5" y="-198.3" font-family="Helvetica,sans-Serif" font-size="11.00" fill="#000000">&lt; 2</text>
<polygon fill="#ffffff" stroke="transparent" points="315.5,-192.2 315.5,-211.2 372.5,-211.2 372.5,-192.2 315.5,-192.2"/>
<polygon fill="none" stroke="#000000" points="315.5,-192.2 315.5,-211.2 372.5,-211.2 372.5,-192.2 315.5,-192.2"/>
<text text-anchor="start" x="337.1105" y="-198.3" font-family="Helvetica,sans-Serif" font-size="11.00" fill="#000000">0 rows</text>
<polygon fill="#ffffff" stroke="transparent" points="372.5,-192.2 372.5,-211.2 419.5,-211.2 419.5,-192.2 372.5,-192.2"/>
<polygon fill="none" stroke="#000000" points="372.5,-192.2 372.5,-211.2 419.5,-211.2 419.5,-192.2 372.5,-192.2"/>
<text text-anchor="start" x="394.7904" y="-198.3" font-family="Helvetica,sans-Serif" font-size="11.00" fill="#000000">10 &gt;</text>
</a>
</g>
</g>
<!-- RUPOBS_geology&#45;&gt;RUPOBS_id -->
<g id="edge6" class="edge">
<title>RUPOBS_geology:w&#45;&gt;RUPOBS_id:e</title>
<path fill="none" stroke="#000000" d="M667.839,-114.375C573.9014,-116.7027 543.7318,-142.3601 460,-198.2 438.1582,-212.7661 445.7533,-241.2 419.5,-241.2"/>
<polygon fill="#000000" stroke="#000000" points="674.5006,-114.2956 682.543,-117.7997 678.5003,-114.2478 682.5,-114.2 682.5,-114.2 682.5,-114.2 678.5003,-114.2478 682.457,-110.6003 674.5006,-114.2956 674.5006,-114.2956"/>
<ellipse fill="none" stroke="#000000" cx="671.3008" cy="-114.3338" rx="3.2" ry="3.2"/>
</g>
<!-- RUPOBS_location&#45;&gt;METADATA_datasets -->
<g id="edge9" class="edge">
<title>RUPOBS_location:w&#45;&gt;METADATA_datasets:e</title>
<path fill="none" stroke="#000000" d="M454.6661,-284.0462C443.5138,-294.7827 447.618,-320.3958 427,-330.2 355.1537,-364.3642 315.9663,-371.5481 248,-330.2 199.6851,-300.8071 246.0533,-217.2 189.5,-217.2"/>
<polygon fill="#000000" stroke="#000000" points="460.9499,-281.8449 469.6902,-282.5976 464.7249,-280.5225 468.5,-279.2 468.5,-279.2 468.5,-279.2 464.7249,-280.5225 467.3098,-275.8024 460.9499,-281.8449 460.9499,-281.8449"/>
<ellipse fill="none" stroke="#000000" cx="457.9298" cy="-282.9029" rx="3.2" ry="3.2"/>
</g>
<!-- RUPOBS_location&#45;&gt;METADATA_events -->
<g id="edge10" class="edge">
<title>RUPOBS_location:w&#45;&gt;METADATA_events:e</title>
<path fill="none" stroke="#000000" d="M454.7294,-305.7915C442.9898,-316.4975 447.808,-343.0506 427,-354.2 340.7532,-400.4132 305.3477,-371.2 207.5,-371.2"/>
<polygon fill="#000000" stroke="#000000" points="460.9107,-303.7305 469.6387,-304.6152 464.7054,-302.4653 468.5,-301.2 468.5,-301.2 468.5,-301.2 464.7054,-302.4653 467.3613,-297.7848 460.9107,-303.7305 460.9107,-303.7305"/>
<ellipse fill="none" stroke="#000000" cx="457.875" cy="-304.7427" rx="3.2" ry="3.2"/>
</g>
<!-- RUPOBS_location&#45;&gt;RUPOBS_id -->
<g id="edge11" class="edge">
<title>RUPOBS_location:w&#45;&gt;RUPOBS_id:e</title>
<path fill="none" stroke="#000000" d="M454.0387,-254.5579C442.639,-250.0135 436.5031,-241.2 419.5,-241.2"/>
<polygon fill="#000000" stroke="#000000" points="460.6303,-255.7622 467.853,-260.7414 464.5651,-256.4811 468.5,-257.2 468.5,-257.2 468.5,-257.2 464.5651,-256.4811 469.147,-253.6586 460.6303,-255.7622 460.6303,-255.7622"/>
<ellipse fill="none" stroke="#000000" cx="457.4824" cy="-255.187" rx="3.2" ry="3.2"/>
</g>
<!-- RUPOBS_id&#45;&gt;METADATA_datasets -->
<g id="edge7" class="edge">
<title>RUPOBS_id:w&#45;&gt;METADATA_datasets:e</title>
<path fill="none" stroke="#000000" d="M242.1704,-281.7344C217.8279,-267.8773 226.1269,-217.2 189.5,-217.2"/>
<polygon fill="#000000" stroke="#000000" points="248.7242,-283.3194 255.6537,-288.6991 252.6121,-284.2597 256.5,-285.2 256.5,-285.2 256.5,-285.2 252.6121,-284.2597 257.3463,-281.7009 248.7242,-283.3194 248.7242,-283.3194"/>
<ellipse fill="none" stroke="#000000" cx="245.6138" cy="-282.5671" rx="3.2" ry="3.2"/>
</g>
<!-- RUPOBS_id&#45;&gt;METADATA_events -->
<g id="edge8" class="edge">
<title>RUPOBS_id:w&#45;&gt;METADATA_events:e</title>
<path fill="none" stroke="#000000" d="M242.471,-267.0438C215.1726,-286.2828 254.2383,-371.2 207.5,-371.2"/>
<polygon fill="#000000" stroke="#000000" points="248.7844,-265.314 257.4513,-266.672 252.6422,-264.257 256.5,-263.2 256.5,-263.2 256.5,-263.2 252.6422,-264.257 255.5487,-259.728 248.7844,-265.314 248.7844,-265.314"/>
<ellipse fill="none" stroke="#000000" cx="245.6981" cy="-266.1596" rx="3.2" ry="3.2"/>
</g>
</g>
</svg>
