<?xml version="1.0" encoding="UTF-8" standalone="no"?>
<!DOCTYPE svg PUBLIC "-//W3C//DTD SVG 1.1//EN"
 "http://www.w3.org/Graphics/SVG/1.1/DTD/svg11.dtd">
<!-- Generated by graphviz version 2.40.1 (20161225.0304)
 -->
<!-- Title: oneDegreeRelationshipsDiagram Pages: 1 -->
<svg width="993pt" height="536pt"
 viewBox="0.00 0.00 993.00 536.31" xmlns="http://www.w3.org/2000/svg" xmlns:xlink="http://www.w3.org/1999/xlink">
<g id="graph0" class="graph" transform="scale(1 1) rotate(0) translate(4 532.3101)">
<title>oneDegreeRelationshipsDiagram</title>
<polygon fill="#ffffff" stroke="transparent" points="-4,4 -4,-532.3101 989,-532.3101 989,4 -4,4"/>
<text text-anchor="middle" x="72.4936" y="-7.3" font-family="Helvetica,sans-Serif" font-size="11.00" fill="#000000">Generated by SchemaSpy</text>
<!-- ECS_rups -->
<g id="node1" class="node">
<title>ECS_rups</title>
<g id="a_node1"><a xlink:href="../../tables/ECS_rups.html" xlink:title="ECS_rups" target="_top">
<polygon fill="#ffffff" stroke="transparent" points="814,-233.2 814,-382.2 977,-382.2 977,-233.2 814,-233.2"/>
<polygon fill="#f5f5f5" stroke="transparent" points="814.5,-358.7 814.5,-381.7 977.5,-381.7 977.5,-358.7 814.5,-358.7"/>
<polygon fill="none" stroke="#000000" points="814.5,-358.7 814.5,-381.7 977.5,-381.7 977.5,-358.7 814.5,-358.7"/>
<text text-anchor="start" x="819.5" y="-367.8" font-family="Helvetica,sans-Serif" font-weight="bold" font-size="11.00" fill="#000000">ECS_rups</text>
<text text-anchor="start" x="942.5437" y="-366.8" font-family="Helvetica,sans-Serif" font-size="11.00" fill="#000000">[table]</text>
<polygon fill="none" stroke="#000000" points="814.5,-336.7 814.5,-358.7 977.5,-358.7 977.5,-336.7 814.5,-336.7"/>
<image xlink:href="../../images/primaryKeys.png" width="11px" height="12px" preserveAspectRatio="xMinYMin meet" x="819.5" y="-353.7"/>
<text text-anchor="start" x="834.5" y="-343.8" font-family="Helvetica,sans-Serif" font-size="11.00" fill="#000000">NODE_ID</text>
<polygon fill="none" stroke="#000000" points="814.5,-314.7 814.5,-336.7 977.5,-336.7 977.5,-314.7 814.5,-314.7"/>
<image xlink:href="../../images/primaryKeys.png" width="11px" height="12px" preserveAspectRatio="xMinYMin meet" x="819.5" y="-331.7"/>
<text text-anchor="start" x="834.5" y="-321.8" font-family="Helvetica,sans-Serif" font-size="11.00" fill="#000000">EQ_ID</text>
<polygon fill="none" stroke="#000000" points="814.5,-292.7 814.5,-314.7 977.5,-314.7 977.5,-292.7 814.5,-292.7"/>
<image xlink:href="../../images/primaryKeys.png" width="11px" height="12px" preserveAspectRatio="xMinYMin meet" x="819.5" y="-309.7"/>
<text text-anchor="start" x="834.5" y="-299.8" font-family="Helvetica,sans-Serif" font-size="11.00" fill="#000000">DS_ID</text>
<polygon fill="none" stroke="#000000" points="814.5,-270.7 814.5,-292.7 977.5,-292.7 977.5,-270.7 814.5,-270.7"/>
<image xlink:href="../../images/primaryKeys.png" width="11px" height="12px" preserveAspectRatio="xMinYMin meet" x="819.5" y="-287.7"/>
<text text-anchor="start" x="834.5" y="-277.8" font-family="Helvetica,sans-Serif" font-size="11.00" fill="#000000">RUP_ID</text>
<polygon fill="none" stroke="#000000" points="814.5,-251.7 814.5,-270.7 977.5,-270.7 977.5,-251.7 814.5,-251.7"/>
<text text-anchor="start" x="817.5" y="-257.8" font-family="Helvetica,sans-Serif" font-size="11.00" fill="#000000">...</text>
<polygon fill="#ffffff" stroke="transparent" points="814.5,-232.7 814.5,-251.7 881.5,-251.7 881.5,-232.7 814.5,-232.7"/>
<polygon fill="none" stroke="#000000" points="814.5,-232.7 814.5,-251.7 881.5,-251.7 881.5,-232.7 814.5,-232.7"/>
<text text-anchor="start" x="817.5" y="-238.8" font-family="Helvetica,sans-Serif" font-size="11.00" fill="#000000">&lt; 4</text>
<polygon fill="#ffffff" stroke="transparent" points="881.5,-232.7 881.5,-251.7 942.5,-251.7 942.5,-232.7 881.5,-232.7"/>
<polygon fill="none" stroke="#000000" points="881.5,-232.7 881.5,-251.7 942.5,-251.7 942.5,-232.7 881.5,-232.7"/>
<text text-anchor="start" x="907.1105" y="-238.8" font-family="Helvetica,sans-Serif" font-size="11.00" fill="#000000">0 rows</text>
<polygon fill="#ffffff" stroke="transparent" points="942.5,-232.7 942.5,-251.7 977.5,-251.7 977.5,-232.7 942.5,-232.7"/>
<polygon fill="none" stroke="#000000" points="942.5,-232.7 942.5,-251.7 977.5,-251.7 977.5,-232.7 942.5,-232.7"/>
<text text-anchor="start" x="968.3862" y="-238.8" font-family="Helvetica,sans-Serif" font-size="11.00" fill="#000000"> &#160;</text>
</a>
</g>
</g>
<!-- METADATA_datasets -->
<g id="node2" class="node">
<title>METADATA_datasets</title>
<g id="a_node2"><a xlink:href="../../tables/METADATA_datasets.html" xlink:title="METADATA_datasets" target="_top">
<polygon fill="#ffffff" stroke="transparent" points="26,-145.2 26,-228.2 189,-228.2 189,-145.2 26,-145.2"/>
<polygon fill="#f5f5f5" stroke="transparent" points="26.5,-204.7 26.5,-227.7 189.5,-227.7 189.5,-204.7 26.5,-204.7"/>
<polygon fill="none" stroke="#000000" points="26.5,-204.7 26.5,-227.7 189.5,-227.7 189.5,-204.7 26.5,-204.7"/>
<text text-anchor="start" x="31.5" y="-213.8" font-family="Helvetica,sans-Serif" font-weight="bold" font-size="11.00" fill="#000000">METADATA_datasets</text>
<text text-anchor="start" x="154.5437" y="-212.8" font-family="Helvetica,sans-Serif" font-size="11.00" fill="#000000">[table]</text>
<polygon fill="none" stroke="#000000" points="26.5,-182.7 26.5,-204.7 189.5,-204.7 189.5,-182.7 26.5,-182.7"/>
<image xlink:href="../../images/primaryKeys.png" width="11px" height="12px" preserveAspectRatio="xMinYMin meet" x="31.5" y="-199.7"/>
<text text-anchor="start" x="46.5" y="-189.8" font-family="Helvetica,sans-Serif" font-size="11.00" fill="#000000">DS_ID</text>
<polygon fill="none" stroke="#000000" points="26.5,-163.7 26.5,-182.7 189.5,-182.7 189.5,-163.7 26.5,-163.7"/>
<text text-anchor="start" x="29.5" y="-169.8" font-family="Helvetica,sans-Serif" font-size="11.00" fill="#000000">...</text>
<polygon fill="#ffffff" stroke="transparent" points="26.5,-144.7 26.5,-163.7 81.5,-163.7 81.5,-144.7 26.5,-144.7"/>
<polygon fill="none" stroke="#000000" points="26.5,-144.7 26.5,-163.7 81.5,-163.7 81.5,-144.7 26.5,-144.7"/>
<text text-anchor="start" x="29.5" y="-150.8" font-family="Helvetica,sans-Serif" font-size="11.00" fill="#000000"> &#160;</text>
<polygon fill="#ffffff" stroke="transparent" points="81.5,-144.7 81.5,-163.7 140.5,-163.7 140.5,-144.7 81.5,-144.7"/>
<polygon fill="none" stroke="#000000" points="81.5,-144.7 81.5,-163.7 140.5,-163.7 140.5,-144.7 81.5,-144.7"/>
<text text-anchor="start" x="105.1105" y="-150.8" font-family="Helvetica,sans-Serif" font-size="11.00" fill="#000000">0 rows</text>
<polygon fill="#ffffff" stroke="transparent" points="140.5,-144.7 140.5,-163.7 189.5,-163.7 189.5,-144.7 140.5,-144.7"/>
<polygon fill="none" stroke="#000000" points="140.5,-144.7 140.5,-163.7 189.5,-163.7 189.5,-144.7 140.5,-144.7"/>
<text text-anchor="start" x="164.7904" y="-150.8" font-family="Helvetica,sans-Serif" font-size="11.00" fill="#000000">35 &gt;</text>
</a>
</g>
</g>
<!-- ECS_rups&#45;&gt;METADATA_datasets -->
<g id="edge1" class="edge">
<title>ECS_rups:w&#45;&gt;METADATA_datasets:e</title>
<path fill="none" stroke="#000000" d="M800.0508,-301.5601C756.7116,-285.9636 824.6527,-189.276 773,-149.7 726.6957,-114.222 303.3272,-131.2156 248,-149.7 217.1432,-160.009 222.0334,-193.7 189.5,-193.7"/>
<polygon fill="#000000" stroke="#000000" points="806.5863,-302.528 813.9726,-307.2612 810.5432,-303.114 814.5,-303.7 814.5,-303.7 814.5,-303.7 810.5432,-303.114 815.0274,-300.1388 806.5863,-302.528 806.5863,-302.528"/>
<ellipse fill="none" stroke="#000000" cx="803.4208" cy="-302.0591" rx="3.2" ry="3.2"/>
</g>
<!-- METADATA_events -->
<g id="node3" class="node">
<title>METADATA_events</title>
<g id="a_node3"><a xlink:href="../../tables/METADATA_events.html" xlink:title="METADATA_events" target="_top">
<polygon fill="#ffffff" stroke="transparent" points="8,-353.2 8,-436.2 207,-436.2 207,-353.2 8,-353.2"/>
<polygon fill="#f5f5f5" stroke="transparent" points="8.5,-412.7 8.5,-435.7 207.5,-435.7 207.5,-412.7 8.5,-412.7"/>
<polygon fill="none" stroke="#000000" points="8.5,-412.7 8.5,-435.7 207.5,-435.7 207.5,-412.7 8.5,-412.7"/>
<text text-anchor="start" x="13.5" y="-421.8" font-family="Helvetica,sans-Serif" font-weight="bold" font-size="11.00" fill="#000000">METADATA_events</text>
<text text-anchor="start" x="172.5437" y="-420.8" font-family="Helvetica,sans-Serif" font-size="11.00" fill="#000000">[table]</text>
<polygon fill="none" stroke="#000000" points="8.5,-390.7 8.5,-412.7 207.5,-412.7 207.5,-390.7 8.5,-390.7"/>
<image xlink:href="../../images/primaryKeys.png" width="11px" height="12px" preserveAspectRatio="xMinYMin meet" x="13.5" y="-407.7"/>
<text text-anchor="start" x="28.5" y="-397.8" font-family="Helvetica,sans-Serif" font-size="11.00" fill="#000000">EQ_ID</text>
<polygon fill="none" stroke="#000000" points="8.5,-371.7 8.5,-390.7 207.5,-390.7 207.5,-371.7 8.5,-371.7"/>
<text text-anchor="start" x="11.5" y="-377.8" font-family="Helvetica,sans-Serif" font-size="11.00" fill="#000000">...</text>
<polygon fill="#ffffff" stroke="transparent" points="8.5,-352.7 8.5,-371.7 81.5,-371.7 81.5,-352.7 8.5,-352.7"/>
<polygon fill="none" stroke="#000000" points="8.5,-352.7 8.5,-371.7 81.5,-371.7 81.5,-352.7 8.5,-352.7"/>
<text text-anchor="start" x="11.5" y="-358.8" font-family="Helvetica,sans-Serif" font-size="11.00" fill="#000000"> &#160;</text>
<polygon fill="#ffffff" stroke="transparent" points="81.5,-352.7 81.5,-371.7 149.5,-371.7 149.5,-352.7 81.5,-352.7"/>
<polygon fill="none" stroke="#000000" points="81.5,-352.7 81.5,-371.7 149.5,-371.7 149.5,-352.7 81.5,-352.7"/>
<text text-anchor="start" x="114.1105" y="-358.8" font-family="Helvetica,sans-Serif" font-size="11.00" fill="#000000">0 rows</text>
<polygon fill="#ffffff" stroke="transparent" points="149.5,-352.7 149.5,-371.7 207.5,-371.7 207.5,-352.7 149.5,-352.7"/>
<polygon fill="none" stroke="#000000" points="149.5,-352.7 149.5,-371.7 207.5,-371.7 207.5,-352.7 149.5,-352.7"/>
<text text-anchor="start" x="182.7904" y="-358.8" font-family="Helvetica,sans-Serif" font-size="11.00" fill="#000000">34 &gt;</text>
</a>
</g>
</g>
<!-- ECS_rups&#45;&gt;METADATA_events -->
<g id="edge2" class="edge">
<title>ECS_rups:w&#45;&gt;METADATA_events:e</title>
<path fill="none" stroke="#000000" d="M800.1993,-328.5753C770.9333,-343.6925 813.1367,-414.3497 773,-442.7 582.4155,-577.3179 463.297,-532.6536 248,-442.7 224.3664,-432.8256 233.1135,-401.7 207.5,-401.7"/>
<polygon fill="#000000" stroke="#000000" points="806.657,-327.277 815.2096,-329.2294 810.5785,-326.4885 814.5,-325.7 814.5,-325.7 814.5,-325.7 810.5785,-326.4885 813.7904,-322.1706 806.657,-327.277 806.657,-327.277"/>
<ellipse fill="none" stroke="#000000" cx="803.5197" cy="-327.9078" rx="3.2" ry="3.2"/>
</g>
<!-- RUPOBS_location -->
<g id="node4" class="node">
<title>RUPOBS_location</title>
<g id="a_node4"><a xlink:href="../../tables/RUPOBS_location.html" xlink:title="RUPOBS_location" target="_top">
<polygon fill="#ffffff" stroke="transparent" points="468,-186.7 468,-408.7 765,-408.7 765,-186.7 468,-186.7"/>
<polygon fill="#f5f5f5" stroke="transparent" points="470.5,-383.7 470.5,-406.7 763.5,-406.7 763.5,-383.7 470.5,-383.7"/>
<polygon fill="none" stroke="#000000" points="470.5,-383.7 470.5,-406.7 763.5,-406.7 763.5,-383.7 470.5,-383.7"/>
<text text-anchor="start" x="475.5" y="-392.8" font-family="Helvetica,sans-Serif" font-weight="bold" font-size="11.00" fill="#000000">RUPOBS_location</text>
<text text-anchor="start" x="728.5437" y="-391.8" font-family="Helvetica,sans-Serif" font-size="11.00" fill="#000000">[table]</text>
<polygon fill="none" stroke="#000000" points="470.5,-361.7 470.5,-383.7 633.5,-383.7 633.5,-361.7 470.5,-361.7"/>
<text text-anchor="start" x="490.5" y="-368.8" font-family="Helvetica,sans-Serif" font-size="11.00" fill="#000000">latitude_degrees</text>
<polygon fill="none" stroke="#000000" points="633.5,-361.7 633.5,-383.7 763.5,-383.7 763.5,-361.7 633.5,-361.7"/>
<text text-anchor="start" x="636.5" y="-369.4" font-family="Helvetica,sans-Serif" font-size="11.00" fill="#000000">float[2000000000,10]</text>
<polygon fill="none" stroke="#000000" points="470.5,-339.7 470.5,-361.7 633.5,-361.7 633.5,-339.7 470.5,-339.7"/>
<image xlink:href="../../images/primaryKeys.png" width="11px" height="12px" preserveAspectRatio="xMinYMin meet" x="475.5" y="-356.7"/>
<text text-anchor="start" x="490.5" y="-346.8" font-family="Helvetica,sans-Serif" font-size="11.00" fill="#000000">NODE_ID</text>
<polygon fill="none" stroke="#000000" points="633.5,-339.7 633.5,-361.7 763.5,-361.7 763.5,-339.7 633.5,-339.7"/>
<text text-anchor="start" x="636.5" y="-347.4" font-family="Helvetica,sans-Serif" font-size="11.00" fill="#000000">integer[2000000000,10]</text>
<polygon fill="none" stroke="#000000" points="470.5,-317.7 470.5,-339.7 633.5,-339.7 633.5,-317.7 470.5,-317.7"/>
<image xlink:href="../../images/primaryKeys.png" width="11px" height="12px" preserveAspectRatio="xMinYMin meet" x="475.5" y="-334.7"/>
<text text-anchor="start" x="490.5" y="-324.8" font-family="Helvetica,sans-Serif" font-size="11.00" fill="#000000">EQ_ID</text>
<polygon fill="none" stroke="#000000" points="633.5,-317.7 633.5,-339.7 763.5,-339.7 763.5,-317.7 633.5,-317.7"/>
<text text-anchor="start" x="636.5" y="-325.4" font-family="Helvetica,sans-Serif" font-size="11.00" fill="#000000">integer[2000000000,10]</text>
<polygon fill="none" stroke="#000000" points="470.5,-295.7 470.5,-317.7 633.5,-317.7 633.5,-295.7 470.5,-295.7"/>
<text text-anchor="start" x="490.5" y="-302.8" font-family="Helvetica,sans-Serif" font-size="11.00" fill="#000000">row_entry_date_updated</text>
<polygon fill="none" stroke="#000000" points="633.5,-295.7 633.5,-317.7 763.5,-317.7 763.5,-295.7 633.5,-295.7"/>
<text text-anchor="start" x="636.1372" y="-303.4" font-family="Helvetica,sans-Serif" font-size="11.00" fill="#000000">datetime[2000000000,10]</text>
<polygon fill="none" stroke="#000000" points="470.5,-273.7 470.5,-295.7 633.5,-295.7 633.5,-273.7 470.5,-273.7"/>
<text text-anchor="start" x="490.5" y="-280.8" font-family="Helvetica,sans-Serif" font-size="11.00" fill="#000000">longitude_degrees</text>
<polygon fill="none" stroke="#000000" points="633.5,-273.7 633.5,-295.7 763.5,-295.7 763.5,-273.7 633.5,-273.7"/>
<text text-anchor="start" x="636.5" y="-281.4" font-family="Helvetica,sans-Serif" font-size="11.00" fill="#000000">float[2000000000,10]</text>
<polygon fill="none" stroke="#000000" points="470.5,-251.7 470.5,-273.7 633.5,-273.7 633.5,-251.7 470.5,-251.7"/>
<image xlink:href="../../images/primaryKeys.png" width="11px" height="12px" preserveAspectRatio="xMinYMin meet" x="475.5" y="-268.7"/>
<text text-anchor="start" x="490.5" y="-258.8" font-family="Helvetica,sans-Serif" font-size="11.00" fill="#000000">DS_ID</text>
<polygon fill="none" stroke="#000000" points="633.5,-251.7 633.5,-273.7 763.5,-273.7 763.5,-251.7 633.5,-251.7"/>
<text text-anchor="start" x="636.5" y="-259.4" font-family="Helvetica,sans-Serif" font-size="11.00" fill="#000000">integer[2000000000,10]</text>
<polygon fill="none" stroke="#000000" points="470.5,-229.7 470.5,-251.7 633.5,-251.7 633.5,-229.7 470.5,-229.7"/>
<image xlink:href="../../images/primaryKeys.png" width="11px" height="12px" preserveAspectRatio="xMinYMin meet" x="475.5" y="-246.7"/>
<text text-anchor="start" x="490.5" y="-236.8" font-family="Helvetica,sans-Serif" font-size="11.00" fill="#000000">RUP_ID</text>
<polygon fill="none" stroke="#000000" points="633.5,-229.7 633.5,-251.7 763.5,-251.7 763.5,-229.7 633.5,-229.7"/>
<text text-anchor="start" x="636.5" y="-237.4" font-family="Helvetica,sans-Serif" font-size="11.00" fill="#000000">integer[2000000000,10]</text>
<polygon fill="none" stroke="#000000" points="470.5,-207.7 470.5,-229.7 633.5,-229.7 633.5,-207.7 470.5,-207.7"/>
<text text-anchor="start" x="490.5" y="-214.8" font-family="Helvetica,sans-Serif" font-size="11.00" fill="#000000">row_entry_source_file</text>
<polygon fill="none" stroke="#000000" points="633.5,-207.7 633.5,-229.7 763.5,-229.7 763.5,-207.7 633.5,-207.7"/>
<text text-anchor="start" x="636.5" y="-215.4" font-family="Helvetica,sans-Serif" font-size="11.00" fill="#000000">text[2000000000,10]</text>
<polygon fill="#ffffff" stroke="transparent" points="470.5,-188.7 470.5,-207.7 543.5,-207.7 543.5,-188.7 470.5,-188.7"/>
<polygon fill="none" stroke="#000000" points="470.5,-188.7 470.5,-207.7 543.5,-207.7 543.5,-188.7 470.5,-188.7"/>
<text text-anchor="start" x="473.5" y="-194.8" font-family="Helvetica,sans-Serif" font-size="11.00" fill="#000000">&lt; 3</text>
<polygon fill="#ffffff" stroke="transparent" points="543.5,-188.7 543.5,-207.7 633.5,-207.7 633.5,-188.7 543.5,-188.7"/>
<polygon fill="none" stroke="#000000" points="543.5,-188.7 543.5,-207.7 633.5,-207.7 633.5,-188.7 543.5,-188.7"/>
<text text-anchor="start" x="598.1105" y="-194.8" font-family="Helvetica,sans-Serif" font-size="11.00" fill="#000000">0 rows</text>
<polygon fill="#ffffff" stroke="transparent" points="633.5,-188.7 633.5,-207.7 763.5,-207.7 763.5,-188.7 633.5,-188.7"/>
<polygon fill="none" stroke="#000000" points="633.5,-188.7 633.5,-207.7 763.5,-207.7 763.5,-188.7 633.5,-188.7"/>
<text text-anchor="start" x="744.9053" y="-194.8" font-family="Helvetica,sans-Serif" font-size="11.00" fill="#000000">2 &gt;</text>
<polygon fill="none" stroke="#000000" stroke-width="2" points="469,-187.7 469,-407.7 764,-407.7 764,-187.7 469,-187.7"/>
</a>
</g>
</g>
<!-- ECS_rups&#45;&gt;RUPOBS_location -->
<g id="edge3" class="edge">
<title>ECS_rups:w&#45;&gt;RUPOBS_location:e</title>
<path fill="none" stroke="#000000" d="M799.7651,-348.1954C787.7749,-349.0475 780.352,-350.7 763.5,-350.7"/>
<polygon fill="#000000" stroke="#000000" points="806.5045,-347.9689 814.621,-351.298 810.5023,-347.8344 814.5,-347.7 814.5,-347.7 814.5,-347.7 810.5023,-347.8344 814.379,-344.102 806.5045,-347.9689 806.5045,-347.9689"/>
<ellipse fill="none" stroke="#000000" cx="803.3063" cy="-348.0764" rx="3.2" ry="3.2"/>
</g>
<!-- RUPOBS_id -->
<g id="node5" class="node">
<title>RUPOBS_id</title>
<g id="a_node5"><a xlink:href="../../tables/RUPOBS_id.html" xlink:title="RUPOBS_id" target="_top">
<polygon fill="#ffffff" stroke="transparent" points="256,-160.2 256,-287.2 419,-287.2 419,-160.2 256,-160.2"/>
<polygon fill="#f5f5f5" stroke="transparent" points="256.5,-263.7 256.5,-286.7 419.5,-286.7 419.5,-263.7 256.5,-263.7"/>
<polygon fill="none" stroke="#000000" points="256.5,-263.7 256.5,-286.7 419.5,-286.7 419.5,-263.7 256.5,-263.7"/>
<text text-anchor="start" x="261.5" y="-272.8" font-family="Helvetica,sans-Serif" font-weight="bold" font-size="11.00" fill="#000000">RUPOBS_id</text>
<text text-anchor="start" x="384.5437" y="-271.8" font-family="Helvetica,sans-Serif" font-size="11.00" fill="#000000">[table]</text>
<polygon fill="none" stroke="#000000" points="256.5,-241.7 256.5,-263.7 419.5,-263.7 419.5,-241.7 256.5,-241.7"/>
<image xlink:href="../../images/primaryKeys.png" width="11px" height="12px" preserveAspectRatio="xMinYMin meet" x="261.5" y="-258.7"/>
<text text-anchor="start" x="276.5" y="-248.8" font-family="Helvetica,sans-Serif" font-size="11.00" fill="#000000">DS_ID</text>
<polygon fill="none" stroke="#000000" points="256.5,-219.7 256.5,-241.7 419.5,-241.7 419.5,-219.7 256.5,-219.7"/>
<image xlink:href="../../images/primaryKeys.png" width="11px" height="12px" preserveAspectRatio="xMinYMin meet" x="261.5" y="-236.7"/>
<text text-anchor="start" x="276.5" y="-226.8" font-family="Helvetica,sans-Serif" font-size="11.00" fill="#000000">EQ_ID</text>
<polygon fill="none" stroke="#000000" points="256.5,-197.7 256.5,-219.7 419.5,-219.7 419.5,-197.7 256.5,-197.7"/>
<image xlink:href="../../images/primaryKeys.png" width="11px" height="12px" preserveAspectRatio="xMinYMin meet" x="261.5" y="-214.7"/>
<text text-anchor="start" x="276.5" y="-204.8" font-family="Helvetica,sans-Serif" font-size="11.00" fill="#000000">RUP_ID</text>
<polygon fill="none" stroke="#000000" points="256.5,-178.7 256.5,-197.7 419.5,-197.7 419.5,-178.7 256.5,-178.7"/>
<text text-anchor="start" x="259.5" y="-184.8" font-family="Helvetica,sans-Serif" font-size="11.00" fill="#000000">...</text>
<polygon fill="#ffffff" stroke="transparent" points="256.5,-159.7 256.5,-178.7 315.5,-178.7 315.5,-159.7 256.5,-159.7"/>
<polygon fill="none" stroke="#000000" points="256.5,-159.7 256.5,-178.7 315.5,-178.7 315.5,-159.7 256.5,-159.7"/>
<text text-anchor="start" x="259.5" y="-165.8" font-family="Helvetica,sans-Serif" font-size="11.00" fill="#000000">&lt; 2</text>
<polygon fill="#ffffff" stroke="transparent" points="315.5,-159.7 315.5,-178.7 372.5,-178.7 372.5,-159.7 315.5,-159.7"/>
<polygon fill="none" stroke="#000000" points="315.5,-159.7 315.5,-178.7 372.5,-178.7 372.5,-159.7 315.5,-159.7"/>
<text text-anchor="start" x="337.1105" y="-165.8" font-family="Helvetica,sans-Serif" font-size="11.00" fill="#000000">0 rows</text>
<polygon fill="#ffffff" stroke="transparent" points="372.5,-159.7 372.5,-178.7 419.5,-178.7 419.5,-159.7 372.5,-159.7"/>
<polygon fill="none" stroke="#000000" points="372.5,-159.7 372.5,-178.7 419.5,-178.7 419.5,-159.7 372.5,-159.7"/>
<text text-anchor="start" x="394.7904" y="-165.8" font-family="Helvetica,sans-Serif" font-size="11.00" fill="#000000">10 &gt;</text>
</a>
</g>
</g>
<!-- ECS_rups&#45;&gt;RUPOBS_id -->
<g id="edge4" class="edge">
<title>ECS_rups:w&#45;&gt;RUPOBS_id:e</title>
<path fill="none" stroke="#000000" d="M800.2398,-278.516C774.8713,-263.6527 809.7295,-200.7642 773,-175.7 715.5468,-136.494 525.5307,-152.3825 460,-175.7 438.1248,-183.4837 442.7188,-208.7 419.5,-208.7"/>
<polygon fill="#000000" stroke="#000000" points="806.6923,-279.9566 813.7155,-285.2135 810.5961,-280.8283 814.5,-281.7 814.5,-281.7 814.5,-281.7 810.5961,-280.8283 815.2845,-278.1865 806.6923,-279.9566 806.6923,-279.9566"/>
<ellipse fill="none" stroke="#000000" cx="803.5692" cy="-279.2593" rx="3.2" ry="3.2"/>
</g>
<!-- RUPOBS_location&#45;&gt;METADATA_datasets -->
<g id="edge11" class="edge">
<title>RUPOBS_location:w&#45;&gt;METADATA_datasets:e</title>
<path fill="none" stroke="#000000" d="M456.5258,-267.0091C446.2872,-274.9201 444.553,-291.5151 427,-297.7 351.966,-324.1384 316.6731,-337.8633 248,-297.7 202.2215,-270.9265 242.533,-193.7 189.5,-193.7"/>
<polygon fill="#000000" stroke="#000000" points="462.8552,-265.0574 471.5608,-266.1402 466.6776,-263.8787 470.5,-262.7 470.5,-262.7 470.5,-262.7 466.6776,-263.8787 469.4392,-259.2598 462.8552,-265.0574 462.8552,-265.0574"/>
<ellipse fill="none" stroke="#000000" cx="459.7973" cy="-266.0003" rx="3.2" ry="3.2"/>
</g>
<!-- RUPOBS_location&#45;&gt;METADATA_events -->
<g id="edge12" class="edge">
<title>RUPOBS_location:w&#45;&gt;METADATA_events:e</title>
<path fill="none" stroke="#000000" d="M456.0688,-329.0583C347.35,-334.5655 323.8326,-401.7 207.5,-401.7"/>
<polygon fill="#000000" stroke="#000000" points="462.5025,-328.8986 470.5894,-332.2989 466.5012,-328.7993 470.5,-328.7 470.5,-328.7 470.5,-328.7 466.5012,-328.7993 470.4106,-325.1011 462.5025,-328.8986 462.5025,-328.8986"/>
<ellipse fill="none" stroke="#000000" cx="459.3035" cy="-328.9781" rx="3.2" ry="3.2"/>
</g>
<!-- RUPOBS_location&#45;&gt;RUPOBS_id -->
<g id="edge13" class="edge">
<title>RUPOBS_location:w&#45;&gt;RUPOBS_id:e</title>
<path fill="none" stroke="#000000" d="M456.5293,-236.7762C443.4416,-228.2313 440.4055,-208.7 419.5,-208.7"/>
<polygon fill="#000000" stroke="#000000" points="462.798,-238.5368 469.5265,-244.1659 466.649,-239.6184 470.5,-240.7 470.5,-240.7 470.5,-240.7 466.649,-239.6184 471.4735,-237.2341 462.798,-238.5368 462.798,-238.5368"/>
<ellipse fill="none" stroke="#000000" cx="459.7172" cy="-237.6715" rx="3.2" ry="3.2"/>
</g>
<!-- RUPOBS_id&#45;&gt;METADATA_datasets -->
<g id="edge9" class="edge">
<title>RUPOBS_id:w&#45;&gt;METADATA_datasets:e</title>
<path fill="none" stroke="#000000" d="M242.2426,-249.3589C219.3068,-236.8778 223.443,-193.7 189.5,-193.7"/>
<polygon fill="#000000" stroke="#000000" points="248.711,-250.8747 255.6786,-256.205 252.6055,-251.7873 256.5,-252.7 256.5,-252.7 256.5,-252.7 252.6055,-251.7873 257.3214,-249.195 248.711,-250.8747 248.711,-250.8747"/>
<ellipse fill="none" stroke="#000000" cx="245.5954" cy="-250.1445" rx="3.2" ry="3.2"/>
</g>
<!-- RUPOBS_id&#45;&gt;METADATA_events -->
<g id="edge10" class="edge">
<title>RUPOBS_id:w&#45;&gt;METADATA_events:e</title>
<path fill="none" stroke="#000000" d="M242.1664,-233.25C192.2295,-254.5218 280.8454,-401.7 207.5,-401.7"/>
<polygon fill="#000000" stroke="#000000" points="248.6237,-232.1013 257.1306,-234.2443 252.5618,-231.4006 256.5,-230.7 256.5,-230.7 256.5,-230.7 252.5618,-231.4006 255.8694,-227.1557 248.6237,-232.1013 248.6237,-232.1013"/>
<ellipse fill="none" stroke="#000000" cx="245.4731" cy="-232.6618" rx="3.2" ry="3.2"/>
</g>
<!-- RUPOBS_geology -->
<g id="node6" class="node">
<title>RUPOBS_geology</title>
<g id="a_node6"><a xlink:href="../../tables/RUPOBS_geology.html" xlink:title="RUPOBS_geology" target="_top">
<polygon fill="#ffffff" stroke="transparent" points="814,-38.2 814,-209.2 977,-209.2 977,-38.2 814,-38.2"/>
<polygon fill="#f5f5f5" stroke="transparent" points="814.5,-185.7 814.5,-208.7 977.5,-208.7 977.5,-185.7 814.5,-185.7"/>
<polygon fill="none" stroke="#000000" points="814.5,-185.7 814.5,-208.7 977.5,-208.7 977.5,-185.7 814.5,-185.7"/>
<text text-anchor="start" x="819.5" y="-194.8" font-family="Helvetica,sans-Serif" font-weight="bold" font-size="11.00" fill="#000000">RUPOBS_geology</text>
<text text-anchor="start" x="942.5437" y="-193.8" font-family="Helvetica,sans-Serif" font-size="11.00" fill="#000000">[table]</text>
<polygon fill="none" stroke="#000000" points="814.5,-163.7 814.5,-185.7 977.5,-185.7 977.5,-163.7 814.5,-163.7"/>
<image xlink:href="../../images/primaryKeys.png" width="11px" height="12px" preserveAspectRatio="xMinYMin meet" x="819.5" y="-180.7"/>
<text text-anchor="start" x="834.5" y="-170.8" font-family="Helvetica,sans-Serif" font-size="11.00" fill="#000000">EQ_ID</text>
<polygon fill="none" stroke="#000000" points="814.5,-141.7 814.5,-163.7 977.5,-163.7 977.5,-141.7 814.5,-141.7"/>
<image xlink:href="../../images/primaryKeys.png" width="11px" height="12px" preserveAspectRatio="xMinYMin meet" x="819.5" y="-158.7"/>
<text text-anchor="start" x="834.5" y="-148.8" font-family="Helvetica,sans-Serif" font-size="11.00" fill="#000000">NODE_ID</text>
<polygon fill="none" stroke="#000000" points="814.5,-119.7 814.5,-141.7 977.5,-141.7 977.5,-119.7 814.5,-119.7"/>
<image xlink:href="../../images/primaryKeys.png" width="11px" height="12px" preserveAspectRatio="xMinYMin meet" x="819.5" y="-136.7"/>
<text text-anchor="start" x="834.5" y="-126.8" font-family="Helvetica,sans-Serif" font-size="11.00" fill="#000000">RUP_DS_ID</text>
<polygon fill="none" stroke="#000000" points="814.5,-97.7 814.5,-119.7 977.5,-119.7 977.5,-97.7 814.5,-97.7"/>
<image xlink:href="../../images/primaryKeys.png" width="11px" height="12px" preserveAspectRatio="xMinYMin meet" x="819.5" y="-114.7"/>
<text text-anchor="start" x="834.5" y="-104.8" font-family="Helvetica,sans-Serif" font-size="11.00" fill="#000000">GEO_DS_ID</text>
<polygon fill="none" stroke="#000000" points="814.5,-75.7 814.5,-97.7 977.5,-97.7 977.5,-75.7 814.5,-75.7"/>
<image xlink:href="../../images/primaryKeys.png" width="11px" height="12px" preserveAspectRatio="xMinYMin meet" x="819.5" y="-92.7"/>
<text text-anchor="start" x="834.5" y="-82.8" font-family="Helvetica,sans-Serif" font-size="11.00" fill="#000000">RUP_ID</text>
<polygon fill="none" stroke="#000000" points="814.5,-56.7 814.5,-75.7 977.5,-75.7 977.5,-56.7 814.5,-56.7"/>
<text text-anchor="start" x="817.5" y="-62.8" font-family="Helvetica,sans-Serif" font-size="11.00" fill="#000000">...</text>
<polygon fill="#ffffff" stroke="transparent" points="814.5,-37.7 814.5,-56.7 881.5,-56.7 881.5,-37.7 814.5,-37.7"/>
<polygon fill="none" stroke="#000000" points="814.5,-37.7 814.5,-56.7 881.5,-56.7 881.5,-37.7 814.5,-37.7"/>
<text text-anchor="start" x="817.5" y="-43.8" font-family="Helvetica,sans-Serif" font-size="11.00" fill="#000000">&lt; 5</text>
<polygon fill="#ffffff" stroke="transparent" points="881.5,-37.7 881.5,-56.7 942.5,-56.7 942.5,-37.7 881.5,-37.7"/>
<polygon fill="none" stroke="#000000" points="881.5,-37.7 881.5,-56.7 942.5,-56.7 942.5,-37.7 881.5,-37.7"/>
<text text-anchor="start" x="907.1105" y="-43.8" font-family="Helvetica,sans-Serif" font-size="11.00" fill="#000000">0 rows</text>
<polygon fill="#ffffff" stroke="transparent" points="942.5,-37.7 942.5,-56.7 977.5,-56.7 977.5,-37.7 942.5,-37.7"/>
<polygon fill="none" stroke="#000000" points="942.5,-37.7 942.5,-56.7 977.5,-56.7 977.5,-37.7 942.5,-37.7"/>
<text text-anchor="start" x="968.3862" y="-43.8" font-family="Helvetica,sans-Serif" font-size="11.00" fill="#000000"> &#160;</text>
</a>
</g>
</g>
<!-- RUPOBS_geology&#45;&gt;METADATA_datasets -->
<g id="edge7" class="edge">
<title>RUPOBS_geology:w&#45;&gt;METADATA_datasets:e</title>
<path fill="none" stroke="#000000" d="M800.0864,-129.7225C791.6642,-128.4946 785.6044,-126.4566 773,-125.7 540.0859,-111.7196 460.0747,-28.3924 248,-125.7 211.7652,-142.3259 229.3671,-193.7 189.5,-193.7"/>
<polygon fill="#000000" stroke="#000000" points="806.5183,-130.1587 814.2564,-134.2917 810.5092,-130.4293 814.5,-130.7 814.5,-130.7 814.5,-130.7 810.5092,-130.4293 814.7436,-127.1083 806.5183,-130.1587 806.5183,-130.1587"/>
<ellipse fill="none" stroke="#000000" cx="803.3257" cy="-129.9421" rx="3.2" ry="3.2"/>
</g>
<!-- RUPOBS_geology&#45;&gt;METADATA_events -->
<g id="edge5" class="edge">
<title>RUPOBS_geology:w&#45;&gt;METADATA_events:e</title>
<path fill="none" stroke="#000000" d="M800.9434,-180.7519C769.7663,-215.2641 810.7309,-386.7907 773,-418.7 725.0017,-459.2925 270.3617,-401.7 207.5,-401.7"/>
<polygon fill="#000000" stroke="#000000" points="807.1949,-177.9612 815.9675,-177.9873 810.8474,-176.3306 814.5,-174.7 814.5,-174.7 814.5,-174.7 810.8474,-176.3306 813.0325,-171.4127 807.1949,-177.9612 807.1949,-177.9612"/>
<ellipse fill="none" stroke="#000000" cx="804.2728" cy="-179.2656" rx="3.2" ry="3.2"/>
</g>
<!-- RUPOBS_geology&#45;&gt;RUPOBS_location -->
<g id="edge6" class="edge">
<title>RUPOBS_geology:w&#45;&gt;RUPOBS_location:e</title>
<path fill="none" stroke="#000000" d="M799.9503,-154.9236C739.1051,-176.6766 848.6928,-350.7 763.5,-350.7"/>
<polygon fill="#000000" stroke="#000000" points="806.5918,-153.9087 815.0439,-156.2587 810.5459,-153.3043 814.5,-152.7 814.5,-152.7 814.5,-152.7 810.5459,-153.3043 813.9561,-149.1413 806.5918,-153.9087 806.5918,-153.9087"/>
<ellipse fill="none" stroke="#000000" cx="803.4286" cy="-154.3921" rx="3.2" ry="3.2"/>
</g>
<!-- RUPOBS_geology&#45;&gt;RUPOBS_id -->
<g id="edge8" class="edge">
<title>RUPOBS_geology:w&#45;&gt;RUPOBS_id:e</title>
<path fill="none" stroke="#000000" d="M799.7855,-86.6347C650.6547,-85.3267 590.3003,-65.7113 460,-149.7 433.2666,-166.9317 451.3057,-208.7 419.5,-208.7"/>
<polygon fill="#000000" stroke="#000000" points="806.5001,-86.6644 814.484,-90.3 810.5,-86.6822 814.5,-86.7 814.5,-86.7 814.5,-86.7 810.5,-86.6822 814.516,-83.1 806.5001,-86.6644 806.5001,-86.6644"/>
<ellipse fill="none" stroke="#000000" cx="803.3001" cy="-86.6502" rx="3.2" ry="3.2"/>
</g>
</g>
</svg>
